<svg width="109" height="33" viewBox="0 0 109 33" fill="none" xmlns="http://www.w3.org/2000/svg">
<circle cx="3.04984" cy="16.3897" r="3.04984" fill="#292929"/>
<circle cx="105.206" cy="16.3897" r="3.04984" fill="#292929"/>
<path fill-rule="evenodd" clip-rule="evenodd" d="M45.899 18.8708C36.1297 27.9698 21.0369 28.127 11.0802 19.2335C9.77893 18.0712 7.7818 18.1838 6.61949 19.4851C5.45718 20.7864 5.56983 22.7835 6.87109 23.9458C19.2629 35.0143 38.0469 34.8187 50.2054 23.4944L55.3909 18.6646L61.4512 13.1753C71.3083 4.24668 86.2577 4.01069 96.3918 12.6237C97.7213 13.7537 99.715 13.5919 100.845 12.2624C101.975 10.933 101.813 8.93921 100.484 7.80927C87.9325 -2.85806 69.4176 -2.56578 57.2094 8.49237L51.1167 14.0111L45.899 18.8708Z" fill="#292929"/>
<path fill-rule="evenodd" clip-rule="evenodd" d="M45.3259 13.3589C35.685 4.37956 20.8419 4.06088 10.8245 12.6182C9.49789 13.7515 7.50374 13.5947 6.37047 12.2681C5.23719 10.9415 5.39394 8.94731 6.72058 7.81404C19.1799 -2.82928 37.6412 -2.43291 49.6322 8.73535L55.1879 13.9098L60.8744 19.0606C70.8628 28.1081 86.0623 28.1801 96.136 19.2278C97.4402 18.0688 99.4371 18.1865 100.596 19.4907C101.755 20.7949 101.637 22.7917 100.333 23.9507C87.8485 35.0456 69.0115 34.9563 56.6326 23.7435L50.9136 18.5633L45.3259 13.3589Z" fill="#56BA70"/>
</svg>
