<svg width="144" height="130" viewBox="0 0 144 130" fill="none" xmlns="http://www.w3.org/2000/svg">
<circle cx="72" cy="65" r="62.5625" fill="#FF7800"/>
<mask id="mask0_762_17955" style="mask-type:alpha" maskUnits="userSpaceOnUse" x="9" y="2" width="126" height="126">
<circle cx="72" cy="65" r="62.5625" fill="#D9D9D9"/>
</mask>
<g mask="url(#mask0_762_17955)">
<path d="M51.5209 135.887C52.3627 123.379 51.2595 118.692 52.3818 117.689L91.7288 113.877C98.8605 133.919 91.5483 150.654 91.7288 174.742C95.6636 203.761 95.541 220.863 96.2104 230.074H80.1027C80.5493 227.002 77.3402 205.423 76.3589 179.661C73.1619 163.676 72.5332 136.007 71.8416 137.638C71.3196 138.869 71.4405 171.791 68.7354 179.292C66.0303 186.792 68.8526 223.967 68.7354 230.074H48.625C48.8354 225.364 50.8123 194.293 54.0352 172.898C54.8118 167.743 50.6792 148.395 51.5209 135.887Z" fill="#4D84A4"/>
<path d="M31.6808 48.4007C32.5753 48.6988 32.5753 53.4696 32.5753 54.6622C32.5753 55.5854 32.6528 56.9131 33.1717 58.2403C33.3232 58.6277 33.2479 58.7482 33.4774 59.2072C33.7755 59.8035 33.6165 60.3766 33.7192 60.6256C34.7926 63.229 37.8912 71.0373 39.4332 74.9379L40.0296 76.1305L35.2589 81.1994C32.8735 75.236 28.0431 63.2495 27.8046 63.011C27.566 62.7725 27.0057 62.0877 27.0057 61.4913C27.0057 60.895 27.0057 61.1106 26.0156 60.0293C25.0087 58.9298 23.6302 57.0476 23.0338 56.4512C22.4375 55.8549 22.4375 53.1714 22.4375 52.575C22.4375 51.9787 22.7357 51.6805 23.332 51.3823C23.9284 51.0842 23.332 50.786 23.6302 50.1896C23.9284 49.5933 24.5247 50.4878 24.5247 48.997C24.5247 47.8043 25.5186 47.7049 26.0156 47.8043C26.2143 47.8043 26.433 47.6254 25.7174 46.9098C24.8229 46.0152 23.332 41.5427 23.332 40.6482C23.332 39.7537 24.2265 39.1574 24.5247 40.0519C24.7632 40.7675 27.6058 45.3196 28.9973 47.5061L31.6808 48.4007Z" fill="#F7D0C8"/>
<path d="M48.3785 62.5667C49.8097 59.7043 51.1615 60.3801 51.6584 61.0759C53.1493 72.1082 56.131 94.7692 56.131 97.1546C56.131 99.5399 51.3602 103.516 48.9749 105.205C42.7133 107.292 30.4883 87.9113 29.5938 80.7552C33.47 73.599 38.5389 70.021 39.1352 70.021C39.7316 70.021 45.9932 75.9844 46.5895 75.9844C47.1858 75.9844 46.5895 66.1448 48.3785 62.5667Z" fill="#EAC35B"/>
<path d="M50.2688 60.778L66.9664 54.2182C72.2144 53.2641 78.8931 53.8207 81.5765 54.2182C88.1363 55.3115 101.017 57.8559 100.063 59.2871C98.8704 61.0762 92.0125 115.045 91.7143 116.238C91.4162 117.431 79.6206 119.03 73.8241 119.518C70.8174 119.771 56.0123 118.292 53.2505 117.43C50.4887 116.569 49.0037 112.513 50.2688 110.274C51.2528 108.533 53.2505 85.8244 52.0578 84.3335C50.8651 82.8427 52.6542 75.6866 53.2505 74.4939C53.7276 73.5397 51.4615 64.9524 50.2688 60.778Z" fill="url(#paint0_linear_762_17955)"/>
<g filter="url(#filter0_d_762_17955)">
<path d="M61.2109 53.9211L66.578 50.9394L83.8719 49.1504C85.2634 50.4425 88.0463 53.5633 88.0463 55.7102C88.0463 57.857 79.4988 69.3266 75.225 74.7931C79.6975 85.8254 77.6103 92.6834 75.8213 92.6834C74.3901 92.6834 72.8396 83.3407 72.2433 78.6693C71.7662 81.0547 68.9634 89.7017 66.578 92.6834C65.1468 88.3897 68.7646 78.9675 70.7524 74.7931L61.2109 53.9211Z" fill="#F3CE69"/>
</g>
<path d="M73.2899 78.9261C73.7252 77.3014 75.3952 76.3373 77.0198 76.7726L95.0793 81.6116C96.7823 82.0679 97.7432 83.8705 97.1727 85.5388L88.872 109.812C88.4678 110.994 87.3832 111.809 86.1357 111.869L68.3485 112.719C66.2877 112.818 64.7274 110.882 65.2614 108.889L73.2899 78.9261Z" fill="url(#paint1_linear_762_17955)"/>
<path d="M96.3904 112.657C90.904 113.373 84.3133 103.139 84.0151 101.946C83.7169 100.753 83.7165 100.157 85.5055 99.8587C87.2945 99.5606 92.3634 102.244 95.047 104.629C97.1938 106.538 96.8873 110.769 96.3904 112.657Z" fill="#E8BE4F"/>
<path d="M80.88 101.331C81.4764 102.226 81.7746 104.611 83.5636 104.611C87.241 103.021 95.0132 99.3633 96.683 97.4551C98.7702 95.0697 103.839 96.5605 103.541 98.9459C103.243 101.331 101.156 108.487 79.0909 110.276C67.4622 110.276 65.375 104.015 65.375 102.226C65.375 100.437 68.3567 96.5605 68.6549 98.9459C68.9531 101.331 78.1965 101.629 75.513 100.437C73.3661 99.4826 73.227 97.4551 73.4258 96.5605C73.4258 95.9642 74.3203 95.9642 74.6184 96.5605C74.9166 97.1569 75.8111 98.0514 77.302 98.6477C78.7928 99.2441 80.2837 100.437 80.88 101.331Z" fill="#F7D0C8"/>
<path d="M99.3587 58.0959C90.0558 57.3802 93.9927 74.5946 95.4836 83.1421C96.2613 90.0001 79.0836 101.032 85.3452 101.927C90.3544 102.643 95.4841 112.661 96.3778 112.661C97.2715 112.661 104.308 104.312 105.024 103.12C105.918 101.629 104.428 90.8947 104.129 86.4221C103.831 81.9495 107.111 58.9904 99.3587 58.0959Z" fill="#F4D06F"/>
<path d="M70.0665 55.2396L69.2578 40.4143L80.8486 37.9883L80.0399 52.2745L73.0315 65.7522L70.0665 55.2396Z" fill="url(#paint2_linear_762_17955)"/>
<path d="M70.1167 43.1684C70.8454 39.3928 72.4388 35.5778 70.7995 32.1792C69.2054 30.3303 63.5519 28.4052 61.2824 33.7018C58.9989 39.0311 60.5211 41.9165 60.5211 46.2643C60.5211 51.2132 62.0438 53.1166 54.8115 57.6848C49.6117 60.9692 54.4312 72.5312 56.3342 67.5827C58.2372 62.6341 62.3646 63.2546 68.5158 57.3045C70.9873 54.9138 69.2057 47.8879 70.1167 43.1684Z" fill="url(#paint3_linear_762_17955)"/>
<ellipse cx="62.9329" cy="34.7524" rx="2.15642" ry="4.58239" transform="rotate(-8.89629 62.9329 34.7524)" fill="#F5BEB5"/>
<path d="M80.0545 49.3101C80.0545 45.4285 78.2578 35.3832 80.0548 32.3282C81.5822 30.8008 88.3034 29.6328 90.0285 35.0238C92.1849 41.7626 89.4897 44.1889 88.1409 48.2319C86.5381 53.036 84.4584 55.585 90.5669 63.0572C93.6427 66.8198 90.0285 75.7262 89.2188 71.4133C86.0291 62.6323 85.2677 69.4846 80.0543 63.5963C78.1215 61.4134 80.0545 54.162 80.0545 49.3101Z" fill="url(#paint4_linear_762_17955)"/>
<ellipse cx="85.8909" cy="34.7519" rx="2.69552" ry="4.58239" transform="rotate(13.4592 85.8909 34.7519)" fill="#F5BEB5"/>
<path d="M73.3018 46.8872C66.948 46.8872 63.0203 38.1032 62.2501 33.14L60.6328 25.8364L73.7253 16.1582L87.588 19.8806L86.5098 33.14C85.2262 37.1105 79.6555 46.8872 73.3018 46.8872Z" fill="#FFD4CB"/>
<path d="M72.4063 35.7891C72.4063 35.99 72.2167 36.4226 71.9966 36.769C71.924 36.8832 71.923 37.0316 72.0042 37.1399L72.4063 37.6759" stroke="#2A190D" stroke-width="0.368879" stroke-linecap="round"/>
<path d="M74.9224 40.1504H71.147C70.8983 40.1504 70.7158 40.3855 70.8052 40.6175C71.0919 41.3616 71.6859 42.2361 72.8608 42.2361C74.0408 42.2361 74.8694 41.3539 75.2385 40.6078C75.3488 40.3849 75.171 40.1504 74.9224 40.1504Z" fill="url(#paint5_linear_762_17955)"/>
<mask id="mask1_762_17955" style="mask-type:alpha" maskUnits="userSpaceOnUse" x="70" y="39" width="6" height="4">
<path d="M72.8763 42.2342C74.0806 42.2342 74.919 41.3153 75.2764 40.5599C75.3755 40.3503 75.2222 40.1261 74.9917 40.1012L72.98 39.8836C72.9515 39.8805 72.9226 39.8806 72.8941 39.884L71.1037 40.0971C70.8751 40.1243 70.7213 40.3473 70.8011 40.5633C71.0798 41.318 71.6738 42.2342 72.8763 42.2342Z" fill="#D9D9D9"/>
</mask>
<g mask="url(#mask1_762_17955)">
<rect x="69.6984" y="38.9386" width="6.35584" height="1.92425" fill="white" stroke="#2A190D" stroke-width="0.368879"/>
</g>
<path d="M72.8611 42.2358C74.0863 42.2358 74.9327 41.2848 75.2792 40.5224C75.3687 40.3254 75.2361 40.1171 75.0214 40.0909C74.6303 40.0431 73.9319 39.9817 72.8611 39.9685C71.8217 39.9557 71.2431 40.0178 70.9393 40.0728C70.7618 40.1049 70.6709 40.2757 70.7288 40.4465C70.991 41.22 71.5949 42.2358 72.8611 42.2358Z" stroke="#2A190D" stroke-width="0.368879" stroke-linecap="round"/>
<ellipse cx="68.9962" cy="34.4884" rx="0.808657" ry="1.07821" fill="#2A190D"/>
<ellipse cx="68.4286" cy="37.1398" rx="1.47552" ry="1.10664" fill="#E1745F" fill-opacity="0.8"/>
<ellipse cx="78.0146" cy="37.1398" rx="1.47552" ry="1.10664" fill="#E1745F" fill-opacity="0.8"/>
<ellipse cx="77.6133" cy="34.4884" rx="0.808657" ry="1.07821" fill="#2A190D"/>
<path d="M70.8832 28.8291C69.6253 28.5595 67.769 28.581 66.0312 30.0154" stroke="#2A190D" stroke-width="0.368879" stroke-linecap="round"/>
<path d="M81.5152 29.9028C80.2816 28.5788 78.4927 28.2807 76.285 29.0717" stroke="#2A190D" stroke-width="0.368879" stroke-linecap="round"/>
<path d="M71.5346 17.818C73.0812 17.5523 80.0399 18.4563 80.0399 21.0081C80.0398 21.008 80.0397 21.008 80.0395 21.008L76.1741 20.2103C73.8327 19.9079 71.032 19.8516 69.9883 20.2104C68.1327 20.8484 70.246 18.8813 71.5346 17.818Z" fill="#0A0401"/>
<path d="M86.3865 36.4013C80.3964 37.0557 79.4287 21.5697 78.0976 19.6066C77.0328 18.0362 76.5306 19.2735 75.8647 19.928C74.0898 18.8374 72.2402 15.2878 78.0972 13.7173C85.4184 11.7542 86.4567 18.6921 89.2146 22.8756C91.6665 26.5948 92.3766 35.7469 86.3865 36.4013Z" fill="url(#paint6_linear_762_17955)"/>
<path d="M69.1131 21.5713C74.2983 16.4243 75.5181 19.5165 76.0357 20.0302L78.429 13.8652C62.9025 6.15916 57.7935 27.113 58.2637 33.9581C58.4816 37.1292 62.8945 38.7228 64.1296 37.5066C71.688 30.0638 65.2314 25.4243 69.1131 21.5713Z" fill="url(#paint7_linear_762_17955)"/>
<circle cx="85.6212" cy="39.6075" r="1.34776" fill="white"/>
<circle cx="62.6681" cy="39.6075" r="1.34776" fill="white"/>
<path d="M31.6808 48.4007C32.5753 48.6988 32.5753 53.4696 32.5753 54.6622C32.5753 55.5854 32.6528 56.9131 33.1717 58.2403C33.3232 58.6277 33.2479 58.7482 33.4774 59.2072C33.7755 59.8035 33.6165 60.3766 33.7192 60.6256C34.7926 63.229 37.8912 71.0373 39.4332 74.9379L40.0296 76.1305L35.2589 81.1994C32.8735 75.236 28.0431 63.2495 27.8046 63.011C27.566 62.7725 27.0057 62.0877 27.0057 61.4913C27.0057 60.895 27.0057 61.1106 26.0156 60.0293C25.0087 58.9298 23.6302 57.0476 23.0338 56.4512C22.4375 55.8549 22.4375 53.1714 22.4375 52.575C22.4375 51.9787 22.7357 51.6805 23.332 51.3823C23.9284 51.0842 23.332 50.786 23.6302 50.1896C23.9284 49.5933 24.5247 50.4878 24.5247 48.997C24.5247 47.8043 25.5186 47.7049 26.0156 47.8043C26.2143 47.8043 26.433 47.6254 25.7174 46.9098C24.8229 46.0152 23.332 41.5427 23.332 40.6482C23.332 39.7537 24.2265 39.1574 24.5247 40.0519C24.7632 40.7675 27.6058 45.3196 28.9973 47.5061L31.6808 48.4007Z" fill="#F7D0C8"/>
<path d="M48.3785 62.5667C49.8097 59.7043 51.1615 60.3801 51.6584 61.0759C53.1493 72.1082 56.131 94.7692 56.131 97.1546C56.131 99.5399 51.3602 103.516 48.9749 105.205C42.7133 107.292 30.4883 87.9113 29.5938 80.7552C33.47 73.599 38.5389 70.021 39.1352 70.021C39.7316 70.021 45.9932 75.9844 46.5895 75.9844C47.1858 75.9844 46.5895 66.1448 48.3785 62.5667Z" fill="#EAC35B"/>
<path d="M50.2688 60.778L66.9664 54.2182C72.2144 53.2641 78.8931 53.8207 81.5765 54.2182C88.1363 55.3115 101.017 57.8559 100.063 59.2871C98.8704 61.0762 92.0125 115.045 91.7143 116.238C91.4162 117.431 79.6206 119.03 73.8241 119.518C70.8174 119.771 56.0123 118.292 53.2505 117.43C50.4887 116.569 49.0037 112.513 50.2688 110.274C51.2528 108.533 53.2505 85.8244 52.0578 84.3335C50.8651 82.8427 52.6542 75.6866 53.2505 74.4939C53.7276 73.5397 51.4615 64.9524 50.2688 60.778Z" fill="url(#paint8_linear_762_17955)"/>
<g filter="url(#filter1_d_762_17955)">
<path d="M61.2109 53.9211L66.578 50.9394L83.8719 49.1504C85.2634 50.4425 88.0463 53.5633 88.0463 55.7102C88.0463 57.857 79.4988 69.3266 75.225 74.7931C79.6975 85.8254 77.6103 92.6834 75.8213 92.6834C74.3901 92.6834 72.8396 83.3407 72.2433 78.6693C71.7662 81.0547 68.9634 89.7017 66.578 92.6834C65.1468 88.3897 68.7646 78.9675 70.7524 74.7931L61.2109 53.9211Z" fill="#F3CE69"/>
</g>
<path d="M73.2899 78.9261C73.7252 77.3014 75.3952 76.3373 77.0198 76.7726L95.0793 81.6116C96.7823 82.0679 97.7432 83.8705 97.1727 85.5388L88.872 109.812C88.4678 110.994 87.3832 111.809 86.1357 111.869L68.3485 112.719C66.2877 112.818 64.7274 110.882 65.2614 108.889L73.2899 78.9261Z" fill="url(#paint9_linear_762_17955)"/>
<path d="M96.3904 112.657C90.904 113.373 84.3133 103.139 84.0151 101.946C83.7169 100.753 83.7165 100.157 85.5055 99.8587C87.2945 99.5606 92.3634 102.244 95.047 104.629C97.1938 106.538 96.8873 110.769 96.3904 112.657Z" fill="#E8BE4F"/>
<path d="M80.88 101.331C81.4764 102.226 81.7746 104.611 83.5636 104.611C87.241 103.021 95.0132 99.3633 96.683 97.4551C98.7702 95.0697 103.839 96.5605 103.541 98.9459C103.243 101.331 101.156 108.487 79.0909 110.276C67.4622 110.276 65.375 104.015 65.375 102.226C65.375 100.437 68.3567 96.5605 68.6549 98.9459C68.9531 101.331 78.1965 101.629 75.513 100.437C73.3661 99.4826 73.227 97.4551 73.4258 96.5605C73.4258 95.9642 74.3203 95.9642 74.6184 96.5605C74.9166 97.1569 75.8111 98.0514 77.302 98.6477C78.7928 99.2441 80.2837 100.437 80.88 101.331Z" fill="#F7D0C8"/>
<path d="M99.3587 58.0959C90.0558 57.3802 93.9927 74.5946 95.4836 83.1421C96.2613 90.0001 79.0836 101.032 85.3452 101.927C90.3544 102.643 95.4841 112.661 96.3778 112.661C97.2715 112.661 104.308 104.312 105.024 103.12C105.918 101.629 104.428 90.8947 104.129 86.4221C103.831 81.9495 107.111 58.9904 99.3587 58.0959Z" fill="#F4D06F"/>
<path d="M70.0665 55.2396L69.2578 40.4143L80.8486 37.9883L80.0399 52.2745L73.0315 65.7522L70.0665 55.2396Z" fill="url(#paint10_linear_762_17955)"/>
<path d="M70.1167 43.1684C70.8454 39.3928 72.4388 35.5778 70.7995 32.1792C69.2054 30.3303 63.5519 28.4052 61.2824 33.7018C58.9989 39.0311 60.5211 41.9165 60.5211 46.2643C60.5211 51.2132 62.0438 53.1166 54.8115 57.6848C49.6117 60.9692 54.4312 72.5312 56.3342 67.5827C58.2372 62.6341 62.3646 63.2546 68.5158 57.3045C70.9873 54.9138 69.2057 47.8879 70.1167 43.1684Z" fill="url(#paint11_linear_762_17955)"/>
<ellipse cx="62.9329" cy="34.7524" rx="2.15642" ry="4.58239" transform="rotate(-8.89629 62.9329 34.7524)" fill="#F5BEB5"/>
<path d="M80.0545 49.3101C80.0545 45.4285 78.2578 35.3832 80.0548 32.3282C81.5822 30.8008 88.3034 29.6328 90.0285 35.0238C92.1849 41.7626 89.4897 44.1889 88.1409 48.2319C86.5381 53.036 84.4584 55.585 90.5669 63.0572C93.6427 66.8198 90.0285 75.7262 89.2188 71.4133C86.0291 62.6323 85.2677 69.4846 80.0543 63.5963C78.1215 61.4134 80.0545 54.162 80.0545 49.3101Z" fill="url(#paint12_linear_762_17955)"/>
<ellipse cx="85.8909" cy="34.7519" rx="2.69552" ry="4.58239" transform="rotate(13.4592 85.8909 34.7519)" fill="#F5BEB5"/>
<path d="M73.3018 46.8872C66.948 46.8872 63.0203 38.1032 62.2501 33.14L60.6328 25.8364L73.7253 16.1582L87.588 19.8806L86.5098 33.14C85.2262 37.1105 79.6555 46.8872 73.3018 46.8872Z" fill="#FFD4CB"/>
<path d="M72.4063 35.7891C72.4063 35.99 72.2167 36.4226 71.9966 36.769C71.924 36.8832 71.923 37.0316 72.0042 37.1399L72.4063 37.6759" stroke="#2A190D" stroke-width="0.368879" stroke-linecap="round"/>
<path d="M74.9224 40.1504H71.147C70.8983 40.1504 70.7158 40.3855 70.8052 40.6175C71.0919 41.3616 71.6859 42.2361 72.8608 42.2361C74.0408 42.2361 74.8694 41.3539 75.2385 40.6078C75.3488 40.3849 75.171 40.1504 74.9224 40.1504Z" fill="url(#paint13_linear_762_17955)"/>
<mask id="mask2_762_17955" style="mask-type:alpha" maskUnits="userSpaceOnUse" x="70" y="39" width="6" height="4">
<path d="M72.8763 42.2342C74.0806 42.2342 74.919 41.3153 75.2764 40.5599C75.3755 40.3503 75.2222 40.1261 74.9917 40.1012L72.98 39.8836C72.9515 39.8805 72.9226 39.8806 72.8941 39.884L71.1037 40.0971C70.8751 40.1243 70.7213 40.3473 70.8011 40.5633C71.0798 41.318 71.6738 42.2342 72.8763 42.2342Z" fill="#D9D9D9"/>
</mask>
<g mask="url(#mask2_762_17955)">
<rect x="69.6984" y="38.9386" width="6.35584" height="1.92425" fill="white" stroke="#2A190D" stroke-width="0.368879"/>
</g>
<path d="M72.8611 42.2358C74.0863 42.2358 74.9327 41.2848 75.2792 40.5224C75.3687 40.3254 75.2361 40.1171 75.0214 40.0909C74.6303 40.0431 73.9319 39.9817 72.8611 39.9685C71.8217 39.9557 71.2431 40.0178 70.9393 40.0728C70.7618 40.1049 70.6709 40.2757 70.7288 40.4465C70.991 41.22 71.5949 42.2358 72.8611 42.2358Z" stroke="#2A190D" stroke-width="0.368879" stroke-linecap="round"/>
<ellipse cx="68.9962" cy="34.4884" rx="0.808657" ry="1.07821" fill="#2A190D"/>
<ellipse cx="68.4286" cy="37.1398" rx="1.47552" ry="1.10664" fill="#E1745F" fill-opacity="0.8"/>
<ellipse cx="78.0146" cy="37.1398" rx="1.47552" ry="1.10664" fill="#E1745F" fill-opacity="0.8"/>
<ellipse cx="77.6133" cy="34.4884" rx="0.808657" ry="1.07821" fill="#2A190D"/>
<path d="M70.8832 28.8291C69.6253 28.5595 67.769 28.581 66.0312 30.0154" stroke="#2A190D" stroke-width="0.368879" stroke-linecap="round"/>
<path d="M81.5152 29.9028C80.2816 28.5788 78.4927 28.2807 76.285 29.0717" stroke="#2A190D" stroke-width="0.368879" stroke-linecap="round"/>
<path d="M71.5346 17.818C73.0812 17.5523 80.0399 18.4563 80.0399 21.0081C80.0398 21.008 80.0397 21.008 80.0395 21.008L76.1741 20.2103C73.8327 19.9079 71.032 19.8516 69.9883 20.2104C68.1327 20.8484 70.246 18.8813 71.5346 17.818Z" fill="#0A0401"/>
<path d="M86.3865 36.4013C80.3964 37.0557 79.4287 21.5697 78.0976 19.6066C77.0328 18.0362 76.5306 19.2735 75.8647 19.928C74.0898 18.8374 72.2402 15.2878 78.0972 13.7173C85.4184 11.7542 86.4567 18.6921 89.2146 22.8756C91.6665 26.5948 92.3766 35.7469 86.3865 36.4013Z" fill="url(#paint14_linear_762_17955)"/>
<path d="M69.1131 21.5713C74.2983 16.4243 75.5181 19.5165 76.0357 20.0302L78.429 13.8652C62.9025 6.15916 57.7935 27.113 58.2637 33.9581C58.4816 37.1292 62.8945 38.7228 64.1296 37.5066C71.688 30.0638 65.2314 25.4243 69.1131 21.5713Z" fill="url(#paint15_linear_762_17955)"/>
<circle cx="85.6212" cy="39.6075" r="1.34776" fill="white"/>
<circle cx="62.6681" cy="39.6075" r="1.34776" fill="white"/>
</g>
<defs>
<filter id="filter0_d_762_17955" x="59.6882" y="49.1504" width="29.8814" height="46.5787" filterUnits="userSpaceOnUse" color-interpolation-filters="sRGB">
<feFlood flood-opacity="0" result="BackgroundImageFix"/>
<feColorMatrix in="SourceAlpha" type="matrix" values="0 0 0 0 0 0 0 0 0 0 0 0 0 0 0 0 0 0 127 0" result="hardAlpha"/>
<feOffset dy="1.52274"/>
<feGaussianBlur stdDeviation="0.761369"/>
<feComposite in2="hardAlpha" operator="out"/>
<feColorMatrix type="matrix" values="0 0 0 0 0.575 0 0 0 0 0.463459 0 0 0 0 0.162917 0 0 0 0.2 0"/>
<feBlend mode="normal" in2="BackgroundImageFix" result="effect1_dropShadow_762_17955"/>
<feBlend mode="normal" in="SourceGraphic" in2="effect1_dropShadow_762_17955" result="shape"/>
</filter>
<filter id="filter1_d_762_17955" x="59.6882" y="49.1504" width="29.8814" height="46.5787" filterUnits="userSpaceOnUse" color-interpolation-filters="sRGB">
<feFlood flood-opacity="0" result="BackgroundImageFix"/>
<feColorMatrix in="SourceAlpha" type="matrix" values="0 0 0 0 0 0 0 0 0 0 0 0 0 0 0 0 0 0 127 0" result="hardAlpha"/>
<feOffset dy="1.52274"/>
<feGaussianBlur stdDeviation="0.761369"/>
<feComposite in2="hardAlpha" operator="out"/>
<feColorMatrix type="matrix" values="0 0 0 0 0.575 0 0 0 0 0.463459 0 0 0 0 0.162917 0 0 0 0.2 0"/>
<feBlend mode="normal" in2="BackgroundImageFix" result="effect1_dropShadow_762_17955"/>
<feBlend mode="normal" in="SourceGraphic" in2="effect1_dropShadow_762_17955" result="shape"/>
</filter>
<linearGradient id="paint0_linear_762_17955" x1="74.9945" y1="53.6914" x2="74.9945" y2="119.773" gradientUnits="userSpaceOnUse">
<stop stop-color="#F4D06F"/>
<stop offset="1" stop-color="#EEC452"/>
</linearGradient>
<linearGradient id="paint1_linear_762_17955" x1="86.1527" y1="79.2197" x2="76.2563" y2="116.154" gradientUnits="userSpaceOnUse">
<stop stop-color="white"/>
<stop offset="0.0001" stop-color="#F1F1F1"/>
<stop offset="0.119792" stop-color="#D9D9D9"/>
<stop offset="1" stop-color="#787878"/>
</linearGradient>
<linearGradient id="paint2_linear_762_17955" x1="75.0532" y1="41.762" x2="75.0532" y2="50.3877" gradientUnits="userSpaceOnUse">
<stop stop-color="#B97D74"/>
<stop offset="1" stop-color="#F5BEB5"/>
</linearGradient>
<linearGradient id="paint3_linear_762_17955" x1="67.5158" y1="24.2418" x2="59.7495" y2="64.4761" gradientUnits="userSpaceOnUse">
<stop stop-color="#120802"/>
<stop offset="1" stop-color="#754C31"/>
</linearGradient>
<linearGradient id="paint4_linear_762_17955" x1="84.9509" y1="31.0488" x2="84.9509" y2="72.4123" gradientUnits="userSpaceOnUse">
<stop stop-color="#120802"/>
<stop offset="1" stop-color="#754C31"/>
</linearGradient>
<linearGradient id="paint5_linear_762_17955" x1="72.8608" y1="40.4199" x2="72.8608" y2="42.2361" gradientUnits="userSpaceOnUse">
<stop stop-color="#CE3D21"/>
<stop offset="1" stop-color="#F2A99B"/>
</linearGradient>
<linearGradient id="paint6_linear_762_17955" x1="83.0124" y1="13.4586" x2="83.0124" y2="36.6401" gradientUnits="userSpaceOnUse">
<stop stop-color="#342216"/>
<stop offset="0.359375" stop-color="#4A2E1C"/>
<stop offset="0.723958" stop-color="#342216"/>
</linearGradient>
<linearGradient id="paint7_linear_762_17955" x1="67.9165" y1="12.3806" x2="58.2307" y2="35.983" gradientUnits="userSpaceOnUse">
<stop stop-color="#342216"/>
<stop offset="0.364583" stop-color="#412D1F"/>
<stop offset="0.744792" stop-color="#342216"/>
</linearGradient>
<linearGradient id="paint8_linear_762_17955" x1="74.9945" y1="53.6914" x2="74.9945" y2="119.773" gradientUnits="userSpaceOnUse">
<stop stop-color="#F4D06F"/>
<stop offset="1" stop-color="#EEC452"/>
</linearGradient>
<linearGradient id="paint9_linear_762_17955" x1="86.1527" y1="79.2197" x2="76.2563" y2="116.154" gradientUnits="userSpaceOnUse">
<stop stop-color="white"/>
<stop offset="0.0001" stop-color="#F1F1F1"/>
<stop offset="0.119792" stop-color="#D9D9D9"/>
<stop offset="1" stop-color="#787878"/>
</linearGradient>
<linearGradient id="paint10_linear_762_17955" x1="75.0532" y1="41.762" x2="75.0532" y2="50.3877" gradientUnits="userSpaceOnUse">
<stop stop-color="#B97D74"/>
<stop offset="1" stop-color="#F5BEB5"/>
</linearGradient>
<linearGradient id="paint11_linear_762_17955" x1="67.5158" y1="24.2418" x2="59.7495" y2="64.4761" gradientUnits="userSpaceOnUse">
<stop stop-color="#120802"/>
<stop offset="1" stop-color="#754C31"/>
</linearGradient>
<linearGradient id="paint12_linear_762_17955" x1="84.9509" y1="31.0488" x2="84.9509" y2="72.4123" gradientUnits="userSpaceOnUse">
<stop stop-color="#120802"/>
<stop offset="1" stop-color="#754C31"/>
</linearGradient>
<linearGradient id="paint13_linear_762_17955" x1="72.8608" y1="40.4199" x2="72.8608" y2="42.2361" gradientUnits="userSpaceOnUse">
<stop stop-color="#CE3D21"/>
<stop offset="1" stop-color="#F2A99B"/>
</linearGradient>
<linearGradient id="paint14_linear_762_17955" x1="83.0124" y1="13.4586" x2="83.0124" y2="36.6401" gradientUnits="userSpaceOnUse">
<stop stop-color="#342216"/>
<stop offset="0.359375" stop-color="#4A2E1C"/>
<stop offset="0.723958" stop-color="#342216"/>
</linearGradient>
<linearGradient id="paint15_linear_762_17955" x1="67.9165" y1="12.3806" x2="58.2307" y2="35.983" gradientUnits="userSpaceOnUse">
<stop stop-color="#342216"/>
<stop offset="0.364583" stop-color="#412D1F"/>
<stop offset="0.744792" stop-color="#342216"/>
</linearGradient>
</defs>
</svg>
