<svg width="144" height="130" viewBox="0 0 144 130" fill="none" xmlns="http://www.w3.org/2000/svg">
<path d="M53.2362 120.086L15.9375 95.4688L24.0625 90.5938L74.4375 62.9688L79.3125 59.7188L120.679 84.4051C124.823 86.878 124.922 92.8448 120.863 95.4543L109.047 103.05C107.689 103.923 106.056 104.259 104.464 103.994L94.5872 102.348C93.1156 102.103 91.6046 102.371 90.3075 103.108L60.0277 120.312C57.9015 121.52 55.2772 121.433 53.2362 120.086Z" fill="#F4A700"/>
<path d="M79.3125 18.5504V59.7188L74.4375 62.9688L24.0625 90.5938L15.9375 95.4688L14.42 34.0116C14.355 31.3766 15.8877 28.9632 18.3003 27.9016L31.0212 22.3044C33.2364 21.3297 35.8097 21.6665 37.6995 23.1783L39.4075 24.5448C41.4357 26.1673 44.2351 26.4267 46.5269 25.2044L69.7537 12.8168C74.0834 10.5076 79.3125 13.6434 79.3125 18.5504Z" fill="#FBCE3F"/>
<path d="M58.9683 114.393L26.2523 92.0868C25.25 91.4034 25.3228 89.9026 26.3864 89.3194L73.6289 63.4122C74.1304 63.1372 74.7396 63.146 75.2328 63.4356L109.407 83.4942C110.481 84.1246 110.476 85.6791 109.397 86.3024L60.6971 114.457C60.1563 114.77 59.4843 114.745 58.9683 114.393Z" fill="white"/>
</svg>
