<svg width="126" height="126" viewBox="0 0 126 126" fill="none" xmlns="http://www.w3.org/2000/svg">
<circle cx="62.5625" cy="62.5625" r="62.5625" fill="#FF7800"/>
<mask id="mask0_761_17043" style="mask-type:alpha" maskUnits="userSpaceOnUse" x="0" y="0" width="126" height="126">
<circle cx="62.5625" cy="62.5625" r="62.5625" fill="#D9D9D9"/>
</mask>
<g mask="url(#mask0_761_17043)">
<path d="M42.0834 133.449C42.9252 120.941 41.822 116.255 42.9443 115.251L82.2913 111.439C89.423 131.482 82.1108 148.217 82.2913 172.305C86.2261 201.323 86.1035 218.425 86.7729 227.636H70.6652C71.1118 224.564 67.9027 202.985 66.9214 177.223C63.7244 161.238 63.0957 133.569 62.4041 135.2C61.8821 136.432 62.003 169.354 59.2979 176.854C56.5928 184.355 59.4151 221.529 59.2979 227.636H39.1875C39.3979 222.927 41.3748 191.855 44.5977 170.46C45.3743 165.305 41.2417 145.957 42.0834 133.449Z" fill="#4D84A4"/>
<path d="M22.2433 45.9632C23.1378 46.2613 23.1378 51.0321 23.1378 52.2247C23.1378 53.1479 23.2153 54.4756 23.7342 55.8028C23.8857 56.1902 23.8104 56.3107 24.0399 56.7697C24.338 57.366 24.179 57.9391 24.2817 58.1881C25.3551 60.7915 28.4537 68.5998 29.9957 72.5004L30.5921 73.693L25.8214 78.7619C23.436 72.7985 18.6056 60.812 18.3671 60.5735C18.1285 60.335 17.5682 59.6502 17.5682 59.0538C17.5682 58.4575 17.5682 58.6731 16.5781 57.5918C15.5712 56.4923 14.1927 54.6101 13.5963 54.0137C13 53.4174 13 50.7339 13 50.1375C13 49.5412 13.2982 49.243 13.8945 48.9448C14.4909 48.6467 13.8945 48.3485 14.1927 47.7521C14.4909 47.1558 15.0872 48.0503 15.0872 46.5595C15.0872 45.3668 16.0811 45.2674 16.5781 45.3668C16.7768 45.3668 16.9955 45.1879 16.2799 44.4723C15.3854 43.5777 13.8945 39.1052 13.8945 38.2107C13.8945 37.3162 14.789 36.7199 15.0872 37.6144C15.3257 38.33 18.1683 42.8821 19.5598 45.0686L22.2433 45.9632Z" fill="#F7D0C8"/>
<path d="M38.941 60.1292C40.3722 57.2668 41.724 57.9426 42.2209 58.6384C43.7118 69.6707 46.6935 92.3317 46.6935 94.7171C46.6935 97.1024 41.9227 101.078 39.5374 102.768C33.2758 104.855 21.0508 85.4738 20.1562 78.3177C24.0325 71.1615 29.1014 67.5835 29.6977 67.5835C30.2941 67.5835 36.5557 73.5469 37.152 73.5469C37.7483 73.5469 37.152 63.7073 38.941 60.1292Z" fill="#EAC35B"/>
<path d="M40.8313 58.3405L57.5289 51.7807C62.7769 50.8266 69.4556 51.3832 72.139 51.7807C78.6988 52.874 91.5798 55.4184 90.6256 56.8496C89.4329 58.6387 82.575 112.608 82.2768 113.8C81.9787 114.993 70.1831 116.593 64.3866 117.08C61.3799 117.333 46.5748 115.855 43.813 114.993C41.0512 114.131 39.5662 110.076 40.8313 107.837C41.8153 106.095 43.813 83.3869 42.6203 81.896C41.4276 80.4052 43.2167 73.2491 43.813 72.0564C44.2901 71.1022 42.024 62.5149 40.8313 58.3405Z" fill="url(#paint0_linear_761_17043)"/>
<g filter="url(#filter0_d_761_17043)">
<path d="M51.7734 51.4836L57.1405 48.5019L74.4344 46.7129C75.8259 48.005 78.6088 51.1258 78.6088 53.2727C78.6088 55.4195 70.0613 66.8891 65.7875 72.3556C70.26 83.3879 68.1728 90.2459 66.3838 90.2459C64.9526 90.2459 63.4021 80.9032 62.8058 76.2318C62.3287 78.6172 59.5259 87.2642 57.1405 90.2459C55.7093 85.9522 59.3271 76.53 61.3149 72.3556L51.7734 51.4836Z" fill="#F3CE69"/>
</g>
<path d="M63.8524 76.4886C64.2877 74.8639 65.9577 73.8998 67.5823 74.3351L85.6418 79.1741C87.3448 79.6304 88.3057 81.433 87.7352 83.1013L79.4345 107.375C79.0303 108.557 77.9457 109.372 76.6982 109.431L58.911 110.282C56.8502 110.38 55.2899 108.444 55.8239 106.451L63.8524 76.4886Z" fill="url(#paint1_linear_761_17043)"/>
<path d="M86.9529 110.22C81.4665 110.935 74.8758 100.701 74.5776 99.5085C74.2794 98.3158 74.279 97.7194 76.068 97.4212C77.857 97.1231 82.9259 99.8066 85.6095 102.192C87.7563 104.1 87.4498 108.331 86.9529 110.22Z" fill="#E8BE4F"/>
<path d="M71.4425 98.8938C72.0389 99.7883 72.3371 102.174 74.1261 102.174C77.8035 100.583 85.5757 96.9258 87.2455 95.0176C89.3327 92.6322 94.4016 94.123 94.1034 96.5084C93.8052 98.8938 91.718 106.05 69.6534 107.839C58.0247 107.839 55.9375 101.577 55.9375 99.7883C55.9375 97.9993 58.9192 94.123 59.2174 96.5084C59.5156 98.8938 68.759 99.1919 66.0755 97.9993C63.9286 97.0451 63.7895 95.0176 63.9883 94.123C63.9883 93.5267 64.8828 93.5267 65.1809 94.123C65.4791 94.7194 66.3736 95.6139 67.8645 96.2102C69.3553 96.8066 70.8462 97.9993 71.4425 98.8938Z" fill="#F7D0C8"/>
<path d="M89.9212 55.6584C80.6183 54.9427 84.5552 72.1571 86.0461 80.7046C86.8238 87.5626 69.6461 98.595 75.9077 99.4895C80.9169 100.205 86.0466 110.223 86.9403 110.224C87.834 110.224 94.8709 101.875 95.5865 100.682C96.481 99.1913 94.9901 88.4572 94.692 83.9846C94.3938 79.512 97.6737 56.5529 89.9212 55.6584Z" fill="#F4D06F"/>
<path d="M60.629 52.8021L59.8203 37.9768L71.4111 35.5508L70.6024 49.837L63.594 63.3147L60.629 52.8021Z" fill="url(#paint2_linear_761_17043)"/>
<path d="M60.6792 40.7309C61.4079 36.9553 63.0013 33.1403 61.362 29.7417C59.7679 27.8928 54.1144 25.9677 51.8449 31.2643C49.5614 36.5936 51.0836 39.479 51.0836 43.8268C51.0836 48.7757 52.6063 50.6791 45.374 55.2473C40.1742 58.5317 44.9937 70.0937 46.8967 65.1452C48.7997 60.1966 52.9271 60.8171 59.0783 54.867C61.5498 52.4763 59.7682 45.4504 60.6792 40.7309Z" fill="url(#paint3_linear_761_17043)"/>
<ellipse cx="53.4954" cy="32.3149" rx="2.15642" ry="4.58239" transform="rotate(-8.89629 53.4954 32.3149)" fill="#F5BEB5"/>
<path d="M70.617 46.8726C70.617 42.991 68.8203 32.9457 70.6173 29.8907C72.1447 28.3633 78.8659 27.1953 80.591 32.5863C82.7474 39.3251 80.0522 41.7514 78.7034 45.7944C77.1006 50.5985 75.0209 53.1475 81.1294 60.6197C84.2052 64.3823 80.591 73.2887 79.7813 68.9758C76.5916 60.1948 75.8302 67.0471 70.6168 61.1588C68.684 58.9759 70.617 51.7245 70.617 46.8726Z" fill="url(#paint4_linear_761_17043)"/>
<ellipse cx="76.4534" cy="32.3144" rx="2.69552" ry="4.58239" transform="rotate(13.4592 76.4534 32.3144)" fill="#F5BEB5"/>
<path d="M63.8643 44.4497C57.5105 44.4497 53.5828 35.6657 52.8126 30.7025L51.1953 23.3989L64.2878 13.7207L78.1505 17.4431L77.0723 30.7025C75.7887 34.673 70.218 44.4497 63.8643 44.4497Z" fill="#FFD4CB"/>
<path d="M62.9688 33.3516C62.9688 33.5525 62.7792 33.9851 62.5591 34.3315C62.4865 34.4457 62.4855 34.5941 62.5667 34.7024L62.9688 35.2384" stroke="#2A190D" stroke-width="0.368879" stroke-linecap="round"/>
<path d="M65.4849 37.7129H61.7095C61.4608 37.7129 61.2783 37.948 61.3677 38.18C61.6544 38.9241 62.2484 39.7986 63.4233 39.7986C64.6033 39.7986 65.4319 38.9164 65.801 38.1703C65.9113 37.9474 65.7335 37.7129 65.4849 37.7129Z" fill="url(#paint5_linear_761_17043)"/>
<mask id="mask1_761_17043" style="mask-type:alpha" maskUnits="userSpaceOnUse" x="61" y="37" width="5" height="3">
<path d="M63.4388 39.7967C64.6431 39.7967 65.4815 38.8778 65.8389 38.1224C65.938 37.9128 65.7847 37.6886 65.5542 37.6637L63.5425 37.4461C63.514 37.443 63.4851 37.4431 63.4566 37.4465L61.6662 37.6596C61.4376 37.6868 61.2838 37.9098 61.3636 38.1258C61.6423 38.8805 62.2363 39.7967 63.4388 39.7967Z" fill="#D9D9D9"/>
</mask>
<g mask="url(#mask1_761_17043)">
<rect x="60.2609" y="36.5011" width="6.35584" height="1.92425" fill="white" stroke="#2A190D" stroke-width="0.368879"/>
</g>
<path d="M63.4236 39.7983C64.6488 39.7983 65.4952 38.8473 65.8417 38.0849C65.9312 37.8879 65.7986 37.6796 65.5839 37.6534C65.1928 37.6056 64.4944 37.5442 63.4236 37.531C62.3842 37.5182 61.8056 37.5803 61.5018 37.6353C61.3243 37.6674 61.2334 37.8382 61.2913 38.009C61.5535 38.7825 62.1574 39.7983 63.4236 39.7983Z" stroke="#2A190D" stroke-width="0.368879" stroke-linecap="round"/>
<ellipse cx="59.5587" cy="32.0509" rx="0.808657" ry="1.07821" fill="#2A190D"/>
<ellipse cx="58.9911" cy="34.7023" rx="1.47552" ry="1.10664" fill="#E1745F" fill-opacity="0.8"/>
<ellipse cx="68.5771" cy="34.7023" rx="1.47552" ry="1.10664" fill="#E1745F" fill-opacity="0.8"/>
<ellipse cx="68.1758" cy="32.0509" rx="0.808657" ry="1.07821" fill="#2A190D"/>
<path d="M61.4457 26.3916C60.1878 26.122 58.3315 26.1435 56.5938 27.5779" stroke="#2A190D" stroke-width="0.368879" stroke-linecap="round"/>
<path d="M72.0777 27.4653C70.8441 26.1413 69.0552 25.8432 66.8475 26.6342" stroke="#2A190D" stroke-width="0.368879" stroke-linecap="round"/>
<path d="M62.0971 15.3805C63.6437 15.1148 70.6024 16.0188 70.6024 18.5706C70.6023 18.5705 70.6022 18.5705 70.602 18.5705L66.7366 17.7728C64.3952 17.4704 61.5945 17.4141 60.5508 17.7729C58.6952 18.4109 60.8085 16.4438 62.0971 15.3805Z" fill="#0A0401"/>
<path d="M76.949 33.9638C70.9589 34.6182 69.9912 19.1322 68.6601 17.1691C67.5953 15.5987 67.0931 16.836 66.4272 17.4905C64.6523 16.3999 62.8027 12.8503 68.6597 11.2798C75.9809 9.31673 77.0192 16.2546 79.7771 20.4381C82.229 24.1573 82.9391 33.3094 76.949 33.9638Z" fill="url(#paint6_linear_761_17043)"/>
<path d="M59.6756 19.1338C64.8608 13.9868 66.0806 17.079 66.5982 17.5927L68.9915 11.4277C53.465 3.72166 48.356 24.6755 48.8262 31.5206C49.0441 34.6917 53.457 36.2853 54.6921 35.0691C62.2505 27.6263 55.7939 22.9868 59.6756 19.1338Z" fill="url(#paint7_linear_761_17043)"/>
<circle cx="76.1837" cy="37.17" r="1.34776" fill="white"/>
<circle cx="53.2306" cy="37.17" r="1.34776" fill="white"/>
<path d="M22.2433 45.9632C23.1378 46.2613 23.1378 51.0321 23.1378 52.2247C23.1378 53.1479 23.2153 54.4756 23.7342 55.8028C23.8857 56.1902 23.8104 56.3107 24.0399 56.7697C24.338 57.366 24.179 57.9391 24.2817 58.1881C25.3551 60.7915 28.4537 68.5998 29.9957 72.5004L30.5921 73.693L25.8214 78.7619C23.436 72.7985 18.6056 60.812 18.3671 60.5735C18.1285 60.335 17.5682 59.6502 17.5682 59.0538C17.5682 58.4575 17.5682 58.6731 16.5781 57.5918C15.5712 56.4923 14.1927 54.6101 13.5963 54.0137C13 53.4174 13 50.7339 13 50.1375C13 49.5412 13.2982 49.243 13.8945 48.9448C14.4909 48.6467 13.8945 48.3485 14.1927 47.7521C14.4909 47.1558 15.0872 48.0503 15.0872 46.5595C15.0872 45.3668 16.0811 45.2674 16.5781 45.3668C16.7768 45.3668 16.9955 45.1879 16.2799 44.4723C15.3854 43.5777 13.8945 39.1052 13.8945 38.2107C13.8945 37.3162 14.789 36.7199 15.0872 37.6144C15.3257 38.33 18.1683 42.8821 19.5598 45.0686L22.2433 45.9632Z" fill="#F7D0C8"/>
<path d="M38.941 60.1292C40.3722 57.2668 41.724 57.9426 42.2209 58.6384C43.7118 69.6707 46.6935 92.3317 46.6935 94.7171C46.6935 97.1024 41.9227 101.078 39.5374 102.768C33.2758 104.855 21.0508 85.4738 20.1562 78.3177C24.0325 71.1615 29.1014 67.5835 29.6977 67.5835C30.2941 67.5835 36.5557 73.5469 37.152 73.5469C37.7483 73.5469 37.152 63.7073 38.941 60.1292Z" fill="#EAC35B"/>
<path d="M40.8313 58.3405L57.5289 51.7807C62.7769 50.8266 69.4556 51.3832 72.139 51.7807C78.6988 52.874 91.5798 55.4184 90.6256 56.8496C89.4329 58.6387 82.575 112.608 82.2768 113.8C81.9787 114.993 70.1831 116.593 64.3866 117.08C61.3799 117.333 46.5748 115.855 43.813 114.993C41.0512 114.131 39.5662 110.076 40.8313 107.837C41.8153 106.095 43.813 83.3869 42.6203 81.896C41.4276 80.4052 43.2167 73.2491 43.813 72.0564C44.2901 71.1022 42.024 62.5149 40.8313 58.3405Z" fill="url(#paint8_linear_761_17043)"/>
<g filter="url(#filter1_d_761_17043)">
<path d="M51.7734 51.4836L57.1405 48.5019L74.4344 46.7129C75.8259 48.005 78.6088 51.1258 78.6088 53.2727C78.6088 55.4195 70.0613 66.8891 65.7875 72.3556C70.26 83.3879 68.1728 90.2459 66.3838 90.2459C64.9526 90.2459 63.4021 80.9032 62.8058 76.2318C62.3287 78.6172 59.5259 87.2642 57.1405 90.2459C55.7093 85.9522 59.3271 76.53 61.3149 72.3556L51.7734 51.4836Z" fill="#F3CE69"/>
</g>
<path d="M63.8524 76.4886C64.2877 74.8639 65.9577 73.8998 67.5823 74.3351L85.6418 79.1741C87.3448 79.6304 88.3057 81.433 87.7352 83.1013L79.4345 107.375C79.0303 108.557 77.9457 109.372 76.6982 109.431L58.911 110.282C56.8502 110.38 55.2899 108.444 55.8239 106.451L63.8524 76.4886Z" fill="url(#paint9_linear_761_17043)"/>
<path d="M86.9529 110.22C81.4665 110.935 74.8758 100.701 74.5776 99.5085C74.2794 98.3158 74.279 97.7194 76.068 97.4212C77.857 97.1231 82.9259 99.8066 85.6095 102.192C87.7563 104.1 87.4498 108.331 86.9529 110.22Z" fill="#E8BE4F"/>
<path d="M71.4425 98.8938C72.0389 99.7883 72.3371 102.174 74.1261 102.174C77.8035 100.583 85.5757 96.9258 87.2455 95.0176C89.3327 92.6322 94.4016 94.123 94.1034 96.5084C93.8052 98.8938 91.718 106.05 69.6534 107.839C58.0247 107.839 55.9375 101.577 55.9375 99.7883C55.9375 97.9993 58.9192 94.123 59.2174 96.5084C59.5156 98.8938 68.759 99.1919 66.0755 97.9993C63.9286 97.0451 63.7895 95.0176 63.9883 94.123C63.9883 93.5267 64.8828 93.5267 65.1809 94.123C65.4791 94.7194 66.3736 95.6139 67.8645 96.2102C69.3553 96.8066 70.8462 97.9993 71.4425 98.8938Z" fill="#F7D0C8"/>
<path d="M89.9212 55.6584C80.6183 54.9427 84.5552 72.1571 86.0461 80.7046C86.8238 87.5626 69.6461 98.595 75.9077 99.4895C80.9169 100.205 86.0466 110.223 86.9403 110.224C87.834 110.224 94.8709 101.875 95.5865 100.682C96.481 99.1913 94.9901 88.4572 94.692 83.9846C94.3938 79.512 97.6737 56.5529 89.9212 55.6584Z" fill="#F4D06F"/>
<path d="M60.629 52.8021L59.8203 37.9768L71.4111 35.5508L70.6024 49.837L63.594 63.3147L60.629 52.8021Z" fill="url(#paint10_linear_761_17043)"/>
<path d="M60.6792 40.7309C61.4079 36.9553 63.0013 33.1403 61.362 29.7417C59.7679 27.8928 54.1144 25.9677 51.8449 31.2643C49.5614 36.5936 51.0836 39.479 51.0836 43.8268C51.0836 48.7757 52.6063 50.6791 45.374 55.2473C40.1742 58.5317 44.9937 70.0937 46.8967 65.1452C48.7997 60.1966 52.9271 60.8171 59.0783 54.867C61.5498 52.4763 59.7682 45.4504 60.6792 40.7309Z" fill="url(#paint11_linear_761_17043)"/>
<ellipse cx="53.4954" cy="32.3149" rx="2.15642" ry="4.58239" transform="rotate(-8.89629 53.4954 32.3149)" fill="#F5BEB5"/>
<path d="M70.617 46.8726C70.617 42.991 68.8203 32.9457 70.6173 29.8907C72.1447 28.3633 78.8659 27.1953 80.591 32.5863C82.7474 39.3251 80.0522 41.7514 78.7034 45.7944C77.1006 50.5985 75.0209 53.1475 81.1294 60.6197C84.2052 64.3823 80.591 73.2887 79.7813 68.9758C76.5916 60.1948 75.8302 67.0471 70.6168 61.1588C68.684 58.9759 70.617 51.7245 70.617 46.8726Z" fill="url(#paint12_linear_761_17043)"/>
<ellipse cx="76.4534" cy="32.3144" rx="2.69552" ry="4.58239" transform="rotate(13.4592 76.4534 32.3144)" fill="#F5BEB5"/>
<path d="M63.8643 44.4497C57.5105 44.4497 53.5828 35.6657 52.8126 30.7025L51.1953 23.3989L64.2878 13.7207L78.1505 17.4431L77.0723 30.7025C75.7887 34.673 70.218 44.4497 63.8643 44.4497Z" fill="#FFD4CB"/>
<path d="M62.9688 33.3516C62.9688 33.5525 62.7792 33.9851 62.5591 34.3315C62.4865 34.4457 62.4855 34.5941 62.5667 34.7024L62.9688 35.2384" stroke="#2A190D" stroke-width="0.368879" stroke-linecap="round"/>
<path d="M65.4849 37.7129H61.7095C61.4608 37.7129 61.2783 37.948 61.3677 38.18C61.6544 38.9241 62.2484 39.7986 63.4233 39.7986C64.6033 39.7986 65.4319 38.9164 65.801 38.1703C65.9113 37.9474 65.7335 37.7129 65.4849 37.7129Z" fill="url(#paint13_linear_761_17043)"/>
<mask id="mask2_761_17043" style="mask-type:alpha" maskUnits="userSpaceOnUse" x="61" y="37" width="5" height="3">
<path d="M63.4388 39.7967C64.6431 39.7967 65.4815 38.8778 65.8389 38.1224C65.938 37.9128 65.7847 37.6886 65.5542 37.6637L63.5425 37.4461C63.514 37.443 63.4851 37.4431 63.4566 37.4465L61.6662 37.6596C61.4376 37.6868 61.2838 37.9098 61.3636 38.1258C61.6423 38.8805 62.2363 39.7967 63.4388 39.7967Z" fill="#D9D9D9"/>
</mask>
<g mask="url(#mask2_761_17043)">
<rect x="60.2609" y="36.5011" width="6.35584" height="1.92425" fill="white" stroke="#2A190D" stroke-width="0.368879"/>
</g>
<path d="M63.4236 39.7983C64.6488 39.7983 65.4952 38.8473 65.8417 38.0849C65.9312 37.8879 65.7986 37.6796 65.5839 37.6534C65.1928 37.6056 64.4944 37.5442 63.4236 37.531C62.3842 37.5182 61.8056 37.5803 61.5018 37.6353C61.3243 37.6674 61.2334 37.8382 61.2913 38.009C61.5535 38.7825 62.1574 39.7983 63.4236 39.7983Z" stroke="#2A190D" stroke-width="0.368879" stroke-linecap="round"/>
<ellipse cx="59.5587" cy="32.0509" rx="0.808657" ry="1.07821" fill="#2A190D"/>
<ellipse cx="58.9911" cy="34.7023" rx="1.47552" ry="1.10664" fill="#E1745F" fill-opacity="0.8"/>
<ellipse cx="68.5771" cy="34.7023" rx="1.47552" ry="1.10664" fill="#E1745F" fill-opacity="0.8"/>
<ellipse cx="68.1758" cy="32.0509" rx="0.808657" ry="1.07821" fill="#2A190D"/>
<path d="M61.4457 26.3916C60.1878 26.122 58.3315 26.1435 56.5938 27.5779" stroke="#2A190D" stroke-width="0.368879" stroke-linecap="round"/>
<path d="M72.0777 27.4653C70.8441 26.1413 69.0552 25.8432 66.8475 26.6342" stroke="#2A190D" stroke-width="0.368879" stroke-linecap="round"/>
<path d="M62.0971 15.3805C63.6437 15.1148 70.6024 16.0188 70.6024 18.5706C70.6023 18.5705 70.6022 18.5705 70.602 18.5705L66.7366 17.7728C64.3952 17.4704 61.5945 17.4141 60.5508 17.7729C58.6952 18.4109 60.8085 16.4438 62.0971 15.3805Z" fill="#0A0401"/>
<path d="M76.949 33.9638C70.9589 34.6182 69.9912 19.1322 68.6601 17.1691C67.5953 15.5987 67.0931 16.836 66.4272 17.4905C64.6523 16.3999 62.8027 12.8503 68.6597 11.2798C75.9809 9.31673 77.0192 16.2546 79.7771 20.4381C82.229 24.1573 82.9391 33.3094 76.949 33.9638Z" fill="url(#paint14_linear_761_17043)"/>
<path d="M59.6756 19.1338C64.8608 13.9868 66.0806 17.079 66.5982 17.5927L68.9915 11.4277C53.465 3.72166 48.356 24.6755 48.8262 31.5206C49.0441 34.6917 53.457 36.2853 54.6921 35.0691C62.2505 27.6263 55.7939 22.9868 59.6756 19.1338Z" fill="url(#paint15_linear_761_17043)"/>
<circle cx="76.1837" cy="37.17" r="1.34776" fill="white"/>
<circle cx="53.2306" cy="37.17" r="1.34776" fill="white"/>
</g>
<defs>
<filter id="filter0_d_761_17043" x="50.2507" y="46.7129" width="29.8814" height="46.5787" filterUnits="userSpaceOnUse" color-interpolation-filters="sRGB">
<feFlood flood-opacity="0" result="BackgroundImageFix"/>
<feColorMatrix in="SourceAlpha" type="matrix" values="0 0 0 0 0 0 0 0 0 0 0 0 0 0 0 0 0 0 127 0" result="hardAlpha"/>
<feOffset dy="1.52274"/>
<feGaussianBlur stdDeviation="0.761369"/>
<feComposite in2="hardAlpha" operator="out"/>
<feColorMatrix type="matrix" values="0 0 0 0 0.575 0 0 0 0 0.463459 0 0 0 0 0.162917 0 0 0 0.2 0"/>
<feBlend mode="normal" in2="BackgroundImageFix" result="effect1_dropShadow_761_17043"/>
<feBlend mode="normal" in="SourceGraphic" in2="effect1_dropShadow_761_17043" result="shape"/>
</filter>
<filter id="filter1_d_761_17043" x="50.2507" y="46.7129" width="29.8814" height="46.5787" filterUnits="userSpaceOnUse" color-interpolation-filters="sRGB">
<feFlood flood-opacity="0" result="BackgroundImageFix"/>
<feColorMatrix in="SourceAlpha" type="matrix" values="0 0 0 0 0 0 0 0 0 0 0 0 0 0 0 0 0 0 127 0" result="hardAlpha"/>
<feOffset dy="1.52274"/>
<feGaussianBlur stdDeviation="0.761369"/>
<feComposite in2="hardAlpha" operator="out"/>
<feColorMatrix type="matrix" values="0 0 0 0 0.575 0 0 0 0 0.463459 0 0 0 0 0.162917 0 0 0 0.2 0"/>
<feBlend mode="normal" in2="BackgroundImageFix" result="effect1_dropShadow_761_17043"/>
<feBlend mode="normal" in="SourceGraphic" in2="effect1_dropShadow_761_17043" result="shape"/>
</filter>
<linearGradient id="paint0_linear_761_17043" x1="65.557" y1="51.2539" x2="65.557" y2="117.336" gradientUnits="userSpaceOnUse">
<stop stop-color="#F4D06F"/>
<stop offset="1" stop-color="#EEC452"/>
</linearGradient>
<linearGradient id="paint1_linear_761_17043" x1="76.7152" y1="76.7822" x2="66.8188" y2="113.716" gradientUnits="userSpaceOnUse">
<stop stop-color="white"/>
<stop offset="0.0001" stop-color="#F1F1F1"/>
<stop offset="0.119792" stop-color="#D9D9D9"/>
<stop offset="1" stop-color="#787878"/>
</linearGradient>
<linearGradient id="paint2_linear_761_17043" x1="65.6157" y1="39.3245" x2="65.6157" y2="47.9502" gradientUnits="userSpaceOnUse">
<stop stop-color="#B97D74"/>
<stop offset="1" stop-color="#F5BEB5"/>
</linearGradient>
<linearGradient id="paint3_linear_761_17043" x1="58.0783" y1="21.8043" x2="50.312" y2="62.0386" gradientUnits="userSpaceOnUse">
<stop stop-color="#120802"/>
<stop offset="1" stop-color="#754C31"/>
</linearGradient>
<linearGradient id="paint4_linear_761_17043" x1="75.5134" y1="28.6113" x2="75.5134" y2="69.9748" gradientUnits="userSpaceOnUse">
<stop stop-color="#120802"/>
<stop offset="1" stop-color="#754C31"/>
</linearGradient>
<linearGradient id="paint5_linear_761_17043" x1="63.4233" y1="37.9824" x2="63.4233" y2="39.7986" gradientUnits="userSpaceOnUse">
<stop stop-color="#CE3D21"/>
<stop offset="1" stop-color="#F2A99B"/>
</linearGradient>
<linearGradient id="paint6_linear_761_17043" x1="73.5749" y1="11.0211" x2="73.5749" y2="34.2026" gradientUnits="userSpaceOnUse">
<stop stop-color="#342216"/>
<stop offset="0.359375" stop-color="#4A2E1C"/>
<stop offset="0.723958" stop-color="#342216"/>
</linearGradient>
<linearGradient id="paint7_linear_761_17043" x1="58.479" y1="9.94308" x2="48.7932" y2="33.5455" gradientUnits="userSpaceOnUse">
<stop stop-color="#342216"/>
<stop offset="0.364583" stop-color="#412D1F"/>
<stop offset="0.744792" stop-color="#342216"/>
</linearGradient>
<linearGradient id="paint8_linear_761_17043" x1="65.557" y1="51.2539" x2="65.557" y2="117.336" gradientUnits="userSpaceOnUse">
<stop stop-color="#F4D06F"/>
<stop offset="1" stop-color="#EEC452"/>
</linearGradient>
<linearGradient id="paint9_linear_761_17043" x1="76.7152" y1="76.7822" x2="66.8188" y2="113.716" gradientUnits="userSpaceOnUse">
<stop stop-color="white"/>
<stop offset="0.0001" stop-color="#F1F1F1"/>
<stop offset="0.119792" stop-color="#D9D9D9"/>
<stop offset="1" stop-color="#787878"/>
</linearGradient>
<linearGradient id="paint10_linear_761_17043" x1="65.6157" y1="39.3245" x2="65.6157" y2="47.9502" gradientUnits="userSpaceOnUse">
<stop stop-color="#B97D74"/>
<stop offset="1" stop-color="#F5BEB5"/>
</linearGradient>
<linearGradient id="paint11_linear_761_17043" x1="58.0783" y1="21.8043" x2="50.312" y2="62.0386" gradientUnits="userSpaceOnUse">
<stop stop-color="#120802"/>
<stop offset="1" stop-color="#754C31"/>
</linearGradient>
<linearGradient id="paint12_linear_761_17043" x1="75.5134" y1="28.6113" x2="75.5134" y2="69.9748" gradientUnits="userSpaceOnUse">
<stop stop-color="#120802"/>
<stop offset="1" stop-color="#754C31"/>
</linearGradient>
<linearGradient id="paint13_linear_761_17043" x1="63.4233" y1="37.9824" x2="63.4233" y2="39.7986" gradientUnits="userSpaceOnUse">
<stop stop-color="#CE3D21"/>
<stop offset="1" stop-color="#F2A99B"/>
</linearGradient>
<linearGradient id="paint14_linear_761_17043" x1="73.5749" y1="11.0211" x2="73.5749" y2="34.2026" gradientUnits="userSpaceOnUse">
<stop stop-color="#342216"/>
<stop offset="0.359375" stop-color="#4A2E1C"/>
<stop offset="0.723958" stop-color="#342216"/>
</linearGradient>
<linearGradient id="paint15_linear_761_17043" x1="58.479" y1="9.94308" x2="48.7932" y2="33.5455" gradientUnits="userSpaceOnUse">
<stop stop-color="#342216"/>
<stop offset="0.364583" stop-color="#412D1F"/>
<stop offset="0.744792" stop-color="#342216"/>
</linearGradient>
</defs>
</svg>
