<svg width="911" height="383" viewBox="0 0 911 383" fill="none" xmlns="http://www.w3.org/2000/svg">
<circle cx="117" cy="179" r="117" fill="#8E99FF" fill-opacity="0.2"/>
<g style="mix-blend-mode:color-dodge" filter="url(#filter0_f_162_614)">
<circle cx="607" cy="179" r="117" fill="#CFD4FF"/>
</g>
<circle cx="607" cy="179" r="116.5" fill="url(#paint0_linear_162_614)" stroke="white"/>
<circle cx="121.614" cy="142.86" r="6.86" fill="white"/>
<circle cx="139.646" cy="167.646" r="5.64573" fill="white"/>
<circle cx="93.6457" cy="173.826" r="5.64573" fill="white"/>
<circle cx="119.052" cy="190.764" r="5.64573" fill="white"/>
<path d="M100.638 230H104.436C108.36 230 110.862 227.768 110.862 223.286C110.862 218.786 108.36 216.68 104.292 216.68H100.638V230ZM103.302 227.858V218.804H104.112C106.614 218.804 108.144 220.046 108.144 223.286C108.144 226.526 106.614 227.858 104.112 227.858H103.302ZM115.738 230.252C116.89 230.252 117.898 229.694 118.78 228.938H118.852L119.05 230H121.21V224.132C121.21 221.198 119.896 219.686 117.34 219.686C115.738 219.686 114.316 220.28 113.128 221L114.082 222.764C115 222.206 115.918 221.81 116.854 221.81C118.096 221.81 118.51 222.548 118.564 223.538C114.514 223.988 112.768 225.122 112.768 227.264C112.768 228.992 113.938 230.252 115.738 230.252ZM116.602 228.182C115.828 228.182 115.288 227.84 115.288 227.066C115.288 226.148 116.098 225.482 118.564 225.176V227.21C117.916 227.84 117.358 228.182 116.602 228.182ZM127.139 230.252C128.039 230.252 128.741 230.054 129.281 229.874L128.849 227.948C128.561 228.056 128.183 228.182 127.841 228.182C126.959 228.182 126.473 227.642 126.473 226.49V222.008H128.975V219.938H126.473V217.202H124.277L123.989 219.938L122.423 220.046V222.008H123.827V226.49C123.827 228.74 124.745 230.252 127.139 230.252ZM132.964 230.252C134.116 230.252 135.124 229.694 136.006 228.938H136.078L136.276 230H138.436V224.132C138.436 221.198 137.122 219.686 134.566 219.686C132.964 219.686 131.542 220.28 130.354 221L131.308 222.764C132.226 222.206 133.144 221.81 134.08 221.81C135.322 221.81 135.736 222.548 135.79 223.538C131.74 223.988 129.994 225.122 129.994 227.264C129.994 228.992 131.164 230.252 132.964 230.252ZM133.828 228.182C133.054 228.182 132.514 227.84 132.514 227.066C132.514 226.148 133.324 225.482 135.79 225.176V227.21C135.142 227.84 134.584 228.182 133.828 228.182Z" fill="white"/>
<circle cx="607.928" cy="129.802" r="4.802" fill="white"/>
<circle cx="607.928" cy="163.416" r="4.802" fill="white"/>
<circle cx="607.928" cy="193.6" r="4.802" fill="white"/>
<circle cx="579.802" cy="145.58" r="4.802" fill="white"/>
<circle cx="579.802" cy="177.136" r="4.802" fill="white"/>
<circle cx="634.682" cy="145.58" r="4.802" fill="white"/>
<circle cx="634.682" cy="177.136" r="4.802" fill="white"/>
<path d="M580.145 147.638L607.928 129.802L635.368 147.638M580.145 147.638V179.194L607.928 195.315M580.145 147.638L607.928 165.474M607.928 195.315L635.368 179.194V147.638M607.928 195.315V165.474M635.368 147.638L607.928 165.474" stroke="white" stroke-width="0.686"/>
<path d="M578.43 177.822L607.242 163.759L633.31 177.822" stroke="white" stroke-width="0.686" stroke-dasharray="1.37 1.37"/>
<path d="M590.638 230H598.72V227.768H593.302V216.68H590.638V230ZM600.828 230H603.474V219.938H600.828V230ZM602.142 218.3C603.06 218.3 603.69 217.724 603.69 216.842C603.69 215.978 603.06 215.42 602.142 215.42C601.224 215.42 600.612 215.978 600.612 216.842C600.612 217.724 601.224 218.3 602.142 218.3ZM606.295 230H608.941V223.07C609.679 222.35 610.201 221.954 611.029 221.954C612.001 221.954 612.451 222.476 612.451 224.06V230H615.097V223.718C615.097 221.198 614.143 219.686 611.983 219.686C610.615 219.686 609.571 220.406 608.707 221.27H608.653L608.437 219.938H606.295V230ZM617.826 230H620.418V227.462L621.84 225.824L624.288 230H627.15L623.388 224.078L626.844 219.938H623.928L620.508 224.258H620.418V215.654H617.826V230Z" fill="white"/>
<path d="M461 192L456.5 194.598L456.5 189.402L461 192Z" fill="white"/>
<path d="M261.5 192H457" stroke="white" stroke-dasharray="2 2"/>
<circle cx="848" cy="63" r="62.5" fill="#8E99FF" fill-opacity="0.2" stroke="white"/>
<path d="M822.802 48.416V49.886H830.432V48.416H822.802ZM826.624 50.292C824.748 50.292 823.432 51.258 823.432 52.686C823.432 54.114 824.748 55.066 826.624 55.066C828.486 55.066 829.802 54.114 829.802 52.686C829.802 51.258 828.486 50.292 826.624 50.292ZM826.624 51.692C827.45 51.692 828.024 52.028 828.024 52.686C828.024 53.33 827.45 53.666 826.624 53.666C825.784 53.666 825.224 53.33 825.224 52.686C825.224 52.028 825.784 51.692 826.624 51.692ZM831.146 47.282V55.416H833.008V47.282H831.146ZM832.49 50.628V52.14H834.73V50.628H832.49ZM824.356 55.948V57.432H831.146V60.246H833.008V55.948H824.356ZM825.686 47.212V49.256H827.548V47.212H825.686ZM837.053 55.052V60.106H845.929V55.052H844.081V56.144H838.887V55.052H837.053ZM838.887 57.53H844.081V58.65H838.887V57.53ZM835.681 52.938V54.408H847.399V52.938H835.681ZM840.595 47.422V47.814C840.595 49.13 839.181 50.572 836.255 50.922L836.913 52.364C840.259 51.93 842.191 50.068 842.191 47.814V47.422H840.595ZM840.903 47.422V47.814C840.903 50.054 842.821 51.93 846.167 52.364L846.825 50.922C843.913 50.572 842.499 49.116 842.499 47.814V47.422H840.903ZM851.724 48.276V50.166C851.724 52.686 850.66 55.178 848.406 56.158L849.512 57.698C852.088 56.508 853.236 53.498 853.236 50.166V48.276H851.724ZM852.088 48.276V50.166C852.088 53.358 853.236 56.242 855.742 57.39L856.834 55.892C854.622 54.94 853.6 52.56 853.6 50.166V48.276H852.088ZM857.45 47.268V60.274H859.326V47.268H857.45ZM869.769 47.282V56.564H871.645V47.282H869.769ZM871.113 50.894V52.42H873.367V50.894H871.113ZM866.157 48.248V49.172C866.157 51.23 864.519 52.966 861.341 53.834L862.125 55.318C865.989 54.198 868.145 51.776 868.145 48.248H866.157ZM861.901 48.248V49.746H867.165V48.248H861.901ZM863.259 58.538V60.022H872.079V58.538H863.259ZM863.259 55.626V59.196H865.135V55.626H863.259ZM825.602 75.234V78.496H827.45V75.234H825.602ZM829.858 75.234V78.496H831.692V75.234H829.858ZM823.306 68.906V70.39H834.002V68.906H823.306ZM822.816 77.474V78.972H834.548V77.474H822.816ZM828.64 70.922C825.924 70.922 824.244 71.846 824.244 73.428C824.244 74.996 825.924 75.906 828.64 75.906C831.356 75.906 833.036 74.996 833.036 73.428C833.036 71.846 831.356 70.922 828.64 70.922ZM828.64 72.35C830.264 72.35 831.132 72.7 831.132 73.428C831.132 74.142 830.264 74.478 828.64 74.478C827.002 74.478 826.148 74.142 826.148 73.428C826.148 72.7 827.002 72.35 828.64 72.35ZM827.73 67.422V69.83H829.578V67.422H827.73ZM838.607 73.022V75.514H840.455V73.022H838.607ZM842.653 73.022V75.514H844.501V73.022H842.653ZM841.547 67.408C838.579 67.408 836.857 68.178 836.857 69.606C836.857 71.034 838.579 71.818 841.547 71.818C844.501 71.818 846.237 71.034 846.237 69.606C846.237 68.178 844.501 67.408 841.547 67.408ZM841.547 68.766C843.423 68.766 844.305 69.032 844.305 69.606C844.305 70.208 843.423 70.46 841.547 70.46C839.671 70.46 838.789 70.208 838.789 69.606C838.789 69.032 839.671 68.766 841.547 68.766ZM835.681 72.336V73.792H847.399V72.336H835.681ZM837.025 74.688V76.074H844.151V76.732H837.039V79.168H838.873V78.02H845.985V74.688H837.025ZM837.039 78.762V80.162H846.321V78.762H837.039ZM858.192 69.144V70.656H860.432V69.144H858.192ZM858.192 71.958V73.47H860.432V71.958H858.192ZM856.904 67.282V75.5H858.766V67.282H856.904ZM854.552 75.64C851.878 75.64 850.198 76.494 850.198 77.95C850.198 79.392 851.878 80.246 854.552 80.246C857.226 80.246 858.906 79.392 858.906 77.95C858.906 76.494 857.226 75.64 854.552 75.64ZM854.552 77.04C856.19 77.04 857.058 77.334 857.058 77.95C857.058 78.566 856.19 78.86 854.552 78.86C852.914 78.86 852.046 78.566 852.046 77.95C852.046 77.334 852.914 77.04 854.552 77.04ZM848.56 68.514V69.956H856.19V68.514H848.56ZM852.382 70.39C850.492 70.39 849.19 71.328 849.19 72.714C849.19 74.114 850.492 75.038 852.382 75.038C854.258 75.038 855.56 74.114 855.56 72.714C855.56 71.328 854.258 70.39 852.382 70.39ZM852.382 71.748C853.208 71.748 853.782 72.084 853.782 72.714C853.782 73.344 853.208 73.68 852.382 73.68C851.542 73.68 850.982 73.344 850.982 72.714C850.982 72.084 851.542 71.748 852.382 71.748ZM851.444 67.198V69.284H853.306V67.198H851.444ZM864.281 67.982V69.13C864.281 70.894 863.399 72.63 861.229 73.358L862.223 74.828C864.687 73.974 865.807 71.706 865.807 69.13V67.982H864.281ZM864.659 67.982V69.312C864.659 71.65 865.765 73.666 868.103 74.45L869.069 73.008C867.039 72.378 866.171 70.866 866.171 69.312V67.982H864.659ZM869.783 67.282V74.94H871.645V67.282H869.783ZM871.127 70.278V71.818H873.367V70.278H871.127ZM867.417 75.234C864.715 75.234 863.021 76.172 863.021 77.74C863.021 79.322 864.715 80.246 867.417 80.246C870.105 80.246 871.799 79.322 871.799 77.74C871.799 76.172 870.105 75.234 867.417 75.234ZM867.417 76.676C869.069 76.676 869.951 77.026 869.951 77.74C869.951 78.468 869.069 78.804 867.417 78.804C865.765 78.804 864.869 78.468 864.869 77.74C864.869 77.026 865.765 76.676 867.417 76.676Z" fill="white"/>
<circle cx="848" cy="320" r="62.5" fill="#8E99FF" fill-opacity="0.2" stroke="white"/>
<path d="M816.247 307.754V309.224H825.193V307.754H816.247ZM816.247 304.632V308.342H818.095V304.632H816.247ZM814.791 310.778V312.262H826.523V310.778H814.791ZM819.733 308.636V311.226H821.581V308.636H819.733ZM816.163 315.538V317.022H825.305V315.538H816.163ZM816.163 313.06V316.294H818.011V313.06H816.163ZM836.588 304.268V317.274H838.45V304.268H836.588ZM828.356 312.738V314.25H829.504C831.87 314.25 833.774 314.18 835.874 313.802L835.692 312.304C833.634 312.654 831.8 312.738 829.504 312.738H828.356ZM828.342 305.374V306.858H832.556V308.916H828.356V313.298H830.246V310.386H834.46V305.374H828.342ZM843.531 305.57V306.396C843.531 308.02 842.607 309.728 840.465 310.428L841.403 311.898C843.895 311.086 845.043 308.832 845.043 306.396V305.57H843.531ZM843.923 305.57V306.396C843.923 308.692 845.029 310.848 847.437 311.646L848.347 310.19C846.303 309.504 845.421 307.908 845.421 306.396V305.57H843.923ZM847.591 307.376V308.888H850.055V307.376H847.591ZM840.969 304.996V306.466H847.941V304.996H840.969ZM842.551 312.584V314.068H849.523V317.246H851.385V312.584H842.551ZM849.523 304.282V311.996H851.385V304.282H849.523ZM857.929 305.038V306.508H866.063V305.038H857.929ZM856.599 310.554V312.052H868.317V310.554H856.599ZM861.457 311.604V317.26H863.333V311.604H861.457ZM865.111 305.038V306.186C865.111 307.53 865.111 309.07 864.607 311.24L866.441 311.45C866.945 309.154 866.945 307.586 866.945 306.186V305.038H865.111ZM869.478 314.236V315.748H881.21V314.236H869.478ZM874.406 311.366V314.656H876.268V311.366H874.406ZM874.35 305.976V306.438C874.35 308.23 872.81 310.022 869.926 310.47L870.654 311.94C873.958 311.338 875.918 309.168 875.918 306.438V305.976H874.35ZM874.728 305.976V306.438C874.728 309.168 876.716 311.282 880.076 311.87L880.79 310.4C877.836 309.966 876.296 308.23 876.296 306.438V305.976H874.728ZM870.444 305.262V306.746H880.202V305.262H870.444ZM829.256 334.236V335.748H840.988V334.236H829.256ZM834.17 331.366V334.586H836.032V331.366H834.17ZM830.474 325.234V331.604H839.7V325.234H830.474ZM837.88 326.718V330.134H832.308V326.718H837.88ZM851.487 324.282V331.058H853.265V324.282H851.487ZM846.951 326.998V328.398H849.723V326.998H846.951ZM848.911 324.506V330.988H850.647V324.506H848.911ZM842.667 329.28V330.75H843.549C845.579 330.75 846.755 330.736 848.141 330.498L848.029 329.042C846.657 329.266 845.537 329.28 843.549 329.28H842.667ZM842.667 324.898V330.26H844.501V326.354H847.679V324.898H842.667ZM844.361 331.492V332.92H851.417V333.592H844.375V336.532H846.223V334.936H853.265V331.492H844.361ZM844.375 335.664V337.106H853.629V335.664H844.375ZM863.903 324.296V332.15H865.779V324.296H863.903ZM855.671 330.134V331.632H856.805C859.395 331.632 861.117 331.59 863.049 331.254L862.839 329.77C860.963 330.078 859.325 330.134 856.805 330.134H855.671ZM855.657 325.052V326.536H859.787V327.614H855.671V330.974H857.505V329H861.621V325.052H855.657ZM861.411 332.388C858.667 332.388 856.987 333.27 856.987 334.824C856.987 336.364 858.667 337.26 861.411 337.26C864.155 337.26 865.863 336.364 865.863 334.824C865.863 333.27 864.155 332.388 861.411 332.388ZM861.411 333.83C863.119 333.83 864.001 334.138 864.001 334.824C864.001 335.496 863.119 335.818 861.411 335.818C859.717 335.818 858.835 335.496 858.835 334.824C858.835 334.138 859.717 333.83 861.411 333.83Z" fill="white"/>
<defs>
<filter id="filter0_f_162_614" x="450" y="22" width="314" height="314" filterUnits="userSpaceOnUse" color-interpolation-filters="sRGB">
<feFlood flood-opacity="0" result="BackgroundImageFix"/>
<feBlend mode="normal" in="SourceGraphic" in2="BackgroundImageFix" result="shape"/>
<feGaussianBlur stdDeviation="20" result="effect1_foregroundBlur_162_614"/>
</filter>
<linearGradient id="paint0_linear_162_614" x1="536" y1="90.5" x2="690.5" y2="254" gradientUnits="userSpaceOnUse">
<stop stop-color="#ABB3FF"/>
<stop offset="1" stop-color="#7582FF"/>
</linearGradient>
</defs>
</svg>
