<svg width="18" height="18" viewBox="0 0 18 18" fill="none" xmlns="http://www.w3.org/2000/svg">
<g clip-path="url(#clip0_164_608)">
<path d="M16.6665 0.513209L6.77408 1.90588C6.06416 2.01301 5.53339 2.6357 5.53339 3.35882V6.49234L11.2193 7.2958C11.2658 7.3025 11.3056 7.30919 11.352 7.32258C11.9956 7.48328 12.46 8.05909 12.46 8.73534V11.5073L16.6532 12.0965C17.3565 12.2036 17.9868 11.6613 17.9934 10.9315V1.66484C17.9934 0.955115 17.3631 0.40608 16.6598 0.506514" fill="white"/>
<path d="M5.52672 9.258V6.48604H5.53999L1.34685 5.89683C0.643568 5.7897 0.0132694 6.33204 0 7.04847V16.3218C0 17.0315 0.630299 17.5806 1.33358 17.4801L11.2259 16.0875C11.9359 15.9803 12.4666 15.3576 12.4666 14.6345V11.501L6.76742 10.6975C6.0575 10.5904 5.52672 9.96773 5.52672 9.24461" fill="white"/>
</g>
<defs>
<clipPath id="clip0_164_608">
<rect width="18" height="17" fill="white" transform="translate(0 0.5)"/>
</clipPath>
</defs>
</svg>
