<svg width="140" height="48" viewBox="0 0 140 48" fill="none" xmlns="http://www.w3.org/2000/svg">
<g clip-path="url(#clip0_754_16564)">
<path d="M45.404 32.2526L18.4381 28.391C16.5012 28.0896 15.0703 26.3788 15.0703 24.3584V7.9265C15.0703 5.90612 16.5012 4.19531 18.4381 3.89388L45.404 0.0323438C47.3172 -0.260938 49.0327 1.2625 49.0327 3.25844V29.0265C49.0327 31.0224 47.3172 32.5458 45.404 32.2526Z" fill="#6C79F9"/>
<path d="M3.62866 15.0131L30.5946 18.8747C32.5315 19.1761 33.9624 20.8869 33.9624 22.9073V39.3392C33.9624 41.3596 32.5315 43.0704 30.5946 43.3718L3.62866 47.2252C1.71551 47.5266 0 45.9951 0 44.0073V18.2311C0 16.2352 1.71551 14.7117 3.62866 15.005V15.0131Z" fill="#9578FF"/>
<path d="M30.597 18.8764L15.0625 16.6523V24.3673C15.0625 26.3877 16.4934 28.0985 18.4303 28.3999L33.9648 30.6239V22.909C33.9648 20.8886 32.5338 19.1778 30.597 18.8764Z" fill="#5D5DF4"/>
<path d="M87.8235 16.0662C89.0722 16.0662 90.0845 15.023 90.0845 13.7362C90.0845 12.4494 89.0722 11.4062 87.8235 11.4062C86.5748 11.4062 85.5625 12.4494 85.5625 13.7362C85.5625 15.023 86.5748 16.0662 87.8235 16.0662Z" fill="#33333D"/>
<path d="M108.497 20.2851C107.272 18.6557 105.335 17.6211 102.758 17.6211C100.181 17.6211 98.4336 18.558 97.2004 20.0651C97.2004 19.0223 96.3782 18.1751 95.3663 18.1751C94.3069 18.1751 93.4531 19.0549 93.4531 20.1466V36.7903H97.2004V25.4908C97.311 22.9735 98.908 20.9775 101.738 20.9775C104.568 20.9775 106.276 23.1201 106.276 25.7678V36.7903H110.031V25.2953C110.031 23.3808 109.501 21.6374 108.497 20.2932V20.2851Z" fill="#33333D"/>
<path d="M139.657 17.5726C139.522 17.5726 139.404 17.6541 139.348 17.7763L138.147 20.5461L136.945 17.7763C136.89 17.6541 136.771 17.5726 136.637 17.5726C136.447 17.5726 136.297 17.7274 136.297 17.9229V21.3038H136.834V18.6968L137.965 21.3038H138.337L139.459 18.705V21.3038H139.997V17.9148C139.997 17.7274 139.847 17.5645 139.657 17.5645V17.5726Z" fill="#33333D"/>
<path d="M135.397 17.5723H132.464C132.337 17.5723 132.242 17.6782 132.242 17.8004C132.242 17.9226 132.345 18.0285 132.464 18.0285H133.665V21.2953H134.203V18.0285H135.397C135.523 18.0285 135.618 17.9226 135.618 17.8004C135.618 17.6782 135.515 17.5723 135.397 17.5723Z" fill="#33333D"/>
<path d="M69.3645 33.5309V14.4269C69.3645 13.3596 68.5265 12.4961 67.483 12.4961C66.4474 12.4961 65.6094 13.3596 65.6094 14.4269V36.7733H82.1874V33.5309H69.3645Z" fill="#33333D"/>
<path d="M89.7005 36.7829V20.1066C89.7005 19.0393 88.8625 18.1758 87.8189 18.1758C86.7833 18.1758 85.9453 19.0393 85.9453 20.1066V36.7829H89.7005Z" fill="#33333D"/>
<path d="M130.897 36.7733L121.521 27.6408L128.564 20.708C129.252 20.0236 129.268 18.8913 128.604 18.1825L128.588 18.1662C127.924 17.4574 126.825 17.4411 126.137 18.1255L117.552 26.598V14.4269C117.552 13.3596 116.714 12.4961 115.678 12.4961C114.643 12.4961 113.805 13.3596 113.805 14.4269V36.7733H117.56V28.8058L125.742 36.7651H130.912L130.897 36.7733Z" fill="#33333D"/>
</g>
<defs>
<clipPath id="clip0_754_16564">
<rect width="140" height="47.2672" fill="white"/>
</clipPath>
</defs>
</svg>
