<svg width="100" height="100" viewBox="0 0 100 100" fill="none" xmlns="http://www.w3.org/2000/svg">
<mask id="mask0_192_7741" style="mask-type:alpha" maskUnits="userSpaceOnUse" x="0" y="0" width="100" height="100">
<circle cx="50" cy="50" r="50" fill="#FFD568"/>
</mask>
<g mask="url(#mask0_192_7741)">
<circle cx="50" cy="50" r="50" fill="#574141"/>
<path d="M44.9462 18.3915C53.1955 10.9366 66.4331 11.5488 73.3869 20.9302C73.3869 20.9302 69.1197 50.9078 79.2019 61.6915C89.2841 72.4752 69.6568 94.6376 69.6568 94.6376C63.3769 97.5194 14.4658 97.1854 12.2173 92.1632C10.9748 89.3878 -0.535707 70.18 28.1638 53.3201C28.4688 29.4826 39.1933 23.5903 44.9462 18.3915Z" fill="black" stroke="black" stroke-width="1.5"/>
<path d="M12.6499 81.508C16.2253 67.3279 31.3165 63.0574 48.1302 59.5803C64.9438 56.1031 76.6817 78.0899 77.7122 84.774C78.4102 89.3014 82.693 97.6032 85.9905 113.154L97.0322 112.253C102.404 111.584 107.737 110.92 107.833 111.372C109.192 117.761 109.561 119.927 110.546 124.489L64.9238 135.469C51.1661 138.959 20.2232 145.751 18.231 143.578C15.6757 140.791 8.18063 99.2331 12.6499 81.508Z" fill="#7871CB"/>
<path d="M85.9905 113.154C82.693 97.6032 78.4102 89.3014 77.7122 84.774C76.6817 78.0899 64.9438 56.1031 48.1302 59.5803C31.3165 63.0574 16.2253 67.3279 12.6499 81.508C8.18063 99.2331 15.6757 140.791 18.231 143.578C20.2232 145.751 51.1661 138.959 64.9238 135.469L110.546 124.489C109.561 119.927 109.192 117.761 107.834 111.372M85.9905 113.154C86.1864 114.078 107.64 110.462 107.834 111.372M85.9905 113.154L107.834 111.372" stroke="black" stroke-width="0.75"/>
<path d="M55.7082 74.2785C48.9074 75.2557 44.8986 68.3071 41.6738 61.1282C41.6738 61.1282 43.813 56.1792 44.045 51.8393C44.2769 47.4993 44.1723 40.4392 44.1723 40.4392C47.8681 44.1099 59.0101 53.6373 58.7996 54.3675C58.5892 55.0978 58.5187 60.2913 58.5097 62.7969C58.7805 69.283 59.3156 73.7601 55.7082 74.2785Z" fill="#FFCCAF" stroke="black" stroke-width="0.75"/>
<g style="mix-blend-mode:darken">
<path d="M59.0747 69.4349L44.2731 46.1201L58.4395 56.0219L59.0747 69.4349Z" fill="#FA9F6C"/>
</g>
<path d="M62.4266 57.1588C70.3821 53.9692 74.3833 42.1362 74.0464 31.5848C74.2494 24.5392 65.0767 16.5822 53.8445 20.7713C45.9574 24.3104 45.575 40.7904 45.6114 39.5263C45.6668 37.6047 42.9968 36.0336 41.8606 36.213C39.6999 36.5541 38.3924 37.5407 38.4105 40.2404C38.4382 44.3744 42.6616 47.5682 44.1195 47.1355C44.9882 46.8777 52.4823 61.1459 62.4266 57.1588Z" fill="#FFCCAF" stroke="black" stroke-width="0.75"/>
<path d="M58.5619 49.5102C58.7604 48.9109 63.5718 49.5181 64.0443 50.0008C64.5167 50.4835 62.5279 51.8555 60.5626 51.5024C58.3654 51.1077 58.3633 50.1094 58.5619 49.5102Z" fill="#FFB4B4" stroke="black" stroke-width="0.75"/>
<path d="M65.4952 30.9367C68.6204 23.3342 65.7388 21.0705 66.2369 21.0849C64.0176 16.5336 56.721 14.77 50.9133 16.0984C45.1056 17.4268 44.555 27.8743 44.8528 32.3702C45.091 35.9669 44.8832 43.8723 46.9098 46.2886C46.5423 41.348 47.5057 42.1392 50.0452 38.4941C53.2408 33.9072 57.3079 32.2791 58.8104 26.8882C59.589 30.6532 59.8875 32.0964 55.6424 36.0279C62.0968 34.5045 64.6133 33.0821 65.4952 30.9367Z" fill="black" stroke="black" stroke-width="1.5"/>
<path d="M70.9087 31.3457C69.0201 27.3099 68.1825 25.0049 66.2355 20.8888C66.0405 20.2421 67.6819 16.9529 72.6837 19.5788C75.443 21.0274 77.4979 27.4377 78.0277 31.2992C78.4515 34.3885 75.126 40.5209 73.0293 41.6001C72.9034 41.0266 72.8629 35.522 70.9087 31.3457Z" fill="black" stroke="black" stroke-width="1.5"/>
<ellipse cx="59.9721" cy="40.6865" rx="0.854375" ry="1.28156" transform="rotate(1.65075 59.9721 40.6865)" fill="black"/>
<ellipse cx="68.5904" cy="41.9892" rx="0.854375" ry="1.28156" transform="rotate(1.65075 68.5904 41.9892)" fill="black"/>
<path d="M65.5 42.8452C66.1736 43.1489 66.8438 43.5662 66.6587 44.0726C66.4735 44.579 65.8939 44.9603 65.4313 45.2313" stroke="black" stroke-width="0.75" stroke-linecap="round"/>
<path d="M57.0286 36.666C57.7147 37.1336 59.4855 37.8353 61.0801 36.9007" stroke="black" stroke-width="0.75" stroke-linecap="round"/>
<path d="M63.3027 42.5699C63.2244 44.1064 61.7291 45.3325 59.896 45.2391C58.0629 45.1457 56.6998 43.774 56.7781 42.2375C56.8564 40.7009 58.3518 39.4749 60.1849 39.5683C62.018 39.6616 63.381 41.0333 63.3027 42.5699Z" stroke="black" stroke-width="0.5"/>
<path d="M72.279 43.6889C72.2091 45.0608 70.9471 46.1427 69.4225 46.0651C67.8979 45.9874 66.7524 44.7828 66.8223 43.4109C66.8922 42.0389 68.1542 40.957 69.6788 41.0347C71.2034 41.1124 72.3489 42.3169 72.279 43.6889Z" stroke="black" stroke-width="0.5"/>
<path d="M66.5839 42.7465L63.2185 42.8771M57.1236 40.7451L45.0458 37.0234" stroke="black" stroke-width="0.5" stroke-linecap="round"/>
<path d="M68.2806 37.259C68.8223 37.8883 70.3512 39.0244 72.1333 38.5344" stroke="black" stroke-width="0.75" stroke-linecap="round"/>
<path d="M69.1413 79.7069C71.7345 84.0788 74.6898 90.1858 74.427 98.7835C74.1007 109.457 76.716 122.103 80.8423 129.804" stroke="black" stroke-width="0.75" stroke-linecap="round"/>
<path d="M28.4454 87.8889C30.7694 98.795 31.4191 121.627 33.4596 124.058C34.8977 125.772 51.6057 127.601 61.6968 126.385L61.7191 129.8L61.6281 135.974" stroke="black" stroke-width="0.75"/>
<circle cx="42.1542" cy="15.193" r="8.37705" transform="rotate(-11.6843 42.1542 15.193)" fill="black"/>
</g>
</svg>
