<svg width="100" height="100" viewBox="0 0 100 100" fill="none" xmlns="http://www.w3.org/2000/svg">
<mask id="mask0_192_7737" style="mask-type:alpha" maskUnits="userSpaceOnUse" x="0" y="0" width="100" height="100">
<circle cx="50" cy="50" r="50" fill="#3D9AB7"/>
</mask>
<g mask="url(#mask0_192_7737)">
<circle cx="50.56" cy="50" r="50" fill="#009BB7"/>
<path d="M14.1185 73.1097C19.7332 66.2667 37.952 64.5539 43.2889 64.1152C54.4746 64.627 80.4382 66.7423 83.3109 73.1097C86.0495 79.1797 87.2129 78.9914 87.271 84.4726C87.5241 108.386 82.0149 126.222 82.1098 134.521C82.4321 162.696 83.3109 168.857 83.3109 170.71H7.10001C12.7628 119.906 11.6944 130.307 14.1185 107.691L-5.55886 101.584C-5.21629 97.6208 7.08362 80.1717 10.8978 76.748L14.1185 73.1097Z" fill="#383E72" stroke="black" stroke-width="0.5625" stroke-linecap="round"/>
<path d="M31.7431 170.404L33.0591 64.4714C46.6574 60.0848 53.0502 63.8584 60.1417 65.8827L40.8563 170.404H31.7431Z" fill="white" stroke="black" stroke-width="0.5625"/>
<path d="M36.0655 78.5788L35.4075 64.9804C40.8906 62.5676 59.3028 63.9892 60.3994 65.7436C61.496 67.4981 58.6561 78.5788 58.6561 78.5788L47.2511 71.1217L36.0655 78.5788Z" fill="white" stroke="black" stroke-width="0.5625"/>
<path d="M29.283 28.1347C28.8444 32.9599 31.915 38.3699 33.2309 39.5397L59.1114 52.9186C61.7434 48.0934 67.2704 37.785 68.3232 35.1531C69.6391 31.8632 67.4459 19.3616 57.3568 13.8784C49.2856 9.49188 41.1266 13.8053 38.0561 16.5103C37.1057 17.2414 34.81 18.9229 33.2309 19.8002C31.2569 20.8969 29.7215 23.3095 29.283 28.1347Z" fill="#272727" stroke="black" stroke-width="0.5625"/>
<path d="M40.0303 67.8325C40.9076 62.7879 41.3461 55.7695 41.3461 55.7695C37.6175 56.4275 34.1085 50.7249 33.0118 47.6544C31.9152 44.5838 32.5732 38.4426 32.5732 35.8107C32.5732 35.0548 32.5732 33.6174 33.4505 32.9595C34.3278 32.3015 36.9597 35.1527 36.0826 24.625L37.8369 23.3091C38.7142 23.894 43.2763 30.1959 43.9782 31.4242C44.8555 32.9595 51.8739 31.8628 53.6286 33.3981C55.3832 34.9334 55.1638 35.3721 55.6025 35.8107C56.0412 36.2494 56.0412 42.6099 57.1378 43.2678C57.3132 41.8641 60.2814 38.004 61.0856 38.004C67.2267 36.9074 67.2269 43.4872 65.4722 46.1191C64.5749 47.465 61.4511 50.067 59.7696 50.2863C59.1691 56.8922 59.7695 67.1745 59.7696 69.3677C59.7697 71.561 39.153 72.877 40.0303 67.8325Z" fill="#FFCCAF" stroke="black" stroke-width="0.5625"/>
<path d="M37.4167 38.4434C36.8318 38.6627 35.7059 39.3207 35.8814 40.198C36.0569 41.0753 36.978 41.4408 37.4167 41.5139" stroke="black" stroke-width="0.5" stroke-linecap="round"/>
<path d="M35.863 45.6798C36.3238 44.8116 40.9042 44.8123 41.8203 45.6791" stroke="black" stroke-width="0.5" stroke-linecap="round"/>
<ellipse cx="35.2051" cy="37.3457" rx="0.657981" ry="1.09663" fill="#272727"/>
<ellipse cx="43.1009" cy="37.3457" rx="0.657981" ry="1.09663" fill="#272727"/>
<path d="M32.5729 34.0525C33.038 33.8043 34.2595 33.4143 35.4247 33.8405" stroke="black" stroke-linecap="round"/>
<path d="M42.8814 33.4464C43.6522 33.8198 43.6522 33.8198 45.7384 33.5701" stroke="black" stroke-linecap="round"/>
<path d="M57.1378 47.4351C54.5059 52.1725 45.6597 54.9653 41.5656 55.7695L41.127 62.3493C53.9357 58.1382 57.1378 50.6519 57.1378 47.4351Z" fill="#FA9F6C"/>
<path d="M32.6597 53.9711C32.6597 55.4368 32.6596 57.6354 30.8274 58.5515C27.1631 61.2997 24.4147 66.7962 24.4147 66.7962C24.4147 66.7962 23.4986 69.5445 23.4986 73.2088C23.4986 76.8732 28.079 75.041 28.9951 75.041C29.911 75.041 39.9881 70.4629 41.8203 70.4629C43.6525 70.4629 43.6525 66.7985 43.6525 64.0503C43.6525 62.1059 42.7362 60.386 42.7364 59.4699C42.7366 58.5538 53.7294 52.1412 52.8133 50.309C51.6739 48.0303 41.8205 54.8872 39.9883 56.7193C38.1562 58.5515 36.324 55.8032 36.324 54.8872C36.324 53.9711 34.4918 50.3067 32.6597 50.3067C30.8275 50.3067 32.6597 52.1389 32.6597 53.9711Z" fill="#FFCCAF" stroke="black" stroke-width="0.5625"/>
<path d="M18.8701 96.6866C21.4758 95.3837 26.4702 99.4009 28.6416 101.572C27.963 106.322 26.6059 115.09 26.6059 112.158C26.6059 109.227 13.5771 107.408 7.06275 106.865C9.91279 104.015 16.2643 97.9894 18.8701 96.6866Z" fill="#FFCCAF" stroke="black" stroke-width="0.5"/>
<path d="M57.3937 99.7777C61.9741 93.3651 71.135 73.2103 79.3797 70.4631C87.6245 67.7159 91.2888 86.9514 83.0441 99.7777C80.5673 103.631 71.135 120.848 61.9741 122.68C52.8133 124.512 42.8918 119.385 24.5701 116.637C24.5701 116.637 22.5344 114.194 24.5701 106.458C26.6059 98.7225 29.0488 97.9082 29.0488 97.9082C42.1793 100.351 55.6898 102.163 57.3937 99.7777Z" fill="#383E72" stroke="black" stroke-width="0.5625"/>
<path d="M29.456 71.4436C25.3845 69.0007 25.3386 64.9676 25.339 63.1351C25.3393 61.3025 1.3294 90.9832 -3.06781 96.1132C-8.56431 102.526 -14.109 126.001 7.9252 119.015C13.5574 117.23 36.7845 74.8029 36.7847 73.8865C36.7848 72.97 33.5275 73.8865 29.456 71.4436Z" fill="#383E72" stroke="black" stroke-width="0.5625"/>
</g>
</svg>
