<svg width="100" height="100" viewBox="0 0 100 100" fill="none" xmlns="http://www.w3.org/2000/svg">
<circle cx="50" cy="50" r="50" fill="#7C7AF0"/>
<mask id="mask0_191_7711" style="mask-type:alpha" maskUnits="userSpaceOnUse" x="0" y="0" width="100" height="100">
<circle cx="50" cy="50" r="50" fill="#86AC93"/>
</mask>
<g mask="url(#mask0_191_7711)">
<path d="M19.8647 75.3058C23.4048 65.8659 44.5642 61.6022 50.8577 61.9956C72.328 61.9954 77.2116 72.1157 80.7517 78.8022C84.2918 85.4887 85.8161 88.7932 86.9962 97.6142C88.1762 106.435 73.1348 101.763 73.1348 101.763L80.7517 151H20.177C20.3081 144.575 27.4099 108.106 27.0952 106.218C26.7805 104.33 18.2103 110.545 13.8835 106.218C7.93774 100.272 17.7831 80.8566 19.8647 75.3058Z" fill="#F9856C" stroke="black" stroke-width="0.5" stroke-linecap="round"/>
<path d="M69.9881 17.6314C71.9193 18.7043 73.2661 20.3354 73.2661 27.9852C73.2661 35.6351 70.3139 35.922 69.9881 37.7953C67.8129 50.3032 67.9943 60.6176 71.283 60.5351L24.7699 62.0196C30.22 57.6595 36.6853 35.227 35.6554 32.652C34.3679 29.4333 36.5137 17.2023 46.3843 11.8378C54.2809 7.54616 62.2632 11.7662 65.2673 14.4127C66.1972 15.128 68.4431 16.7731 69.9881 17.6314Z" fill="#623F3F"/>
<path d="M71.3045 60.5344L24.7699 62.0196C30.22 57.6595 36.6853 35.227 35.6554 32.652C34.3679 29.4333 36.5137 17.2023 46.3843 11.8378C54.2809 7.54616 62.2632 11.7662 65.2673 14.4127C66.1972 15.128 68.4431 16.7731 69.9881 17.6314C71.9193 18.7043 73.2661 20.3354 73.2661 27.9852C73.2661 35.6351 70.3139 35.922 69.9881 37.7953C67.8081 50.3305 67.9951 60.6626 71.3045 60.5344Z" stroke="black" stroke-width="0.5625"/>
<path d="M38.4446 38.4045C39.3225 39.7213 42.3787 42.2669 44.0238 42.4815C44.4148 46.7825 44.3213 56.8468 44.1909 62.4154C44.1254 65.2145 37.1508 63.9555 37.5 67C37.8492 70.0445 49.2818 74.9344 53.6311 75.0024C57.5902 75.0643 66 70 65.4314 67.5289C64.8628 65.0578 59.8591 64.0651 59.7346 63.2021C59.096 58.779 58.7674 52.9707 58.7674 52.9707C62.4153 53.6145 67.0439 48.1836 68.1168 45.1795C69.1897 42.1754 70.6316 35.87 70.6316 33.295C70.6316 30.0931 69.6904 24.4626 67.1981 22.3514L65.4817 21.064C64.6234 21.6362 54.7359 22.5348 53.1009 26.3498C52.4194 27.94 51.7485 29.4326 50.0319 30.9346C48.3153 32.4367 48.5298 32.8659 48.1007 33.295C47.6715 33.7242 47.6715 34.9712 46.5986 35.615C46.427 34.2416 43.5231 30.465 42.7363 30.465C36.7281 29.3921 36.7278 35.8295 38.4446 38.4045Z" fill="#FFCCAF" stroke="black" stroke-width="0.5625"/>
<path d="M61.9871 36.8301C61.9871 37.1196 62.8203 38.5747 62.8203 38.7546C62.8203 39.2996 62.4163 39.7627 61.9871 39.8342" stroke="black" stroke-width="0.5" stroke-linecap="round"/>
<path d="M62.5171 43.8102C62.0663 42.9608 57.585 42.9615 56.6888 43.8096" stroke="black" stroke-width="0.5" stroke-linecap="round"/>
<ellipse rx="0.817093" ry="1.22564" transform="matrix(-1 0 0 1 56.123 36.5557)" fill="#272727"/>
<ellipse rx="0.817093" ry="1.22564" transform="matrix(-1 0 0 1 64.2939 36.5557)" fill="#272727"/>
<path d="M66.726 32.5335C66.271 32.2906 65.076 31.9091 63.936 32.326" stroke="black" stroke-width="0.5" stroke-linecap="round"/>
<path d="M56.6407 31.9411C56.123 31.6527 55.958 31.3264 53.8456 32.0622" stroke="black" stroke-width="0.5" stroke-linecap="round"/>
<path d="M45.2626 45.6992C47.4255 50.0336 54.8834 52.2353 58.248 52.971L58.7674 59.204C48.241 55.3512 45.2626 48.6423 45.2626 45.6992Z" fill="#FA9F6C"/>
<circle r="1.57337" transform="matrix(-1 0 0 1 43.4042 41.1754)" fill="#6C79F9"/>
<path d="M13.8013 106.431C12.64 94.2374 70.4427 84.7971 73.5894 86.3704C76.7361 87.9438 88.6146 93.1036 86.1764 97.7774C83.9754 101.996 78.7889 97.2175 76.7361 97.7774C72.4094 98.9574 14.588 114.691 13.8013 106.431Z" fill="#FFCCAF" stroke="black" stroke-width="0.5" stroke-linecap="round"/>
<path d="M29.535 98.1706C24.2118 95.719 16.6381 102.349 17.3414 100.317C17.9629 98.5225 22.2223 91.8132 27.9617 91.0904C42.2794 89.2874 80.6386 95.5628 83.423 96.5972C86.2073 97.6315 86.3266 102.152 85.6129 103.873C83.802 108.24 74.4891 108.508 71.3143 107.989C68.035 107.453 44.7573 105.181 29.535 98.1706Z" fill="#FFCCAF" stroke="black" stroke-width="0.5" stroke-linecap="round"/>
</g>
</svg>
