<svg width="100" height="100" viewBox="0 0 100 100" fill="none" xmlns="http://www.w3.org/2000/svg">
<mask id="mask0_191_7701" style="mask-type:alpha" maskUnits="userSpaceOnUse" x="0" y="0" width="100" height="100">
<circle cx="50" cy="50" r="50" fill="#C4C4C4"/>
</mask>
<g mask="url(#mask0_191_7701)">
<circle cx="50" cy="50" r="50" fill="#009F60"/>
<path d="M100.5 102.5C100.5 102.5 96.6717 89.2908 93 79.5C91.4723 75.4262 75.7289 74.2112 70.8611 71.4493C79.4284 68.1855 70.8377 57.6308 55.3585 59.2103C35.3682 61.2501 38.4355 69.7622 33.3284 73.4891C24.3495 80.0412 16.8405 81.0794 14.5 85.5C10.8283 92.4351 11.2983 95.7533 10.0744 104.902C8.85052 114.051 23.1293 109.798 23.1293 109.798L19.8656 135.5H78.2046C78.0686 128.836 85.6295 132.562 85.9558 130.604C86.2822 128.646 81.4682 117.549 85.9558 113.061C90.4434 108.574 100.5 102.5 100.5 102.5Z" fill="#5A4265" stroke="black" stroke-width="0.5" stroke-linecap="round"/>
<path d="M34.7217 21.6777C32.7187 22.7905 32.5125 25.7574 33.3284 31.061C34.1443 36.3645 34.3838 39.0751 34.7217 41.018C36.9828 54.0192 46.2868 57.1754 47.1992 57.9864L59.203 55.5386C64.3337 49.0112 69.2625 38.3541 70.3308 35.6835C71.6661 32.3451 70.3308 17.1903 59.203 14.0955C40.1702 8.80225 39.0399 15.5583 33.3284 12.7025C31.2886 20.0459 36.3242 20.7875 34.7217 21.6777Z" fill="#5B3232" stroke="black" stroke-width="0.5625"/>
<path d="M67.4379 41.6502C66.5273 43.016 63.3576 45.6562 61.6513 45.8788C61.2458 50.3397 61.3428 58.3303 61.4779 64.1059C61.5459 67.0091 62.9866 69.4811 62.9867 70.2256C62.9867 71.3907 56.1978 77.0903 51.6868 77.1608C47.5806 77.2251 42.1729 72.3805 42.7116 70.2256C42.8961 69.4874 45.2273 65.8169 45.3565 64.9219C46.0188 60.3343 46.0188 56.8455 46.0188 56.8455C42.2352 57.5132 37.522 52.0476 36.4093 48.9318C35.2965 45.816 34.0544 39.0215 34.0544 36.3508C34.0544 35.616 33.5992 36.5144 36.1841 34.3247L39.3956 23.6651C40.2859 24.2585 42.2397 22.2086 43.9355 26.1655C44.1553 26.6785 45.8416 24.0471 47.1992 24.9416C48.4231 27.3894 49.647 24.9416 50.8709 26.9814C52.9345 29.3301 54.6355 33.2164 55.4198 33.9027C57.2003 35.4606 56.9777 35.9057 57.4228 36.3508C57.8679 36.7959 57.8679 38.0893 58.9807 38.757C59.1588 37.3326 62.1706 33.4156 62.9867 33.4156C69.2182 32.3028 69.2184 38.9795 67.4379 41.6502Z" fill="#FFCCAF" stroke="black" stroke-width="0.5625"/>
<path d="M43.0202 40.0166C43.0202 40.3169 42.156 41.826 42.156 42.0127C42.1561 42.578 42.5751 43.0582 43.0202 43.1324" stroke="black" stroke-width="0.5" stroke-linecap="round"/>
<path d="M42.0142 46.2296C42.8742 46.2291 44.8699 46.2294 46.7912 46.229" stroke="black" stroke-width="0.5" stroke-linecap="round"/>
<circle cx="40.3661" cy="39.3222" r="1.13053" fill="#272727"/>
<circle cx="49.4104" cy="39.3222" r="1.13053" fill="#272727"/>
<path d="M38.1051 35.5607C38.577 35.3088 39.8165 34.9131 40.9989 35.3455" stroke="black" stroke-linecap="round"/>
<path d="M48.5653 34.9463C49.3475 35.3252 49.3475 35.3252 51.4644 35.0719" stroke="black" stroke-linecap="round"/>
<path d="M60.7158 48.3665C58.2998 53.0349 50.1796 55.787 46.4215 56.5795L46.0188 63.0634C57.7764 58.9137 60.7158 51.5364 60.7158 48.3665Z" fill="#FA9F6C"/>
</g>
</svg>
