<svg width="171" height="54" viewBox="0 0 171 54" fill="none" xmlns="http://www.w3.org/2000/svg">
<path d="M45.5625 28.6875H28.6875C28.2399 28.6875 27.8107 28.8653 27.4943 29.1818C27.1778 29.4982 27 29.9274 27 30.375V42.5039C27.0038 42.8975 27.145 43.2773 27.3992 43.5778C27.6534 43.8782 28.0047 44.0804 28.3922 44.1492L45.2672 47.2289H45.5625C45.959 47.2368 46.3436 47.0935 46.6383 46.8281C46.8263 46.6745 46.9785 46.4816 47.0841 46.263C47.1898 46.0444 47.2464 45.8053 47.25 45.5625V30.375C47.25 29.9274 47.0722 29.4982 46.7557 29.1818C46.4393 28.8653 46.0101 28.6875 45.5625 28.6875Z" fill="#464555"/>
<path d="M45.9965 6.80281C46.2341 6.86859 46.4535 6.98758 46.6383 7.15076C46.829 7.30668 46.9828 7.50295 47.0886 7.72545C47.1944 7.94794 47.2495 8.19112 47.25 8.43748V23.625C47.25 24.0726 47.0722 24.5018 46.7557 24.8183C46.4393 25.1347 46.0101 25.3125 45.5625 25.3125H28.6875C28.2399 25.3125 27.8107 25.1347 27.4943 24.8183C27.1778 24.5018 27 24.0726 27 23.625V11.4961C27.0038 11.1025 27.145 10.7227 27.3992 10.4222C27.6534 10.1218 28.0047 9.91962 28.3922 9.85076L45.2672 6.77107C45.5096 6.72617 45.759 6.73702 45.9965 6.80281Z" fill="#464555"/>
<path d="M22.3672 11.1026C22.604 11.1645 22.8244 11.2772 23.0133 11.4328C23.2045 11.5929 23.3584 11.793 23.4641 12.0189C23.5698 12.2449 23.6247 12.4912 23.625 12.7406V23.625C23.625 24.0726 23.4472 24.5018 23.1308 24.8183C22.8143 25.1347 22.3851 25.3125 21.9375 25.3125H8.43751C7.98995 25.3125 7.56073 25.1347 7.24426 24.8183C6.9278 24.5018 6.75001 24.0726 6.75001 23.625V15.1875C6.74884 14.7903 6.88782 14.4054 7.14247 14.1006C7.39712 13.7958 7.75113 13.5906 8.14219 13.5211L21.6422 11.0742C21.8831 11.031 22.1305 11.0407 22.3672 11.1026Z" fill="#464555"/>
<path d="M23.625 41.2594V30.375C23.625 29.9274 23.4472 29.4982 23.1307 29.1818C22.8142 28.8653 22.385 28.6875 21.9375 28.6875H8.43746C7.9899 28.6875 7.56068 28.8653 7.24421 29.1818C6.92775 29.4982 6.74996 29.9274 6.74996 30.375V38.8125C6.74378 39.2133 6.88047 39.6032 7.13556 39.9124C7.39065 40.2216 7.74748 40.4299 8.14214 40.5L21.6421 42.9469H21.9375C22.3299 42.9527 22.7114 42.818 23.0132 42.5672C23.2045 42.4071 23.3583 42.207 23.464 41.9811C23.5697 41.7551 23.6246 41.5088 23.625 41.2594Z" fill="#464555"/>
<path d="M101.77 25.7809C101.748 22.0923 103.428 19.3124 106.82 17.2626C104.923 14.5584 102.053 13.0711 98.269 12.7844C94.6864 12.5032 90.7668 14.8612 89.3317 14.8612C87.8149 14.8612 84.3465 12.8818 81.6175 12.8818C75.9855 12.9683 70 17.3491 70 26.2623C70 28.8962 70.4838 31.6167 71.4515 34.4182C72.7454 38.1068 77.4098 47.1442 82.2753 46.9982C84.8194 46.9388 86.6189 45.2026 89.9297 45.2026C93.1425 45.2026 94.8061 46.9982 97.6438 46.9982C102.553 46.9279 106.771 38.7125 108 35.0131C101.417 31.9249 101.77 25.9702 101.77 25.7809ZM96.0564 9.28512C98.8126 6.0293 98.5626 3.06546 98.481 2C96.0455 2.14062 93.2295 3.64958 91.6258 5.50467C89.859 7.49498 88.8206 9.9558 89.0435 12.7304C91.6748 12.9305 94.0776 11.5837 96.0564 9.28512Z" fill="#464555"/>
<g clip-path="url(#clip0_301_387)">
<path d="M162.333 37.0598C162.815 37.2528 163.23 37.5817 163.528 38.0064C163.796 38.4049 163.984 38.8862 164.102 39.4504C164.166 39.7819 164.243 40.0879 164.325 40.3748C164.482 40.9123 164.717 41.4236 165.023 41.892C165.173 42.1247 165.374 42.3797 165.623 42.6634C165.836 42.8961 166.028 43.1957 166.196 43.5591C166.352 43.886 166.436 44.2425 166.442 44.6046C166.454 44.9526 166.35 45.2948 166.146 45.5768C165.938 45.8505 165.684 46.0866 165.396 46.2748C165.014 46.5394 164.615 46.7721 164.201 46.9729C163.787 47.1705 163.372 47.3777 162.958 47.5944C162.338 47.8897 161.746 48.2396 161.189 48.6399C160.692 49.0065 160.191 49.4687 159.694 50.0361C159.114 50.6854 158.443 51.247 157.702 51.7031C157.323 51.9433 156.912 52.1279 156.481 52.2514C156.067 52.3661 155.652 52.4426 155.238 52.4745C154.275 52.4745 153.478 52.3088 152.847 51.9773C152.216 51.6458 151.668 51.0401 151.202 50.1604C151.069 49.9086 150.938 49.7524 150.804 49.6854C150.597 49.5978 150.38 49.5389 150.157 49.5101L147.636 49.3125C146.807 49.2488 145.962 49.2137 145.098 49.2137C144.381 49.2147 143.665 49.2722 142.956 49.3858C142.226 49.5037 141.503 49.644 140.789 49.8098C140.642 49.8416 140.492 49.9691 140.343 50.1827C140.156 50.4418 139.947 50.6839 139.718 50.9062C139.407 51.2019 139.046 51.4385 138.65 51.6043C138.087 51.8244 137.486 51.9337 136.881 51.9262C136.333 51.9262 135.743 51.8689 135.112 51.7541C134.522 51.6514 133.951 51.4579 133.419 51.1804C132.461 50.6903 131.439 50.3383 130.382 50.1349C129.384 49.9532 128.332 49.7843 127.22 49.6376C126.851 49.5896 126.485 49.5226 126.123 49.4368C125.789 49.3612 125.474 49.2168 125.199 49.0129C124.946 48.826 124.736 48.5882 124.58 48.3148C124.41 47.9666 124.324 47.5835 124.329 47.196C124.329 46.6796 124.396 46.1824 124.529 45.7011C124.663 45.2229 124.737 44.7129 124.753 44.1838C124.753 43.8172 124.727 43.4603 124.679 43.1128C124.627 42.7408 124.593 42.3663 124.577 41.9908C124.577 41.1461 124.778 40.5246 125.177 40.1229C125.575 39.7245 126.155 39.4089 126.92 39.1762C127.26 39.0734 127.58 38.9139 127.867 38.7045C128.13 38.506 128.379 38.2899 128.613 38.0574C128.85 37.8191 129.066 37.5611 129.26 37.2861C129.461 37.0024 129.684 36.7187 129.932 36.4382C129.982 36.3744 130.009 36.2959 130.009 36.2151C130.009 36.0142 129.999 35.823 129.983 35.6413L129.932 35.0421C129.932 33.9137 130.108 32.7789 130.455 31.6314C130.806 30.4839 131.262 29.3683 131.826 28.2686C132.389 27.1755 133.021 26.1193 133.719 25.1066C134.414 24.0962 135.106 23.1559 135.785 22.2921C136.707 21.1375 137.439 19.843 137.952 18.4575C138.43 17.1315 138.682 15.6844 138.698 14.1225C138.698 13.4627 138.666 12.8061 138.599 12.159C138.532 11.4971 138.499 10.8321 138.5 10.1668C138.5 8.83763 138.65 7.64231 138.947 6.58087C139.246 5.51625 139.711 4.60463 140.343 3.83963C140.974 3.07463 141.796 2.50406 142.807 2.12156C143.823 1.73906 145.035 1.53187 146.444 1.5C148.123 1.5 149.459 1.8315 150.457 2.49769C151.451 3.16069 152.216 4.03088 152.745 5.11144C153.278 6.18881 153.619 7.39369 153.765 8.72288C153.918 10.0489 154.001 11.394 154.017 12.7551V13.179C154.017 13.8611 154.023 14.4668 154.042 14.9959C154.072 16.0716 154.317 17.1305 154.763 18.1101C154.996 18.6232 155.343 19.1811 155.808 19.7771C156.605 20.8258 157.421 21.8809 158.25 22.9423C159.079 24.0038 159.834 25.1002 160.513 26.2254C161.195 27.357 161.753 28.5364 162.183 29.7636C162.617 30.9939 162.84 32.3199 162.856 33.7479C162.86 34.8738 162.684 35.993 162.333 37.0629V37.0598ZM141.442 11.1135C141.672 11.1135 141.863 11.1709 142.016 11.2856C142.171 11.4107 142.291 11.5745 142.364 11.7606C142.444 11.952 142.501 12.152 142.536 12.3566C142.567 12.5574 142.587 12.7646 142.587 12.9814C142.592 13.1183 142.566 13.2546 142.51 13.3798C142.455 13.4856 142.38 13.579 142.287 13.6539L141.987 13.9026C141.881 13.993 141.781 14.0922 141.691 14.199C141.571 14.3851 141.408 14.5393 141.216 14.6484C141.019 14.763 140.827 14.8875 140.642 15.0214C140.466 15.1495 140.299 15.2912 140.145 15.4453C140.068 15.5285 140.008 15.6265 139.97 15.7333C139.932 15.8401 139.915 15.9536 139.922 16.0669C139.922 16.2167 139.995 16.341 140.145 16.4398C140.517 16.6739 140.812 17.0119 140.993 17.412C141.159 17.7945 141.344 18.1674 141.541 18.534C141.739 18.8974 141.997 19.2034 142.312 19.4552C142.628 19.7038 143.119 19.8281 143.779 19.8281H143.932C144.595 19.7963 145.226 19.6209 145.825 19.3054C146.421 18.9898 147.021 18.6583 147.617 18.3077C147.72 18.2493 147.829 18.2002 147.942 18.1611C148.057 18.1198 148.166 18.0606 148.264 17.9857L150.08 16.5673C150.112 16.4605 150.138 16.3519 150.157 16.2422C150.176 16.1257 150.193 16.0088 150.208 15.8916C150.214 15.7331 150.169 15.5769 150.08 15.4453C149.999 15.3297 149.899 15.2284 149.784 15.1457C149.657 15.0588 149.512 15.0001 149.36 14.9736C149.208 14.9431 149.059 14.9004 148.914 14.8461C148.516 14.7644 148.137 14.6133 147.792 14.3998C147.449 14.1872 147.081 14.02 146.695 13.9026C146.632 13.8834 146.581 13.8356 146.545 13.7528C146.508 13.6546 146.475 13.5546 146.447 13.4531C146.414 13.348 146.405 13.2369 146.421 13.128C146.439 13.0445 146.43 12.9574 146.396 12.8794C146.396 12.6817 146.412 12.4746 146.447 12.2578C146.481 12.0384 146.557 11.8275 146.67 11.6363C146.767 11.4592 146.903 11.3065 147.068 11.19C147.265 11.0753 147.488 11.0138 147.715 11.0115C148.232 11.0115 148.605 11.2028 148.837 11.5853C149.07 11.9678 149.194 12.3821 149.21 12.8284C149.214 13.0267 149.172 13.2233 149.086 13.4021C149.001 13.5723 148.957 13.7601 148.958 13.9504C148.958 14.0842 149.003 14.1735 149.086 14.2245C149.186 14.2795 149.297 14.3132 149.411 14.3233C149.794 14.3233 150.039 14.2341 150.157 14.0524C150.291 13.7993 150.359 13.5164 150.355 13.23C150.355 12.8475 150.323 12.4236 150.259 11.9582C150.196 11.5079 150.06 11.0709 149.857 10.6641C149.672 10.282 149.409 9.94235 149.086 9.66638C148.74 9.39156 148.306 9.25117 147.865 9.27112C147.004 9.27112 146.38 9.48469 145.997 9.91819C145.615 10.3485 145.417 10.9956 145.401 11.8594C145.401 12.108 145.417 12.3566 145.449 12.6052C145.481 12.8571 145.5 13.1057 145.5 13.3543C145.5 13.4372 145.491 13.4786 145.475 13.4786C145.423 13.4674 145.372 13.4503 145.325 13.4276C145.225 13.3874 145.127 13.3459 145.028 13.3033C144.906 13.2519 144.781 13.2103 144.652 13.179C144.44 13.1275 144.22 13.1189 144.005 13.1535C143.873 13.1703 143.74 13.1788 143.607 13.179C143.374 13.179 143.256 13.1376 143.256 13.0547C143.256 12.8061 143.243 12.4905 143.208 12.108C143.176 11.7255 143.094 11.343 142.96 10.9605C142.848 10.6202 142.68 10.3012 142.462 10.017C142.261 9.76837 141.965 9.6345 141.567 9.61856C141.299 9.61238 141.039 9.71071 140.843 9.89269C140.639 10.082 140.462 10.2999 140.32 10.5398C140.168 10.7987 140.074 11.0883 140.046 11.3876C140.02 11.654 139.986 11.9197 139.947 12.1845C139.96 12.6243 140.035 13.06 140.171 13.4786C140.253 13.7432 140.346 13.9759 140.445 14.1767C140.544 14.3743 140.661 14.4731 140.795 14.4731C140.875 14.4731 140.987 14.4157 141.117 14.301C141.251 14.1831 141.318 14.0779 141.318 13.9759C141.318 13.9249 141.293 13.893 141.242 13.8771C141.193 13.8605 141.143 13.8519 141.092 13.8516C140.977 13.8516 140.875 13.7942 140.792 13.6762C140.707 13.5541 140.64 13.4198 140.594 13.2778C140.542 13.1213 140.492 12.9641 140.445 12.8061C140.345 12.376 140.408 11.9245 140.62 11.5374C140.77 11.2697 141.044 11.1294 141.442 11.1135ZM136.011 49.8863C136.409 49.8863 136.801 49.8544 137.184 49.7842C137.563 49.7191 137.926 49.584 138.255 49.3858C138.571 49.2032 138.829 48.936 139.001 48.6144C139.182 48.241 139.284 47.834 139.3 47.4191C139.3 47.1226 139.25 46.8283 139.151 46.5489C139.049 46.2639 138.906 45.9953 138.727 45.7521C138.53 45.4403 138.314 45.1411 138.08 44.8564C137.845 44.5706 137.629 44.2704 137.433 43.9575C137.123 43.5019 136.814 43.045 136.508 42.5869C136.212 42.1406 135.912 41.6689 135.616 41.1684C135.354 40.7444 135.104 40.3128 134.867 39.8743C134.623 39.4267 134.339 39.0021 134.019 38.6057C133.816 38.3531 133.583 38.1271 133.324 37.9331C133.058 37.7331 132.732 37.6277 132.399 37.6335C132.052 37.6284 131.716 37.7535 131.456 37.9841C131.159 38.2427 130.884 38.5253 130.634 38.8288C130.34 39.1733 130.023 39.498 129.687 39.801C129.336 40.1166 128.89 40.3652 128.342 40.5469C127.971 40.6464 127.629 40.8345 127.347 41.0951C127.115 41.3278 126.997 41.6848 126.997 42.1661C126.997 42.4976 127.022 42.8291 127.073 43.1606C127.121 43.4921 127.156 43.8268 127.172 44.1583C127.172 44.6046 127.108 45.0285 126.971 45.4269C126.843 45.8037 126.776 46.1987 126.773 46.5967C126.773 47.0462 126.933 47.3617 127.245 47.5434C127.564 47.7283 127.918 47.8526 128.316 47.9164C128.817 48.0024 129.288 48.0662 129.738 48.1172C130.184 48.1682 130.624 48.2447 131.058 48.3403C131.488 48.4423 131.918 48.5475 132.352 48.6654C132.782 48.7802 133.241 48.9651 133.722 49.2137C133.818 49.2615 133.971 49.3221 134.169 49.3858L134.841 49.6089C135.09 49.695 135.322 49.7619 135.539 49.8098C135.693 49.8511 135.851 49.8768 136.011 49.8863ZM145.127 46.8964C145.593 46.8964 146.09 46.8486 146.622 46.7466C147.706 46.5435 148.754 46.1826 149.733 45.6756C150.189 45.4432 150.622 45.1689 151.027 44.8564C151.067 44.811 151.102 44.7607 151.129 44.7066C151.161 44.6425 151.185 44.5752 151.202 44.5057V44.4803C151.301 44.1169 151.384 43.7153 151.451 43.2849C151.52 42.8465 151.579 42.4065 151.626 41.9653C151.675 41.5241 151.733 41.0841 151.802 40.6457C151.866 40.2154 151.926 39.7914 151.974 39.3771C152.041 38.9308 152.124 38.4973 152.222 38.0829C152.324 37.6686 152.455 37.2765 152.621 36.9099C152.785 36.549 153.013 36.2207 153.293 35.9409C153.62 35.6259 153.989 35.3577 154.39 35.1441V35.0931L154.364 35.0197C154.37 34.8507 154.422 34.6864 154.514 34.5448C154.626 34.3618 154.75 34.1871 154.887 34.0221C155.02 33.8544 155.181 33.711 155.362 33.5981C155.528 33.4987 155.703 33.4154 155.885 33.3495C155.784 32.949 155.676 32.5504 155.56 32.1542C155.444 31.7598 155.344 31.3611 155.26 30.9589C155.179 30.4499 155.08 29.9439 154.964 29.4416C154.871 29.0521 154.754 28.6688 154.613 28.2941C154.47 27.929 154.277 27.5857 154.039 27.2741C153.794 26.9426 153.485 26.541 153.121 26.0788C152.983 25.9237 152.857 25.7574 152.745 25.5816C152.659 25.384 152.609 25.1723 152.599 24.9568C152.559 24.7389 152.509 24.523 152.449 24.3098C152.225 23.5025 151.968 22.705 151.677 21.9191C151.524 21.4995 151.341 21.0915 151.129 20.6983C150.96 20.3834 150.777 20.0761 150.581 19.7771C150.415 19.5285 150.24 19.4042 150.058 19.4042C149.66 19.4042 149.185 19.5636 148.636 19.8791C148.091 20.1947 147.508 20.5421 146.896 20.9246C146.281 21.3071 145.685 21.6641 145.102 21.9956C144.522 22.3271 143.999 22.4833 143.533 22.4674C143.037 22.467 142.554 22.301 142.163 21.9956C141.741 21.674 141.356 21.3062 141.015 20.8991C140.668 20.4847 140.378 20.1277 140.145 19.8281C139.912 19.5285 139.74 19.3627 139.622 19.3309C139.492 19.3309 139.415 19.4297 139.399 19.6273C139.381 19.8511 139.373 20.0754 139.374 20.2999V20.7238C139.374 20.8258 139.358 20.8896 139.323 20.9246C139.141 21.3071 138.94 21.6801 138.727 22.0434C138.51 22.41 138.296 22.7829 138.08 23.1654C137.65 23.9005 137.41 24.7308 137.382 25.5816C137.382 25.8302 137.397 26.0788 137.433 26.3274C137.464 26.5761 137.547 26.8183 137.681 27.051L137.63 27.1466C137.502 27.3243 137.36 27.4916 137.206 27.6471C137.049 27.8071 136.908 27.9822 136.785 28.1698C136.176 29.0705 135.736 30.0752 135.488 31.1342C135.24 32.1956 135.106 33.2762 135.09 34.3695C135.09 34.6532 135.109 34.9369 135.141 35.2174C135.173 35.5011 135.192 35.7816 135.192 36.0652C135.191 36.1572 135.182 36.2489 135.166 36.3394C135.15 36.4299 135.142 36.5216 135.141 36.6135C135.495 36.6535 135.836 36.7722 136.138 36.9609C136.521 37.1777 136.935 37.4518 137.382 37.7833C137.828 38.1148 138.255 38.4973 138.653 38.9308C139.052 39.3611 139.431 39.7819 139.798 40.1994C140.164 40.6138 140.429 41.0282 140.594 41.4426C140.76 41.8569 140.869 42.198 140.916 42.4626C140.925 42.6553 140.894 42.8477 140.826 43.0281C140.757 43.2084 140.652 43.3728 140.518 43.5113C140.232 43.7901 139.894 44.0099 139.524 44.1583C139.807 44.6556 140.155 45.0795 140.569 45.4269C140.983 45.7776 141.433 46.0581 141.914 46.2748C142.395 46.4916 142.918 46.6477 143.482 46.7466C144.046 46.8486 144.598 46.8964 145.127 46.8964ZM155.113 50.4345C155.461 50.4345 155.802 50.3835 156.133 50.2847C156.636 50.1407 157.114 49.9226 157.552 49.6376C157.985 49.3539 158.381 49.0065 158.747 48.5889C159.613 47.5899 160.673 46.7766 161.861 46.1983L162.684 45.8254C162.966 45.7024 163.24 45.5607 163.503 45.4014C163.693 45.2809 163.87 45.1398 164.029 44.9807C164.109 44.9031 164.173 44.8099 164.215 44.7068C164.258 44.6038 164.279 44.493 164.278 44.3814C164.278 44.2532 164.252 44.1263 164.201 44.0085C164.142 43.8758 164.067 43.7507 163.978 43.6356C163.751 43.3193 163.535 42.995 163.331 42.6634C163.146 42.3617 162.987 42.045 162.856 41.7167L162.458 40.7222C162.314 40.3571 162.197 39.9821 162.107 39.6002C162.072 39.4822 162.014 39.3726 161.935 39.2783C161.775 39.0387 161.556 38.8441 161.299 38.713C161.042 38.5819 160.756 38.5186 160.468 38.5292C160.171 38.5281 159.879 38.605 159.621 38.7523L158.773 39.2273C158.478 39.3909 158.179 39.5482 157.877 39.699C157.584 39.8468 157.259 39.9232 156.93 39.9221C156.637 39.935 156.347 39.8485 156.108 39.6767C155.879 39.4947 155.692 39.2653 155.56 39.0041C155.418 38.7382 155.293 38.4635 155.187 38.1818L154.887 37.3594C154.757 37.5726 154.608 37.7732 154.441 37.9586C154.27 38.1486 154.135 38.3678 154.042 38.6057C153.826 39.1029 153.692 39.6576 153.644 40.2727C153.561 41.2354 153.453 42.1725 153.319 43.0873C153.183 44.0201 152.959 44.9379 152.65 45.8286C152.562 46.1133 152.494 46.4042 152.449 46.6988C152.399 47.0039 152.365 47.3114 152.347 47.6199C152.347 48.4327 152.599 49.1053 153.096 49.6376C153.593 50.1668 154.266 50.4345 155.113 50.4345Z" fill="#464555"/>
</g>
<defs>
<clipPath id="clip0_301_387">
<rect width="51" height="51" fill="white" transform="translate(120 1.5)"/>
</clipPath>
</defs>
</svg>
