<svg width="150" height="150" viewBox="0 0 150 150" fill="none" xmlns="http://www.w3.org/2000/svg">
<path d="M13 41.7487L75.35 2L136.93 41.7487V112.073L75.35 148L13 112.073V41.7487Z" fill="url(#paint0_linear_293_857)" fill-opacity="0.8"/>
<path d="M75.3896 34.2559L41.0117 56.3256V95.3721M75.3896 34.2559L109.343 56.3256V95.3721M75.3896 34.2559V78.3954M41.0117 95.3721L75.3896 115.32L109.343 95.3721M41.0117 95.3721L75.3896 78.3954M109.343 95.3721L75.3896 78.3954" stroke="white"/>
<path d="M41.436 56.7492L13 41.8945" stroke="white" stroke-dasharray="2 2"/>
<path d="M108.918 56.7505L136.93 42.3203" stroke="white" stroke-dasharray="2 2"/>
<circle cx="75.0863" cy="55.0707" r="2.98865" fill="white"/>
<circle cx="75.0863" cy="75.9906" r="2.98865" fill="white"/>
<circle cx="75.0863" cy="94.7758" r="2.98865" fill="white"/>
<circle cx="57.5824" cy="64.889" r="2.98865" fill="white"/>
<circle cx="57.5824" cy="84.5297" r="2.98865" fill="white"/>
<circle cx="91.7367" cy="64.889" r="2.98865" fill="white"/>
<circle cx="91.7367" cy="84.5297" r="2.98865" fill="white"/>
<path d="M57.7969 66.171L75.0883 55.0703L92.1663 66.171V85.8107L75.0883 95.844L57.7969 85.8107V66.171Z" fill="white" fill-opacity="0.4"/>
<path d="M57.7969 66.171L75.0883 55.0703L92.1663 66.171M57.7969 66.171V85.8107L75.0883 95.844M57.7969 66.171L75.0883 77.2717M75.0883 95.844L92.1663 85.8107V66.171M75.0883 95.844V77.2717M92.1663 66.171L75.0883 77.2717" stroke="white"/>
<path d="M56.7285 84.9556L74.6604 76.2031L90.8845 84.9556" stroke="white" stroke-dasharray="2 2"/>
<defs>
<linearGradient id="paint0_linear_293_857" x1="13" y1="73.3408" x2="136.93" y2="73.3408" gradientUnits="userSpaceOnUse">
<stop stop-color="#6C79F9"/>
<stop offset="1" stop-color="#A16CF9"/>
</linearGradient>
</defs>
</svg>
