<svg width="1034" height="217" viewBox="0 0 1034 217" fill="none" xmlns="http://www.w3.org/2000/svg">
<path d="M47.366 209H52.852C58.52 209 62.16 205.776 62.16 199.302C62.16 192.802 58.52 189.734 52.644 189.734H47.366V209ZM51.214 205.906V192.828H52.41C55.998 192.828 58.234 194.596 58.234 199.302C58.234 203.982 55.998 205.906 52.41 205.906H51.214ZM69.2025 209.364C70.8665 209.364 72.3225 208.532 73.5965 207.44H73.7005L73.9605 209H77.0805V200.498C77.0805 196.286 75.1825 194.076 71.4905 194.076C69.2025 194.076 67.1225 194.934 65.4065 196L66.7845 198.522C68.1365 197.742 69.4365 197.144 70.7885 197.144C72.5825 197.144 73.2065 198.236 73.2845 199.666C67.4085 200.29 64.8865 201.928 64.8865 205.048C64.8865 207.518 66.6025 209.364 69.2025 209.364ZM70.4505 206.374C69.3325 206.374 68.5265 205.88 68.5265 204.736C68.5265 203.436 69.7225 202.448 73.2845 202.006V204.944C72.3485 205.854 71.5425 206.374 70.4505 206.374ZM85.8235 209.364C87.0975 209.364 88.1115 209.078 88.8915 208.818L88.2675 206.036C87.8775 206.192 87.3055 206.348 86.8375 206.348C85.5375 206.348 84.8615 205.568 84.8615 203.904V197.456H88.4495V194.44H84.8615V190.514H81.6895L81.2475 194.44L78.9855 194.622V197.456H81.0395V203.904C81.0395 207.154 82.3655 209.364 85.8235 209.364ZM94.39 209.364C96.054 209.364 97.51 208.532 98.784 207.44H98.888L99.148 209H102.268V200.498C102.268 196.286 100.37 194.076 96.678 194.076C94.39 194.076 92.31 194.934 90.594 196L91.972 198.522C93.324 197.742 94.624 197.144 95.976 197.144C97.77 197.144 98.394 198.236 98.472 199.666C92.596 200.29 90.074 201.928 90.074 205.048C90.074 207.518 91.79 209.364 94.39 209.364ZM95.638 206.374C94.52 206.374 93.714 205.88 93.714 204.736C93.714 203.436 94.91 202.448 98.472 202.006V204.944C97.536 205.854 96.73 206.374 95.638 206.374Z" fill="#D9DBE0"/>
<path d="M476.366 209H488.04V205.776H480.214V189.734H476.366V209ZM491.085 209H494.907V194.44H491.085V209ZM493.009 192.1C494.309 192.1 495.219 191.268 495.219 189.994C495.219 188.746 494.309 187.914 493.009 187.914C491.683 187.914 490.773 188.746 490.773 189.994C490.773 191.268 491.683 192.1 493.009 192.1ZM498.982 209H502.804V198.99C503.87 197.924 504.624 197.352 505.82 197.352C507.25 197.352 507.874 198.132 507.874 200.394V209H511.696V199.926C511.696 196.26 510.344 194.076 507.198 194.076C505.222 194.076 503.74 195.116 502.466 196.364H502.388L502.102 194.44H498.982V209ZM515.638 209H519.408V205.308L521.462 202.968L524.998 209H529.132L523.672 200.446L528.664 194.44H524.478L519.512 200.706H519.408V188.252H515.638V209Z" fill="#D9DBE0"/>
<path d="M913.366 209H917.214V201.72H919.892L923.844 209H928.134L923.636 201.122C925.846 200.264 927.302 198.47 927.302 195.584C927.302 191.164 924.104 189.734 920.074 189.734H913.366V209ZM917.214 198.678V192.802H919.71C922.18 192.802 923.558 193.504 923.558 195.584C923.558 197.638 922.18 198.678 919.71 198.678H917.214ZM935.119 209.364C937.095 209.364 938.499 208.402 939.747 206.92H939.851L940.137 209H943.257V194.44H939.435V204.268C938.447 205.568 937.667 206.088 936.471 206.088C935.067 206.088 934.443 205.282 934.443 203.046V194.44H930.621V203.54C930.621 207.18 931.973 209.364 935.119 209.364ZM947.331 209H951.153V198.99C952.219 197.924 952.973 197.352 954.169 197.352C955.599 197.352 956.223 198.132 956.223 200.394V209H960.045V199.926C960.045 196.26 958.693 194.076 955.547 194.076C953.571 194.076 952.089 195.116 950.815 196.364H950.737L950.451 194.44H947.331V209ZM966.406 209H970.774L972.256 202.656C972.568 201.304 972.776 199.952 973.062 198.418H973.192C973.478 199.952 973.712 201.278 974.024 202.656L975.558 209H980.056L983.644 194.44H980.108L978.522 201.616C978.262 203.046 978.054 204.424 977.794 205.88H977.664C977.352 204.424 977.092 203.046 976.754 201.616L974.934 194.44H971.554L969.786 201.616C969.422 203.02 969.162 204.424 968.876 205.88H968.772C968.512 204.424 968.33 203.046 968.044 201.616L966.458 194.44H962.636L966.406 209ZM989.716 209.364C991.38 209.364 992.836 208.532 994.11 207.44H994.214L994.474 209H997.594V200.498C997.594 196.286 995.696 194.076 992.004 194.076C989.716 194.076 987.636 194.934 985.92 196L987.298 198.522C988.65 197.742 989.95 197.144 991.302 197.144C993.096 197.144 993.72 198.236 993.798 199.666C987.922 200.29 985.4 201.928 985.4 205.048C985.4 207.518 987.116 209.364 989.716 209.364ZM990.964 206.374C989.846 206.374 989.04 205.88 989.04 204.736C989.04 203.436 990.236 202.448 993.798 202.006V204.944C992.862 205.854 992.056 206.374 990.964 206.374ZM1002.76 214.85C1006.01 214.85 1007.57 212.874 1008.85 209.442L1014.02 194.44H1010.36L1008.35 201.2C1008.02 202.552 1007.65 203.956 1007.31 205.308H1007.18C1006.77 203.904 1006.4 202.5 1005.96 201.2L1003.65 194.44H999.8L1005.47 208.74L1005.21 209.598C1004.79 210.872 1003.96 211.808 1002.48 211.808C1002.14 211.808 1001.72 211.704 1001.46 211.626L1000.76 214.564C1001.33 214.746 1001.91 214.85 1002.76 214.85Z" fill="#D9DBE0"/>
<path d="M174 80H399" stroke="white" stroke-dasharray="2 10"/>
<path d="M614 80H839" stroke="white" stroke-dasharray="2 10"/>
<circle cx="503" cy="29" r="7" fill="#D9DBE0"/>
<circle cx="503" cy="78" r="7" fill="#D9DBE0"/>
<circle cx="503" cy="122" r="7" fill="#D9DBE0"/>
<circle cx="462" cy="52" r="7" fill="#D9DBE0"/>
<circle cx="462" cy="98" r="7" fill="#D9DBE0"/>
<circle cx="542" cy="52" r="7" fill="#D9DBE0"/>
<circle cx="542" cy="98" r="7" fill="#D9DBE0"/>
<path d="M462.5 55L503 29L543 55M462.5 55V101L503 124.5M462.5 55L503 81M503 124.5L543 101V55M503 124.5V81M543 55L503 81" stroke="#D9DBE0"/>
<path d="M460 99L502 78.5L540 99" stroke="#D9DBE0" stroke-dasharray="2 2"/>
<path d="M897 41.7487L959.35 2L1020.93 41.7487V112.073L959.35 148L897 112.073V41.7487Z" fill="url(#paint0_linear_293_861)" fill-opacity="0.8"/>
<path d="M959.39 34.2559L925.012 56.3256V95.3721M959.39 34.2559L993.343 56.3256V95.3721M959.39 34.2559V78.3954M925.012 95.3721L959.39 115.32L993.343 95.3721M925.012 95.3721L959.39 78.3954M993.343 95.3721L959.39 78.3954" stroke="white"/>
<path d="M925.436 56.7492L897 41.8945" stroke="white" stroke-dasharray="2 2"/>
<path d="M992.918 56.7505L1020.93 42.3203" stroke="white" stroke-dasharray="2 2"/>
<circle cx="959.086" cy="55.0707" r="2.98865" fill="white"/>
<circle cx="959.086" cy="75.9906" r="2.98865" fill="white"/>
<circle cx="959.086" cy="94.7758" r="2.98865" fill="white"/>
<circle cx="941.582" cy="64.889" r="2.98865" fill="white"/>
<circle cx="941.582" cy="84.5297" r="2.98865" fill="white"/>
<circle cx="975.737" cy="64.889" r="2.98865" fill="white"/>
<circle cx="975.737" cy="84.5297" r="2.98865" fill="white"/>
<path d="M941.797 66.171L959.088 55.0703L976.166 66.171V85.8107L959.088 95.844L941.797 85.8107V66.171Z" fill="white" fill-opacity="0.4"/>
<path d="M941.797 66.171L959.088 55.0703L976.166 66.171M941.797 66.171V85.8107L959.088 95.844M941.797 66.171L959.088 77.2717M959.088 95.844L976.166 85.8107V66.171M959.088 95.844V77.2717M976.166 66.171L959.088 77.2717" stroke="white"/>
<path d="M940.729 84.9556L958.66 76.2031L974.884 84.9556" stroke="white" stroke-dasharray="2 2"/>
<circle cx="74.5723" cy="40" r="7" fill="#D9DBE0"/>
<circle cx="99.9102" cy="79.9277" r="7" fill="#D9DBE0"/>
<circle cx="50" cy="95.2852" r="7" fill="#D9DBE0"/>
<circle cx="89.9277" cy="110.643" r="7" fill="#D9DBE0"/>
<defs>
<linearGradient id="paint0_linear_293_861" x1="897" y1="73.3408" x2="1020.93" y2="73.3408" gradientUnits="userSpaceOnUse">
<stop stop-color="#6C79F9"/>
<stop offset="1" stop-color="#A16CF9"/>
</linearGradient>
</defs>
</svg>
