<svg width="998" height="282" viewBox="0 0 998 282" fill="none" xmlns="http://www.w3.org/2000/svg">
<g opacity="0.2">
<mask id="path-1-inside-1_290_822" fill="white">
<path fill-rule="evenodd" clip-rule="evenodd" d="M113.92 82.3201C107.69 91.1778 98.2338 97.2941 85.5585 100.698L85.5513 100.69L127.366 170.631H95.4899L55.2025 103.274L53.6541 103.389H29.0452L29.0236 170.624H0V14.2935C0 6.39997 6.40247 0.00313611 14.303 0.00313611H63.211C76.3041 -0.0976015 87.395 2.22655 96.4838 6.86768C105.565 11.5088 112.357 17.7258 116.865 25.5113C121.33 33.2321 123.57 41.8524 123.613 51.3577C123.621 51.4441 123.621 51.5304 123.621 51.6168C123.621 62.8922 120.387 73.1242 113.92 82.3201ZM27.3096 28.1737V80.3773L27.3168 80.3701H63.2182C73.6898 80.3701 81.5903 77.751 86.9125 72.4982C92.2275 67.2455 94.8922 60.1866 94.8922 51.3289C94.8922 42.4712 92.2707 35.5419 87.0349 30.5338C81.7919 25.5329 73.8482 23.0289 63.211 23.0289H32.459C29.6142 23.0289 27.3096 25.3314 27.3096 28.1737ZM364.168 36.0566C382.821 36.0566 396.843 43.3241 405.716 54.7938C413.019 64.2272 416.828 76.4956 416.828 89.9224V170.692H389.663L389.641 93.218C389.641 74.6319 377.24 59.5717 356.75 59.5717C336.261 59.5717 324.695 73.5958 323.91 91.2752V170.685H296.744V53.1964C296.744 45.857 302.7 39.9063 310.046 39.9063H310.608C317.954 39.9063 323.91 45.857 323.91 53.1964C332.818 42.655 345.515 36.0566 364.168 36.0566ZM738.76 53.558V58.4366C727.504 44.7795 711.4 36.2168 693.496 36.2168C659.474 36.2168 631.898 67.1216 631.898 105.236C631.898 143.351 659.474 174.256 693.496 174.256C711.393 174.256 727.504 165.693 738.76 152.036V170.673H765.897V53.558C765.897 46.0675 759.818 40.0016 752.328 40.0016C744.831 40.0016 738.76 46.0747 738.76 53.558ZM698.869 150.921C676.867 150.921 659.035 130.471 659.035 105.244C659.035 80.0161 676.874 59.5663 698.869 59.5663C720.863 59.5663 738.702 80.0161 738.702 105.244C738.702 130.471 720.863 150.921 698.869 150.921ZM568.189 129.734L593.323 48.942H593.33C595.008 43.5525 599.999 39.8828 605.646 39.8828C614.338 39.8828 620.539 48.2944 617.961 56.5909L582.477 170.64H553.907L526.677 83.1208L499.447 170.64H470.877L435.35 56.598C432.764 48.3016 438.972 39.8828 447.665 39.8828C453.311 39.8828 458.302 43.5525 459.98 48.9348L485.158 129.734L510.35 48.9348C512.028 43.5525 517.019 39.8828 522.665 39.8828H530.696C536.342 39.8828 541.333 43.5525 543.011 48.9348L568.189 129.734ZM856.222 133.918L890.827 48.6867L890.834 48.6939C892.98 43.3979 898.129 39.9369 903.848 39.9369H904.064C914.031 39.9369 920.823 50.0178 917.078 59.2425L846.982 231.885H816.453L841.328 170.615L793.99 59.4584C790.044 50.1977 796.842 39.9297 806.91 39.9297C812.542 39.9297 817.627 43.29 819.831 48.4708L856.222 133.918ZM159.224 155.698C168.097 167.168 182.119 174.435 200.772 174.435C218.546 174.435 232.122 167.837 241.031 157.296V170.651H268.196V53.4784C268.196 45.9806 262.118 39.9076 254.614 39.9076C247.109 39.9076 241.031 45.9806 241.031 53.4784V119.217C240.246 136.896 228.68 150.92 208.19 150.92C186.952 150.92 175.299 135.86 175.299 117.274L175.285 53.4712C175.285 45.9734 169.199 39.9004 161.702 39.9004C154.198 39.9004 148.119 45.9734 148.119 53.4712V120.562C148.119 133.989 151.929 146.258 159.232 155.691L159.224 155.698ZM995.012 35.8496C994.055 35.851 993.178 36.4191 992.79 37.2887L984.068 56.7598L975.354 37.3031C974.958 36.4181 974.079 35.8496 973.107 35.8496C971.753 35.8496 970.644 36.9505 970.644 38.3105V62.0845H974.526V43.7719L982.714 62.0845H985.415L993.568 43.8151V62.0845H997.449V38.2889C997.449 36.9445 996.357 35.8516 995.012 35.8496ZM942.899 35.8496H964.166C965.067 35.8496 965.794 36.5764 965.794 37.4758C965.794 38.3752 965.059 39.102 964.166 39.102H955.495V62.0126L955.243 62.0557H951.599V39.102H942.899C941.999 39.102 941.271 38.3752 941.271 37.4758C941.271 36.5764 942.006 35.8496 942.899 35.8496Z"/>
</mask>
<path d="M85.5585 100.698L84.8518 101.405L85.2602 101.813L85.8178 101.663L85.5585 100.698ZM113.92 82.3201L114.738 82.8954L114.738 82.8954L113.92 82.3201ZM85.5513 100.69L86.258 99.9829L84.693 101.203L85.5513 100.69ZM127.366 170.631V171.631H129.128L128.224 170.118L127.366 170.631ZM95.4899 170.631L94.6317 171.144L94.9228 171.631H95.4899V170.631ZM55.2025 103.274L56.0607 102.76L55.7439 102.231L55.1283 102.276L55.2025 103.274ZM53.6541 103.389V104.389H53.6912L53.7283 104.386L53.6541 103.389ZM29.0452 103.389V102.389H28.0455L28.0452 103.388L29.0452 103.389ZM29.0236 170.624V171.624H30.0233L30.0236 170.624L29.0236 170.624ZM0 170.624H-1V171.624H0V170.624ZM63.211 0.00313968L63.211 1.00317L63.2187 1.00311L63.211 0.00313968ZM96.4838 6.86768L96.9388 5.97722L96.9386 5.97708L96.4838 6.86768ZM116.865 25.5113L117.731 25.0107L117.731 25.0102L116.865 25.5113ZM123.613 51.3577L122.613 51.3623L122.613 51.4016L122.617 51.4408L123.613 51.3577ZM27.3096 80.3773H26.3096V82.7843L28.0152 81.0859L27.3096 80.3773ZM27.3168 80.3702V79.3702H26.9038L26.6112 79.6615L27.3168 80.3702ZM86.9125 72.4982L87.6149 73.21L87.6154 73.2095L86.9125 72.4982ZM87.0349 30.5338L87.7261 29.8112L87.7251 29.8102L87.0349 30.5338ZM405.716 54.7938L404.925 55.4057L404.925 55.406L405.716 54.7938ZM416.828 170.692V171.692H417.828V170.692H416.828ZM389.663 170.692L388.663 170.693L388.663 171.692H389.663V170.692ZM389.641 93.218L388.641 93.218L388.641 93.2183L389.641 93.218ZM323.91 91.2752L322.911 91.2309L322.91 91.253V91.2752H323.91ZM323.91 170.685V171.685H324.91V170.685H323.91ZM296.744 170.685H295.744V171.685H296.744V170.685ZM323.91 53.1964H322.91V55.9289L324.673 53.8419L323.91 53.1964ZM738.76 58.4366L737.988 59.0726L739.76 61.2221V58.4366H738.76ZM738.76 152.036H739.76V149.251L737.988 151.4L738.76 152.036ZM738.76 170.673H737.76V171.673H738.76V170.673ZM765.897 170.673V171.673H766.897V170.673H765.897ZM593.323 48.942V47.942H592.587L592.368 48.6449L593.323 48.942ZM568.189 129.734L567.234 130.031L568.189 133.097L569.143 130.031L568.189 129.734ZM593.33 48.942V49.942H594.066L594.285 49.2393L593.33 48.942ZM617.961 56.5909L618.916 56.8879L618.916 56.8876L617.961 56.5909ZM582.477 170.64V171.64H583.213L583.432 170.937L582.477 170.64ZM553.907 170.64L552.952 170.937L553.171 171.64H553.907V170.64ZM526.677 83.1208L527.632 82.8237L526.677 79.7548L525.722 82.8237L526.677 83.1208ZM499.447 170.64V171.64H500.183L500.401 170.937L499.447 170.64ZM470.877 170.64L469.922 170.938L470.141 171.64H470.877V170.64ZM435.35 56.598L436.305 56.3006L436.304 56.3005L435.35 56.598ZM459.98 48.9348L460.935 48.6373L460.935 48.6372L459.98 48.9348ZM485.158 129.734L484.203 130.031L485.158 133.094L486.113 130.031L485.158 129.734ZM510.35 48.9348L511.305 49.2325L511.305 49.2324L510.35 48.9348ZM543.011 48.9348L543.966 48.6373L543.965 48.6372L543.011 48.9348ZM890.827 48.6867L891.534 47.9796L890.467 46.9132L889.9 48.3105L890.827 48.6867ZM856.222 133.918L855.302 134.31L856.244 136.522L857.148 134.294L856.222 133.918ZM890.834 48.6939L890.127 49.401L891.194 50.4681L891.761 49.0694L890.834 48.6939ZM917.078 59.2425L918.004 59.6187L918.004 59.6187L917.078 59.2425ZM846.982 231.885V232.885H847.655L847.908 232.261L846.982 231.885ZM816.453 231.885L815.526 231.509L814.968 232.885H816.453V231.885ZM841.328 170.615L842.255 170.991L842.411 170.606L842.248 170.223L841.328 170.615ZM793.99 59.4584L794.91 59.0666L794.91 59.0663L793.99 59.4584ZM819.831 48.4708L818.91 48.8622L818.91 48.8626L819.831 48.4708ZM159.224 155.698L158.517 154.992L157.895 155.614L158.433 156.31L159.224 155.698ZM241.031 157.296H242.031V154.563L240.267 156.65L241.031 157.296ZM241.031 170.651H240.031V171.651H241.031V170.651ZM268.196 170.651V171.651H269.196V170.651H268.196ZM241.031 119.217L242.03 119.261L242.031 119.239V119.217H241.031ZM175.299 117.274L176.299 117.274L176.299 117.274L175.299 117.274ZM175.285 53.4712L174.285 53.4712L174.285 53.4714L175.285 53.4712ZM159.232 155.691L159.94 156.397L160.561 155.775L160.022 155.079L159.232 155.691ZM992.79 37.2887L993.702 37.6975L993.703 37.6966L992.79 37.2887ZM995.012 35.8496L995.013 34.8496L995.01 34.8496L995.012 35.8496ZM984.068 56.7598L983.156 57.1686L984.068 59.2062L984.981 57.1686L984.068 56.7598ZM975.354 37.3031L974.441 37.7116L974.441 37.7119L975.354 37.3031ZM970.644 62.0846H969.644V63.0846H970.644V62.0846ZM974.526 62.0846V63.0846H975.526V62.0846H974.526ZM974.526 43.7719L975.439 43.3637L973.526 43.7719H974.526ZM982.714 62.0846L981.801 62.4928L982.066 63.0846H982.714V62.0846ZM985.415 62.0846V63.0846H986.064L986.328 62.4921L985.415 62.0846ZM993.568 43.8151H994.568L992.654 43.4076L993.568 43.8151ZM993.568 62.0846H992.568V63.0846H993.568V62.0846ZM997.449 62.0846V63.0846H998.449V62.0846H997.449ZM955.495 39.102V38.102H954.495V39.102H955.495ZM955.495 62.0126L955.664 62.9982L956.495 62.8559V62.0126H955.495ZM955.243 62.0557V63.0557H955.328L955.412 63.0414L955.243 62.0557ZM951.599 62.0557H950.599V63.0557H951.599V62.0557ZM951.599 39.102H952.599V38.102H951.599V39.102ZM85.8178 101.663C98.6686 98.2127 108.346 91.9837 114.738 82.8954L113.102 81.7449C107.034 90.372 97.7991 96.3754 85.2992 99.7318L85.8178 101.663ZM84.8446 101.398L84.8518 101.405L86.2652 99.9901L86.258 99.9829L84.8446 101.398ZM128.224 170.118L86.4096 100.177L84.693 101.203L126.507 171.144L128.224 170.118ZM95.4899 171.631H127.366V169.631H95.4899V171.631ZM54.3443 103.787L94.6317 171.144L96.3481 170.118L56.0607 102.76L54.3443 103.787ZM53.7283 104.386L55.2767 104.271L55.1283 102.276L53.58 102.391L53.7283 104.386ZM29.0452 104.389H53.6541V102.389H29.0452V104.389ZM30.0236 170.624L30.0452 103.389L28.0452 103.388L28.0236 170.624L30.0236 170.624ZM0 171.624H29.0236V169.624H0V171.624ZM-1 14.2935V170.624H1V14.2935H-1ZM14.303 -0.99686C5.85102 -0.99686 -1 5.84686 -1 14.2935H1C1 6.95309 6.95393 1.00314 14.303 1.00314V-0.99686ZM63.211 -0.99686H14.303V1.00314H63.211V-0.99686ZM96.9386 5.97708C87.6744 1.2464 76.4165 -1.09849 63.2033 -0.996831L63.2187 1.00311C76.1916 0.903297 87.1156 3.20672 96.029 7.75829L96.9386 5.97708ZM117.731 25.0102C113.113 17.0369 106.169 10.6941 96.9388 5.97722L96.0287 7.75814C104.962 12.3235 111.6 18.4146 116 26.0124L117.731 25.0102ZM124.613 51.3532C124.569 41.6867 122.29 32.8933 117.731 25.0107L115.999 26.012C120.371 33.571 122.571 42.0181 122.613 51.3623L124.613 51.3532ZM124.621 51.6168C124.621 51.5372 124.621 51.4093 124.61 51.2746L122.617 51.4408C122.62 51.4788 122.621 51.5236 122.621 51.6168H124.621ZM114.738 82.8954C121.324 73.5306 124.621 63.0975 124.621 51.6168H122.621C122.621 62.6868 119.45 72.7179 113.102 81.7449L114.738 82.8954ZM28.3096 80.3773V28.1737H26.3096V80.3773H28.3096ZM26.6112 79.6615L26.604 79.6687L28.0152 81.0859L28.0224 81.0788L26.6112 79.6615ZM63.2182 79.3702H27.3168V81.3702H63.2182V79.3702ZM86.21 71.7865C81.1396 76.7908 73.5343 79.3702 63.2182 79.3702V81.3702C73.8453 81.3702 82.041 78.7112 87.6149 73.21L86.21 71.7865ZM93.8922 51.3289C93.8922 59.9721 91.3 66.7562 86.2095 71.787L87.6154 73.2095C93.155 67.7348 95.8922 60.4012 95.8922 51.3289H93.8922ZM86.3437 31.2565C91.34 36.0355 93.8922 42.6796 93.8922 51.3289H95.8922C95.8922 42.2629 93.2014 35.0483 87.7261 29.8112L86.3437 31.2565ZM63.211 24.0289C73.71 24.0289 81.3588 26.5018 86.3447 31.2574L87.7251 29.8102C82.225 24.564 73.9864 22.0289 63.211 22.0289V24.0289ZM32.459 24.0289H63.211V22.0289H32.459V24.0289ZM28.3096 28.1737C28.3096 25.8846 30.1656 24.0289 32.459 24.0289V22.0289C29.0628 22.0289 26.3096 24.7783 26.3096 28.1737H28.3096ZM406.507 54.182C397.428 42.4461 383.103 35.0566 364.168 35.0566V37.0566C382.54 37.0566 396.258 44.2021 404.925 55.4057L406.507 54.182ZM417.828 89.9224C417.828 76.3095 413.965 63.8165 406.507 54.1817L404.925 55.406C412.072 64.6379 415.828 76.6816 415.828 89.9224H417.828ZM417.828 170.692V89.9224H415.828V170.692H417.828ZM389.663 171.692H416.828V169.692H389.663V171.692ZM388.641 93.2183L388.663 170.693L390.663 170.692L390.641 93.2177L388.641 93.2183ZM356.75 60.5717C366.735 60.5717 374.687 64.2342 380.147 70.106C385.616 75.9873 388.641 84.1458 388.641 93.218H390.641C390.641 83.7041 387.466 75.0395 381.612 68.7441C375.749 62.4393 367.254 58.5717 356.75 58.5717V60.5717ZM324.909 91.3196C325.292 82.6826 328.305 75.0028 333.658 69.4903C339.002 63.9881 346.747 60.5717 356.75 60.5717V58.5717C346.264 58.5717 337.982 62.1673 332.223 68.097C326.475 74.0164 323.312 82.1884 322.911 91.2309L324.909 91.3196ZM324.91 170.685V91.2752H322.91V170.685H324.91ZM296.744 171.685H323.91V169.685H296.744V171.685ZM295.744 53.1964V170.685H297.744V53.1964H295.744ZM310.046 38.9063C302.149 38.9063 295.744 45.3039 295.744 53.1964H297.744C297.744 46.4101 303.252 40.9063 310.046 40.9063V38.9063ZM310.608 38.9063H310.046V40.9063H310.608V38.9063ZM324.91 53.1964C324.91 45.3039 318.505 38.9063 310.608 38.9063V40.9063C317.402 40.9063 322.91 46.4101 322.91 53.1964H324.91ZM364.168 35.0566C345.241 35.0566 332.257 41.7701 323.146 52.5509L324.673 53.8419C333.38 43.5398 345.79 37.0566 364.168 37.0566V35.0566ZM739.76 58.4366V53.558H737.76V58.4366H739.76ZM693.496 37.2168C711.067 37.2168 726.899 45.6177 737.988 59.0726L739.532 57.8006C728.109 43.9412 711.734 35.2168 693.496 35.2168V37.2168ZM632.898 105.236C632.898 67.5639 660.131 37.2168 693.496 37.2168V35.2168C658.818 35.2168 630.898 66.6794 630.898 105.236H632.898ZM693.496 173.256C660.131 173.256 632.898 142.909 632.898 105.236H630.898C630.898 143.793 658.818 175.256 693.496 175.256V173.256ZM737.988 151.4C726.899 164.855 711.06 173.256 693.496 173.256V175.256C711.726 175.256 728.109 166.532 739.532 152.672L737.988 151.4ZM739.76 170.673V152.036H737.76V170.673H739.76ZM765.897 169.673H738.76V171.673H765.897V169.673ZM764.897 53.558V170.673H766.897V53.558H764.897ZM752.328 41.0016C759.267 41.0016 764.897 46.6209 764.897 53.558H766.897C766.897 45.514 760.37 39.0016 752.328 39.0016V41.0016ZM739.76 53.558C739.76 46.6274 745.383 41.0016 752.328 41.0016V39.0016C744.279 39.0016 737.76 45.5219 737.76 53.558H739.76ZM658.035 105.244C658.035 130.89 676.191 151.921 698.869 151.921V149.921C677.544 149.921 660.035 130.052 660.035 105.244H658.035ZM698.869 58.5663C676.198 58.5663 658.035 79.5966 658.035 105.244H660.035C660.035 80.4355 677.551 60.5663 698.869 60.5663V58.5663ZM739.702 105.244C739.702 79.5966 721.54 58.5663 698.869 58.5663V60.5663C720.187 60.5663 737.702 80.4355 737.702 105.244H739.702ZM698.869 151.921C721.54 151.921 739.702 130.891 739.702 105.244H737.702C737.702 130.052 720.187 149.921 698.869 149.921V151.921ZM592.368 48.6449L567.234 129.436L569.143 130.031L594.278 49.2391L592.368 48.6449ZM593.33 47.942H593.323V49.942H593.33V47.942ZM605.646 38.8828C599.562 38.8828 594.184 42.8368 592.376 48.6447L594.285 49.2393C595.833 44.2683 600.437 40.8828 605.646 40.8828V38.8828ZM618.916 56.8876C621.694 47.9466 615.011 38.8828 605.646 38.8828V40.8828C613.665 40.8828 619.384 48.6422 617.006 56.2941L618.916 56.8876ZM583.432 170.937L618.916 56.8879L617.006 56.2938L581.522 170.343L583.432 170.937ZM553.907 171.64H582.477V169.64H553.907V171.64ZM525.722 83.4179L552.952 170.937L554.862 170.343L527.632 82.8237L525.722 83.4179ZM500.401 170.937L527.632 83.4179L525.722 82.8237L498.492 170.343L500.401 170.937ZM470.877 171.64H499.447V169.64H470.877V171.64ZM434.395 56.8955L469.922 170.938L471.831 170.343L436.305 56.3006L434.395 56.8955ZM447.665 38.8828C438.3 38.8828 431.608 47.9537 434.395 56.8956L436.304 56.3005C433.92 48.6495 439.645 40.8828 447.665 40.8828V38.8828ZM460.935 48.6372C459.126 42.8365 453.748 38.8828 447.665 38.8828V40.8828C452.874 40.8828 457.478 44.2686 459.026 49.2324L460.935 48.6372ZM486.113 129.436L460.935 48.6373L459.025 49.2323L484.203 130.031L486.113 129.436ZM509.396 48.6371L484.203 129.436L486.113 130.031L511.305 49.2325L509.396 48.6371ZM522.665 38.8828C516.582 38.8828 511.204 42.8365 509.396 48.6372L511.305 49.2324C512.853 44.2686 517.456 40.8828 522.665 40.8828V38.8828ZM530.696 38.8828H522.665V40.8828H530.696V38.8828ZM543.965 48.6372C542.157 42.8365 536.779 38.8828 530.696 38.8828V40.8828C535.905 40.8828 540.509 44.2686 542.056 49.2324L543.965 48.6372ZM569.143 129.436L543.966 48.6373L542.056 49.2323L567.234 130.031L569.143 129.436ZM889.9 48.3105L855.295 133.542L857.148 134.294L891.753 49.0629L889.9 48.3105ZM891.541 47.9868L891.534 47.9796L890.119 49.3938L890.127 49.401L891.541 47.9868ZM903.848 38.9369C897.723 38.9369 892.207 42.6438 889.907 48.3183L891.761 49.0694C893.753 44.1521 898.535 40.9369 903.848 40.9369V38.9369ZM904.064 38.9369H903.848V40.9369H904.064V38.9369ZM918.004 59.6187C922.016 49.7355 914.74 38.9369 904.064 38.9369V40.9369C913.322 40.9369 919.629 50.3002 916.151 58.8664L918.004 59.6187ZM847.908 232.261L918.004 59.6187L916.151 58.8663L846.055 231.509L847.908 232.261ZM816.453 232.885H846.982V230.885H816.453V232.885ZM840.402 170.239L815.526 231.509L817.379 232.261L842.255 170.991L840.402 170.239ZM793.07 59.8502L840.408 171.007L842.248 170.223L794.91 59.0666L793.07 59.8502ZM806.91 38.9297C796.127 38.9297 788.842 49.9287 793.07 59.8504L794.91 59.0663C791.245 50.4667 797.558 40.9297 806.91 40.9297V38.9297ZM820.751 48.0794C818.39 42.5292 812.943 38.9297 806.91 38.9297V40.9297C812.142 40.9297 816.864 44.0508 818.91 48.8622L820.751 48.0794ZM857.142 133.526L820.751 48.079L818.91 48.8626L855.302 134.31L857.142 133.526ZM200.772 173.435C182.401 173.435 168.682 166.29 160.015 155.086L158.433 156.31C167.512 168.046 181.838 175.435 200.772 175.435V173.435ZM240.267 156.65C231.566 166.946 218.281 173.435 200.772 173.435V175.435C218.812 175.435 232.678 168.729 241.795 157.941L240.267 156.65ZM242.031 170.651V157.296H240.031V170.651H242.031ZM268.196 169.651H241.031V171.651H268.196V169.651ZM267.196 53.4784V170.651H269.196V53.4784H267.196ZM254.614 40.9076C261.566 40.9076 267.196 46.5337 267.196 53.4784H269.196C269.196 45.4275 262.669 38.9076 254.614 38.9076V40.9076ZM242.031 53.4784C242.031 46.5337 247.661 40.9076 254.614 40.9076V38.9076C246.558 38.9076 240.031 45.4275 240.031 53.4784H242.031ZM242.031 119.217V53.4784H240.031V119.217H242.031ZM208.19 151.92C218.676 151.92 226.959 148.325 232.717 142.395C238.465 136.476 241.628 128.304 242.03 119.261L240.032 119.172C239.648 127.809 236.635 135.489 231.282 141.002C225.939 146.504 218.193 149.92 208.19 149.92V151.92ZM174.299 117.274C174.299 126.772 177.278 135.438 183.042 141.742C188.819 148.058 197.319 151.92 208.19 151.92V149.92C197.822 149.92 189.878 146.253 184.518 140.392C179.147 134.519 176.299 126.362 176.299 117.274H174.299ZM174.285 53.4714L174.299 117.274L176.299 117.274L176.285 53.471L174.285 53.4714ZM161.702 40.9004C168.648 40.9004 174.285 46.5269 174.285 53.4712H176.285C176.285 45.42 169.75 38.9004 161.702 38.9004V40.9004ZM149.119 53.4712C149.119 46.5265 154.749 40.9004 161.702 40.9004V38.9004C153.646 38.9004 147.119 45.4203 147.119 53.4712H149.119ZM149.119 120.562V53.4712H147.119V120.562H149.119ZM160.022 155.079C152.876 145.847 149.119 133.803 149.119 120.562H147.119C147.119 134.175 150.982 146.668 158.441 156.303L160.022 155.079ZM159.932 156.405L159.94 156.397L158.524 154.985L158.517 154.992L159.932 156.405ZM993.703 37.6966C993.93 37.1885 994.449 36.8504 995.013 36.8496L995.01 34.8496C993.662 34.8515 992.427 35.6497 991.877 36.8809L993.703 37.6966ZM984.981 57.1686L993.702 37.6975L991.877 36.8799L983.156 56.3511L984.981 57.1686ZM974.441 37.7119L983.156 57.1686L984.981 56.3511L976.267 36.8944L974.441 37.7119ZM973.107 36.8496C973.686 36.8496 974.207 37.1876 974.441 37.7116L976.267 36.8946C975.709 35.6485 974.472 34.8496 973.107 34.8496V36.8496ZM971.644 38.3105C971.644 37.5055 972.303 36.8496 973.107 36.8496V34.8496C971.203 34.8496 969.644 36.3956 969.644 38.3105H971.644ZM971.644 62.0846V38.3105H969.644V62.0846H971.644ZM974.526 61.0846H970.644V63.0846H974.526V61.0846ZM973.526 43.7719V62.0846H975.526V43.7719H973.526ZM983.627 61.6764L975.439 43.3637L973.613 44.1801L981.801 62.4928L983.627 61.6764ZM985.415 61.0846H982.714V63.0846H985.415V61.0846ZM992.654 43.4076L984.502 61.677L986.328 62.4921L994.481 44.2226L992.654 43.4076ZM994.568 62.0846V43.8151H992.568V62.0846H994.568ZM997.449 61.0846H993.568V63.0846H997.449V61.0846ZM996.449 38.2889V62.0846H998.449V38.2889H996.449ZM995.01 36.8496C995.804 36.8508 996.449 37.4971 996.449 38.2889H998.449C998.449 36.3919 996.909 34.8524 995.013 34.8496L995.01 36.8496ZM964.166 34.8496H942.899V36.8496H964.166V34.8496ZM966.794 37.4758C966.794 36.0233 965.618 34.8496 964.166 34.8496V36.8496C964.515 36.8496 964.794 37.1295 964.794 37.4758H966.794ZM964.166 40.102C965.608 40.102 966.794 38.9312 966.794 37.4758H964.794C964.794 37.8193 964.511 38.102 964.166 38.102V40.102ZM955.495 40.102H964.166V38.102H955.495V40.102ZM956.495 62.0126V39.102H954.495V62.0126H956.495ZM955.412 63.0414L955.664 62.9982L955.326 61.0269L955.074 61.0701L955.412 63.0414ZM951.599 63.0557H955.243V61.0557H951.599V63.0557ZM950.599 39.102V62.0557H952.599V39.102H950.599ZM942.899 40.102H951.599V38.102H942.899V40.102ZM940.271 37.4758C940.271 38.9284 941.447 40.102 942.899 40.102V38.102C942.55 38.102 942.271 37.8221 942.271 37.4758H940.271ZM942.899 34.8496C941.458 34.8496 940.271 36.0204 940.271 37.4758H942.271C942.271 37.1324 942.555 36.8496 942.899 36.8496V34.8496Z" fill="url(#paint0_linear_290_822)" mask="url(#path-1-inside-1_290_822)"/>
</g>
<g opacity="0.4">
<mask id="path-3-inside-2_290_822" fill="white">
<path fill-rule="evenodd" clip-rule="evenodd" d="M113.92 92.3201C107.69 101.178 98.2338 107.294 85.5585 110.698L85.5513 110.69L127.366 180.631H95.4899L55.2025 113.274L53.6541 113.389H29.0452L29.0236 180.624H0V24.2935C0 16.4 6.40247 10.0031 14.303 10.0031H63.211C76.3041 9.9024 87.395 12.2266 96.4838 16.8677C105.565 21.5088 112.357 27.7258 116.865 35.5113C121.33 43.2321 123.57 51.8524 123.613 61.3577C123.621 61.4441 123.621 61.5304 123.621 61.6168C123.621 72.8922 120.387 83.1242 113.92 92.3201ZM27.3096 38.1737V90.3773L27.3168 90.3701H63.2182C73.6898 90.3701 81.5903 87.751 86.9125 82.4982C92.2275 77.2455 94.8922 70.1866 94.8922 61.3289C94.8922 52.4712 92.2707 45.5419 87.0349 40.5338C81.7919 35.5329 73.8482 33.0289 63.211 33.0289H32.459C29.6142 33.0289 27.3096 35.3314 27.3096 38.1737ZM364.168 46.0566C382.821 46.0566 396.843 53.3241 405.716 64.7938C413.019 74.2272 416.828 86.4956 416.828 99.9224V180.692H389.663L389.641 103.218C389.641 84.6319 377.24 69.5717 356.75 69.5717C336.261 69.5717 324.695 83.5958 323.91 101.275V180.685H296.744V63.1964C296.744 55.857 302.7 49.9063 310.046 49.9063H310.608C317.954 49.9063 323.91 55.857 323.91 63.1964C332.818 52.655 345.515 46.0566 364.168 46.0566ZM738.76 63.558V68.4366C727.504 54.7795 711.4 46.2168 693.496 46.2168C659.474 46.2168 631.898 77.1216 631.898 115.236C631.898 153.351 659.474 184.256 693.496 184.256C711.393 184.256 727.504 175.693 738.76 162.036V180.673H765.897V63.558C765.897 56.0675 759.818 50.0016 752.328 50.0016C744.831 50.0016 738.76 56.0747 738.76 63.558ZM698.869 160.921C676.867 160.921 659.035 140.471 659.035 115.244C659.035 90.0161 676.874 69.5663 698.869 69.5663C720.863 69.5663 738.702 90.0161 738.702 115.244C738.702 140.471 720.863 160.921 698.869 160.921ZM568.189 139.734L593.323 58.942H593.33C595.008 53.5525 599.999 49.8828 605.646 49.8828C614.338 49.8828 620.539 58.2944 617.961 66.5909L582.477 180.64H553.907L526.677 93.1208L499.447 180.64H470.877L435.35 66.598C432.764 58.3016 438.972 49.8828 447.665 49.8828C453.311 49.8828 458.302 53.5525 459.98 58.9348L485.158 139.734L510.35 58.9348C512.028 53.5525 517.019 49.8828 522.665 49.8828H530.696C536.342 49.8828 541.333 53.5525 543.011 58.9348L568.189 139.734ZM856.222 143.918L890.827 58.6867L890.834 58.6939C892.98 53.3979 898.129 49.9369 903.848 49.9369H904.064C914.031 49.9369 920.823 60.0178 917.078 69.2425L846.982 241.885H816.453L841.328 180.615L793.99 69.4584C790.044 60.1977 796.842 49.9297 806.91 49.9297C812.542 49.9297 817.627 53.29 819.831 58.4708L856.222 143.918ZM159.224 165.698C168.097 177.168 182.119 184.435 200.772 184.435C218.546 184.435 232.122 177.837 241.031 167.296V180.651H268.196V63.4784C268.196 55.9806 262.118 49.9076 254.614 49.9076C247.109 49.9076 241.031 55.9806 241.031 63.4784V129.217C240.246 146.896 228.68 160.92 208.19 160.92C186.952 160.92 175.299 145.86 175.299 127.274L175.285 63.4712C175.285 55.9734 169.199 49.9004 161.702 49.9004C154.198 49.9004 148.119 55.9734 148.119 63.4712V130.562C148.119 143.989 151.929 156.258 159.232 165.691L159.224 165.698ZM995.012 45.8496C994.055 45.851 993.178 46.4191 992.79 47.2887L984.068 66.7598L975.354 47.3031C974.958 46.4181 974.079 45.8496 973.107 45.8496C971.753 45.8496 970.644 46.9505 970.644 48.3105V72.0845H974.526V53.7719L982.714 72.0845H985.415L993.568 53.8151V72.0845H997.449V48.2889C997.449 46.9445 996.357 45.8516 995.012 45.8496ZM942.899 45.8496H964.166C965.067 45.8496 965.794 46.5764 965.794 47.4758C965.794 48.3752 965.059 49.102 964.166 49.102H955.495V72.0126L955.243 72.0557H951.599V49.102H942.899C941.999 49.102 941.271 48.3752 941.271 47.4758C941.271 46.5764 942.006 45.8496 942.899 45.8496Z"/>
</mask>
<path d="M85.5585 110.698L84.8518 111.405L85.2602 111.813L85.8178 111.663L85.5585 110.698ZM113.92 92.3201L114.738 92.8954L114.738 92.8954L113.92 92.3201ZM85.5513 110.69L86.258 109.983L84.693 111.203L85.5513 110.69ZM127.366 180.631V181.631H129.128L128.224 180.118L127.366 180.631ZM95.4899 180.631L94.6317 181.144L94.9228 181.631H95.4899V180.631ZM55.2025 113.274L56.0607 112.76L55.7439 112.231L55.1283 112.276L55.2025 113.274ZM53.6541 113.389V114.389H53.6912L53.7283 114.386L53.6541 113.389ZM29.0452 113.389V112.389H28.0455L28.0452 113.388L29.0452 113.389ZM29.0236 180.624V181.624H30.0233L30.0236 180.624L29.0236 180.624ZM0 180.624H-1V181.624H0V180.624ZM63.211 10.0031L63.211 11.0032L63.2187 11.0031L63.211 10.0031ZM96.4838 16.8677L96.9388 15.9772L96.9386 15.9771L96.4838 16.8677ZM116.865 35.5113L117.731 35.0107L117.731 35.0102L116.865 35.5113ZM123.613 61.3577L122.613 61.3623L122.613 61.4016L122.617 61.4408L123.613 61.3577ZM27.3096 90.3773H26.3096V92.7843L28.0152 91.0859L27.3096 90.3773ZM27.3168 90.3702V89.3702H26.9038L26.6112 89.6615L27.3168 90.3702ZM86.9125 82.4982L87.6149 83.21L87.6154 83.2095L86.9125 82.4982ZM87.0349 40.5338L87.7261 39.8112L87.7251 39.8102L87.0349 40.5338ZM405.716 64.7938L404.925 65.4057L404.925 65.406L405.716 64.7938ZM416.828 180.692V181.692H417.828V180.692H416.828ZM389.663 180.692L388.663 180.693L388.663 181.692H389.663V180.692ZM389.641 103.218L388.641 103.218L388.641 103.218L389.641 103.218ZM323.91 101.275L322.911 101.231L322.91 101.253V101.275H323.91ZM323.91 180.685V181.685H324.91V180.685H323.91ZM296.744 180.685H295.744V181.685H296.744V180.685ZM323.91 63.1964H322.91V65.9289L324.673 63.8419L323.91 63.1964ZM738.76 68.4366L737.988 69.0726L739.76 71.2221V68.4366H738.76ZM738.76 162.036H739.76V159.251L737.988 161.4L738.76 162.036ZM738.76 180.673H737.76V181.673H738.76V180.673ZM765.897 180.673V181.673H766.897V180.673H765.897ZM593.323 58.942V57.942H592.587L592.368 58.6449L593.323 58.942ZM568.189 139.734L567.234 140.031L568.189 143.097L569.143 140.031L568.189 139.734ZM593.33 58.942V59.942H594.066L594.285 59.2393L593.33 58.942ZM617.961 66.5909L618.916 66.8879L618.916 66.8876L617.961 66.5909ZM582.477 180.64V181.64H583.213L583.432 180.937L582.477 180.64ZM553.907 180.64L552.952 180.937L553.171 181.64H553.907V180.64ZM526.677 93.1208L527.632 92.8237L526.677 89.7548L525.722 92.8237L526.677 93.1208ZM499.447 180.64V181.64H500.183L500.401 180.937L499.447 180.64ZM470.877 180.64L469.922 180.938L470.141 181.64H470.877V180.64ZM435.35 66.598L436.305 66.3006L436.304 66.3005L435.35 66.598ZM459.98 58.9348L460.935 58.6373L460.935 58.6372L459.98 58.9348ZM485.158 139.734L484.203 140.031L485.158 143.094L486.113 140.031L485.158 139.734ZM510.35 58.9348L511.305 59.2325L511.305 59.2324L510.35 58.9348ZM543.011 58.9348L543.966 58.6373L543.965 58.6372L543.011 58.9348ZM890.827 58.6867L891.534 57.9796L890.467 56.9132L889.9 58.3105L890.827 58.6867ZM856.222 143.918L855.302 144.31L856.244 146.522L857.148 144.294L856.222 143.918ZM890.834 58.6939L890.127 59.401L891.194 60.4681L891.761 59.0694L890.834 58.6939ZM917.078 69.2425L918.004 69.6187L918.004 69.6187L917.078 69.2425ZM846.982 241.885V242.885H847.655L847.908 242.261L846.982 241.885ZM816.453 241.885L815.526 241.509L814.968 242.885H816.453V241.885ZM841.328 180.615L842.255 180.991L842.411 180.606L842.248 180.223L841.328 180.615ZM793.99 69.4584L794.91 69.0666L794.91 69.0663L793.99 69.4584ZM819.831 58.4708L818.91 58.8622L818.91 58.8626L819.831 58.4708ZM159.224 165.698L158.517 164.992L157.895 165.614L158.433 166.31L159.224 165.698ZM241.031 167.296H242.031V164.563L240.267 166.65L241.031 167.296ZM241.031 180.651H240.031V181.651H241.031V180.651ZM268.196 180.651V181.651H269.196V180.651H268.196ZM241.031 129.217L242.03 129.261L242.031 129.239V129.217H241.031ZM175.299 127.274L176.299 127.274L176.299 127.274L175.299 127.274ZM175.285 63.4712L174.285 63.4712L174.285 63.4714L175.285 63.4712ZM159.232 165.691L159.94 166.397L160.561 165.775L160.022 165.079L159.232 165.691ZM992.79 47.2887L993.702 47.6975L993.703 47.6966L992.79 47.2887ZM995.012 45.8496L995.013 44.8496L995.01 44.8496L995.012 45.8496ZM984.068 66.7598L983.156 67.1686L984.068 69.2062L984.981 67.1686L984.068 66.7598ZM975.354 47.3031L974.441 47.7116L974.441 47.7119L975.354 47.3031ZM970.644 72.0846H969.644V73.0846H970.644V72.0846ZM974.526 72.0846V73.0846H975.526V72.0846H974.526ZM974.526 53.7719L975.439 53.3637L973.526 53.7719H974.526ZM982.714 72.0846L981.801 72.4928L982.066 73.0846H982.714V72.0846ZM985.415 72.0846V73.0846H986.064L986.328 72.4921L985.415 72.0846ZM993.568 53.8151H994.568L992.654 53.4076L993.568 53.8151ZM993.568 72.0846H992.568V73.0846H993.568V72.0846ZM997.449 72.0846V73.0846H998.449V72.0846H997.449ZM955.495 49.102V48.102H954.495V49.102H955.495ZM955.495 72.0126L955.664 72.9982L956.495 72.8559V72.0126H955.495ZM955.243 72.0557V73.0557H955.328L955.412 73.0414L955.243 72.0557ZM951.599 72.0557H950.599V73.0557H951.599V72.0557ZM951.599 49.102H952.599V48.102H951.599V49.102ZM85.8178 111.663C98.6686 108.213 108.346 101.984 114.738 92.8954L113.102 91.7449C107.034 100.372 97.7991 106.375 85.2992 109.732L85.8178 111.663ZM84.8446 111.398L84.8518 111.405L86.2652 109.99L86.258 109.983L84.8446 111.398ZM128.224 180.118L86.4096 110.177L84.693 111.203L126.507 181.144L128.224 180.118ZM95.4899 181.631H127.366V179.631H95.4899V181.631ZM54.3443 113.787L94.6317 181.144L96.3481 180.118L56.0607 112.76L54.3443 113.787ZM53.7283 114.386L55.2767 114.271L55.1283 112.276L53.58 112.391L53.7283 114.386ZM29.0452 114.389H53.6541V112.389H29.0452V114.389ZM30.0236 180.624L30.0452 113.389L28.0452 113.388L28.0236 180.624L30.0236 180.624ZM0 181.624H29.0236V179.624H0V181.624ZM-1 24.2935V180.624H1V24.2935H-1ZM14.303 9.00314C5.85102 9.00314 -1 15.8469 -1 24.2935H1C1 16.9531 6.95393 11.0031 14.303 11.0031V9.00314ZM63.211 9.00314H14.303V11.0031H63.211V9.00314ZM96.9386 15.9771C87.6744 11.2464 76.4165 8.90151 63.2033 9.00317L63.2187 11.0031C76.1916 10.9033 87.1156 13.2067 96.029 17.7583L96.9386 15.9771ZM117.731 35.0102C113.113 27.0369 106.169 20.6941 96.9388 15.9772L96.0287 17.7581C104.962 22.3235 111.6 28.4146 116 36.0124L117.731 35.0102ZM124.613 61.3532C124.569 51.6867 122.29 42.8933 117.731 35.0107L115.999 36.012C120.371 43.571 122.571 52.0181 122.613 61.3623L124.613 61.3532ZM124.621 61.6168C124.621 61.5372 124.621 61.4093 124.61 61.2746L122.617 61.4408C122.62 61.4788 122.621 61.5236 122.621 61.6168H124.621ZM114.738 92.8954C121.324 83.5306 124.621 73.0975 124.621 61.6168H122.621C122.621 72.6868 119.45 82.7179 113.102 91.7449L114.738 92.8954ZM28.3096 90.3773V38.1737H26.3096V90.3773H28.3096ZM26.6112 89.6615L26.604 89.6687L28.0152 91.0859L28.0224 91.0788L26.6112 89.6615ZM63.2182 89.3702H27.3168V91.3702H63.2182V89.3702ZM86.21 81.7865C81.1396 86.7908 73.5343 89.3702 63.2182 89.3702V91.3702C73.8453 91.3702 82.041 88.7112 87.6149 83.21L86.21 81.7865ZM93.8922 61.3289C93.8922 69.9721 91.3 76.7562 86.2095 81.787L87.6154 83.2095C93.155 77.7348 95.8922 70.4012 95.8922 61.3289H93.8922ZM86.3437 41.2565C91.34 46.0355 93.8922 52.6796 93.8922 61.3289H95.8922C95.8922 52.2629 93.2014 45.0483 87.7261 39.8112L86.3437 41.2565ZM63.211 34.0289C73.71 34.0289 81.3588 36.5018 86.3447 41.2574L87.7251 39.8102C82.225 34.564 73.9864 32.0289 63.211 32.0289V34.0289ZM32.459 34.0289H63.211V32.0289H32.459V34.0289ZM28.3096 38.1737C28.3096 35.8846 30.1656 34.0289 32.459 34.0289V32.0289C29.0628 32.0289 26.3096 34.7783 26.3096 38.1737H28.3096ZM406.507 64.182C397.428 52.4461 383.103 45.0566 364.168 45.0566V47.0566C382.54 47.0566 396.258 54.2021 404.925 65.4057L406.507 64.182ZM417.828 99.9224C417.828 86.3095 413.965 73.8165 406.507 64.1817L404.925 65.406C412.072 74.6379 415.828 86.6816 415.828 99.9224H417.828ZM417.828 180.692V99.9224H415.828V180.692H417.828ZM389.663 181.692H416.828V179.692H389.663V181.692ZM388.641 103.218L388.663 180.693L390.663 180.692L390.641 103.218L388.641 103.218ZM356.75 70.5717C366.735 70.5717 374.687 74.2342 380.147 80.106C385.616 85.9873 388.641 94.1458 388.641 103.218H390.641C390.641 93.7041 387.466 85.0395 381.612 78.7441C375.749 72.4393 367.254 68.5717 356.75 68.5717V70.5717ZM324.909 101.32C325.292 92.6826 328.305 85.0028 333.658 79.4903C339.002 73.9881 346.747 70.5717 356.75 70.5717V68.5717C346.264 68.5717 337.982 72.1673 332.223 78.097C326.475 84.0164 323.312 92.1884 322.911 101.231L324.909 101.32ZM324.91 180.685V101.275H322.91V180.685H324.91ZM296.744 181.685H323.91V179.685H296.744V181.685ZM295.744 63.1964V180.685H297.744V63.1964H295.744ZM310.046 48.9063C302.149 48.9063 295.744 55.3039 295.744 63.1964H297.744C297.744 56.4101 303.252 50.9063 310.046 50.9063V48.9063ZM310.608 48.9063H310.046V50.9063H310.608V48.9063ZM324.91 63.1964C324.91 55.3039 318.505 48.9063 310.608 48.9063V50.9063C317.402 50.9063 322.91 56.4101 322.91 63.1964H324.91ZM364.168 45.0566C345.241 45.0566 332.257 51.7701 323.146 62.5509L324.673 63.8419C333.38 53.5398 345.79 47.0566 364.168 47.0566V45.0566ZM739.76 68.4366V63.558H737.76V68.4366H739.76ZM693.496 47.2168C711.067 47.2168 726.899 55.6177 737.988 69.0726L739.532 67.8006C728.109 53.9412 711.734 45.2168 693.496 45.2168V47.2168ZM632.898 115.236C632.898 77.5639 660.131 47.2168 693.496 47.2168V45.2168C658.818 45.2168 630.898 76.6794 630.898 115.236H632.898ZM693.496 183.256C660.131 183.256 632.898 152.909 632.898 115.236H630.898C630.898 153.793 658.818 185.256 693.496 185.256V183.256ZM737.988 161.4C726.899 174.855 711.06 183.256 693.496 183.256V185.256C711.726 185.256 728.109 176.532 739.532 162.672L737.988 161.4ZM739.76 180.673V162.036H737.76V180.673H739.76ZM765.897 179.673H738.76V181.673H765.897V179.673ZM764.897 63.558V180.673H766.897V63.558H764.897ZM752.328 51.0016C759.267 51.0016 764.897 56.6209 764.897 63.558H766.897C766.897 55.514 760.37 49.0016 752.328 49.0016V51.0016ZM739.76 63.558C739.76 56.6274 745.383 51.0016 752.328 51.0016V49.0016C744.279 49.0016 737.76 55.5219 737.76 63.558H739.76ZM658.035 115.244C658.035 140.89 676.191 161.921 698.869 161.921V159.921C677.544 159.921 660.035 140.052 660.035 115.244H658.035ZM698.869 68.5663C676.198 68.5663 658.035 89.5966 658.035 115.244H660.035C660.035 90.4355 677.551 70.5663 698.869 70.5663V68.5663ZM739.702 115.244C739.702 89.5966 721.54 68.5663 698.869 68.5663V70.5663C720.187 70.5663 737.702 90.4355 737.702 115.244H739.702ZM698.869 161.921C721.54 161.921 739.702 140.891 739.702 115.244H737.702C737.702 140.052 720.187 159.921 698.869 159.921V161.921ZM592.368 58.6449L567.234 139.436L569.143 140.031L594.278 59.2391L592.368 58.6449ZM593.33 57.942H593.323V59.942H593.33V57.942ZM605.646 48.8828C599.562 48.8828 594.184 52.8368 592.376 58.6447L594.285 59.2393C595.833 54.2683 600.437 50.8828 605.646 50.8828V48.8828ZM618.916 66.8876C621.694 57.9466 615.011 48.8828 605.646 48.8828V50.8828C613.665 50.8828 619.384 58.6422 617.006 66.2941L618.916 66.8876ZM583.432 180.937L618.916 66.8879L617.006 66.2938L581.522 180.343L583.432 180.937ZM553.907 181.64H582.477V179.64H553.907V181.64ZM525.722 93.4179L552.952 180.937L554.862 180.343L527.632 92.8237L525.722 93.4179ZM500.401 180.937L527.632 93.4179L525.722 92.8237L498.492 180.343L500.401 180.937ZM470.877 181.64H499.447V179.64H470.877V181.64ZM434.395 66.8955L469.922 180.938L471.831 180.343L436.305 66.3006L434.395 66.8955ZM447.665 48.8828C438.3 48.8828 431.608 57.9537 434.395 66.8956L436.304 66.3005C433.92 58.6495 439.645 50.8828 447.665 50.8828V48.8828ZM460.935 58.6372C459.126 52.8365 453.748 48.8828 447.665 48.8828V50.8828C452.874 50.8828 457.478 54.2686 459.026 59.2324L460.935 58.6372ZM486.113 139.436L460.935 58.6373L459.025 59.2323L484.203 140.031L486.113 139.436ZM509.396 58.6371L484.203 139.436L486.113 140.031L511.305 59.2325L509.396 58.6371ZM522.665 48.8828C516.582 48.8828 511.204 52.8365 509.396 58.6372L511.305 59.2324C512.853 54.2686 517.456 50.8828 522.665 50.8828V48.8828ZM530.696 48.8828H522.665V50.8828H530.696V48.8828ZM543.965 58.6372C542.157 52.8365 536.779 48.8828 530.696 48.8828V50.8828C535.905 50.8828 540.509 54.2686 542.056 59.2324L543.965 58.6372ZM569.143 139.436L543.966 58.6373L542.056 59.2323L567.234 140.031L569.143 139.436ZM889.9 58.3105L855.295 143.542L857.148 144.294L891.753 59.0629L889.9 58.3105ZM891.541 57.9868L891.534 57.9796L890.119 59.3938L890.127 59.401L891.541 57.9868ZM903.848 48.9369C897.723 48.9369 892.207 52.6438 889.907 58.3183L891.761 59.0694C893.753 54.1521 898.535 50.9369 903.848 50.9369V48.9369ZM904.064 48.9369H903.848V50.9369H904.064V48.9369ZM918.004 69.6187C922.016 59.7355 914.74 48.9369 904.064 48.9369V50.9369C913.322 50.9369 919.629 60.3002 916.151 68.8664L918.004 69.6187ZM847.908 242.261L918.004 69.6187L916.151 68.8663L846.055 241.509L847.908 242.261ZM816.453 242.885H846.982V240.885H816.453V242.885ZM840.402 180.239L815.526 241.509L817.379 242.261L842.255 180.991L840.402 180.239ZM793.07 69.8502L840.408 181.007L842.248 180.223L794.91 69.0666L793.07 69.8502ZM806.91 48.9297C796.127 48.9297 788.842 59.9287 793.07 69.8504L794.91 69.0663C791.245 60.4667 797.558 50.9297 806.91 50.9297V48.9297ZM820.751 58.0794C818.39 52.5292 812.943 48.9297 806.91 48.9297V50.9297C812.142 50.9297 816.864 54.0508 818.91 58.8622L820.751 58.0794ZM857.142 143.526L820.751 58.079L818.91 58.8626L855.302 144.31L857.142 143.526ZM200.772 183.435C182.401 183.435 168.682 176.29 160.015 165.086L158.433 166.31C167.512 178.046 181.838 185.435 200.772 185.435V183.435ZM240.267 166.65C231.566 176.946 218.281 183.435 200.772 183.435V185.435C218.812 185.435 232.678 178.729 241.795 167.941L240.267 166.65ZM242.031 180.651V167.296H240.031V180.651H242.031ZM268.196 179.651H241.031V181.651H268.196V179.651ZM267.196 63.4784V180.651H269.196V63.4784H267.196ZM254.614 50.9076C261.566 50.9076 267.196 56.5337 267.196 63.4784H269.196C269.196 55.4275 262.669 48.9076 254.614 48.9076V50.9076ZM242.031 63.4784C242.031 56.5337 247.661 50.9076 254.614 50.9076V48.9076C246.558 48.9076 240.031 55.4275 240.031 63.4784H242.031ZM242.031 129.217V63.4784H240.031V129.217H242.031ZM208.19 161.92C218.676 161.92 226.959 158.325 232.717 152.395C238.465 146.476 241.628 138.304 242.03 129.261L240.032 129.172C239.648 137.809 236.635 145.489 231.282 151.002C225.939 156.504 218.193 159.92 208.19 159.92V161.92ZM174.299 127.274C174.299 136.772 177.278 145.438 183.042 151.742C188.819 158.058 197.319 161.92 208.19 161.92V159.92C197.822 159.92 189.878 156.253 184.518 150.392C179.147 144.519 176.299 136.362 176.299 127.274H174.299ZM174.285 63.4714L174.299 127.274L176.299 127.274L176.285 63.471L174.285 63.4714ZM161.702 50.9004C168.648 50.9004 174.285 56.5269 174.285 63.4712H176.285C176.285 55.42 169.75 48.9004 161.702 48.9004V50.9004ZM149.119 63.4712C149.119 56.5265 154.749 50.9004 161.702 50.9004V48.9004C153.646 48.9004 147.119 55.4203 147.119 63.4712H149.119ZM149.119 130.562V63.4712H147.119V130.562H149.119ZM160.022 165.079C152.876 155.847 149.119 143.803 149.119 130.562H147.119C147.119 144.175 150.982 156.668 158.441 166.303L160.022 165.079ZM159.932 166.405L159.94 166.397L158.524 164.985L158.517 164.992L159.932 166.405ZM993.703 47.6966C993.93 47.1885 994.449 46.8504 995.013 46.8496L995.01 44.8496C993.662 44.8515 992.427 45.6497 991.877 46.8809L993.703 47.6966ZM984.981 67.1686L993.702 47.6975L991.877 46.8799L983.156 66.3511L984.981 67.1686ZM974.441 47.7119L983.156 67.1686L984.981 66.3511L976.267 46.8944L974.441 47.7119ZM973.107 46.8496C973.686 46.8496 974.207 47.1876 974.441 47.7116L976.267 46.8946C975.709 45.6485 974.472 44.8496 973.107 44.8496V46.8496ZM971.644 48.3105C971.644 47.5055 972.303 46.8496 973.107 46.8496V44.8496C971.203 44.8496 969.644 46.3956 969.644 48.3105H971.644ZM971.644 72.0846V48.3105H969.644V72.0846H971.644ZM974.526 71.0846H970.644V73.0846H974.526V71.0846ZM973.526 53.7719V72.0846H975.526V53.7719H973.526ZM983.627 71.6764L975.439 53.3637L973.613 54.1801L981.801 72.4928L983.627 71.6764ZM985.415 71.0846H982.714V73.0846H985.415V71.0846ZM992.654 53.4076L984.502 71.677L986.328 72.4921L994.481 54.2226L992.654 53.4076ZM994.568 72.0846V53.8151H992.568V72.0846H994.568ZM997.449 71.0846H993.568V73.0846H997.449V71.0846ZM996.449 48.2889V72.0846H998.449V48.2889H996.449ZM995.01 46.8496C995.804 46.8508 996.449 47.4971 996.449 48.2889H998.449C998.449 46.3919 996.909 44.8524 995.013 44.8496L995.01 46.8496ZM964.166 44.8496H942.899V46.8496H964.166V44.8496ZM966.794 47.4758C966.794 46.0233 965.618 44.8496 964.166 44.8496V46.8496C964.515 46.8496 964.794 47.1295 964.794 47.4758H966.794ZM964.166 50.102C965.608 50.102 966.794 48.9312 966.794 47.4758H964.794C964.794 47.8193 964.511 48.102 964.166 48.102V50.102ZM955.495 50.102H964.166V48.102H955.495V50.102ZM956.495 72.0126V49.102H954.495V72.0126H956.495ZM955.412 73.0414L955.664 72.9982L955.326 71.0269L955.074 71.0701L955.412 73.0414ZM951.599 73.0557H955.243V71.0557H951.599V73.0557ZM950.599 49.102V72.0557H952.599V49.102H950.599ZM942.899 50.102H951.599V48.102H942.899V50.102ZM940.271 47.4758C940.271 48.9284 941.447 50.102 942.899 50.102V48.102C942.55 48.102 942.271 47.8221 942.271 47.4758H940.271ZM942.899 44.8496C941.458 44.8496 940.271 46.0204 940.271 47.4758H942.271C942.271 47.1324 942.555 46.8496 942.899 46.8496V44.8496Z" fill="url(#paint1_linear_290_822)" mask="url(#path-3-inside-2_290_822)"/>
</g>
<g opacity="0.6">
<mask id="path-5-inside-3_290_822" fill="white">
<path fill-rule="evenodd" clip-rule="evenodd" d="M113.92 102.32C107.69 111.178 98.2338 117.294 85.5585 120.698L85.5513 120.69L127.366 190.631H95.4899L55.2025 123.274L53.6541 123.389H29.0452L29.0236 190.624H0V34.2935C0 26.4 6.40247 20.0031 14.303 20.0031H63.211C76.3041 19.9024 87.395 22.2266 96.4838 26.8677C105.565 31.5088 112.357 37.7258 116.865 45.5113C121.33 53.2321 123.57 61.8524 123.613 71.3577C123.621 71.4441 123.621 71.5304 123.621 71.6168C123.621 82.8922 120.387 93.1242 113.92 102.32ZM27.3096 48.1737V100.377L27.3168 100.37H63.2182C73.6898 100.37 81.5903 97.751 86.9125 92.4982C92.2275 87.2455 94.8922 80.1866 94.8922 71.3289C94.8922 62.4712 92.2707 55.5419 87.0349 50.5338C81.7919 45.5329 73.8482 43.0289 63.211 43.0289H32.459C29.6142 43.0289 27.3096 45.3314 27.3096 48.1737ZM364.168 56.0566C382.821 56.0566 396.843 63.3241 405.716 74.7938C413.019 84.2272 416.828 96.4956 416.828 109.922V190.692H389.663L389.641 113.218C389.641 94.6319 377.24 79.5717 356.75 79.5717C336.261 79.5717 324.695 93.5958 323.91 111.275V190.685H296.744V73.1964C296.744 65.857 302.7 59.9063 310.046 59.9063H310.608C317.954 59.9063 323.91 65.857 323.91 73.1964C332.818 62.655 345.515 56.0566 364.168 56.0566ZM738.76 73.558V78.4366C727.504 64.7795 711.4 56.2168 693.496 56.2168C659.474 56.2168 631.898 87.1216 631.898 125.236C631.898 163.351 659.474 194.256 693.496 194.256C711.393 194.256 727.504 185.693 738.76 172.036V190.673H765.897V73.558C765.897 66.0675 759.818 60.0016 752.328 60.0016C744.831 60.0016 738.76 66.0747 738.76 73.558ZM698.869 170.921C676.867 170.921 659.035 150.471 659.035 125.244C659.035 100.016 676.874 79.5663 698.869 79.5663C720.863 79.5663 738.702 100.016 738.702 125.244C738.702 150.471 720.863 170.921 698.869 170.921ZM568.189 149.734L593.323 68.942H593.33C595.008 63.5525 599.999 59.8828 605.646 59.8828C614.338 59.8828 620.539 68.2944 617.961 76.5909L582.477 190.64H553.907L526.677 103.121L499.447 190.64H470.877L435.35 76.598C432.764 68.3016 438.972 59.8828 447.665 59.8828C453.311 59.8828 458.302 63.5525 459.98 68.9348L485.158 149.734L510.35 68.9348C512.028 63.5525 517.019 59.8828 522.665 59.8828H530.696C536.342 59.8828 541.333 63.5525 543.011 68.9348L568.189 149.734ZM856.222 153.918L890.827 68.6867L890.834 68.6939C892.98 63.3979 898.129 59.9369 903.848 59.9369H904.064C914.031 59.9369 920.823 70.0178 917.078 79.2425L846.982 251.885H816.453L841.328 190.615L793.99 79.4584C790.044 70.1977 796.842 59.9297 806.91 59.9297C812.542 59.9297 817.627 63.29 819.831 68.4708L856.222 153.918ZM159.224 175.698C168.097 187.168 182.119 194.435 200.772 194.435C218.546 194.435 232.122 187.837 241.031 177.296V190.651H268.196V73.4784C268.196 65.9806 262.118 59.9076 254.614 59.9076C247.109 59.9076 241.031 65.9806 241.031 73.4784V139.217C240.246 156.896 228.68 170.92 208.19 170.92C186.952 170.92 175.299 155.86 175.299 137.274L175.285 73.4712C175.285 65.9734 169.199 59.9004 161.702 59.9004C154.198 59.9004 148.119 65.9734 148.119 73.4712V140.562C148.119 153.989 151.929 166.258 159.232 175.691L159.224 175.698ZM995.012 55.8496C994.055 55.851 993.178 56.4191 992.79 57.2887L984.068 76.7598L975.354 57.3031C974.958 56.4181 974.079 55.8496 973.107 55.8496C971.753 55.8496 970.644 56.9505 970.644 58.3105V82.0845H974.526V63.7719L982.714 82.0845H985.415L993.568 63.8151V82.0845H997.449V58.2889C997.449 56.9445 996.357 55.8516 995.012 55.8496ZM942.899 55.8496H964.166C965.067 55.8496 965.794 56.5764 965.794 57.4758C965.794 58.3752 965.059 59.102 964.166 59.102H955.495V82.0126L955.243 82.0557H951.599V59.102H942.899C941.999 59.102 941.271 58.3752 941.271 57.4758C941.271 56.5764 942.006 55.8496 942.899 55.8496Z"/>
</mask>
<path d="M85.5585 120.698L84.8518 121.405L85.2602 121.813L85.8178 121.663L85.5585 120.698ZM113.92 102.32L114.738 102.895L114.738 102.895L113.92 102.32ZM85.5513 120.69L86.258 119.983L84.693 121.203L85.5513 120.69ZM127.366 190.631V191.631H129.128L128.224 190.118L127.366 190.631ZM95.4899 190.631L94.6317 191.144L94.9228 191.631H95.4899V190.631ZM55.2025 123.274L56.0607 122.76L55.7439 122.231L55.1283 122.276L55.2025 123.274ZM53.6541 123.389V124.389H53.6912L53.7283 124.386L53.6541 123.389ZM29.0452 123.389V122.389H28.0455L28.0452 123.388L29.0452 123.389ZM29.0236 190.624V191.624H30.0233L30.0236 190.624L29.0236 190.624ZM0 190.624H-1V191.624H0V190.624ZM63.211 20.0031L63.211 21.0032L63.2187 21.0031L63.211 20.0031ZM96.4838 26.8677L96.9388 25.9772L96.9386 25.9771L96.4838 26.8677ZM116.865 45.5113L117.731 45.0107L117.731 45.0102L116.865 45.5113ZM123.613 71.3577L122.613 71.3623L122.613 71.4016L122.617 71.4408L123.613 71.3577ZM27.3096 100.377H26.3096V102.784L28.0152 101.086L27.3096 100.377ZM27.3168 100.37V99.3702H26.9038L26.6112 99.6615L27.3168 100.37ZM86.9125 92.4982L87.6149 93.21L87.6154 93.2095L86.9125 92.4982ZM87.0349 50.5338L87.7261 49.8112L87.7251 49.8102L87.0349 50.5338ZM405.716 74.7938L404.925 75.4057L404.925 75.406L405.716 74.7938ZM416.828 190.692V191.692H417.828V190.692H416.828ZM389.663 190.692L388.663 190.693L388.663 191.692H389.663V190.692ZM389.641 113.218L388.641 113.218L388.641 113.218L389.641 113.218ZM323.91 111.275L322.911 111.231L322.91 111.253V111.275H323.91ZM323.91 190.685V191.685H324.91V190.685H323.91ZM296.744 190.685H295.744V191.685H296.744V190.685ZM323.91 73.1964H322.91V75.9289L324.673 73.8419L323.91 73.1964ZM738.76 78.4366L737.988 79.0726L739.76 81.2221V78.4366H738.76ZM738.76 172.036H739.76V169.251L737.988 171.4L738.76 172.036ZM738.76 190.673H737.76V191.673H738.76V190.673ZM765.897 190.673V191.673H766.897V190.673H765.897ZM593.323 68.942V67.942H592.587L592.368 68.6449L593.323 68.942ZM568.189 149.734L567.234 150.031L568.189 153.097L569.143 150.031L568.189 149.734ZM593.33 68.942V69.942H594.066L594.285 69.2393L593.33 68.942ZM617.961 76.5909L618.916 76.8879L618.916 76.8876L617.961 76.5909ZM582.477 190.64V191.64H583.213L583.432 190.937L582.477 190.64ZM553.907 190.64L552.952 190.937L553.171 191.64H553.907V190.64ZM526.677 103.121L527.632 102.824L526.677 99.7548L525.722 102.824L526.677 103.121ZM499.447 190.64V191.64H500.183L500.401 190.937L499.447 190.64ZM470.877 190.64L469.922 190.938L470.141 191.64H470.877V190.64ZM435.35 76.598L436.305 76.3006L436.304 76.3005L435.35 76.598ZM459.98 68.9348L460.935 68.6373L460.935 68.6372L459.98 68.9348ZM485.158 149.734L484.203 150.031L485.158 153.094L486.113 150.031L485.158 149.734ZM510.35 68.9348L511.305 69.2325L511.305 69.2324L510.35 68.9348ZM543.011 68.9348L543.966 68.6373L543.965 68.6372L543.011 68.9348ZM890.827 68.6867L891.534 67.9796L890.467 66.9132L889.9 68.3105L890.827 68.6867ZM856.222 153.918L855.302 154.31L856.244 156.522L857.148 154.294L856.222 153.918ZM890.834 68.6939L890.127 69.401L891.194 70.4681L891.761 69.0694L890.834 68.6939ZM917.078 79.2425L918.004 79.6187L918.004 79.6187L917.078 79.2425ZM846.982 251.885V252.885H847.655L847.908 252.261L846.982 251.885ZM816.453 251.885L815.526 251.509L814.968 252.885H816.453V251.885ZM841.328 190.615L842.255 190.991L842.411 190.606L842.248 190.223L841.328 190.615ZM793.99 79.4584L794.91 79.0666L794.91 79.0663L793.99 79.4584ZM819.831 68.4708L818.91 68.8622L818.91 68.8626L819.831 68.4708ZM159.224 175.698L158.517 174.992L157.895 175.614L158.433 176.31L159.224 175.698ZM241.031 177.296H242.031V174.563L240.267 176.65L241.031 177.296ZM241.031 190.651H240.031V191.651H241.031V190.651ZM268.196 190.651V191.651H269.196V190.651H268.196ZM241.031 139.217L242.03 139.261L242.031 139.239V139.217H241.031ZM175.299 137.274L176.299 137.274L176.299 137.274L175.299 137.274ZM175.285 73.4712L174.285 73.4712L174.285 73.4714L175.285 73.4712ZM159.232 175.691L159.94 176.397L160.561 175.775L160.022 175.079L159.232 175.691ZM992.79 57.2887L993.702 57.6975L993.703 57.6966L992.79 57.2887ZM995.012 55.8496L995.013 54.8496L995.01 54.8496L995.012 55.8496ZM984.068 76.7598L983.156 77.1686L984.068 79.2062L984.981 77.1686L984.068 76.7598ZM975.354 57.3031L974.441 57.7116L974.441 57.7119L975.354 57.3031ZM970.644 82.0846H969.644V83.0846H970.644V82.0846ZM974.526 82.0846V83.0846H975.526V82.0846H974.526ZM974.526 63.7719L975.439 63.3637L973.526 63.7719H974.526ZM982.714 82.0846L981.801 82.4928L982.066 83.0846H982.714V82.0846ZM985.415 82.0846V83.0846H986.064L986.328 82.4921L985.415 82.0846ZM993.568 63.8151H994.568L992.654 63.4076L993.568 63.8151ZM993.568 82.0846H992.568V83.0846H993.568V82.0846ZM997.449 82.0846V83.0846H998.449V82.0846H997.449ZM955.495 59.102V58.102H954.495V59.102H955.495ZM955.495 82.0126L955.664 82.9982L956.495 82.8559V82.0126H955.495ZM955.243 82.0557V83.0557H955.328L955.412 83.0414L955.243 82.0557ZM951.599 82.0557H950.599V83.0557H951.599V82.0557ZM951.599 59.102H952.599V58.102H951.599V59.102ZM85.8178 121.663C98.6686 118.213 108.346 111.984 114.738 102.895L113.102 101.745C107.034 110.372 97.7991 116.375 85.2992 119.732L85.8178 121.663ZM84.8446 121.398L84.8518 121.405L86.2652 119.99L86.258 119.983L84.8446 121.398ZM128.224 190.118L86.4096 120.177L84.693 121.203L126.507 191.144L128.224 190.118ZM95.4899 191.631H127.366V189.631H95.4899V191.631ZM54.3443 123.787L94.6317 191.144L96.3481 190.118L56.0607 122.76L54.3443 123.787ZM53.7283 124.386L55.2767 124.271L55.1283 122.276L53.58 122.391L53.7283 124.386ZM29.0452 124.389H53.6541V122.389H29.0452V124.389ZM30.0236 190.624L30.0452 123.389L28.0452 123.388L28.0236 190.624L30.0236 190.624ZM0 191.624H29.0236V189.624H0V191.624ZM-1 34.2935V190.624H1V34.2935H-1ZM14.303 19.0031C5.85102 19.0031 -1 25.8469 -1 34.2935H1C1 26.9531 6.95393 21.0031 14.303 21.0031V19.0031ZM63.211 19.0031H14.303V21.0031H63.211V19.0031ZM96.9386 25.9771C87.6744 21.2464 76.4165 18.9015 63.2033 19.0032L63.2187 21.0031C76.1916 20.9033 87.1156 23.2067 96.029 27.7583L96.9386 25.9771ZM117.731 45.0102C113.113 37.0369 106.169 30.6941 96.9388 25.9772L96.0287 27.7581C104.962 32.3235 111.6 38.4146 116 46.0124L117.731 45.0102ZM124.613 71.3532C124.569 61.6867 122.29 52.8933 117.731 45.0107L115.999 46.012C120.371 53.571 122.571 62.0181 122.613 71.3623L124.613 71.3532ZM124.621 71.6168C124.621 71.5372 124.621 71.4093 124.61 71.2746L122.617 71.4408C122.62 71.4788 122.621 71.5236 122.621 71.6168H124.621ZM114.738 102.895C121.324 93.5306 124.621 83.0975 124.621 71.6168H122.621C122.621 82.6868 119.45 92.7179 113.102 101.745L114.738 102.895ZM28.3096 100.377V48.1737H26.3096V100.377H28.3096ZM26.6112 99.6615L26.604 99.6687L28.0152 101.086L28.0224 101.079L26.6112 99.6615ZM63.2182 99.3702H27.3168V101.37H63.2182V99.3702ZM86.21 91.7865C81.1396 96.7908 73.5343 99.3702 63.2182 99.3702V101.37C73.8453 101.37 82.041 98.7112 87.6149 93.21L86.21 91.7865ZM93.8922 71.3289C93.8922 79.9721 91.3 86.7562 86.2095 91.787L87.6154 93.2095C93.155 87.7348 95.8922 80.4012 95.8922 71.3289H93.8922ZM86.3437 51.2565C91.34 56.0355 93.8922 62.6796 93.8922 71.3289H95.8922C95.8922 62.2629 93.2014 55.0483 87.7261 49.8112L86.3437 51.2565ZM63.211 44.0289C73.71 44.0289 81.3588 46.5018 86.3447 51.2574L87.7251 49.8102C82.225 44.564 73.9864 42.0289 63.211 42.0289V44.0289ZM32.459 44.0289H63.211V42.0289H32.459V44.0289ZM28.3096 48.1737C28.3096 45.8846 30.1656 44.0289 32.459 44.0289V42.0289C29.0628 42.0289 26.3096 44.7783 26.3096 48.1737H28.3096ZM406.507 74.182C397.428 62.4461 383.103 55.0566 364.168 55.0566V57.0566C382.54 57.0566 396.258 64.2021 404.925 75.4057L406.507 74.182ZM417.828 109.922C417.828 96.3095 413.965 83.8165 406.507 74.1817L404.925 75.406C412.072 84.6379 415.828 96.6816 415.828 109.922H417.828ZM417.828 190.692V109.922H415.828V190.692H417.828ZM389.663 191.692H416.828V189.692H389.663V191.692ZM388.641 113.218L388.663 190.693L390.663 190.692L390.641 113.218L388.641 113.218ZM356.75 80.5717C366.735 80.5717 374.687 84.2342 380.147 90.106C385.616 95.9873 388.641 104.146 388.641 113.218H390.641C390.641 103.704 387.466 95.0395 381.612 88.7441C375.749 82.4393 367.254 78.5717 356.75 78.5717V80.5717ZM324.909 111.32C325.292 102.683 328.305 95.0028 333.658 89.4903C339.002 83.9881 346.747 80.5717 356.75 80.5717V78.5717C346.264 78.5717 337.982 82.1673 332.223 88.097C326.475 94.0164 323.312 102.188 322.911 111.231L324.909 111.32ZM324.91 190.685V111.275H322.91V190.685H324.91ZM296.744 191.685H323.91V189.685H296.744V191.685ZM295.744 73.1964V190.685H297.744V73.1964H295.744ZM310.046 58.9063C302.149 58.9063 295.744 65.3039 295.744 73.1964H297.744C297.744 66.4101 303.252 60.9063 310.046 60.9063V58.9063ZM310.608 58.9063H310.046V60.9063H310.608V58.9063ZM324.91 73.1964C324.91 65.3039 318.505 58.9063 310.608 58.9063V60.9063C317.402 60.9063 322.91 66.4101 322.91 73.1964H324.91ZM364.168 55.0566C345.241 55.0566 332.257 61.7701 323.146 72.5509L324.673 73.8419C333.38 63.5398 345.79 57.0566 364.168 57.0566V55.0566ZM739.76 78.4366V73.558H737.76V78.4366H739.76ZM693.496 57.2168C711.067 57.2168 726.899 65.6177 737.988 79.0726L739.532 77.8006C728.109 63.9412 711.734 55.2168 693.496 55.2168V57.2168ZM632.898 125.236C632.898 87.5639 660.131 57.2168 693.496 57.2168V55.2168C658.818 55.2168 630.898 86.6794 630.898 125.236H632.898ZM693.496 193.256C660.131 193.256 632.898 162.909 632.898 125.236H630.898C630.898 163.793 658.818 195.256 693.496 195.256V193.256ZM737.988 171.4C726.899 184.855 711.06 193.256 693.496 193.256V195.256C711.726 195.256 728.109 186.532 739.532 172.672L737.988 171.4ZM739.76 190.673V172.036H737.76V190.673H739.76ZM765.897 189.673H738.76V191.673H765.897V189.673ZM764.897 73.558V190.673H766.897V73.558H764.897ZM752.328 61.0016C759.267 61.0016 764.897 66.6209 764.897 73.558H766.897C766.897 65.514 760.37 59.0016 752.328 59.0016V61.0016ZM739.76 73.558C739.76 66.6274 745.383 61.0016 752.328 61.0016V59.0016C744.279 59.0016 737.76 65.5219 737.76 73.558H739.76ZM658.035 125.244C658.035 150.89 676.191 171.921 698.869 171.921V169.921C677.544 169.921 660.035 150.052 660.035 125.244H658.035ZM698.869 78.5663C676.198 78.5663 658.035 99.5966 658.035 125.244H660.035C660.035 100.435 677.551 80.5663 698.869 80.5663V78.5663ZM739.702 125.244C739.702 99.5966 721.54 78.5663 698.869 78.5663V80.5663C720.187 80.5663 737.702 100.435 737.702 125.244H739.702ZM698.869 171.921C721.54 171.921 739.702 150.891 739.702 125.244H737.702C737.702 150.052 720.187 169.921 698.869 169.921V171.921ZM592.368 68.6449L567.234 149.436L569.143 150.031L594.278 69.2391L592.368 68.6449ZM593.33 67.942H593.323V69.942H593.33V67.942ZM605.646 58.8828C599.562 58.8828 594.184 62.8368 592.376 68.6447L594.285 69.2393C595.833 64.2683 600.437 60.8828 605.646 60.8828V58.8828ZM618.916 76.8876C621.694 67.9466 615.011 58.8828 605.646 58.8828V60.8828C613.665 60.8828 619.384 68.6422 617.006 76.2941L618.916 76.8876ZM583.432 190.937L618.916 76.8879L617.006 76.2938L581.522 190.343L583.432 190.937ZM553.907 191.64H582.477V189.64H553.907V191.64ZM525.722 103.418L552.952 190.937L554.862 190.343L527.632 102.824L525.722 103.418ZM500.401 190.937L527.632 103.418L525.722 102.824L498.492 190.343L500.401 190.937ZM470.877 191.64H499.447V189.64H470.877V191.64ZM434.395 76.8955L469.922 190.938L471.831 190.343L436.305 76.3006L434.395 76.8955ZM447.665 58.8828C438.3 58.8828 431.608 67.9537 434.395 76.8956L436.304 76.3005C433.92 68.6495 439.645 60.8828 447.665 60.8828V58.8828ZM460.935 68.6372C459.126 62.8365 453.748 58.8828 447.665 58.8828V60.8828C452.874 60.8828 457.478 64.2686 459.026 69.2324L460.935 68.6372ZM486.113 149.436L460.935 68.6373L459.025 69.2323L484.203 150.031L486.113 149.436ZM509.396 68.6371L484.203 149.436L486.113 150.031L511.305 69.2325L509.396 68.6371ZM522.665 58.8828C516.582 58.8828 511.204 62.8365 509.396 68.6372L511.305 69.2324C512.853 64.2686 517.456 60.8828 522.665 60.8828V58.8828ZM530.696 58.8828H522.665V60.8828H530.696V58.8828ZM543.965 68.6372C542.157 62.8365 536.779 58.8828 530.696 58.8828V60.8828C535.905 60.8828 540.509 64.2686 542.056 69.2324L543.965 68.6372ZM569.143 149.436L543.966 68.6373L542.056 69.2323L567.234 150.031L569.143 149.436ZM889.9 68.3105L855.295 153.542L857.148 154.294L891.753 69.0629L889.9 68.3105ZM891.541 67.9868L891.534 67.9796L890.119 69.3938L890.127 69.401L891.541 67.9868ZM903.848 58.9369C897.723 58.9369 892.207 62.6438 889.907 68.3183L891.761 69.0694C893.753 64.1521 898.535 60.9369 903.848 60.9369V58.9369ZM904.064 58.9369H903.848V60.9369H904.064V58.9369ZM918.004 79.6187C922.016 69.7355 914.74 58.9369 904.064 58.9369V60.9369C913.322 60.9369 919.629 70.3002 916.151 78.8664L918.004 79.6187ZM847.908 252.261L918.004 79.6187L916.151 78.8663L846.055 251.509L847.908 252.261ZM816.453 252.885H846.982V250.885H816.453V252.885ZM840.402 190.239L815.526 251.509L817.379 252.261L842.255 190.991L840.402 190.239ZM793.07 79.8502L840.408 191.007L842.248 190.223L794.91 79.0666L793.07 79.8502ZM806.91 58.9297C796.127 58.9297 788.842 69.9287 793.07 79.8504L794.91 79.0663C791.245 70.4667 797.558 60.9297 806.91 60.9297V58.9297ZM820.751 68.0794C818.39 62.5292 812.943 58.9297 806.91 58.9297V60.9297C812.142 60.9297 816.864 64.0508 818.91 68.8622L820.751 68.0794ZM857.142 153.526L820.751 68.079L818.91 68.8626L855.302 154.31L857.142 153.526ZM200.772 193.435C182.401 193.435 168.682 186.29 160.015 175.086L158.433 176.31C167.512 188.046 181.838 195.435 200.772 195.435V193.435ZM240.267 176.65C231.566 186.946 218.281 193.435 200.772 193.435V195.435C218.812 195.435 232.678 188.729 241.795 177.941L240.267 176.65ZM242.031 190.651V177.296H240.031V190.651H242.031ZM268.196 189.651H241.031V191.651H268.196V189.651ZM267.196 73.4784V190.651H269.196V73.4784H267.196ZM254.614 60.9076C261.566 60.9076 267.196 66.5337 267.196 73.4784H269.196C269.196 65.4275 262.669 58.9076 254.614 58.9076V60.9076ZM242.031 73.4784C242.031 66.5337 247.661 60.9076 254.614 60.9076V58.9076C246.558 58.9076 240.031 65.4275 240.031 73.4784H242.031ZM242.031 139.217V73.4784H240.031V139.217H242.031ZM208.19 171.92C218.676 171.92 226.959 168.325 232.717 162.395C238.465 156.476 241.628 148.304 242.03 139.261L240.032 139.172C239.648 147.809 236.635 155.489 231.282 161.002C225.939 166.504 218.193 169.92 208.19 169.92V171.92ZM174.299 137.274C174.299 146.772 177.278 155.438 183.042 161.742C188.819 168.058 197.319 171.92 208.19 171.92V169.92C197.822 169.92 189.878 166.253 184.518 160.392C179.147 154.519 176.299 146.362 176.299 137.274H174.299ZM174.285 73.4714L174.299 137.274L176.299 137.274L176.285 73.471L174.285 73.4714ZM161.702 60.9004C168.648 60.9004 174.285 66.5269 174.285 73.4712H176.285C176.285 65.42 169.75 58.9004 161.702 58.9004V60.9004ZM149.119 73.4712C149.119 66.5265 154.749 60.9004 161.702 60.9004V58.9004C153.646 58.9004 147.119 65.4203 147.119 73.4712H149.119ZM149.119 140.562V73.4712H147.119V140.562H149.119ZM160.022 175.079C152.876 165.847 149.119 153.803 149.119 140.562H147.119C147.119 154.175 150.982 166.668 158.441 176.303L160.022 175.079ZM159.932 176.405L159.94 176.397L158.524 174.985L158.517 174.992L159.932 176.405ZM993.703 57.6966C993.93 57.1885 994.449 56.8504 995.013 56.8496L995.01 54.8496C993.662 54.8515 992.427 55.6497 991.877 56.8809L993.703 57.6966ZM984.981 77.1686L993.702 57.6975L991.877 56.8799L983.156 76.3511L984.981 77.1686ZM974.441 57.7119L983.156 77.1686L984.981 76.3511L976.267 56.8944L974.441 57.7119ZM973.107 56.8496C973.686 56.8496 974.207 57.1876 974.441 57.7116L976.267 56.8946C975.709 55.6485 974.472 54.8496 973.107 54.8496V56.8496ZM971.644 58.3105C971.644 57.5055 972.303 56.8496 973.107 56.8496V54.8496C971.203 54.8496 969.644 56.3956 969.644 58.3105H971.644ZM971.644 82.0846V58.3105H969.644V82.0846H971.644ZM974.526 81.0846H970.644V83.0846H974.526V81.0846ZM973.526 63.7719V82.0846H975.526V63.7719H973.526ZM983.627 81.6764L975.439 63.3637L973.613 64.1801L981.801 82.4928L983.627 81.6764ZM985.415 81.0846H982.714V83.0846H985.415V81.0846ZM992.654 63.4076L984.502 81.677L986.328 82.4921L994.481 64.2226L992.654 63.4076ZM994.568 82.0846V63.8151H992.568V82.0846H994.568ZM997.449 81.0846H993.568V83.0846H997.449V81.0846ZM996.449 58.2889V82.0846H998.449V58.2889H996.449ZM995.01 56.8496C995.804 56.8508 996.449 57.4971 996.449 58.2889H998.449C998.449 56.3919 996.909 54.8524 995.013 54.8496L995.01 56.8496ZM964.166 54.8496H942.899V56.8496H964.166V54.8496ZM966.794 57.4758C966.794 56.0233 965.618 54.8496 964.166 54.8496V56.8496C964.515 56.8496 964.794 57.1295 964.794 57.4758H966.794ZM964.166 60.102C965.608 60.102 966.794 58.9312 966.794 57.4758H964.794C964.794 57.8193 964.511 58.102 964.166 58.102V60.102ZM955.495 60.102H964.166V58.102H955.495V60.102ZM956.495 82.0126V59.102H954.495V82.0126H956.495ZM955.412 83.0414L955.664 82.9982L955.326 81.0269L955.074 81.0701L955.412 83.0414ZM951.599 83.0557H955.243V81.0557H951.599V83.0557ZM950.599 59.102V82.0557H952.599V59.102H950.599ZM942.899 60.102H951.599V58.102H942.899V60.102ZM940.271 57.4758C940.271 58.9284 941.447 60.102 942.899 60.102V58.102C942.55 58.102 942.271 57.8221 942.271 57.4758H940.271ZM942.899 54.8496C941.458 54.8496 940.271 56.0204 940.271 57.4758H942.271C942.271 57.1324 942.555 56.8496 942.899 56.8496V54.8496Z" fill="url(#paint2_linear_290_822)" mask="url(#path-5-inside-3_290_822)"/>
</g>
<g opacity="0.8">
<mask id="path-7-inside-4_290_822" fill="white">
<path fill-rule="evenodd" clip-rule="evenodd" d="M113.92 112.32C107.69 121.178 98.2338 127.294 85.5585 130.698L85.5513 130.69L127.366 200.631H95.4899L55.2025 133.274L53.6541 133.389H29.0452L29.0236 200.624H0V44.2935C0 36.4 6.40247 30.0031 14.303 30.0031H63.211C76.3041 29.9024 87.395 32.2266 96.4838 36.8677C105.565 41.5088 112.357 47.7258 116.865 55.5113C121.33 63.2321 123.57 71.8524 123.613 81.3577C123.621 81.4441 123.621 81.5304 123.621 81.6168C123.621 92.8922 120.387 103.124 113.92 112.32ZM27.3096 58.1737V110.377L27.3168 110.37H63.2182C73.6898 110.37 81.5903 107.751 86.9125 102.498C92.2275 97.2455 94.8922 90.1866 94.8922 81.3289C94.8922 72.4712 92.2707 65.5419 87.0349 60.5338C81.7919 55.5329 73.8482 53.0289 63.211 53.0289H32.459C29.6142 53.0289 27.3096 55.3314 27.3096 58.1737ZM364.168 66.0566C382.821 66.0566 396.843 73.3241 405.716 84.7938C413.019 94.2272 416.828 106.496 416.828 119.922V200.692H389.663L389.641 123.218C389.641 104.632 377.24 89.5717 356.75 89.5717C336.261 89.5717 324.695 103.596 323.91 121.275V200.685H296.744V83.1964C296.744 75.857 302.7 69.9063 310.046 69.9063H310.608C317.954 69.9063 323.91 75.857 323.91 83.1964C332.818 72.655 345.515 66.0566 364.168 66.0566ZM738.76 83.558V88.4366C727.504 74.7795 711.4 66.2168 693.496 66.2168C659.474 66.2168 631.898 97.1216 631.898 135.236C631.898 173.351 659.474 204.256 693.496 204.256C711.393 204.256 727.504 195.693 738.76 182.036V200.673H765.897V83.558C765.897 76.0675 759.818 70.0016 752.328 70.0016C744.831 70.0016 738.76 76.0747 738.76 83.558ZM698.869 180.921C676.867 180.921 659.035 160.471 659.035 135.244C659.035 110.016 676.874 89.5663 698.869 89.5663C720.863 89.5663 738.702 110.016 738.702 135.244C738.702 160.471 720.863 180.921 698.869 180.921ZM568.189 159.734L593.323 78.942H593.33C595.008 73.5525 599.999 69.8828 605.646 69.8828C614.338 69.8828 620.539 78.2944 617.961 86.5909L582.477 200.64H553.907L526.677 113.121L499.447 200.64H470.877L435.35 86.598C432.764 78.3016 438.972 69.8828 447.665 69.8828C453.311 69.8828 458.302 73.5525 459.98 78.9348L485.158 159.734L510.35 78.9348C512.028 73.5525 517.019 69.8828 522.665 69.8828H530.696C536.342 69.8828 541.333 73.5525 543.011 78.9348L568.189 159.734ZM856.222 163.918L890.827 78.6867L890.834 78.6939C892.98 73.3979 898.129 69.9369 903.848 69.9369H904.064C914.031 69.9369 920.823 80.0178 917.078 89.2425L846.982 261.885H816.453L841.328 200.615L793.99 89.4584C790.044 80.1977 796.842 69.9297 806.91 69.9297C812.542 69.9297 817.627 73.29 819.831 78.4708L856.222 163.918ZM159.224 185.698C168.097 197.168 182.119 204.435 200.772 204.435C218.546 204.435 232.122 197.837 241.031 187.296V200.651H268.196V83.4784C268.196 75.9806 262.118 69.9076 254.614 69.9076C247.109 69.9076 241.031 75.9806 241.031 83.4784V149.217C240.246 166.896 228.68 180.92 208.19 180.92C186.952 180.92 175.299 165.86 175.299 147.274L175.285 83.4712C175.285 75.9734 169.199 69.9004 161.702 69.9004C154.198 69.9004 148.119 75.9734 148.119 83.4712V150.562C148.119 163.989 151.929 176.258 159.232 185.691L159.224 185.698ZM995.012 65.8496C994.055 65.851 993.178 66.4191 992.79 67.2887L984.068 86.7598L975.354 67.3031C974.958 66.4181 974.079 65.8496 973.107 65.8496C971.753 65.8496 970.644 66.9505 970.644 68.3105V92.0845H974.526V73.7719L982.714 92.0845H985.415L993.568 73.8151V92.0845H997.449V68.2889C997.449 66.9445 996.357 65.8516 995.012 65.8496ZM942.899 65.8496H964.166C965.067 65.8496 965.794 66.5764 965.794 67.4758C965.794 68.3752 965.059 69.102 964.166 69.102H955.495V92.0126L955.243 92.0557H951.599V69.102H942.899C941.999 69.102 941.271 68.3752 941.271 67.4758C941.271 66.5764 942.006 65.8496 942.899 65.8496Z"/>
</mask>
<path d="M85.5585 130.698L84.8518 131.405L85.2602 131.813L85.8178 131.663L85.5585 130.698ZM113.92 112.32L114.738 112.895L114.738 112.895L113.92 112.32ZM85.5513 130.69L86.258 129.983L84.693 131.203L85.5513 130.69ZM127.366 200.631V201.631H129.128L128.224 200.118L127.366 200.631ZM95.4899 200.631L94.6317 201.144L94.9228 201.631H95.4899V200.631ZM55.2025 133.274L56.0607 132.76L55.7439 132.231L55.1283 132.276L55.2025 133.274ZM53.6541 133.389V134.389H53.6912L53.7283 134.386L53.6541 133.389ZM29.0452 133.389V132.389H28.0455L28.0452 133.388L29.0452 133.389ZM29.0236 200.624V201.624H30.0233L30.0236 200.624L29.0236 200.624ZM0 200.624H-1V201.624H0V200.624ZM63.211 30.0031L63.211 31.0032L63.2187 31.0031L63.211 30.0031ZM96.4838 36.8677L96.9388 35.9772L96.9386 35.9771L96.4838 36.8677ZM116.865 55.5113L117.731 55.0107L117.731 55.0102L116.865 55.5113ZM123.613 81.3577L122.613 81.3623L122.613 81.4016L122.617 81.4408L123.613 81.3577ZM27.3096 110.377H26.3096V112.784L28.0152 111.086L27.3096 110.377ZM27.3168 110.37V109.37H26.9038L26.6112 109.662L27.3168 110.37ZM86.9125 102.498L87.6149 103.21L87.6154 103.209L86.9125 102.498ZM87.0349 60.5338L87.7261 59.8112L87.7251 59.8102L87.0349 60.5338ZM405.716 84.7938L404.925 85.4057L404.925 85.406L405.716 84.7938ZM416.828 200.692V201.692H417.828V200.692H416.828ZM389.663 200.692L388.663 200.693L388.663 201.692H389.663V200.692ZM389.641 123.218L388.641 123.218L388.641 123.218L389.641 123.218ZM323.91 121.275L322.911 121.231L322.91 121.253V121.275H323.91ZM323.91 200.685V201.685H324.91V200.685H323.91ZM296.744 200.685H295.744V201.685H296.744V200.685ZM323.91 83.1964H322.91V85.9289L324.673 83.8419L323.91 83.1964ZM738.76 88.4366L737.988 89.0726L739.76 91.2221V88.4366H738.76ZM738.76 182.036H739.76V179.251L737.988 181.4L738.76 182.036ZM738.76 200.673H737.76V201.673H738.76V200.673ZM765.897 200.673V201.673H766.897V200.673H765.897ZM593.323 78.942V77.942H592.587L592.368 78.6449L593.323 78.942ZM568.189 159.734L567.234 160.031L568.189 163.097L569.143 160.031L568.189 159.734ZM593.33 78.942V79.942H594.066L594.285 79.2393L593.33 78.942ZM617.961 86.5909L618.916 86.8879L618.916 86.8876L617.961 86.5909ZM582.477 200.64V201.64H583.213L583.432 200.937L582.477 200.64ZM553.907 200.64L552.952 200.937L553.171 201.64H553.907V200.64ZM526.677 113.121L527.632 112.824L526.677 109.755L525.722 112.824L526.677 113.121ZM499.447 200.64V201.64H500.183L500.401 200.937L499.447 200.64ZM470.877 200.64L469.922 200.938L470.141 201.64H470.877V200.64ZM435.35 86.598L436.305 86.3006L436.304 86.3005L435.35 86.598ZM459.98 78.9348L460.935 78.6373L460.935 78.6372L459.98 78.9348ZM485.158 159.734L484.203 160.031L485.158 163.094L486.113 160.031L485.158 159.734ZM510.35 78.9348L511.305 79.2325L511.305 79.2324L510.35 78.9348ZM543.011 78.9348L543.966 78.6373L543.965 78.6372L543.011 78.9348ZM890.827 78.6867L891.534 77.9796L890.467 76.9132L889.9 78.3105L890.827 78.6867ZM856.222 163.918L855.302 164.31L856.244 166.522L857.148 164.294L856.222 163.918ZM890.834 78.6939L890.127 79.401L891.194 80.4681L891.761 79.0694L890.834 78.6939ZM917.078 89.2425L918.004 89.6187L918.004 89.6187L917.078 89.2425ZM846.982 261.885V262.885H847.655L847.908 262.261L846.982 261.885ZM816.453 261.885L815.526 261.509L814.968 262.885H816.453V261.885ZM841.328 200.615L842.255 200.991L842.411 200.606L842.248 200.223L841.328 200.615ZM793.99 89.4584L794.91 89.0666L794.91 89.0663L793.99 89.4584ZM819.831 78.4708L818.91 78.8622L818.91 78.8626L819.831 78.4708ZM159.224 185.698L158.517 184.992L157.895 185.614L158.433 186.31L159.224 185.698ZM241.031 187.296H242.031V184.563L240.267 186.65L241.031 187.296ZM241.031 200.651H240.031V201.651H241.031V200.651ZM268.196 200.651V201.651H269.196V200.651H268.196ZM241.031 149.217L242.03 149.261L242.031 149.239V149.217H241.031ZM175.299 147.274L176.299 147.274L176.299 147.274L175.299 147.274ZM175.285 83.4712L174.285 83.4712L174.285 83.4714L175.285 83.4712ZM159.232 185.691L159.94 186.397L160.561 185.775L160.022 185.079L159.232 185.691ZM992.79 67.2887L993.702 67.6975L993.703 67.6966L992.79 67.2887ZM995.012 65.8496L995.013 64.8496L995.01 64.8496L995.012 65.8496ZM984.068 86.7598L983.156 87.1686L984.068 89.2062L984.981 87.1686L984.068 86.7598ZM975.354 67.3031L974.441 67.7116L974.441 67.7119L975.354 67.3031ZM970.644 92.0846H969.644V93.0846H970.644V92.0846ZM974.526 92.0846V93.0846H975.526V92.0846H974.526ZM974.526 73.7719L975.439 73.3637L973.526 73.7719H974.526ZM982.714 92.0846L981.801 92.4928L982.066 93.0846H982.714V92.0846ZM985.415 92.0846V93.0846H986.064L986.328 92.4921L985.415 92.0846ZM993.568 73.8151H994.568L992.654 73.4076L993.568 73.8151ZM993.568 92.0846H992.568V93.0846H993.568V92.0846ZM997.449 92.0846V93.0846H998.449V92.0846H997.449ZM955.495 69.102V68.102H954.495V69.102H955.495ZM955.495 92.0126L955.664 92.9982L956.495 92.8559V92.0126H955.495ZM955.243 92.0557V93.0557H955.328L955.412 93.0414L955.243 92.0557ZM951.599 92.0557H950.599V93.0557H951.599V92.0557ZM951.599 69.102H952.599V68.102H951.599V69.102ZM85.8178 131.663C98.6686 128.213 108.346 121.984 114.738 112.895L113.102 111.745C107.034 120.372 97.7991 126.375 85.2992 129.732L85.8178 131.663ZM84.8446 131.398L84.8518 131.405L86.2652 129.99L86.258 129.983L84.8446 131.398ZM128.224 200.118L86.4096 130.177L84.693 131.203L126.507 201.144L128.224 200.118ZM95.4899 201.631H127.366V199.631H95.4899V201.631ZM54.3443 133.787L94.6317 201.144L96.3481 200.118L56.0607 132.76L54.3443 133.787ZM53.7283 134.386L55.2767 134.271L55.1283 132.276L53.58 132.391L53.7283 134.386ZM29.0452 134.389H53.6541V132.389H29.0452V134.389ZM30.0236 200.624L30.0452 133.389L28.0452 133.388L28.0236 200.624L30.0236 200.624ZM0 201.624H29.0236V199.624H0V201.624ZM-1 44.2935V200.624H1V44.2935H-1ZM14.303 29.0031C5.85102 29.0031 -1 35.8469 -1 44.2935H1C1 36.9531 6.95393 31.0031 14.303 31.0031V29.0031ZM63.211 29.0031H14.303V31.0031H63.211V29.0031ZM96.9386 35.9771C87.6744 31.2464 76.4165 28.9015 63.2033 29.0032L63.2187 31.0031C76.1916 30.9033 87.1156 33.2067 96.029 37.7583L96.9386 35.9771ZM117.731 55.0102C113.113 47.0369 106.169 40.6941 96.9388 35.9772L96.0287 37.7581C104.962 42.3235 111.6 48.4146 116 56.0124L117.731 55.0102ZM124.613 81.3532C124.569 71.6867 122.29 62.8933 117.731 55.0107L115.999 56.012C120.371 63.571 122.571 72.0181 122.613 81.3623L124.613 81.3532ZM124.621 81.6168C124.621 81.5372 124.621 81.4093 124.61 81.2746L122.617 81.4408C122.62 81.4788 122.621 81.5236 122.621 81.6168H124.621ZM114.738 112.895C121.324 103.531 124.621 93.0975 124.621 81.6168H122.621C122.621 92.6868 119.45 102.718 113.102 111.745L114.738 112.895ZM28.3096 110.377V58.1737H26.3096V110.377H28.3096ZM26.6112 109.662L26.604 109.669L28.0152 111.086L28.0224 111.079L26.6112 109.662ZM63.2182 109.37H27.3168V111.37H63.2182V109.37ZM86.21 101.786C81.1396 106.791 73.5343 109.37 63.2182 109.37V111.37C73.8453 111.37 82.041 108.711 87.6149 103.21L86.21 101.786ZM93.8922 81.3289C93.8922 89.9721 91.3 96.7562 86.2095 101.787L87.6154 103.209C93.155 97.7348 95.8922 90.4012 95.8922 81.3289H93.8922ZM86.3437 61.2565C91.34 66.0355 93.8922 72.6796 93.8922 81.3289H95.8922C95.8922 72.2629 93.2014 65.0483 87.7261 59.8112L86.3437 61.2565ZM63.211 54.0289C73.71 54.0289 81.3588 56.5018 86.3447 61.2574L87.7251 59.8102C82.225 54.564 73.9864 52.0289 63.211 52.0289V54.0289ZM32.459 54.0289H63.211V52.0289H32.459V54.0289ZM28.3096 58.1737C28.3096 55.8846 30.1656 54.0289 32.459 54.0289V52.0289C29.0628 52.0289 26.3096 54.7783 26.3096 58.1737H28.3096ZM406.507 84.182C397.428 72.4461 383.103 65.0566 364.168 65.0566V67.0566C382.54 67.0566 396.258 74.2021 404.925 85.4057L406.507 84.182ZM417.828 119.922C417.828 106.31 413.965 93.8165 406.507 84.1817L404.925 85.406C412.072 94.6379 415.828 106.682 415.828 119.922H417.828ZM417.828 200.692V119.922H415.828V200.692H417.828ZM389.663 201.692H416.828V199.692H389.663V201.692ZM388.641 123.218L388.663 200.693L390.663 200.692L390.641 123.218L388.641 123.218ZM356.75 90.5717C366.735 90.5717 374.687 94.2342 380.147 100.106C385.616 105.987 388.641 114.146 388.641 123.218H390.641C390.641 113.704 387.466 105.039 381.612 98.7441C375.749 92.4393 367.254 88.5717 356.75 88.5717V90.5717ZM324.909 121.32C325.292 112.683 328.305 105.003 333.658 99.4903C339.002 93.9881 346.747 90.5717 356.75 90.5717V88.5717C346.264 88.5717 337.982 92.1673 332.223 98.097C326.475 104.016 323.312 112.188 322.911 121.231L324.909 121.32ZM324.91 200.685V121.275H322.91V200.685H324.91ZM296.744 201.685H323.91V199.685H296.744V201.685ZM295.744 83.1964V200.685H297.744V83.1964H295.744ZM310.046 68.9063C302.149 68.9063 295.744 75.3039 295.744 83.1964H297.744C297.744 76.4101 303.252 70.9063 310.046 70.9063V68.9063ZM310.608 68.9063H310.046V70.9063H310.608V68.9063ZM324.91 83.1964C324.91 75.3039 318.505 68.9063 310.608 68.9063V70.9063C317.402 70.9063 322.91 76.4101 322.91 83.1964H324.91ZM364.168 65.0566C345.241 65.0566 332.257 71.7701 323.146 82.5509L324.673 83.8419C333.38 73.5398 345.79 67.0566 364.168 67.0566V65.0566ZM739.76 88.4366V83.558H737.76V88.4366H739.76ZM693.496 67.2168C711.067 67.2168 726.899 75.6177 737.988 89.0726L739.532 87.8006C728.109 73.9412 711.734 65.2168 693.496 65.2168V67.2168ZM632.898 135.236C632.898 97.5639 660.131 67.2168 693.496 67.2168V65.2168C658.818 65.2168 630.898 96.6794 630.898 135.236H632.898ZM693.496 203.256C660.131 203.256 632.898 172.909 632.898 135.236H630.898C630.898 173.793 658.818 205.256 693.496 205.256V203.256ZM737.988 181.4C726.899 194.855 711.06 203.256 693.496 203.256V205.256C711.726 205.256 728.109 196.532 739.532 182.672L737.988 181.4ZM739.76 200.673V182.036H737.76V200.673H739.76ZM765.897 199.673H738.76V201.673H765.897V199.673ZM764.897 83.558V200.673H766.897V83.558H764.897ZM752.328 71.0016C759.267 71.0016 764.897 76.6209 764.897 83.558H766.897C766.897 75.514 760.37 69.0016 752.328 69.0016V71.0016ZM739.76 83.558C739.76 76.6274 745.383 71.0016 752.328 71.0016V69.0016C744.279 69.0016 737.76 75.5219 737.76 83.558H739.76ZM658.035 135.244C658.035 160.89 676.191 181.921 698.869 181.921V179.921C677.544 179.921 660.035 160.052 660.035 135.244H658.035ZM698.869 88.5663C676.198 88.5663 658.035 109.597 658.035 135.244H660.035C660.035 110.435 677.551 90.5663 698.869 90.5663V88.5663ZM739.702 135.244C739.702 109.597 721.54 88.5663 698.869 88.5663V90.5663C720.187 90.5663 737.702 110.435 737.702 135.244H739.702ZM698.869 181.921C721.54 181.921 739.702 160.891 739.702 135.244H737.702C737.702 160.052 720.187 179.921 698.869 179.921V181.921ZM592.368 78.6449L567.234 159.436L569.143 160.031L594.278 79.2391L592.368 78.6449ZM593.33 77.942H593.323V79.942H593.33V77.942ZM605.646 68.8828C599.562 68.8828 594.184 72.8368 592.376 78.6447L594.285 79.2393C595.833 74.2683 600.437 70.8828 605.646 70.8828V68.8828ZM618.916 86.8876C621.694 77.9466 615.011 68.8828 605.646 68.8828V70.8828C613.665 70.8828 619.384 78.6422 617.006 86.2941L618.916 86.8876ZM583.432 200.937L618.916 86.8879L617.006 86.2938L581.522 200.343L583.432 200.937ZM553.907 201.64H582.477V199.64H553.907V201.64ZM525.722 113.418L552.952 200.937L554.862 200.343L527.632 112.824L525.722 113.418ZM500.401 200.937L527.632 113.418L525.722 112.824L498.492 200.343L500.401 200.937ZM470.877 201.64H499.447V199.64H470.877V201.64ZM434.395 86.8955L469.922 200.938L471.831 200.343L436.305 86.3006L434.395 86.8955ZM447.665 68.8828C438.3 68.8828 431.608 77.9537 434.395 86.8956L436.304 86.3005C433.92 78.6495 439.645 70.8828 447.665 70.8828V68.8828ZM460.935 78.6372C459.126 72.8365 453.748 68.8828 447.665 68.8828V70.8828C452.874 70.8828 457.478 74.2686 459.026 79.2324L460.935 78.6372ZM486.113 159.436L460.935 78.6373L459.025 79.2323L484.203 160.031L486.113 159.436ZM509.396 78.6371L484.203 159.436L486.113 160.031L511.305 79.2325L509.396 78.6371ZM522.665 68.8828C516.582 68.8828 511.204 72.8365 509.396 78.6372L511.305 79.2324C512.853 74.2686 517.456 70.8828 522.665 70.8828V68.8828ZM530.696 68.8828H522.665V70.8828H530.696V68.8828ZM543.965 78.6372C542.157 72.8365 536.779 68.8828 530.696 68.8828V70.8828C535.905 70.8828 540.509 74.2686 542.056 79.2324L543.965 78.6372ZM569.143 159.436L543.966 78.6373L542.056 79.2323L567.234 160.031L569.143 159.436ZM889.9 78.3105L855.295 163.542L857.148 164.294L891.753 79.0629L889.9 78.3105ZM891.541 77.9868L891.534 77.9796L890.119 79.3938L890.127 79.401L891.541 77.9868ZM903.848 68.9369C897.723 68.9369 892.207 72.6438 889.907 78.3183L891.761 79.0694C893.753 74.1521 898.535 70.9369 903.848 70.9369V68.9369ZM904.064 68.9369H903.848V70.9369H904.064V68.9369ZM918.004 89.6187C922.016 79.7355 914.74 68.9369 904.064 68.9369V70.9369C913.322 70.9369 919.629 80.3002 916.151 88.8664L918.004 89.6187ZM847.908 262.261L918.004 89.6187L916.151 88.8663L846.055 261.509L847.908 262.261ZM816.453 262.885H846.982V260.885H816.453V262.885ZM840.402 200.239L815.526 261.509L817.379 262.261L842.255 200.991L840.402 200.239ZM793.07 89.8502L840.408 201.007L842.248 200.223L794.91 89.0666L793.07 89.8502ZM806.91 68.9297C796.127 68.9297 788.842 79.9287 793.07 89.8504L794.91 89.0663C791.245 80.4667 797.558 70.9297 806.91 70.9297V68.9297ZM820.751 78.0794C818.39 72.5292 812.943 68.9297 806.91 68.9297V70.9297C812.142 70.9297 816.864 74.0508 818.91 78.8622L820.751 78.0794ZM857.142 163.526L820.751 78.079L818.91 78.8626L855.302 164.31L857.142 163.526ZM200.772 203.435C182.401 203.435 168.682 196.29 160.015 185.086L158.433 186.31C167.512 198.046 181.838 205.435 200.772 205.435V203.435ZM240.267 186.65C231.566 196.946 218.281 203.435 200.772 203.435V205.435C218.812 205.435 232.678 198.729 241.795 187.941L240.267 186.65ZM242.031 200.651V187.296H240.031V200.651H242.031ZM268.196 199.651H241.031V201.651H268.196V199.651ZM267.196 83.4784V200.651H269.196V83.4784H267.196ZM254.614 70.9076C261.566 70.9076 267.196 76.5337 267.196 83.4784H269.196C269.196 75.4275 262.669 68.9076 254.614 68.9076V70.9076ZM242.031 83.4784C242.031 76.5337 247.661 70.9076 254.614 70.9076V68.9076C246.558 68.9076 240.031 75.4275 240.031 83.4784H242.031ZM242.031 149.217V83.4784H240.031V149.217H242.031ZM208.19 181.92C218.676 181.92 226.959 178.325 232.717 172.395C238.465 166.476 241.628 158.304 242.03 149.261L240.032 149.172C239.648 157.809 236.635 165.489 231.282 171.002C225.939 176.504 218.193 179.92 208.19 179.92V181.92ZM174.299 147.274C174.299 156.772 177.278 165.438 183.042 171.742C188.819 178.058 197.319 181.92 208.19 181.92V179.92C197.822 179.92 189.878 176.253 184.518 170.392C179.147 164.519 176.299 156.362 176.299 147.274H174.299ZM174.285 83.4714L174.299 147.274L176.299 147.274L176.285 83.471L174.285 83.4714ZM161.702 70.9004C168.648 70.9004 174.285 76.5269 174.285 83.4712H176.285C176.285 75.42 169.75 68.9004 161.702 68.9004V70.9004ZM149.119 83.4712C149.119 76.5265 154.749 70.9004 161.702 70.9004V68.9004C153.646 68.9004 147.119 75.4203 147.119 83.4712H149.119ZM149.119 150.562V83.4712H147.119V150.562H149.119ZM160.022 185.079C152.876 175.847 149.119 163.803 149.119 150.562H147.119C147.119 164.175 150.982 176.668 158.441 186.303L160.022 185.079ZM159.932 186.405L159.94 186.397L158.524 184.985L158.517 184.992L159.932 186.405ZM993.703 67.6966C993.93 67.1885 994.449 66.8504 995.013 66.8496L995.01 64.8496C993.662 64.8515 992.427 65.6497 991.877 66.8809L993.703 67.6966ZM984.981 87.1686L993.702 67.6975L991.877 66.8799L983.156 86.3511L984.981 87.1686ZM974.441 67.7119L983.156 87.1686L984.981 86.3511L976.267 66.8944L974.441 67.7119ZM973.107 66.8496C973.686 66.8496 974.207 67.1876 974.441 67.7116L976.267 66.8946C975.709 65.6485 974.472 64.8496 973.107 64.8496V66.8496ZM971.644 68.3105C971.644 67.5055 972.303 66.8496 973.107 66.8496V64.8496C971.203 64.8496 969.644 66.3956 969.644 68.3105H971.644ZM971.644 92.0846V68.3105H969.644V92.0846H971.644ZM974.526 91.0846H970.644V93.0846H974.526V91.0846ZM973.526 73.7719V92.0846H975.526V73.7719H973.526ZM983.627 91.6764L975.439 73.3637L973.613 74.1801L981.801 92.4928L983.627 91.6764ZM985.415 91.0846H982.714V93.0846H985.415V91.0846ZM992.654 73.4076L984.502 91.677L986.328 92.4921L994.481 74.2226L992.654 73.4076ZM994.568 92.0846V73.8151H992.568V92.0846H994.568ZM997.449 91.0846H993.568V93.0846H997.449V91.0846ZM996.449 68.2889V92.0846H998.449V68.2889H996.449ZM995.01 66.8496C995.804 66.8508 996.449 67.4971 996.449 68.2889H998.449C998.449 66.3919 996.909 64.8524 995.013 64.8496L995.01 66.8496ZM964.166 64.8496H942.899V66.8496H964.166V64.8496ZM966.794 67.4758C966.794 66.0233 965.618 64.8496 964.166 64.8496V66.8496C964.515 66.8496 964.794 67.1295 964.794 67.4758H966.794ZM964.166 70.102C965.608 70.102 966.794 68.9312 966.794 67.4758H964.794C964.794 67.8193 964.511 68.102 964.166 68.102V70.102ZM955.495 70.102H964.166V68.102H955.495V70.102ZM956.495 92.0126V69.102H954.495V92.0126H956.495ZM955.412 93.0414L955.664 92.9982L955.326 91.0269L955.074 91.0701L955.412 93.0414ZM951.599 93.0557H955.243V91.0557H951.599V93.0557ZM950.599 69.102V92.0557H952.599V69.102H950.599ZM942.899 70.102H951.599V68.102H942.899V70.102ZM940.271 67.4758C940.271 68.9284 941.447 70.102 942.899 70.102V68.102C942.55 68.102 942.271 67.8221 942.271 67.4758H940.271ZM942.899 64.8496C941.458 64.8496 940.271 66.0204 940.271 67.4758H942.271C942.271 67.1324 942.555 66.8496 942.899 66.8496V64.8496Z" fill="url(#paint3_linear_290_822)" mask="url(#path-7-inside-4_290_822)"/>
</g>
<path fill-rule="evenodd" clip-rule="evenodd" d="M113.92 132.32C107.69 141.178 98.2338 147.294 85.5585 150.698L85.5513 150.69L127.366 220.631H95.4899L55.2025 153.274L53.6541 153.389H29.0452L29.0236 220.624H0V64.2935C0 56.4 6.40247 50.0031 14.303 50.0031H63.211C76.3041 49.9024 87.395 52.2266 96.4838 56.8677C105.565 61.5088 112.357 67.7258 116.865 75.5113C121.33 83.2321 123.57 91.8524 123.613 101.358C123.621 101.444 123.621 101.53 123.621 101.617C123.621 112.892 120.387 123.124 113.92 132.32ZM27.3096 78.1737V130.377L27.3168 130.37H63.2182C73.6898 130.37 81.5903 127.751 86.9125 122.498C92.2275 117.245 94.8922 110.187 94.8922 101.329C94.8922 92.4712 92.2707 85.5419 87.0349 80.5338C81.7919 75.5329 73.8482 73.0289 63.211 73.0289H32.459C29.6142 73.0289 27.3096 75.3314 27.3096 78.1737ZM364.168 86.0566C382.821 86.0566 396.843 93.3241 405.716 104.794C413.019 114.227 416.828 126.496 416.828 139.922V220.692H389.663L389.641 143.218C389.641 124.632 377.24 109.572 356.75 109.572C336.261 109.572 324.695 123.596 323.91 141.275V220.685H296.744V103.196C296.744 95.857 302.7 89.9063 310.046 89.9063H310.608C317.954 89.9063 323.91 95.857 323.91 103.196C332.818 92.655 345.515 86.0566 364.168 86.0566ZM738.76 103.558V108.437C727.504 94.7795 711.4 86.2168 693.496 86.2168C659.474 86.2168 631.898 117.122 631.898 155.236C631.898 193.351 659.474 224.256 693.496 224.256C711.393 224.256 727.504 215.693 738.76 202.036V220.673H765.897V103.558C765.897 96.0675 759.818 90.0016 752.328 90.0016C744.831 90.0016 738.76 96.0747 738.76 103.558ZM698.869 200.921C676.867 200.921 659.035 180.471 659.035 155.244C659.035 130.016 676.874 109.566 698.869 109.566C720.863 109.566 738.702 130.016 738.702 155.244C738.702 180.471 720.863 200.921 698.869 200.921ZM568.189 179.734L593.323 98.942H593.33C595.008 93.5525 599.999 89.8828 605.646 89.8828C614.338 89.8828 620.539 98.2944 617.961 106.591L582.477 220.64H553.907L526.677 133.121L499.447 220.64H470.877L435.35 106.598C432.764 98.3016 438.972 89.8828 447.665 89.8828C453.311 89.8828 458.302 93.5525 459.98 98.9348L485.158 179.734L510.35 98.9348C512.028 93.5525 517.019 89.8828 522.665 89.8828H530.696C536.342 89.8828 541.333 93.5525 543.011 98.9348L568.189 179.734ZM856.222 183.918L890.827 98.6867L890.834 98.6939C892.98 93.3979 898.129 89.9369 903.848 89.9369H904.064C914.031 89.9369 920.823 100.018 917.078 109.243L846.982 281.885H816.453L841.328 220.615L793.99 109.458C790.044 100.198 796.842 89.9297 806.91 89.9297C812.542 89.9297 817.627 93.29 819.831 98.4708L856.222 183.918ZM159.224 205.698C168.097 217.168 182.119 224.435 200.772 224.435C218.546 224.435 232.122 217.837 241.031 207.296V220.651H268.196V103.478C268.196 95.9806 262.118 89.9076 254.614 89.9076C247.109 89.9076 241.031 95.9806 241.031 103.478V169.217C240.246 186.896 228.68 200.92 208.19 200.92C186.952 200.92 175.299 185.86 175.299 167.274L175.285 103.471C175.285 95.9734 169.199 89.9004 161.702 89.9004C154.198 89.9004 148.119 95.9734 148.119 103.471V170.562C148.119 183.989 151.929 196.258 159.232 205.691L159.224 205.698ZM995.012 85.8496C994.055 85.851 993.178 86.4191 992.79 87.2887L984.068 106.76L975.354 87.3031C974.958 86.4181 974.079 85.8496 973.107 85.8496C971.753 85.8496 970.644 86.9505 970.644 88.3105V112.085H974.526V93.7719L982.714 112.085H985.415L993.568 93.8151V112.085H997.449V88.2889C997.449 86.9445 996.357 85.8516 995.012 85.8496ZM942.899 85.8496H964.166C965.067 85.8496 965.794 86.5764 965.794 87.4758C965.794 88.3752 965.059 89.102 964.166 89.102H955.495V112.013L955.243 112.056H951.599V89.102H942.899C941.999 89.102 941.271 88.3752 941.271 87.4758C941.271 86.5764 942.006 85.8496 942.899 85.8496Z" fill="url(#paint4_linear_290_822)"/>
<defs>
<linearGradient id="paint0_linear_290_822" x1="6.44493e-06" y1="113.307" x2="997.449" y2="113.307" gradientUnits="userSpaceOnUse">
<stop stop-color="#6C79F9"/>
<stop offset="1" stop-color="#AA7BF6"/>
</linearGradient>
<linearGradient id="paint1_linear_290_822" x1="6.44493e-06" y1="123.307" x2="997.449" y2="123.307" gradientUnits="userSpaceOnUse">
<stop stop-color="#6C79F9"/>
<stop offset="1" stop-color="#AA7BF6"/>
</linearGradient>
<linearGradient id="paint2_linear_290_822" x1="6.44493e-06" y1="133.307" x2="997.449" y2="133.307" gradientUnits="userSpaceOnUse">
<stop stop-color="#6C79F9"/>
<stop offset="1" stop-color="#AA7BF6"/>
</linearGradient>
<linearGradient id="paint3_linear_290_822" x1="6.44493e-06" y1="143.307" x2="997.449" y2="143.307" gradientUnits="userSpaceOnUse">
<stop stop-color="#6C79F9"/>
<stop offset="1" stop-color="#AA7BF6"/>
</linearGradient>
<linearGradient id="paint4_linear_290_822" x1="6.44493e-06" y1="163.307" x2="997.449" y2="163.307" gradientUnits="userSpaceOnUse">
<stop stop-color="#6C79F9"/>
<stop offset="1" stop-color="#AA7BF6"/>
</linearGradient>
</defs>
</svg>
