<svg width="765" height="214" viewBox="0 0 765 214" fill="none" xmlns="http://www.w3.org/2000/svg">
<path d="M118.433 171.46L91.598 158.512C88.863 157.181 87.1094 154.371 87.1094 151.282V96.318C87.1094 91.6186 91.9037 88.513 96.0545 90.5341L122.89 103.482C125.625 104.813 127.378 107.623 127.378 110.712V165.676C127.378 170.376 122.584 173.481 118.433 171.46V171.46Z" fill="#9578FF"/>
<path d="M147.199 155.861L120.364 142.913C117.629 141.582 115.875 138.772 115.875 135.683V80.7028C115.875 76.0034 120.669 72.8978 124.82 74.9189L151.655 87.867C154.39 89.198 156.144 92.0078 156.144 95.097V150.061C156.144 154.76 151.35 157.866 147.199 155.845V155.861Z" fill="#4A6DFD"/>
<path d="M175.965 141.062L149.129 127.984C146.394 126.64 144.641 123.802 144.641 120.682V65.1517C144.641 60.4052 149.435 57.2686 153.586 59.3099L180.421 72.3875C183.156 73.7318 184.91 76.5697 184.91 79.6898V135.203C184.91 139.95 180.115 143.086 175.965 141.045V141.062Z" fill="#6C79F9"/>
<path d="M554.506 91.3411L541.415 134.156L528.293 91.3411C527.406 88.4805 524.806 86.5527 521.87 86.5527H517.68C514.743 86.5527 512.143 88.5116 511.256 91.3411L498.135 134.156L485.013 91.3411C484.126 88.4805 481.526 86.5527 478.59 86.5527C474.063 86.5527 470.821 91.0302 472.167 95.4143L490.672 155.859H505.537L519.729 109.468L533.921 155.859H548.786L567.26 95.4143C568.606 91.0302 565.364 86.5527 560.837 86.5527C557.901 86.5527 555.301 88.5116 554.414 91.3411H554.506Z" fill="white"/>
<path d="M709.456 91.1856L691.441 136.364L672.477 91.0923C671.315 88.3561 668.684 86.5527 665.748 86.5527C660.518 86.5527 656.97 91.994 659.019 96.9068L683.672 155.797L670.703 188.259H686.608L723.128 96.7824C725.086 91.9008 721.538 86.5527 716.338 86.5527H716.216C713.249 86.5527 710.557 88.3872 709.426 91.1856H709.456Z" fill="white"/>
<path d="M630.269 93.7622V96.3429C624.396 89.0982 616.016 84.5586 606.687 84.5586C588.977 84.5586 574.602 100.945 574.602 121.124C574.602 141.304 588.977 157.69 606.687 157.69C616.016 157.69 624.396 153.15 630.269 145.905V155.793H644.4V93.7622C644.4 89.7822 641.25 86.5797 637.335 86.5797C633.419 86.5797 630.269 89.7822 630.269 93.7622ZM609.501 145.346C598.031 145.346 588.763 134.494 588.763 121.124C588.763 107.754 598.061 96.9026 609.501 96.9026C620.94 96.9026 630.238 107.754 630.238 121.124C630.238 134.494 620.94 145.346 609.501 145.346Z" fill="white"/>
<path d="M456.807 94.4129C452.188 88.3497 444.878 84.4941 435.182 84.4941C425.486 84.4941 418.849 87.9766 414.2 93.5734C414.2 89.6867 411.111 86.5152 407.257 86.5152H406.951C403.128 86.5152 400.008 89.6556 400.008 93.5734V155.822H414.169V113.753C414.567 104.394 420.593 96.9625 431.267 96.9625C441.942 96.9625 448.396 104.953 448.396 114.779V155.822H462.557V113.038C462.557 105.917 460.569 99.4189 456.776 94.4129H456.807Z" fill="white"/>
<path d="M328.446 147.9C333.064 153.963 340.374 157.818 350.07 157.818C359.338 157.818 366.403 154.336 371.053 148.739V155.828H385.214V93.7353C385.214 89.7553 382.033 86.5527 378.149 86.5527C374.234 86.5527 371.083 89.7864 371.083 93.7353V128.56C370.686 137.919 364.66 145.35 353.985 145.35C343.311 145.35 336.857 137.359 336.857 127.534V93.7353C336.857 89.7553 333.676 86.5527 329.761 86.5527C325.846 86.5527 322.695 89.7864 322.695 93.7353V129.275C322.695 136.395 324.683 142.894 328.476 147.9H328.446Z" fill="white"/>
<path d="M290.056 118.766C296.663 116.963 301.587 113.729 304.829 109.034C308.194 104.153 309.876 98.7425 309.876 92.7726V92.6482C309.876 87.6111 308.683 83.0404 306.359 78.9672C304.004 74.8318 300.486 71.5359 295.745 69.0796C291.004 66.6232 285.223 65.3795 278.403 65.4417H252.924C248.795 65.4417 245.461 68.8308 245.461 73.0284V155.861H260.571V120.228H273.386L274.182 120.166L295.164 155.861H311.773L289.995 118.798L290.056 118.766ZM259.714 108.008V80.3353C259.714 78.8428 260.907 77.5991 262.406 77.5991H278.433C283.969 77.5991 288.099 78.9361 290.851 81.579C293.574 84.222 294.95 87.891 294.95 92.586C294.95 97.2811 293.574 101.012 290.79 103.811C288.007 106.609 283.908 107.977 278.433 107.977H259.745L259.714 108.008Z" fill="white"/>
<path d="M122.983 103.281L115.875 99.7676V135.84C115.875 138.941 117.593 141.778 120.272 143.098L127.38 146.611V110.555C127.38 107.454 125.663 104.617 122.983 103.297V103.281Z" fill="#5652FF"/>
<path d="M151.749 87.6656L144.641 84.1523V120.225C144.641 123.326 146.359 126.163 149.038 127.483L156.146 130.996V94.9396C156.146 91.8386 154.428 89.0016 151.749 87.6821V87.6656Z" fill="#365DEA"/>
<path d="M763.717 84.3748C763.227 84.3748 762.769 84.6858 762.555 85.1522L757.997 95.4751L753.47 85.1522C753.256 84.6858 752.797 84.3748 752.308 84.3748C751.605 84.3748 751.023 84.9656 751.023 85.6808V98.2735H753.042V88.5724L757.294 98.2735H758.701L762.952 88.6035V98.2735H764.971V85.6497C764.971 84.9345 764.39 84.3438 763.686 84.3438L763.717 84.3748Z" fill="white"/>
<path d="M747.655 84.375H736.583C736.124 84.375 735.727 84.7481 735.727 85.2456C735.727 85.7431 736.094 86.1162 736.583 86.1162H741.11V98.2737H743.129V86.1162H747.655C748.114 86.1162 748.512 85.7431 748.512 85.2456C748.512 84.7481 748.145 84.375 747.655 84.375V84.375Z" fill="white"/>
</svg>
