<svg width="1653" height="543" viewBox="0 0 1653 543" fill="none" xmlns="http://www.w3.org/2000/svg">
<g clip-path="url(#clip0_88_7)">
<path d="M536.065 370.517L217.674 326.156C194.805 322.693 177.91 303.039 177.91 279.829V91.0616C177.91 67.8517 194.805 48.1981 217.674 44.7354L536.065 0.374444C558.654 -2.99474 578.909 14.5063 578.909 37.4355V333.456C578.909 356.385 558.654 373.886 536.065 370.517Z" fill="#6C79F9"/>
<path d="M42.8442 172.484L361.235 216.845C384.104 220.307 400.999 239.961 400.999 263.171V451.939C400.999 475.149 384.104 494.802 361.235 498.265L42.8442 542.532C20.2553 545.995 0 528.4 0 505.565V209.451C0 186.522 20.2553 169.021 42.8442 172.39V172.484Z" fill="#9578FF"/>
<path d="M361.235 216.845L177.817 191.295V279.923C177.817 303.133 194.712 322.787 217.581 326.249L400.999 351.799V263.171C400.999 239.961 384.104 220.307 361.235 216.845Z" fill="#5D5DF4"/>
<path d="M1036.94 184.556C1051.68 184.556 1063.64 172.573 1063.64 157.79C1063.64 143.007 1051.68 131.024 1036.94 131.024C1022.2 131.024 1010.24 143.007 1010.24 157.79C1010.24 172.573 1022.2 184.556 1036.94 184.556Z" fill="#33333D"/>
<path d="M1281.03 233.035C1266.56 214.317 1243.69 202.432 1213.26 202.432C1182.83 202.432 1162.21 213.194 1147.64 230.508C1147.64 218.529 1137.94 208.796 1125.99 208.796C1113.48 208.796 1103.4 218.903 1103.4 231.444V422.645H1147.64V292.838C1148.95 263.919 1167.81 240.99 1201.22 240.99C1234.64 240.99 1254.8 265.604 1254.8 296.02V422.645H1299.14V290.592C1299.14 268.599 1292.89 248.571 1281.03 233.129V233.035Z" fill="#33333D"/>
<path d="M1648.99 201.87C1647.4 201.87 1646 202.806 1645.35 204.21L1631.16 236.03L1616.97 204.21C1616.32 202.806 1614.92 201.87 1613.33 201.87C1611.09 201.87 1609.32 203.648 1609.32 205.895V244.734H1615.66V214.785L1629.01 244.734H1633.4L1646.65 214.879V244.734H1653V205.801C1653 203.648 1651.23 201.777 1648.99 201.777V201.87Z" fill="#33333D"/>
<path d="M1598.67 201.87H1564.04C1562.55 201.87 1561.43 203.087 1561.43 204.491C1561.43 205.894 1562.64 207.111 1564.04 207.111H1578.23V244.64H1584.58V207.111H1598.67C1600.17 207.111 1601.29 205.894 1601.29 204.491C1601.29 203.087 1600.07 201.87 1598.67 201.87Z" fill="#33333D"/>
<path d="M818.986 385.21V165.745C818.986 153.485 809.092 143.565 796.771 143.565C784.543 143.565 774.648 153.485 774.648 165.745V422.458H970.387V385.21H818.986Z" fill="#33333D"/>
<path d="M1059.06 422.552V230.976C1059.06 218.716 1049.17 208.796 1036.85 208.796C1024.62 208.796 1014.72 218.716 1014.72 230.976V422.552H1059.06Z" fill="#33333D"/>
<path d="M1545.47 422.458L1434.77 317.546L1517.93 237.902C1526.05 230.04 1526.24 217.032 1518.4 208.889L1518.21 208.702C1510.37 200.56 1497.4 200.373 1489.28 208.234L1387.91 305.566V165.745C1387.91 153.485 1378.01 143.565 1365.79 143.565C1353.56 143.565 1343.66 153.485 1343.66 165.745V422.458H1388V330.929L1484.61 422.365H1545.66L1545.47 422.458Z" fill="#33333D"/>
</g>
<defs>
<clipPath id="clip0_88_7">
<rect width="1653" height="543" fill="white"/>
</clipPath>
</defs>
</svg>
