<svg width="2333" height="642" viewBox="0 0 2333 642" fill="none" xmlns="http://www.w3.org/2000/svg">
<g clip-path="url(#clip0_88_35)">
<path d="M181.614 638.45L26.0248 564.833C10.1674 557.266 0 541.29 0 523.727V211.228C0 184.51 27.7971 166.853 51.8631 178.344L207.452 251.961C223.31 259.528 233.477 275.503 233.477 293.067V605.565C233.477 632.284 205.68 649.941 181.614 638.45Z" fill="#9578FF"/>
<path d="M346.905 551.1L191.315 477.483C175.458 469.916 165.291 453.94 165.291 436.377V123.785C165.291 97.0661 193.088 79.4092 217.154 90.9002L372.743 164.517C388.6 172.084 398.768 188.06 398.768 205.623V518.122C398.768 544.841 370.971 562.497 346.905 551.006V551.1Z" fill="#4A6DFD"/>
<path d="M512.288 463.75L356.699 390.133C340.841 382.565 330.674 366.59 330.674 349.027V36.4348C330.674 9.71598 358.471 -7.94089 382.537 3.55009L538.126 77.1671C553.984 84.7343 564.151 100.71 564.151 118.273V430.772C564.151 457.49 536.354 475.147 512.288 463.656V463.75Z" fill="#6C79F9"/>
<path d="M1691.05 273.448L1651.13 402.091L1611.11 273.448C1608.41 264.853 1600.48 259.061 1591.53 259.061H1578.75C1569.79 259.061 1561.86 264.946 1559.16 273.448L1519.14 402.091L1479.12 273.448C1476.42 264.853 1468.49 259.061 1459.54 259.061C1445.73 259.061 1435.84 272.514 1439.95 285.686L1496.38 467.3H1541.71L1585 327.913L1628.28 467.3H1673.61L1729.95 285.686C1734.06 272.514 1724.17 259.061 1710.36 259.061C1701.41 259.061 1693.48 264.946 1690.77 273.448H1691.05Z" fill="#33333D"/>
<path d="M2163.61 272.981L2108.66 408.724L2050.83 272.7C2047.29 264.479 2039.26 259.061 2030.31 259.061C2014.36 259.061 2003.54 275.41 2009.79 290.171L2084.97 467.113L2045.42 564.646H2093.93L2205.3 289.797C2211.27 275.129 2200.45 259.061 2184.59 259.061H2184.22C2175.17 259.061 2166.96 264.573 2163.51 272.981H2163.61Z" fill="#33333D"/>
<path d="M1922.11 280.735V288.489C1904.2 266.721 1878.64 253.082 1850.19 253.082C1796.18 253.082 1752.34 302.315 1752.34 362.947C1752.34 423.578 1796.18 472.812 1850.19 472.812C1878.64 472.812 1904.2 459.172 1922.11 437.405V467.113H1965.2V280.735C1965.2 268.777 1955.59 259.154 1943.65 259.154C1931.71 259.154 1922.11 268.777 1922.11 280.735ZM1858.77 435.723C1823.79 435.723 1795.53 403.118 1795.53 362.947C1795.53 322.775 1823.88 290.171 1858.77 290.171C1893.66 290.171 1922.01 322.775 1922.01 362.947C1922.01 403.118 1893.66 435.723 1858.77 435.723Z" fill="#33333D"/>
<path d="M1393.12 282.697C1379.04 264.479 1356.74 252.895 1327.17 252.895C1297.6 252.895 1277.36 263.358 1263.18 280.174C1263.18 268.496 1253.76 258.967 1242.01 258.967H1241.08C1229.42 258.967 1219.9 268.403 1219.9 280.174V467.206H1263.09V340.806C1264.3 312.685 1282.68 290.357 1315.23 290.357C1347.79 290.357 1367.47 314.367 1367.47 343.889V467.206H1410.66V338.657C1410.66 317.263 1404.59 297.738 1393.03 282.697H1393.12Z" fill="#33333D"/>
<path d="M1001.63 443.384C1015.71 461.601 1038.01 473.185 1067.58 473.185C1095.84 473.185 1117.39 462.722 1131.57 445.906V467.206H1174.75V280.641C1174.75 268.683 1165.05 259.061 1153.21 259.061C1141.27 259.061 1131.66 268.777 1131.66 280.641V385.275C1130.45 413.395 1112.07 435.723 1079.52 435.723C1045.75 435.723 1027.28 411.713 1027.28 382.192V280.641C1027.28 268.683 1017.58 259.061 1005.64 259.061C993.7 259.061 984.093 268.777 984.093 280.641V387.423C984.093 408.817 990.156 428.343 1001.72 443.384H1001.63Z" fill="#33333D"/>
<path d="M884.564 355.847C904.712 350.428 919.73 340.712 929.618 326.605C939.879 311.938 945.009 295.682 945.009 277.745V277.372C945.009 262.237 941.371 248.504 934.282 236.266C927.099 223.841 916.372 213.938 901.914 206.557C887.456 199.177 869.826 195.44 849.025 195.627H771.324C758.731 195.627 748.563 205.81 748.563 218.422V467.3H794.643V360.238H833.727L836.152 360.051L900.142 467.3H950.792L884.378 355.94L884.564 355.847ZM792.032 323.522V240.376C792.032 235.892 795.669 232.155 800.24 232.155H849.118C866.002 232.155 878.594 236.172 886.989 244.113C895.291 252.054 899.489 263.078 899.489 277.185C899.489 291.292 895.291 302.502 886.803 310.91C878.314 319.318 865.815 323.429 849.118 323.429H792.125L792.032 323.522Z" fill="#33333D"/>
<path d="M207.453 251.867L165.384 231.968V436.283C165.384 453.847 175.551 469.916 191.409 477.389L233.477 497.288V293.067C233.477 275.503 223.31 259.434 207.453 251.961V251.867Z" fill="#5133FF"/>
<path d="M372.743 164.517L330.674 144.618V348.933C330.674 366.497 340.841 382.565 356.699 390.039L398.767 409.938V205.717C398.767 188.153 388.6 172.084 372.743 164.611V164.517Z" fill="#2C44F4"/>
<path d="M2329.08 252.521C2327.59 252.521 2326.19 253.456 2325.54 254.857L2311.64 285.873L2297.83 254.857C2297.18 253.456 2295.78 252.521 2294.29 252.521C2292.14 252.521 2290.37 254.296 2290.37 256.445V294.281H2296.53V265.133L2309.49 294.281H2313.79L2326.75 265.227V294.281H2332.91V256.352C2332.91 254.203 2331.13 252.428 2328.99 252.428L2329.08 252.521Z" fill="#33333D"/>
<path d="M2280.11 252.521H2246.34C2244.95 252.521 2243.73 253.642 2243.73 255.137C2243.73 256.632 2244.85 257.753 2246.34 257.753H2260.15V294.281H2266.31V257.753H2280.11C2281.51 257.753 2282.72 256.632 2282.72 255.137C2282.72 253.642 2281.6 252.521 2280.11 252.521Z" fill="#33333D"/>
</g>
<defs>
<clipPath id="clip0_88_35">
<rect width="2333" height="642" fill="white"/>
</clipPath>
</defs>
</svg>
