<svg width="1920" height="1080" viewBox="0 0 1920 1080" fill="none" xmlns="http://www.w3.org/2000/svg">
<g clip-path="url(#clip0_164_1099)">
<rect width="1920" height="1080" fill="#1F1F28"/>
<rect width="1920" height="1080" fill="url(#paint0_linear_164_1099)"/>
<g opacity="0.4">
<rect x="630.5" y="212.5" width="659" height="654" stroke="white" stroke-opacity="0.1"/>
<rect x="448.5" y="311.5" width="1023" height="456" stroke="white" stroke-opacity="0.1"/>
<rect x="549.5" y="168.5" width="821" height="743" stroke="white" stroke-opacity="0.1"/>
<rect x="131.5" y="74.5" width="1656" height="933" stroke="white" stroke-opacity="0.1"/>
<path d="M0 0L1920 1080" stroke="white" stroke-opacity="0.1"/>
<path d="M1920 0L0.000145971 1080" stroke="white" stroke-opacity="0.1"/>
<path d="M0 542L1920 534" stroke="white" stroke-opacity="0.1"/>
<path d="M960 0L960 1080" stroke="white" stroke-opacity="0.1"/>
<path d="M1290 0L1290 1080" stroke="white" stroke-opacity="0.1"/>
<path d="M630 0L630 1080" stroke="white" stroke-opacity="0.1"/>
<rect x="774.5" y="0.5" width="371" height="1079" stroke="white" stroke-opacity="0.1"/>
<rect x="1919.5" y="460.5" width="159" height="1919" transform="rotate(90 1919.5 460.5)" stroke="white" stroke-opacity="0.1"/>
<circle cx="960" cy="540" r="185.5" stroke="white" stroke-opacity="0.2"/>
</g>
<path d="M766.4 774.52C768.24 774.52 769.56 773.24 769.56 771.16C769.56 769.28 768.12 768.12 766.4 768.12C765.52 768.12 764.76 768.52 764.08 769.04L766.24 771.92L765.96 768.24C765.96 765.56 767.24 763.84 769.88 762.48L768.52 759.84C764.48 761.92 762.48 765 762.48 769.08C762.48 772.56 763.84 774.52 766.4 774.52ZM776.36 774.52C778.24 774.52 779.56 773.24 779.56 771.16C779.56 769.28 778.08 768.12 776.36 768.12C775.52 768.12 774.76 768.52 774.08 769.04L776.2 771.92L775.96 768.24C775.96 765.56 777.24 763.84 779.84 762.48L778.52 759.84C774.48 761.92 772.48 765 772.48 769.08C772.48 772.56 773.84 774.52 776.36 774.52ZM803.889 762.92V767.16H813.009V762.92H803.889ZM810.649 757.52V776.32H815.969V757.52H810.649ZM791.489 777.88V781.96H810.689V784H791.569V792.48H796.809V787.84H815.969V777.88H791.489ZM791.569 790.04V794.16H817.009V790.04H791.569ZM793.449 758.72V761.36C793.449 766.08 790.849 770.6 784.689 772.44L787.409 776.64C794.489 774.4 797.769 768.36 797.769 761.36V758.72H793.449ZM794.489 758.72V761.36C794.489 768 797.649 773.72 804.409 775.92L807.129 771.8C801.289 770.04 798.809 765.76 798.809 761.36V758.72H794.489ZM836.446 767.28V771.52H843.966V767.28H836.446ZM836.246 776.52V780.76H843.806V776.52H836.246ZM849.006 757.52V794.56H854.086V757.52H849.006ZM841.366 758.32V792.92H846.326V758.32H841.366ZM833.006 761.88V762.96C833.006 771.92 830.006 778.08 821.646 783.16L824.646 786.88C834.966 780.8 838.126 772.4 838.126 761.88H833.006ZM823.766 761.88V766.12H834.806V761.88H823.766ZM863.282 774.04V778.28H889.322V774.04H863.282ZM859.402 786.04V790.4H892.922V786.04H859.402ZM873.442 775.96V787.44H878.762V775.96H873.442ZM863.282 760.04V775.88H868.602V764.32H889.042V760.04H863.282ZM898.279 799.56C903.159 797.96 905.839 794.4 905.839 789.68C905.839 786.08 904.319 783.92 901.639 783.92C899.519 783.92 897.799 785.28 897.799 787.4C897.799 789.6 899.559 790.88 901.479 790.88C902.359 790.88 903.159 790.6 903.759 790L901.679 786.56L901.879 790.72C901.919 793.08 900.199 795.2 897.079 796.36L898.279 799.56ZM923.35 774.04V778.28H949.39V774.04H923.35ZM919.47 786.04V790.4H952.99V786.04H919.47ZM933.51 775.96V787.44H938.83V775.96H933.51ZM923.35 760.04V775.88H928.67V764.32H949.11V760.04H923.35ZM974.507 763.32V767.56H983.827V763.32H974.507ZM974.507 771.28V775.52H983.987V771.28H974.507ZM958.147 760.48V778.6H975.667V760.48H958.147ZM970.427 764.68V774.44H963.387V764.68H970.427ZM982.307 757.56V784.52H987.627V757.56H982.307ZM963.107 789.68V793.92H988.427V789.68H963.107ZM963.107 781.96V791.88H968.467V781.96H963.107ZM1005.01 799.56C1009.89 797.96 1012.57 794.4 1012.57 789.68C1012.57 786.08 1011.05 783.92 1008.37 783.92C1006.25 783.92 1004.53 785.28 1004.53 787.4C1004.53 789.6 1006.29 790.88 1008.21 790.88C1009.09 790.88 1009.89 790.6 1010.49 790L1008.41 786.56L1008.61 790.72C1008.65 793.08 1006.93 795.2 1003.81 796.36L1005.01 799.56ZM1029.6 760.92V765.12H1053.08V760.92H1029.6ZM1026.2 785.4V789.72H1059.68V785.4H1026.2ZM1050.28 760.92V765.32C1050.28 770.32 1050.28 775.6 1048.92 782.72L1054.24 783.16C1055.56 775.56 1055.56 770.52 1055.56 765.32V760.92H1050.28ZM1088.87 757.48V794.64H1094.19V757.48H1088.87ZM1065.35 781.68V786H1068.63C1075.39 786 1080.83 785.8 1086.83 784.72L1086.31 780.44C1080.43 781.44 1075.19 781.68 1068.63 781.68H1065.35ZM1065.31 760.64V764.88H1077.35V770.76H1065.35V783.28H1070.75V774.96H1082.79V760.64H1065.31ZM1104.47 774.6V778.84H1130.51V774.6H1104.47ZM1100.59 785.76V790.12H1134.11V785.76H1100.59ZM1104.47 760.56V776.36H1109.75V764.88H1130.23V760.56H1104.47ZM1140.59 774.08C1144.63 772 1146.63 768.88 1146.63 764.8C1146.63 761.4 1145.27 759.4 1142.75 759.4C1140.87 759.4 1139.55 760.68 1139.55 762.72C1139.55 764.64 1140.99 765.8 1142.75 765.8C1143.59 765.8 1144.35 765.44 1144.99 764.88L1142.87 762.04L1143.15 765.68C1143.15 768.4 1141.87 770.08 1139.23 771.48L1140.59 774.08ZM1150.59 774.08C1154.59 772 1156.63 768.88 1156.63 764.8C1156.63 761.4 1155.27 759.4 1152.75 759.4C1150.91 759.4 1149.55 760.68 1149.55 762.72C1149.55 764.64 1150.99 765.8 1152.75 765.8C1153.59 765.8 1154.39 765.44 1154.99 764.88L1152.87 762.04L1153.15 765.68C1153.15 768.4 1151.87 770.08 1149.23 771.48L1150.59 774.08Z" fill="white"/>
<path opacity="0.7" d="M754.85 866.88V879.28H763.69V866.88H754.85ZM761.07 868.98V877.2H757.47V868.98H761.07ZM767.07 865.24V883.82H769.71V865.24H767.07ZM763.19 871.64V873.78H768.15V871.64H763.19ZM785.688 865.28V878.78H788.368V865.28H785.688ZM776.028 881.34V883.46H788.828V881.34H776.028ZM776.028 877.48V882.44H778.688V877.48H776.028ZM777.308 866.28V868.08C777.308 870.54 776.008 873.12 772.908 874.18L774.248 876.3C777.848 875.04 779.508 871.7 779.508 868.08V866.28H777.308ZM777.848 866.28V868.08C777.848 871.66 779.468 874.8 782.968 875.98L784.328 873.86C781.288 872.88 780.028 870.5 780.028 868.08V866.28H777.848ZM804.606 865.24V883.82H807.266V865.24H804.606ZM801.706 871.92V874.06H805.146V871.92H801.706ZM792.406 877.34V879.54H793.926C797.006 879.54 799.486 879.44 802.226 878.98L801.986 876.82C799.306 877.28 796.926 877.34 793.926 877.34H792.406ZM792.366 866.82V868.94H798.086V871.68H792.406V878H795.046V873.78H800.706V866.82H792.366ZM823.245 865.26V875.98H825.905V865.26H823.245ZM811.625 866.42V874.08H814.265V866.42H811.625ZM811.625 872.78V874.96H813.225C816.145 874.96 819.065 874.78 822.105 874.14L821.805 872C818.865 872.6 816.045 872.78 813.225 872.78H811.625ZM819.645 876.24C815.765 876.24 813.305 877.66 813.305 880.02C813.305 882.38 815.765 883.78 819.645 883.78C823.525 883.78 825.985 882.38 825.985 880.02C825.985 877.66 823.525 876.24 819.645 876.24ZM819.645 878.36C822.045 878.36 823.325 878.88 823.325 880.02C823.325 881.14 822.045 881.68 819.645 881.68C817.245 881.68 815.965 881.14 815.965 880.02C815.965 878.88 817.245 878.36 819.645 878.36ZM843.635 871.04V873.18H848.515V871.04H843.635ZM838.595 866.68V869.36C838.595 872.88 837.195 876.46 834.035 877.92L835.695 880.06C839.175 878.32 840.755 874.02 840.755 869.36V866.68H838.595ZM839.155 866.68V869.36C839.155 873.98 840.615 878.06 844.095 879.74L845.675 877.62C842.615 876.26 841.275 872.88 841.275 869.36V866.68H839.155ZM847.195 865.24V883.82H849.835V865.24H847.195ZM865.793 865.24V883.82H868.473V865.24H865.793ZM854.013 866.72V879.5H863.113V866.72H860.473V871.22H856.653V866.72H854.013ZM856.653 873.28H860.473V877.36H856.653V873.28ZM878.771 866.32V867.66C878.771 870.32 876.471 873.26 872.291 873.98L873.431 876.18C878.231 875.24 881.091 871.68 881.091 867.66V866.32H878.771ZM879.311 866.32V867.66C879.311 871.74 882.151 875.24 886.951 876.18L888.091 873.98C883.891 873.26 881.611 870.38 881.611 867.66V866.32H879.311ZM871.911 879.36V881.52H888.671V879.36H871.911ZM897.541 866.34V868.44H909.161V866.34H897.541ZM895.641 874.22V876.36H912.381V874.22H895.641ZM902.581 875.72V883.8H905.261V875.72H902.581ZM907.801 866.34V867.98C907.801 869.9 907.801 872.1 907.081 875.2L909.701 875.5C910.421 872.22 910.421 869.98 910.421 867.98V866.34H907.801ZM921.46 875.88V878.6H924.1V875.88H921.46ZM914.42 874.38V876.48H931.16V874.38H914.42ZM916.28 878.06V880.16H926.48V883.76H929.14V878.06H916.28ZM921.46 865.28V868H924.1V865.28H921.46ZM921.3 868.2V868.58C921.3 870 919.58 871.46 915.12 871.74L915.92 873.72C920.96 873.36 923.64 871.4 923.64 868.58V868.2H921.3ZM921.92 868.2V868.58C921.92 871.4 924.58 873.36 929.64 873.72L930.44 871.74C925.98 871.46 924.26 870 924.26 868.58V868.2H921.92ZM916.02 866.94V869H929.56V866.94H916.02ZM937.098 886.04L938.918 885.28C937.238 882.36 936.478 878.98 936.478 875.7C936.478 872.44 937.238 869.06 938.918 866.14L937.098 865.36C935.198 868.44 934.098 871.72 934.098 875.7C934.098 879.7 935.198 882.96 937.098 886.04ZM954.557 865.26V883.78H957.077V865.26H954.557ZM948.457 871.58V873.74H951.517V871.58H948.457ZM950.817 865.56V882.94H953.297V865.56H950.817ZM944.457 868.28V870.18C944.457 873.34 943.517 876.66 940.797 878.36L942.377 880.32C945.317 878.48 946.457 874.34 946.457 870.18V868.28H944.457ZM945.057 868.28V870.18C945.057 874.26 946.137 878.14 949.077 879.88L950.637 877.94C947.957 876.38 947.037 873.26 947.037 870.18V868.28H945.057ZM941.497 867.12V869.26H949.757V867.12H941.497ZM967.015 875.44V878.26H969.675V875.44H967.015ZM959.975 873.92V876.02H976.715V873.92H959.975ZM961.435 865.76V867.88H975.235V865.76H961.435ZM961.575 870.66V872.78H975.095V870.66H961.575ZM963.795 866.54V872.04H966.455V866.54H963.795ZM970.215 866.54V872.04H972.875V866.54H970.215ZM961.915 877.56V883.58H974.715V877.56H961.915ZM972.115 879.62V881.48H964.535V879.62H972.115ZM980.833 886.04C982.713 882.96 983.813 879.7 983.813 875.7C983.813 871.72 982.713 868.44 980.833 865.36L978.993 866.14C980.673 869.06 981.453 872.44 981.453 875.7C981.453 878.98 980.673 882.36 978.993 885.28L980.833 886.04ZM995.112 865.52C990.872 865.52 988.412 866.64 988.412 868.68C988.412 870.72 990.872 871.84 995.112 871.84C999.332 871.84 1001.81 870.72 1001.81 868.68C1001.81 866.64 999.332 865.52 995.112 865.52ZM995.112 867.46C997.792 867.46 999.052 867.86 999.052 868.68C999.052 869.54 997.792 869.9 995.112 869.9C992.432 869.9 991.172 869.54 991.172 868.68C991.172 867.86 992.432 867.46 995.112 867.46ZM986.732 872.7V874.8H1003.47V872.7H986.732ZM988.652 875.84V877.82H998.832V878.76H988.672V882.24H991.292V880.6H1001.45V875.84H988.652ZM988.672 881.66V883.66H1001.93V881.66H988.672ZM1016.46 866C1013.66 866 1011.62 867.62 1011.62 869.96C1011.62 872.26 1013.66 873.92 1016.46 873.92C1019.28 873.92 1021.32 872.26 1021.32 869.96C1021.32 867.62 1019.28 866 1016.46 866ZM1016.46 868.16C1017.82 868.16 1018.78 868.8 1018.78 869.96C1018.78 871.1 1017.82 871.74 1016.46 871.74C1015.12 871.74 1014.16 871.1 1014.16 869.96C1014.16 868.8 1015.12 868.16 1016.46 868.16ZM1015.22 875.76V883.22H1017.88V875.76H1015.22ZM1023.32 865.26V883.78H1025.96V865.26H1023.32ZM1010.84 877.16C1014.04 877.14 1018.42 877.1 1022.44 876.3L1022.26 874.36C1018.34 874.96 1013.76 875 1010.52 875L1010.84 877.16ZM1041.18 865.28V879.12H1043.84V865.28H1041.18ZM1043.08 870.92V873.1H1046.3V870.92H1043.08ZM1029.26 867.2V869.28H1040.16V867.2H1029.26ZM1034.72 869.94C1032.04 869.94 1030.16 871.4 1030.16 873.52C1030.16 875.64 1032.04 877.08 1034.72 877.08C1037.38 877.08 1039.26 875.64 1039.26 873.52C1039.26 871.4 1037.38 869.94 1034.72 869.94ZM1034.72 871.96C1035.9 871.96 1036.72 872.52 1036.72 873.52C1036.72 874.52 1035.9 875.06 1034.72 875.06C1033.54 875.06 1032.72 874.52 1032.72 873.52C1032.72 872.52 1033.54 871.96 1034.72 871.96ZM1033.38 865.24V868.22H1036.04V865.24H1033.38ZM1031.9 881.34V883.46H1044.5V881.34H1031.9ZM1031.9 878.08V882.26H1034.56V878.08H1031.9ZM1054.45 865.76V867.74H1068.25V865.76H1054.45ZM1054.59 870.1V872.08H1068.11V870.1H1054.59ZM1056.81 866.54V871.38H1059.47V866.54H1056.81ZM1063.23 866.54V871.38H1065.89V866.54H1063.23ZM1052.99 873.04V875.12H1069.73V873.04H1052.99ZM1054.91 876.14V878.04H1065.09V878.96H1054.93V882.46H1057.55V880.74H1067.71V876.14H1054.91ZM1054.93 881.72V883.66H1068.19V881.72H1054.93ZM1085.05 865.26V877.7H1087.57V865.26H1085.05ZM1082.87 869.74V871.86H1085.79V869.74H1082.87ZM1081.09 865.6V876.16H1083.57V865.6H1081.09ZM1072.53 873.96V876.04H1073.81C1076.57 876.04 1078.37 876 1080.45 875.58L1080.21 873.5C1078.21 873.9 1076.49 873.96 1073.81 873.96H1072.53ZM1072.51 866.54V868.64H1076.97V870.28H1072.53V875.36H1075.11V872.2H1079.53V866.54H1072.51ZM1079.87 876.92V877.24C1079.87 879.14 1077.97 881.16 1073.97 881.66L1075.01 883.72C1079.57 883.04 1082.13 880.46 1082.13 877.24V876.92H1079.87ZM1080.25 876.92V877.24C1080.25 880.46 1082.81 883.04 1087.37 883.72L1088.41 881.66C1084.41 881.16 1082.51 879.14 1082.51 877.24V876.92H1080.25ZM1090.59 874.22V876.32H1107.33V874.22H1090.59ZM1097.61 872.32V875.14H1100.27V872.32H1097.61ZM1092.05 865.76V867.88H1105.85V865.76H1092.05ZM1092.19 870.66V872.78H1105.71V870.66H1092.19ZM1094.41 866.54V872.04H1097.07V866.54H1094.41ZM1100.83 866.54V872.04H1103.49V866.54H1100.83ZM1092.53 877.54V883.58H1105.33V877.54H1092.53ZM1102.73 879.62V881.48H1095.15V879.62H1102.73ZM1113.27 886.04L1115.09 885.28C1113.41 882.36 1112.65 878.98 1112.65 875.7C1112.65 872.44 1113.41 869.06 1115.09 866.14L1113.27 865.36C1111.37 868.44 1110.27 871.72 1110.27 875.7C1110.27 879.7 1111.37 882.96 1113.27 886.04ZM1119.3 873.52V875.64H1132.32V873.52H1119.3ZM1117.36 879.52V881.7H1134.12V879.52H1117.36ZM1124.38 874.48V880.22H1127.04V874.48H1124.38ZM1119.3 866.52V874.44H1121.96V868.66H1132.18V866.52H1119.3ZM1145.08 868.16V870.28H1149.74V868.16H1145.08ZM1145.08 872.14V874.26H1149.82V872.14H1145.08ZM1136.9 866.74V875.8H1145.66V866.74H1136.9ZM1143.04 868.84V873.72H1139.52V868.84H1143.04ZM1148.98 865.28V878.76H1151.64V865.28H1148.98ZM1139.38 881.34V883.46H1152.04V881.34H1139.38ZM1139.38 877.48V882.44H1142.06V877.48H1139.38ZM1157 886.04C1158.88 882.96 1159.98 879.7 1159.98 875.7C1159.98 871.72 1158.88 868.44 1157 865.36L1155.16 866.14C1156.84 869.06 1157.62 872.44 1157.62 875.7C1157.62 878.98 1156.84 882.36 1155.16 885.28L1157 886.04ZM774.047 896.4V898.4C774.047 900.9 772.747 903.38 769.607 904.38L771.027 906.46C774.567 905.24 776.227 902.08 776.227 898.4V896.4H774.047ZM774.567 896.4V898.42C774.567 901.9 776.167 904.96 779.607 906.1L780.967 904.04C777.987 903.06 776.727 900.74 776.727 898.42V896.4H774.567ZM781.807 895.26V908.8H784.467V895.26H781.807ZM783.707 900.62V902.82H786.927V900.62H783.707ZM772.527 911.34V913.46H785.127V911.34H772.527ZM772.527 907.52V912.46H775.207V907.52H772.527ZM798.045 899.34V901.48H802.685V899.34H798.045ZM793.805 896.02C791.005 896.02 788.905 897.88 788.905 900.44C788.905 903.02 791.005 904.86 793.805 904.86C796.585 904.86 798.685 903.02 798.685 900.44C798.685 897.88 796.585 896.02 793.805 896.02ZM793.805 898.24C795.165 898.24 796.145 899.06 796.145 900.44C796.145 901.82 795.165 902.66 793.805 902.66C792.445 902.66 791.445 901.82 791.445 900.44C791.445 899.06 792.445 898.24 793.805 898.24ZM801.525 895.26V905.22H804.185V895.26H801.525ZM791.885 906.02V913.58H804.185V906.02H801.545V907.78H794.525V906.02H791.885ZM794.525 909.82H801.545V911.46H794.525V909.82ZM814.375 903.52V905.64H827.395V903.52H814.375ZM812.435 909.52V911.7H829.195V909.52H812.435ZM819.455 904.48V910.22H822.115V904.48H819.455ZM814.375 896.52V904.44H817.035V898.66H827.255V896.52H814.375ZM831.733 897.16V909.16H839.053V897.16H831.733ZM836.573 899.24V907.08H834.213V899.24H836.573ZM844.593 895.26V913.78H847.133V895.26H844.593ZM837.713 901.98V904.12H841.873V901.98H837.713ZM840.813 895.54V912.94H843.313V895.54H840.813ZM862.732 895.28V908.58H865.412V895.28H862.732ZM853.072 911.34V913.46H865.872V911.34H853.072ZM853.072 907.24V912.2H855.732V907.24H853.072ZM855.332 896.44C852.492 896.44 850.292 898.4 850.292 901.14C850.292 903.86 852.492 905.84 855.332 905.84C858.172 905.84 860.352 903.86 860.352 901.14C860.352 898.4 858.172 896.44 855.332 896.44ZM855.332 898.74C856.692 898.74 857.752 899.62 857.752 901.14C857.752 902.64 856.692 903.52 855.332 903.52C853.952 903.52 852.892 902.64 852.892 901.14C852.892 899.62 853.952 898.74 855.332 898.74ZM877.19 895.52C872.95 895.52 870.49 896.64 870.49 898.68C870.49 900.72 872.95 901.84 877.19 901.84C881.41 901.84 883.89 900.72 883.89 898.68C883.89 896.64 881.41 895.52 877.19 895.52ZM877.19 897.46C879.87 897.46 881.13 897.86 881.13 898.68C881.13 899.54 879.87 899.9 877.19 899.9C874.51 899.9 873.25 899.54 873.25 898.68C873.25 897.86 874.51 897.46 877.19 897.46ZM868.81 902.7V904.8H885.55V902.7H868.81ZM870.73 905.84V907.82H880.91V908.76H870.75V912.24H873.37V910.6H883.53V905.84H870.73ZM870.75 911.66V913.66H884.01V911.66H870.75ZM894.26 896.82V898.96H906V896.82H894.26ZM892.56 909.4V911.56H909.3V909.4H892.56ZM898.48 903.04V910.46H901.14V903.04H898.48ZM905.04 896.82V898.6C905.04 900.82 905.04 903.5 904.3 907.18L906.96 907.48C907.7 903.52 907.7 900.92 907.7 898.6V896.82H905.04ZM924.178 895.24V913.82H926.838V895.24H924.178ZM921.138 899.18V901.32H924.618V899.18H921.138ZM911.978 907.52V909.7H913.438C916.258 909.7 918.618 909.64 921.338 909.22L921.118 907.06C918.458 907.46 916.178 907.52 913.438 907.52H911.978ZM911.938 896.8V898.92H917.598V901.88H911.978V908H914.618V903.98H920.218V896.8H911.938ZM921.098 904.22V906.36H924.578V904.22H921.098ZM942.057 895.28V909.12H944.717V895.28H942.057ZM943.957 900.92V903.1H947.177V900.92H943.957ZM930.137 897.2V899.28H941.037V897.2H930.137ZM935.597 899.94C932.917 899.94 931.037 901.4 931.037 903.52C931.037 905.64 932.917 907.08 935.597 907.08C938.257 907.08 940.137 905.64 940.137 903.52C940.137 901.4 938.257 899.94 935.597 899.94ZM935.597 901.96C936.777 901.96 937.597 902.52 937.597 903.52C937.597 904.52 936.777 905.06 935.597 905.06C934.417 905.06 933.597 904.52 933.597 903.52C933.597 902.52 934.417 901.96 935.597 901.96ZM934.257 895.24V898.22H936.917V895.24H934.257ZM932.777 911.34V913.46H945.377V911.34H932.777ZM932.777 908.08V912.26H935.437V908.08H932.777ZM955.586 896.96V899.06H967.326V896.96H955.586ZM953.886 909.2V911.36H970.626V909.2H953.886ZM965.926 896.96V899.16C965.926 901.66 965.926 904.3 965.246 907.86L967.906 908.08C968.566 904.28 968.566 901.76 968.566 899.16V896.96H965.926ZM985.425 895.24V913.82H988.085V895.24H985.425ZM973.665 907.34V909.5H975.305C978.685 909.5 981.405 909.4 984.405 908.86L984.145 906.72C981.205 907.22 978.585 907.34 975.305 907.34H973.665ZM973.645 896.82V898.94H979.665V901.88H973.665V908.14H976.365V903.98H982.385V896.82H973.645ZM993.423 903.8V905.92H1006.44V903.8H993.423ZM991.483 909.38V911.56H1008.24V909.38H991.483ZM993.423 896.78V904.68H996.063V898.94H1006.3V896.78H993.423ZM1022.07 896.32V897.66C1022.07 900.32 1019.77 903.26 1015.59 903.98L1016.73 906.18C1021.53 905.24 1024.39 901.68 1024.39 897.66V896.32H1022.07ZM1022.61 896.32V897.66C1022.61 901.74 1025.45 905.24 1030.25 906.18L1031.39 903.98C1027.19 903.26 1024.91 900.38 1024.91 897.66V896.32H1022.61ZM1015.21 909.36V911.52H1031.97V909.36H1015.21ZM1034.71 907.44V909.6H1036.27C1039.45 909.6 1041.97 909.52 1044.77 909.08L1044.53 906.96C1041.77 907.4 1039.39 907.44 1036.27 907.44H1034.71ZM1034.71 896.8V908.14H1037.39V898.96H1043.41V896.8H1034.71ZM1036.75 901.94V904.02H1043.15V901.94H1036.75ZM1045.83 895.26V913.78H1048.51V895.26H1045.83ZM1047.91 902.28V904.48H1051.19V902.28H1047.91ZM1058.01 895.8C1055.19 895.8 1053.07 897.56 1053.07 900.04C1053.07 902.5 1055.19 904.26 1058.01 904.26C1060.83 904.26 1062.95 902.5 1062.95 900.04C1062.95 897.56 1060.83 895.8 1058.01 895.8ZM1058.01 897.96C1059.37 897.96 1060.37 898.72 1060.37 900.04C1060.37 901.36 1059.37 902.12 1058.01 902.12C1056.65 902.12 1055.63 901.36 1055.63 900.04C1055.63 898.72 1056.65 897.96 1058.01 897.96ZM1065.51 895.26V904.52H1068.19V895.26H1065.51ZM1055.83 905.28V907.34H1065.55V908.44H1055.87V912.6H1058.47V910.36H1068.19V905.28H1055.83ZM1055.87 911.52V913.58H1068.65V911.52H1055.87ZM1077.55 896.48C1074.65 896.48 1072.43 898.38 1072.43 901.04C1072.43 903.72 1074.65 905.62 1077.55 905.62C1080.47 905.62 1082.65 903.72 1082.65 901.04C1082.65 898.38 1080.47 896.48 1077.55 896.48ZM1077.55 898.76C1078.97 898.76 1080.05 899.6 1080.05 901.04C1080.05 902.5 1078.97 903.34 1077.55 903.34C1076.13 903.34 1075.05 902.5 1075.05 901.04C1075.05 899.6 1076.13 898.76 1077.55 898.76ZM1084.39 895.24V913.82H1087.05V895.24H1084.39ZM1071.99 910.06C1075.19 910.06 1079.55 910.02 1083.57 909.22L1083.37 907.3C1079.47 907.88 1074.93 907.92 1071.67 907.92L1071.99 910.06ZM1108.02 895.26V913.84H1110.7V895.26H1108.02ZM1096.44 907.2V909.42H1098.04C1102.02 909.42 1104.36 909.34 1106.86 908.84L1106.62 906.66C1104.14 907.12 1101.94 907.2 1098.04 907.2H1096.44ZM1096.44 896.9V908.04H1099.08V899.04H1105.38V896.9H1096.44ZM1118.28 898.18V900.26C1118.28 903.3 1116.78 906.76 1113.72 908.2L1115.22 910.3C1118.62 908.7 1120.38 904.44 1120.38 900.26V898.18H1118.28ZM1118.84 898.18V900.26C1118.84 904.2 1120.56 908.26 1123.96 909.84L1125.42 907.74C1122.38 906.34 1120.94 903.06 1120.94 900.26V898.18H1118.84ZM1114.44 897.04V899.22H1124.6V897.04H1114.44ZM1125.96 895.26V913.78H1128.64V895.26H1125.96ZM1128.04 902.32V904.52H1131.32V902.32H1128.04ZM1145.63 895.28V908.58H1148.31V895.28H1145.63ZM1135.97 911.34V913.46H1148.77V911.34H1135.97ZM1135.97 907.24V912.2H1138.63V907.24H1135.97ZM1138.23 896.44C1135.39 896.44 1133.19 898.4 1133.19 901.14C1133.19 903.86 1135.39 905.84 1138.23 905.84C1141.07 905.84 1143.25 903.86 1143.25 901.14C1143.25 898.4 1141.07 896.44 1138.23 896.44ZM1138.23 898.74C1139.59 898.74 1140.65 899.62 1140.65 901.14C1140.65 902.64 1139.59 903.52 1138.23 903.52C1136.85 903.52 1135.79 902.64 1135.79 901.14C1135.79 899.62 1136.85 898.74 1138.23 898.74Z" fill="#D9DBE0"/>
<path d="M782.73 691.578V694.308H790.686C790.582 695.452 790.4 696.492 790.166 697.48L781.508 697.974L781.95 700.86L789.074 700.21C787.67 702.862 785.2 705.072 781.3 707.022L783.12 709.726C792.09 705.228 794.092 698.962 794.092 691.578H782.73ZM797.602 689.264V713.21H801.06V689.264H797.602ZM813.106 692.878C814.796 692.878 815.94 693.736 815.94 695.192C815.94 696.674 814.796 697.506 813.106 697.506C811.416 697.506 810.22 696.674 810.22 695.192C810.22 693.736 811.416 692.878 813.106 692.878ZM813.106 700.106C816.616 700.106 819.164 698.104 819.164 695.192C819.164 692.306 816.616 690.278 813.106 690.278C809.57 690.278 807.022 692.306 807.022 695.192C807.022 698.104 809.57 700.106 813.106 700.106ZM820.75 700.73C815.654 701.432 809.804 701.458 805.358 701.458L805.748 704.24C807.412 704.24 809.284 704.24 811.234 704.162V712.534H814.666V703.98C816.746 703.824 818.852 703.616 820.958 703.226L820.75 700.73ZM822.284 689.29V705.384H817.474V707.984H822.284V713.21H825.716V689.29H822.284ZM849.124 700.34H835.708V694.048H848.942V691.266H832.276V703.07H849.124V700.34ZM829.754 707.568V710.376H851.438V707.568H829.754Z" fill="white"/>
<rect x="760.5" y="677.5" width="112" height="46" rx="23" stroke="white"/>
<path d="M648.128 479.86H650.768V466.3H648.128V470.72H645.268V472.94H648.128V479.86ZM645.608 474.94C643.408 475.28 641.508 475.36 638.688 475.38V473.42H644.348V467.52H636.048V469.62H641.748V471.44H636.068V477.5H637.588C641.068 477.5 643.308 477.44 645.808 477.04L645.608 474.94ZM641.168 482.3V478.78H638.528V484.4H651.228V482.3H641.168ZM657.346 469.3C658.346 469.3 659.066 469.84 659.066 470.84C659.066 471.8 658.346 472.36 657.346 472.36C656.326 472.36 655.586 471.8 655.586 470.84C655.586 469.84 656.326 469.3 657.346 469.3ZM657.346 474.32C659.686 474.32 661.406 472.86 661.406 470.84C661.406 468.78 659.686 467.34 657.346 467.34C654.986 467.34 653.246 468.78 653.246 470.84C653.246 472.86 654.986 474.32 657.346 474.32ZM661.786 474.84C658.886 475.24 654.946 475.28 652.486 475.28L652.766 477.42C653.706 477.42 654.826 477.42 656.046 477.36V483.28H658.566V477.22C659.726 477.12 660.926 476.96 661.986 476.76L661.786 474.84ZM662.686 478.16H659.806V480.14H662.686V483.88H665.146V466.62H662.686V478.16ZM666.366 466.32V484.72H668.866V466.32H666.366ZM682.785 466.28V484.76H685.425V466.28H682.785ZM675.525 467.58C672.745 467.58 670.685 470.1 670.685 474.14C670.685 478.2 672.745 480.74 675.525 480.74C678.305 480.74 680.365 478.2 680.365 474.14C680.365 470.1 678.305 467.58 675.525 467.58ZM675.525 469.96C676.885 469.96 677.825 471.42 677.825 474.14C677.825 476.88 676.885 478.34 675.525 478.34C674.165 478.34 673.225 476.88 673.225 474.14C673.225 471.42 674.165 469.96 675.525 469.96ZM702.403 471.28H692.263V466.96H689.623V473.38H702.403V471.28ZM692.103 478.84H689.443V484.32H702.503V482.22H692.103V478.84ZM687.563 475.26V477.38H704.243V475.26H687.563ZM715.333 478.16H711.773V469.98H715.333V478.16ZM721.313 466.3V472.64H717.933V467.92H709.173V480.24H717.933V474.76H721.313V484.76H723.953V466.3H721.313ZM741.191 466.32H738.531V479.74H741.191V466.32ZM737.171 474.86C734.171 473.9 732.891 471.54 732.891 469.1V467.32H730.211V469.1C730.211 471.56 728.891 474.14 725.831 475.18L727.171 477.28C729.311 476.54 730.751 475.04 731.591 473.18C732.391 474.9 733.791 476.26 735.831 476.96L737.171 474.86ZM731.571 482.3V478.46H728.931V484.4H741.651V482.3H731.571ZM746.53 474.76H752.19V467.86H743.89V469.96H749.57V472.7H743.93V480.5H745.45C748.51 480.5 750.95 480.4 753.69 479.96L753.45 477.82C751.13 478.2 749.03 478.32 746.53 478.34V474.76ZM756.05 466.28V472.92H753.17V475.06H756.05V484.76H758.71V466.28H756.05ZM775.928 466.3H773.288V476.96H775.928V466.3ZM771.868 473C769.288 473.52 766.808 473.74 764.348 473.8V467.46H761.728V475.96H763.328C766.228 475.96 769.128 475.78 772.148 475.14L771.868 473ZM769.708 482.62C767.348 482.62 766.048 482.1 766.048 480.98C766.048 479.84 767.348 479.32 769.708 479.32C772.088 479.32 773.388 479.84 773.388 480.98C773.388 482.1 772.088 482.62 769.708 482.62ZM769.708 477.22C765.868 477.22 763.428 478.64 763.428 480.98C763.428 483.32 765.868 484.72 769.708 484.72C773.568 484.72 776.008 483.32 776.008 480.98C776.008 478.64 773.568 477.22 769.708 477.22ZM788.758 467.72H786.118V470.4C786.118 473.98 784.598 477.54 781.378 478.92L782.958 481.1C785.158 480.06 786.658 478.08 787.478 475.62C788.298 477.88 789.718 479.7 791.838 480.66L793.338 478.52C790.218 477.18 788.758 473.82 788.758 470.4V467.72ZM794.238 466.28V484.76H796.878V466.28H794.238ZM815.116 474.96C810.956 474.26 808.676 471.4 808.676 468.7V467.38H805.856V468.7C805.856 471.34 803.556 474.26 799.416 474.96L800.536 477.18C803.736 476.56 806.076 474.76 807.256 472.42C808.436 474.76 810.796 476.54 813.996 477.18L815.116 474.96ZM799.016 480.34V482.48H815.696V480.34H799.016ZM825.995 477.16H828.455V466.58H825.995V470.72H824.195V472.84H825.995V477.16ZM824.715 474.1C823.055 474.4 821.615 474.5 819.675 474.52V472.94H823.415V470.94H819.675V469.48H824.055V467.4H817.135V476.6H818.395C821.115 476.6 822.855 476.56 824.935 476.18L824.715 474.1ZM822.235 480.08H829.535V482.44H822.235V480.08ZM819.635 484.5H832.115V478.02H819.635V484.5ZM829.615 466.32V477.3H832.115V466.32H829.615ZM854.004 475.2H851.584C852.044 472.62 852.044 470.74 852.044 469.02V467.36H839.264V469.48H849.464C849.464 471.06 849.424 472.86 848.964 475.2H837.364V477.32H844.244V484.72H846.924V477.32H854.004V475.2ZM867.503 477.1H870.143V466.3H867.503V469.66H864.143V471.8H867.503V477.1ZM865.823 474.44C862.903 473.5 861.703 471.26 861.703 468.78V467.26H859.023V468.9C859.023 471.44 857.723 473.94 854.583 474.94L855.963 477.06C858.143 476.32 859.603 474.84 860.423 472.96C861.203 474.6 862.503 475.86 864.443 476.52L865.823 474.44ZM863.923 482.7C861.503 482.7 860.243 482.2 860.243 481.16C860.243 480.1 861.503 479.6 863.923 479.6C866.323 479.6 867.583 480.1 867.583 481.16C867.583 482.2 866.323 482.7 863.923 482.7ZM863.923 477.56C860.003 477.56 857.603 478.88 857.603 481.16C857.603 483.4 860.003 484.72 863.923 484.72C867.823 484.72 870.223 483.4 870.223 481.16C870.223 478.88 867.823 477.56 863.923 477.56ZM881.901 476.68C882.401 473.64 882.401 471.4 882.401 469.62V468.12H872.921V470.22H879.801C879.801 471.86 879.741 473.84 879.321 476.46L881.901 476.68ZM877.881 473.4H875.281V478.84C874.121 478.86 873.001 478.86 871.981 478.86L872.221 481.02C875.421 481 879.541 480.92 883.281 480.28L883.141 478.38C881.461 478.58 879.661 478.7 877.881 478.76V473.4ZM889.101 473.7H886.621V466.28H883.981V484.7H886.621V475.9H889.101V473.7ZM899.991 467.72H897.331V470.38C897.331 473.88 895.931 477.46 892.811 478.9L894.451 481.02C896.511 479.98 897.891 478.06 898.691 475.7C899.451 477.92 900.791 479.72 902.811 480.7L904.371 478.6C901.331 477.24 899.991 473.86 899.991 470.38V467.72ZM905.891 466.28V472.06H902.351V474.18H905.891V484.76H908.531V466.28H905.891ZM923.089 466.28V484.76H925.729V466.28H923.089ZM911.369 467.76V480.46H920.449V467.76H917.829V472.22H913.989V467.76H911.369ZM913.989 474.28H917.829V478.36H913.989V474.28ZM943.968 474.96C939.808 474.26 937.528 471.4 937.528 468.7V467.38H934.708V468.7C934.708 471.34 932.408 474.26 928.268 474.96L929.388 477.18C932.588 476.56 934.928 474.76 936.108 472.42C937.288 474.76 939.648 476.54 942.848 477.18L943.968 474.96ZM927.868 480.34V482.48H944.548V480.34H927.868ZM957.118 468.74C959.458 468.74 960.898 469.32 960.898 470.46C960.898 471.6 959.458 472.18 957.118 472.18C954.818 472.18 953.358 471.6 953.358 470.46C953.358 469.32 954.818 468.74 957.118 468.74ZM957.118 474.28C961.098 474.28 963.738 472.8 963.738 470.46C963.738 468.14 961.098 466.64 957.118 466.64C953.158 466.64 950.498 468.14 950.498 470.46C950.498 472.8 953.158 474.28 957.118 474.28ZM953.418 478.88H950.738V484.4H963.658V482.3H953.418V478.88ZM948.798 475.24V477.34H955.938V480.5H958.638V477.34H965.478V475.24H948.798ZM968.936 471.8C968.936 470.36 969.916 469.52 971.276 469.52C972.636 469.52 973.636 470.36 973.636 471.8C973.636 473.22 972.636 474.08 971.276 474.08C969.916 474.08 968.936 473.22 968.936 471.8ZM978.956 470.8V472.8H976.016C976.096 472.46 976.136 472.14 976.136 471.8C976.136 471.44 976.096 471.12 976.036 470.8H978.956ZM978.956 474.9V477.1H981.596V466.3H978.956V468.7H974.896C974.016 467.82 972.756 467.28 971.276 467.28C968.556 467.28 966.436 469.18 966.436 471.8C966.436 474.4 968.556 476.3 971.276 476.3C972.716 476.3 973.976 475.78 974.856 474.9H978.956ZM975.356 482.7C972.936 482.7 971.656 482.18 971.656 481.1C971.656 480.02 972.936 479.5 975.356 479.5C977.776 479.5 979.076 480.02 979.076 481.1C979.076 482.18 977.776 482.7 975.356 482.7ZM975.356 477.46C971.476 477.46 969.056 478.8 969.056 481.1C969.056 483.38 971.476 484.72 975.356 484.72C979.256 484.72 981.676 483.38 981.676 481.1C981.676 478.8 979.256 477.46 975.356 477.46ZM991.914 468.5C994.594 468.5 995.854 468.88 995.854 469.7C995.854 470.56 994.594 470.92 991.914 470.92C989.254 470.92 987.994 470.56 987.994 469.7C987.994 468.88 989.254 468.5 991.914 468.5ZM991.914 472.84C996.134 472.84 998.594 471.74 998.594 469.7C998.594 467.68 996.134 466.56 991.914 466.56C987.714 466.56 985.254 467.68 985.254 469.7C985.254 471.74 987.714 472.84 991.914 472.84ZM988.134 481.56H998.214V476.82H985.494V478.76H995.614V479.74H985.514V484.58H998.694V482.6H988.134V481.56ZM983.594 473.72V475.78H1000.23V473.72H983.594ZM1012.8 482.8C1010.26 482.8 1009.08 482.46 1009.08 481.7C1009.08 480.94 1010.26 480.62 1012.8 480.62C1015.36 480.62 1016.54 480.94 1016.54 481.7C1016.54 482.46 1015.36 482.8 1012.8 482.8ZM1012.8 478.68C1008.76 478.68 1006.42 479.72 1006.42 481.7C1006.42 483.66 1008.76 484.72 1012.8 484.72C1016.86 484.72 1019.2 483.66 1019.2 481.7C1019.2 479.72 1016.86 478.68 1012.8 478.68ZM1014.14 475.8V474.66H1019.4V472.66H1009.2V471.66H1018.84V469.74H1009.2V468.78H1019.26V466.78H1006.58V474.66H1011.5V475.8H1004.5V477.86H1021.16V475.8H1014.14ZM1032.78 467.92H1028.66V466.16H1026V467.92H1021.9V469.98H1032.76L1032.78 467.92ZM1025.34 473.74C1025.34 472.86 1026.16 472.4 1027.34 472.4C1028.52 472.4 1029.34 472.86 1029.34 473.74C1029.34 474.62 1028.52 475.08 1027.34 475.08C1026.16 475.08 1025.34 474.62 1025.34 473.74ZM1031.86 473.74C1031.86 471.78 1030 470.48 1027.34 470.48C1024.68 470.48 1022.82 471.78 1022.82 473.74C1022.82 475.68 1024.68 477 1027.34 477C1030 477 1031.86 475.68 1031.86 473.74ZM1033.8 482.46H1027.06V481.16H1033.8V482.46ZM1033.8 479.18H1027.06V477.78H1024.44V484.5H1036.42V477.78H1033.8V479.18ZM1038.86 470.72H1036.42V466.32H1033.78V477.1H1036.42V472.88H1038.86V470.72ZM1044.64 478.8C1043.4 478.8 1042.48 477.96 1042.48 476.56C1042.48 475.16 1043.4 474.3 1044.64 474.3C1045.88 474.3 1046.78 475.16 1046.78 476.54C1046.78 477.96 1045.88 478.8 1044.64 478.8ZM1044.64 472.16C1041.96 472.16 1039.96 473.98 1039.96 476.54C1039.96 479.14 1041.96 480.96 1044.64 480.96C1047.3 480.96 1049.28 479.14 1049.28 476.54C1049.28 473.98 1047.3 472.16 1044.64 472.16ZM1045.94 466.62H1043.3V469.02H1039.22V471.12H1049.94V469.02H1045.94V466.62ZM1056.42 473.5H1053.78V466.3H1051.14V484.72H1053.78V475.68H1056.42V473.5ZM1066.4 475.78C1066.48 475.28 1066.52 474.72 1066.52 474.14C1066.52 473.44 1066.46 472.78 1066.34 472.18H1069.54V475.78H1066.4ZM1061.76 478.34C1060.42 478.34 1059.5 476.88 1059.5 474.14C1059.5 471.42 1060.42 469.96 1061.76 469.96C1063.12 469.96 1064.04 471.42 1064.04 474.14C1064.04 476.88 1063.12 478.34 1061.76 478.34ZM1069.54 466.28V470.06H1065.62C1064.8 468.48 1063.42 467.58 1061.76 467.58C1059.02 467.58 1057 470.1 1057 474.14C1057 478.2 1059.02 480.74 1061.76 480.74C1063.54 480.76 1064.96 479.72 1065.78 477.92H1069.54V484.76H1072.18V466.28H1069.54ZM1088.07 473.94C1086.07 474.36 1084.25 474.48 1080.97 474.5V469.86H1086.59V467.76H1078.35V476.62H1079.89C1083.97 476.62 1086.07 476.52 1088.33 476.02L1088.07 473.94ZM1082.91 478.22H1080.27V484.4H1092.81V482.3H1082.91V478.22ZM1092.15 471.32V466.3H1089.51V479.62H1092.15V473.48H1094.59V471.32H1092.15ZM1110.35 466.3H1107.69V475.52H1110.35V466.3ZM1097.87 471.04C1097.87 469.74 1098.89 468.96 1100.25 468.96C1101.61 468.96 1102.59 469.74 1102.59 471.04C1102.59 472.36 1101.61 473.12 1100.25 473.12C1098.89 473.12 1097.87 472.36 1097.87 471.04ZM1105.15 471.04C1105.15 468.6 1103.05 466.84 1100.25 466.84C1097.43 466.84 1095.31 468.6 1095.31 471.04C1095.31 473.5 1097.43 475.26 1100.25 475.26C1103.05 475.26 1105.15 473.5 1105.15 471.04ZM1100.71 482.46V481.3H1110.35V476.28H1098.07V478.3H1107.73V479.42H1098.09V484.5H1110.81V482.46H1100.71ZM1126.18 471.12H1122.4V468.76H1126.18V471.12ZM1119.78 471.12H1117.56V473.08H1131V471.12H1128.8V468.76H1131.14V466.8H1117.44V468.76H1119.78V471.12ZM1120.52 481.68H1130.6V477.12H1117.88V479.02H1128V479.92H1117.9V484.58H1131.08V482.68H1120.52V481.68ZM1115.98 474.02V476.1H1132.62V474.02H1115.98ZM1145.1 472.86H1146.58V478.68H1149.08V466.3H1146.58V470.76H1145.1V466.62H1142.64V477.16H1145.1V472.86ZM1141.76 474.5C1140.1 474.82 1138.62 474.92 1136.66 474.96V473.22H1141.08V467.58H1134.1V469.64H1138.54V471.3H1134.12V477.04H1135.4C1138.14 477.04 1139.92 476.98 1142 476.56L1141.76 474.5ZM1144.06 477.9H1141.42V478.22C1141.42 480.12 1139.52 482.12 1135.56 482.62L1136.58 484.66C1139.5 484.24 1141.6 483.02 1142.74 481.32C1143.84 483.02 1145.96 484.24 1148.88 484.66L1149.92 482.62C1145.94 482.12 1144.06 480.12 1144.06 478.22V477.9ZM1155.29 480.58H1162.83V482.44H1155.29V480.58ZM1152.71 484.5H1165.43V478.5H1152.71V484.5ZM1157.19 468.9H1160.97V471.68H1157.19V468.9ZM1160.39 475.22V473.78H1165.77V471.68H1163.59V468.9H1165.93V466.8H1152.23V468.9H1154.57V471.68H1152.35V473.78H1157.75V475.22H1150.77V477.3H1167.41V475.22H1160.39ZM1176.49 467.22C1172.63 467.22 1169.63 469.34 1169.63 472.56C1169.63 475.76 1172.63 477.88 1176.49 477.88C1180.37 477.88 1183.37 475.76 1183.37 472.56C1183.37 469.34 1180.37 467.22 1176.49 467.22ZM1176.49 469.38C1179.01 469.38 1180.79 470.56 1180.79 472.56C1180.79 474.52 1179.01 475.72 1176.49 475.72C1173.99 475.72 1172.21 474.52 1172.21 472.56C1172.21 470.56 1173.99 469.38 1176.49 469.38ZM1168.17 480.36V482.52H1184.85V480.36H1168.17ZM1195.21 480.54V477.8H1200.79V475.68H1190.11V473.62H1200.37V467.48H1187.47V469.58H1197.77V471.56H1187.49V477.8H1192.57V480.54H1185.57V482.7H1202.25V480.54H1195.21ZM1212.34 470.28H1215.02V468.14H1206.82V470.28H1209.78V471.18C1209.78 474.34 1208.82 477.64 1206.14 479.34L1207.7 481.28C1209.36 480.24 1210.44 478.44 1211.08 476.34C1211.68 478.28 1212.74 479.86 1214.36 480.84L1215.9 478.92C1213.24 477.36 1212.34 474.26 1212.34 471.18V470.28ZM1216.08 472.58H1213.74V474.72H1216.08V483.88H1218.54V466.6H1216.08V472.58ZM1219.8 466.28V484.7H1222.3V466.28H1219.8ZM1238.04 473.56C1238.56 471.66 1238.56 470.1 1238.56 468.64V467.12H1225.8V469.2H1235.92C1235.92 470.42 1235.86 471.66 1235.44 473.3L1238.04 473.56ZM1232.12 482.74C1229.64 482.74 1228.22 482.24 1228.22 481.26C1228.22 480.26 1229.64 479.76 1232.12 479.76C1234.62 479.76 1236.04 480.26 1236.04 481.26C1236.04 482.24 1234.62 482.74 1232.12 482.74ZM1232.12 477.78C1228.16 477.78 1225.6 479.1 1225.6 481.26C1225.6 483.4 1228.16 484.72 1232.12 484.72C1236.1 484.72 1238.66 483.4 1238.66 481.26C1238.66 479.1 1236.1 477.78 1232.12 477.78ZM1232.72 474.54V471.32H1230.08V474.54H1223.94V476.62H1240.52V474.54H1232.72ZM1246.62 478.8C1245.38 478.8 1244.46 477.96 1244.46 476.56C1244.46 475.16 1245.38 474.3 1246.62 474.3C1247.86 474.3 1248.76 475.16 1248.76 476.54C1248.76 477.96 1247.86 478.8 1246.62 478.8ZM1246.62 472.16C1243.94 472.16 1241.94 473.98 1241.94 476.54C1241.94 479.14 1243.94 480.96 1246.62 480.96C1249.28 480.96 1251.26 479.14 1251.26 476.54C1251.26 473.98 1249.28 472.16 1246.62 472.16ZM1247.92 466.62H1245.28V469.02H1241.2V471.12H1251.92V469.02H1247.92V466.62ZM1258.4 473.5H1255.76V466.3H1253.12V484.72H1255.76V475.68H1258.4V473.5ZM1268.14 475.44V472.58H1271.52V475.44H1268.14ZM1265.54 478.16H1261.98V469.98H1265.54V478.16ZM1271.52 466.3V470.46H1268.14V467.92H1259.38V480.24H1268.14V477.54H1271.52V484.76H1274.16V466.3H1271.52ZM1286.77 467.72H1284.13V470.4C1284.13 473.98 1282.61 477.54 1279.39 478.92L1280.97 481.1C1283.17 480.06 1284.67 478.08 1285.49 475.62C1286.31 477.88 1287.73 479.7 1289.85 480.66L1291.35 478.52C1288.23 477.18 1286.77 473.82 1286.77 470.4V467.72ZM1292.25 466.28V484.76H1294.89V466.28H1292.25ZM1313.12 474.96C1308.96 474.26 1306.68 471.4 1306.68 468.7V467.38H1303.86V468.7C1303.86 471.34 1301.56 474.26 1297.42 474.96L1298.54 477.18C1301.74 476.56 1304.08 474.76 1305.26 472.42C1306.44 474.76 1308.8 476.54 1312 477.18L1313.12 474.96ZM1297.02 480.34V482.48H1313.7V480.34H1297.02ZM1324 477.16H1326.46V466.58H1324V470.72H1322.2V472.84H1324V477.16ZM1322.72 474.1C1321.06 474.4 1319.62 474.5 1317.68 474.52V472.94H1321.42V470.94H1317.68V469.48H1322.06V467.4H1315.14V476.6H1316.4C1319.12 476.6 1320.86 476.56 1322.94 476.18L1322.72 474.1ZM1320.24 480.08H1327.54V482.44H1320.24V480.08ZM1317.64 484.5H1330.12V478.02H1317.64V484.5ZM1327.62 466.32V477.3H1330.12V466.32H1327.62ZM609.682 515.2H607.262C607.722 512.62 607.722 510.74 607.722 509.02V507.36H594.942V509.48H605.142C605.142 511.06 605.102 512.86 604.642 515.2H593.042V517.32H599.922V524.72H602.602V517.32H609.682V515.2ZM611.901 514.7C615.281 514.46 617.581 513.5 618.741 512.04C619.881 513.5 622.161 514.46 625.541 514.7L626.321 512.74C622.321 512.48 620.541 511.3 620.241 510.02H625.461V507.98H620.041V506.32H617.401V507.98H612.001V510.02H617.221C616.921 511.3 615.121 512.48 611.121 512.74L611.901 514.7ZM627.061 517.46V515.36H610.421V517.46H617.401V519.04H612.261V521.12H622.421V524.7H625.061V519.04H620.041V517.46H627.061ZM637.579 516.68C638.079 513.64 638.079 511.4 638.079 509.62V508.12H628.599V510.22H635.479C635.479 511.86 635.419 513.84 634.999 516.46L637.579 516.68ZM633.559 513.4H630.959V518.84C629.799 518.86 628.679 518.86 627.659 518.86L627.899 521.02C631.099 521 635.219 520.92 638.959 520.28L638.819 518.38C637.139 518.58 635.339 518.7 633.559 518.76V513.4ZM644.779 513.7H642.299V506.28H639.659V524.7H642.299V515.9H644.779V513.7ZM653.089 509.74H661.029V514.62H653.089V509.74ZM658.389 520.44V516.7H663.609V507.66H650.509V516.7H655.749V520.44H648.749V522.58H665.429V520.44H658.389ZM681.947 506.3H679.447V515.92H681.947V506.3ZM673.007 510.16V512.14H675.807V515.82H678.267V506.64H675.807V510.16H673.007ZM674.507 513.06C672.907 513.34 671.547 513.4 669.527 513.42V509.26H674.047V507.18H666.927V515.48H668.187C671.047 515.48 672.727 515.46 674.687 515.14L674.507 513.06ZM671.967 522.46V521.44H681.947V516.54H669.327V518.56H679.347V519.54H669.367V524.5H682.467V522.46H671.967ZM700.517 506.28V513.34H699.017V506.58H696.557V518.5C693.837 517.08 692.917 514.02 692.917 510.8V510.3H695.677V508.16H687.337V510.3H690.357V510.8C690.357 514.34 689.477 517.6 686.737 519.2L688.317 521.2C690.037 520.16 691.117 518.44 691.717 516.32C692.357 518.16 693.437 519.64 695.077 520.52L696.557 518.54V523.88H699.017V515.5H700.517V524.7H703.017V506.28H700.517ZM718.846 507.92H714.746V506.2H712.086V507.92H708.006V510H718.846V507.92ZM711.426 513.96C711.426 513.04 712.226 512.58 713.426 512.58C714.606 512.58 715.426 513.04 715.426 513.96C715.426 514.9 714.606 515.36 713.426 515.36C712.226 515.36 711.426 514.9 711.426 513.96ZM717.946 513.96C717.946 511.96 716.086 510.58 713.426 510.58C710.786 510.58 708.906 511.96 708.906 513.96C708.906 515.98 710.786 517.36 713.426 517.36C716.086 517.36 717.946 515.98 717.946 513.96ZM710.226 520.72H719.866V524.74H722.506V518.6H710.226V520.72ZM724.946 511.04H722.506V506.32H719.866V517.84H722.506V513.22H724.946V511.04ZM741.225 511.46C737.085 511 735.085 508.92 735.085 507.06V506.5H732.365V507.06C732.365 508.94 730.365 510.98 726.225 511.46L727.145 513.5C730.285 513.1 732.565 511.82 733.725 510.06C734.905 511.82 737.145 513.12 740.285 513.5L741.225 511.46ZM737.345 522.46H729.965V520.86H737.345V522.46ZM737.345 518.88H729.965V517.34H727.345V524.5H739.945V517.34H737.345V518.88ZM725.405 514.34V516.42H742.045V514.34H725.405ZM761.615 506.32H758.975V516.76H761.615V506.32ZM753.615 513.14H749.855V509.48H753.615V513.14ZM756.195 507.4H747.255V515.2H756.195V507.4ZM761.915 519.7V517.74H756.775V516.24H754.095V517.74H748.935V519.7H754.035C753.755 520.98 751.915 522.38 748.235 522.7L749.055 524.66C752.155 524.4 754.315 523.32 755.435 521.9C756.555 523.3 758.695 524.4 761.755 524.66L762.595 522.7C758.955 522.4 757.115 520.92 756.835 519.7H761.915ZM771.604 509.74H779.544V514.62H771.604V509.74ZM776.904 520.44V516.7H782.124V507.66H769.024V516.7H774.264V520.44H767.264V522.58H783.944V520.44H776.904ZM788.243 508.04H785.623V520.18H787.263C790.063 520.18 793.123 519.98 796.263 519.32L795.983 517.12C793.283 517.66 790.663 517.86 788.243 517.92V508.04ZM797.403 506.28V524.7H800.043V506.28H797.403ZM805.521 515.02H810.801V512.96H805.521V509.96H811.421V507.84H802.901V520.58H804.401C807.501 520.58 809.861 520.52 812.521 520.1L812.281 517.98C810.021 518.34 808.001 518.44 805.521 518.46V515.02ZM814.881 506.28V512.78H811.721V514.9H814.881V524.76H817.521V506.28H814.881ZM834.76 506.3H832.1V517.48H834.76V506.3ZM830.58 514.1C828.18 514.5 826.04 514.6 823 514.62V513H828.86V507.38H820.38V509.48H826.26V511.04H820.4V516.74H822.02C825.68 516.74 828.14 516.66 830.88 516.2L830.58 514.1ZM828.56 522.7C826.16 522.7 824.9 522.26 824.9 521.28C824.9 520.32 826.16 519.88 828.56 519.88C830.98 519.88 832.24 520.32 832.24 521.28C832.24 522.26 830.98 522.7 828.56 522.7ZM828.56 517.82C824.66 517.82 822.26 519.1 822.26 521.28C822.26 523.46 824.66 524.74 828.56 524.74C832.48 524.74 834.88 523.46 834.88 521.28C834.88 519.1 832.48 517.82 828.56 517.82ZM855.169 511.36H845.049V508.9H855.069V506.8H842.429V513.44H855.169V511.36ZM848.669 522.72C846.209 522.72 844.949 522.3 844.949 521.34C844.949 520.38 846.209 519.94 848.669 519.94C851.129 519.94 852.389 520.38 852.389 521.34C852.389 522.3 851.129 522.72 848.669 522.72ZM848.669 517.94C844.689 517.94 842.289 519.16 842.289 521.34C842.289 523.5 844.689 524.72 848.669 524.72C852.649 524.72 855.069 523.5 855.069 521.34C855.069 519.16 852.649 517.94 848.669 517.94ZM840.409 514.72V516.88H857.069V514.72H840.409ZM866.108 508.5C868.788 508.5 870.048 508.88 870.048 509.7C870.048 510.56 868.788 510.92 866.108 510.92C863.448 510.92 862.188 510.56 862.188 509.7C862.188 508.88 863.448 508.5 866.108 508.5ZM866.108 512.84C870.328 512.84 872.788 511.74 872.788 509.7C872.788 507.68 870.328 506.56 866.108 506.56C861.908 506.56 859.448 507.68 859.448 509.7C859.448 511.74 861.908 512.84 866.108 512.84ZM862.328 521.56H872.408V516.82H859.688V518.76H869.808V519.74H859.708V524.58H872.888V522.6H862.328V521.56ZM857.788 513.72V515.78H874.428V513.72H857.788ZM885.837 510.24H889.637V508.06H879.317V510.24H883.157V511.26C883.157 514.4 881.657 517.78 878.577 519.16L880.077 521.26C882.237 520.28 883.717 518.26 884.537 515.86C885.357 518.08 886.817 519.88 888.957 520.8L890.397 518.72C887.317 517.44 885.837 514.26 885.837 511.26V510.24ZM891.337 506.3V524.72H893.977V506.3H891.337ZM905.516 517V518.8H908.976V520.26H911.616V506.3H908.976V517H905.516ZM901.976 508.84C903.196 508.84 904.056 509.32 904.056 510.22C904.056 511.12 903.196 511.58 901.976 511.58C900.736 511.58 899.876 511.12 899.876 510.22C899.876 509.32 900.736 508.84 901.976 508.84ZM901.976 513.5C904.656 513.5 906.556 512.18 906.556 510.22C906.556 508.26 904.656 506.92 901.976 506.92C899.276 506.92 897.396 508.26 897.396 510.22C897.396 512.18 899.276 513.5 901.976 513.5ZM900.996 522.3V519.78H903.536V516.3C905.016 516.18 906.496 516.02 907.936 515.78L907.756 513.9C903.876 514.4 899.396 514.44 896.036 514.46L896.376 516.56C897.756 516.56 899.296 516.54 900.916 516.46V518.92H898.356V524.4H912.016V522.3H900.996ZM918.834 518.8C917.594 518.8 916.674 517.96 916.674 516.56C916.674 515.16 917.594 514.3 918.834 514.3C920.074 514.3 920.974 515.16 920.974 516.54C920.974 517.96 920.074 518.8 918.834 518.8ZM918.834 512.16C916.154 512.16 914.154 513.98 914.154 516.54C914.154 519.14 916.154 520.96 918.834 520.96C921.494 520.96 923.474 519.14 923.474 516.54C923.474 513.98 921.494 512.16 918.834 512.16ZM920.134 506.62H917.494V509.02H913.414V511.12H924.134V509.02H920.134V506.62ZM930.614 513.5H927.974V506.3H925.334V524.72H927.974V515.68H930.614V513.5ZM940.593 515.78C940.673 515.28 940.713 514.72 940.713 514.14C940.713 513.44 940.653 512.78 940.533 512.18H943.733V515.78H940.593ZM935.953 518.34C934.613 518.34 933.693 516.88 933.693 514.14C933.693 511.42 934.613 509.96 935.953 509.96C937.313 509.96 938.233 511.42 938.233 514.14C938.233 516.88 937.313 518.34 935.953 518.34ZM943.733 506.28V510.06H939.813C938.993 508.48 937.613 507.58 935.953 507.58C933.213 507.58 931.193 510.1 931.193 514.14C931.193 518.2 933.213 520.74 935.953 520.74C937.733 520.76 939.153 519.72 939.973 517.92H943.733V524.76H946.373V506.28H943.733ZM958.682 518.16H955.122V509.98H958.682V518.16ZM964.662 506.3V512.64H961.282V507.92H952.522V520.24H961.282V514.76H964.662V524.76H967.302V506.3H964.662ZM984.541 506.32H981.881V519.74H984.541V506.32ZM980.521 514.86C977.521 513.9 976.241 511.54 976.241 509.1V507.32H973.561V509.1C973.561 511.56 972.241 514.14 969.181 515.18L970.521 517.28C972.661 516.54 974.101 515.04 974.941 513.18C975.741 514.9 977.141 516.26 979.181 516.96L980.521 514.86ZM974.921 522.3V518.46H972.281V524.4H985.001V522.3H974.921ZM989.879 514.76H995.539V507.86H987.239V509.96H992.919V512.7H987.279V520.5H988.799C991.859 520.5 994.299 520.4 997.039 519.96L996.799 517.82C994.479 518.2 992.379 518.32 989.879 518.34V514.76ZM999.399 506.28V512.92H996.519V515.06H999.399V524.76H1002.06V506.28H999.399ZM1019.28 506.3H1016.64V516.96H1019.28V506.3ZM1015.22 513C1012.64 513.52 1010.16 513.74 1007.7 513.8V507.46H1005.08V515.96H1006.68C1009.58 515.96 1012.48 515.78 1015.5 515.14L1015.22 513ZM1013.06 522.62C1010.7 522.62 1009.4 522.1 1009.4 520.98C1009.4 519.84 1010.7 519.32 1013.06 519.32C1015.44 519.32 1016.74 519.84 1016.74 520.98C1016.74 522.1 1015.44 522.62 1013.06 522.62ZM1013.06 517.22C1009.22 517.22 1006.78 518.64 1006.78 520.98C1006.78 523.32 1009.22 524.72 1013.06 524.72C1016.92 524.72 1019.36 523.32 1019.36 520.98C1019.36 518.64 1016.92 517.22 1013.06 517.22ZM1029.31 509.74H1037.25V514.62H1029.31V509.74ZM1034.61 520.44V516.7H1039.83V507.66H1026.73V516.7H1031.97V520.44H1024.97V522.58H1041.65V520.44H1034.61ZM1058.17 506.3H1055.67V515.92H1058.17V506.3ZM1049.23 510.16V512.14H1052.03V515.82H1054.49V506.64H1052.03V510.16H1049.23ZM1050.73 513.06C1049.13 513.34 1047.77 513.4 1045.75 513.42V509.26H1050.27V507.18H1043.15V515.48H1044.41C1047.27 515.48 1048.95 515.46 1050.91 515.14L1050.73 513.06ZM1048.19 522.46V521.44H1058.17V516.54H1045.55V518.56H1055.57V519.54H1045.59V524.5H1058.69V522.46H1048.19ZM1066.66 514.98H1072.5V507.86H1064.04V509.96H1069.9V512.9H1064.06V520.5H1065.62C1068.82 520.5 1071.36 520.38 1074.12 519.88L1073.88 517.74C1071.48 518.16 1069.3 518.3 1066.66 518.32V514.98ZM1080.4 513.24H1077.76V506.28H1075.12V524.76H1077.76V515.42H1080.4V513.24ZM1093.31 506.28V524.76H1095.95V506.28H1093.31ZM1086.05 507.58C1083.27 507.58 1081.21 510.1 1081.21 514.14C1081.21 518.2 1083.27 520.74 1086.05 520.74C1088.83 520.74 1090.89 518.2 1090.89 514.14C1090.89 510.1 1088.83 507.58 1086.05 507.58ZM1086.05 509.96C1087.41 509.96 1088.35 511.42 1088.35 514.14C1088.35 516.88 1087.41 518.34 1086.05 518.34C1084.69 518.34 1083.75 516.88 1083.75 514.14C1083.75 511.42 1084.69 509.96 1086.05 509.96ZM1108.27 515.52H1104.51V510H1108.27V515.52ZM1101.89 515.52H1099.49V517.62H1113.33V515.52H1110.89V510H1113.39V507.9H1099.39V510H1101.89V515.52ZM1098.09 520.44V522.58H1114.77V520.44H1098.09ZM1125.8 507.72H1123.14V510.4C1123.14 513.82 1121.74 517.34 1118.64 518.8L1120.22 520.94C1122.3 519.92 1123.68 517.98 1124.48 515.64C1125.24 517.84 1126.54 519.62 1128.46 520.6L1130.06 518.52C1127.1 517.06 1125.8 513.72 1125.8 510.4V507.72ZM1136.12 513.38H1133.44V506.3H1130.8V524.72H1133.44V515.58H1136.12V513.38ZM1149.04 506.28V524.76H1151.68V506.28H1149.04ZM1141.78 507.58C1139 507.58 1136.94 510.1 1136.94 514.14C1136.94 518.2 1139 520.74 1141.78 520.74C1144.56 520.74 1146.62 518.2 1146.62 514.14C1146.62 510.1 1144.56 507.58 1141.78 507.58ZM1141.78 509.96C1143.14 509.96 1144.08 511.42 1144.08 514.14C1144.08 516.88 1143.14 518.34 1141.78 518.34C1140.42 518.34 1139.48 516.88 1139.48 514.14C1139.48 511.42 1140.42 509.96 1141.78 509.96ZM1158.28 521.42H1168.66V516.56H1155.64V518.54H1166.04V519.54H1155.68V524.5H1169.26V522.52H1158.28V521.42ZM1168.22 513.38C1168.54 511.52 1168.54 510 1168.54 508.58V506.94H1155.88V508.98H1165.94C1165.94 509.32 1165.94 509.68 1165.92 510.04L1155.36 510.28L1155.64 512.3L1165.8 511.86C1165.74 512.36 1165.66 512.84 1165.58 513.38H1153.86V515.46H1170.44V513.38H1168.22ZM1179.54 508.5C1182.22 508.5 1183.48 508.88 1183.48 509.7C1183.48 510.56 1182.22 510.92 1179.54 510.92C1176.88 510.92 1175.62 510.56 1175.62 509.7C1175.62 508.88 1176.88 508.5 1179.54 508.5ZM1179.54 512.84C1183.76 512.84 1186.22 511.74 1186.22 509.7C1186.22 507.68 1183.76 506.56 1179.54 506.56C1175.34 506.56 1172.88 507.68 1172.88 509.7C1172.88 511.74 1175.34 512.84 1179.54 512.84ZM1175.76 521.56H1185.84V516.82H1173.12V518.76H1183.24V519.74H1173.14V524.58H1186.32V522.6H1175.76V521.56ZM1171.22 513.72V515.78H1187.86V513.72H1171.22ZM1200.45 509.02C1202.85 509.02 1204.39 509.74 1204.39 511.04C1204.39 512.36 1202.85 513.06 1200.45 513.06C1198.03 513.06 1196.49 512.36 1196.49 511.04C1196.49 509.74 1198.03 509.02 1200.45 509.02ZM1200.45 515.16C1204.37 515.16 1207.11 513.56 1207.11 511.04C1207.11 508.54 1204.37 506.92 1200.45 506.92C1196.51 506.92 1193.79 508.54 1193.79 511.04C1193.79 513.56 1196.51 515.16 1200.45 515.16ZM1208.83 516.54H1192.15V518.68H1195.93V524.7H1198.59V518.68H1202.29V524.7H1204.97V518.68H1208.83V516.54ZM1210.57 508.2V510.3H1216.71C1216.33 514.38 1214.29 517.26 1209.59 519.52L1210.97 521.6C1217.51 518.44 1219.41 513.84 1219.41 508.2H1210.57ZM1222.23 506.28V524.7H1224.89V506.28H1222.23ZM1238.04 514.7C1235.2 513.74 1233.92 511.52 1233.88 509.42H1237.46V507.32H1227.56V509.42H1231.18C1231.14 511.7 1229.8 514.04 1226.84 515.04L1228.18 517.12C1230.32 516.42 1231.76 514.94 1232.58 513.14C1233.36 514.78 1234.74 516.1 1236.76 516.76L1238.04 514.7ZM1229.78 520.18H1239.7V524.74H1242.34V518.08H1229.78V520.18ZM1239.7 506.32V510.7H1236.98V512.82H1239.7V517.26H1242.34V506.32H1239.7ZM1252.66 507.22C1248.8 507.22 1245.8 509.34 1245.8 512.56C1245.8 515.76 1248.8 517.88 1252.66 517.88C1256.54 517.88 1259.54 515.76 1259.54 512.56C1259.54 509.34 1256.54 507.22 1252.66 507.22ZM1252.66 509.38C1255.18 509.38 1256.96 510.56 1256.96 512.56C1256.96 514.52 1255.18 515.72 1252.66 515.72C1250.16 515.72 1248.38 514.52 1248.38 512.56C1248.38 510.56 1250.16 509.38 1252.66 509.38ZM1244.34 520.36V522.52H1261.02V520.36H1244.34ZM1271.38 520.54V517.8H1276.96V515.68H1266.28V513.62H1276.54V507.48H1263.64V509.58H1273.94V511.56H1263.66V517.8H1268.74V520.54H1261.74V522.7H1278.42V520.54H1271.38ZM1292.51 514.2C1292.93 511.88 1292.93 510.06 1292.93 508.78V507.64H1283.47V509.74H1290.33C1290.31 510.84 1290.23 512.18 1289.93 513.9L1292.51 514.2ZM1293.73 514.94C1292.01 515.18 1290.17 515.32 1288.35 515.4V511.92H1285.77V515.5C1284.57 515.52 1283.43 515.52 1282.41 515.52L1282.65 517.62C1285.81 517.6 1290.09 517.52 1293.89 516.82L1293.73 514.94ZM1287.73 518.86H1285.09V524.4H1297.95V522.3H1287.73V518.86ZM1297.37 511.9V506.28H1294.73V520.08H1297.37V514.08H1299.57V511.9H1297.37ZM1303.75 514.98H1309.73V507.86H1301.03V509.96H1307.03V512.9H1301.05V520.48H1302.71C1306.05 520.48 1308.75 520.36 1311.75 519.84L1311.47 517.7C1308.87 518.14 1306.55 518.28 1303.75 518.3V514.98ZM1312.75 506.28V524.76H1315.39V506.28H1312.75ZM1328.33 507.92H1324.21V506.16H1321.55V507.92H1317.45V509.98H1328.31L1328.33 507.92ZM1320.89 513.74C1320.89 512.86 1321.71 512.4 1322.89 512.4C1324.07 512.4 1324.89 512.86 1324.89 513.74C1324.89 514.62 1324.07 515.08 1322.89 515.08C1321.71 515.08 1320.89 514.62 1320.89 513.74ZM1327.41 513.74C1327.41 511.78 1325.55 510.48 1322.89 510.48C1320.23 510.48 1318.37 511.78 1318.37 513.74C1318.37 515.68 1320.23 517 1322.89 517C1325.55 517 1327.41 515.68 1327.41 513.74ZM1329.35 522.46H1322.61V521.16H1329.35V522.46ZM1329.35 519.18H1322.61V517.78H1319.99V524.5H1331.97V517.78H1329.35V519.18ZM1334.41 510.72H1331.97V506.32H1329.33V517.1H1331.97V512.88H1334.41V510.72ZM1338.45 508.04H1335.83V520.18H1337.47C1340.27 520.18 1343.33 519.98 1346.47 519.32L1346.19 517.12C1343.49 517.66 1340.87 517.86 1338.45 517.92V508.04ZM1347.61 506.28V524.7H1350.25V506.28H1347.61ZM1355.6 510.14H1361.56V508H1352.98V520.34H1354.54C1357.74 520.34 1360.26 520.24 1363.04 519.74L1362.78 517.56C1360.4 517.96 1358.22 518.1 1355.6 518.14V510.14ZM1369.36 513.1H1366.68V506.3H1364.04V524.76H1366.68V515.28H1369.36V513.1ZM1375.57 523.28C1376.63 523.28 1377.41 522.44 1377.41 521.36C1377.41 520.26 1376.63 519.44 1375.57 519.44C1374.53 519.44 1373.75 520.26 1373.75 521.36C1373.75 522.44 1374.53 523.28 1375.57 523.28Z" fill="white" fill-opacity="0.6"/>
<path d="M497.366 384H502.852C508.52 384 512.16 380.776 512.16 374.302C512.16 367.802 508.52 364.734 502.644 364.734H497.366V384ZM501.214 380.906V367.828H502.41C505.998 367.828 508.234 369.596 508.234 374.302C508.234 378.982 505.998 380.906 502.41 380.906H501.214ZM519.203 384.364C520.867 384.364 522.323 383.532 523.597 382.44H523.701L523.961 384H527.081V375.498C527.081 371.286 525.183 369.076 521.491 369.076C519.203 369.076 517.123 369.934 515.407 371L516.785 373.522C518.137 372.742 519.437 372.144 520.789 372.144C522.583 372.144 523.207 373.236 523.285 374.666C517.409 375.29 514.887 376.928 514.887 380.048C514.887 382.518 516.603 384.364 519.203 384.364ZM520.451 381.374C519.333 381.374 518.527 380.88 518.527 379.736C518.527 378.436 519.723 377.448 523.285 377.006V379.944C522.349 380.854 521.543 381.374 520.451 381.374ZM535.823 384.364C537.097 384.364 538.111 384.078 538.891 383.818L538.267 381.036C537.877 381.192 537.305 381.348 536.837 381.348C535.537 381.348 534.861 380.568 534.861 378.904V372.456H538.449V369.44H534.861V365.514H531.689L531.247 369.44L528.985 369.622V372.456H531.039V378.904C531.039 382.154 532.365 384.364 535.823 384.364ZM544.39 384.364C546.054 384.364 547.51 383.532 548.784 382.44H548.888L549.148 384H552.268V375.498C552.268 371.286 550.37 369.076 546.678 369.076C544.39 369.076 542.31 369.934 540.594 371L541.972 373.522C543.324 372.742 544.624 372.144 545.976 372.144C547.77 372.144 548.394 373.236 548.472 374.666C542.596 375.29 540.074 376.928 540.074 380.048C540.074 382.518 541.79 384.364 544.39 384.364ZM545.638 381.374C544.52 381.374 543.714 380.88 543.714 379.736C543.714 378.436 544.91 377.448 548.472 377.006V379.944C547.536 380.854 546.73 381.374 545.638 381.374Z" fill="#D9DBE0"/>
<path d="M926.366 384H938.04V380.776H930.214V364.734H926.366V384ZM941.085 384H944.907V369.44H941.085V384ZM943.009 367.1C944.309 367.1 945.219 366.268 945.219 364.994C945.219 363.746 944.309 362.914 943.009 362.914C941.683 362.914 940.773 363.746 940.773 364.994C940.773 366.268 941.683 367.1 943.009 367.1ZM948.982 384H952.804V373.99C953.87 372.924 954.624 372.352 955.82 372.352C957.25 372.352 957.874 373.132 957.874 375.394V384H961.696V374.926C961.696 371.26 960.344 369.076 957.198 369.076C955.222 369.076 953.74 370.116 952.466 371.364H952.388L952.102 369.44H948.982V384ZM965.638 384H969.408V380.308L971.462 377.968L974.998 384H979.132L973.672 375.446L978.664 369.44H974.478L969.512 375.706H969.408V363.252H965.638V384Z" fill="#D9DBE0"/>
<path d="M1363.37 384H1367.21V376.72H1369.89L1373.84 384H1378.13L1373.64 376.122C1375.85 375.264 1377.3 373.47 1377.3 370.584C1377.3 366.164 1374.1 364.734 1370.07 364.734H1363.37V384ZM1367.21 373.678V367.802H1369.71C1372.18 367.802 1373.56 368.504 1373.56 370.584C1373.56 372.638 1372.18 373.678 1369.71 373.678H1367.21ZM1385.12 384.364C1387.09 384.364 1388.5 383.402 1389.75 381.92H1389.85L1390.14 384H1393.26V369.44H1389.43V379.268C1388.45 380.568 1387.67 381.088 1386.47 381.088C1385.07 381.088 1384.44 380.282 1384.44 378.046V369.44H1380.62V378.54C1380.62 382.18 1381.97 384.364 1385.12 384.364ZM1397.33 384H1401.15V373.99C1402.22 372.924 1402.97 372.352 1404.17 372.352C1405.6 372.352 1406.22 373.132 1406.22 375.394V384H1410.05V374.926C1410.05 371.26 1408.69 369.076 1405.55 369.076C1403.57 369.076 1402.09 370.116 1400.82 371.364H1400.74L1400.45 369.44H1397.33V384ZM1416.41 384H1420.77L1422.26 377.656C1422.57 376.304 1422.78 374.952 1423.06 373.418H1423.19C1423.48 374.952 1423.71 376.278 1424.02 377.656L1425.56 384H1430.06L1433.64 369.44H1430.11L1428.52 376.616C1428.26 378.046 1428.05 379.424 1427.79 380.88H1427.66C1427.35 379.424 1427.09 378.046 1426.75 376.616L1424.93 369.44H1421.55L1419.79 376.616C1419.42 378.02 1419.16 379.424 1418.88 380.88H1418.77C1418.51 379.424 1418.33 378.046 1418.04 376.616L1416.46 369.44H1412.64L1416.41 384ZM1439.72 384.364C1441.38 384.364 1442.84 383.532 1444.11 382.44H1444.21L1444.47 384H1447.59V375.498C1447.59 371.286 1445.7 369.076 1442 369.076C1439.72 369.076 1437.64 369.934 1435.92 371L1437.3 373.522C1438.65 372.742 1439.95 372.144 1441.3 372.144C1443.1 372.144 1443.72 373.236 1443.8 374.666C1437.92 375.29 1435.4 376.928 1435.4 380.048C1435.4 382.518 1437.12 384.364 1439.72 384.364ZM1440.96 381.374C1439.85 381.374 1439.04 380.88 1439.04 379.736C1439.04 378.436 1440.24 377.448 1443.8 377.006V379.944C1442.86 380.854 1442.06 381.374 1440.96 381.374ZM1452.76 389.85C1456.01 389.85 1457.57 387.874 1458.85 384.442L1464.02 369.44H1460.36L1458.35 376.2C1458.02 377.552 1457.65 378.956 1457.31 380.308H1457.18C1456.77 378.904 1456.4 377.5 1455.96 376.2L1453.65 369.44H1449.8L1455.47 383.74L1455.21 384.598C1454.79 385.872 1453.96 386.808 1452.48 386.808C1452.14 386.808 1451.72 386.704 1451.46 386.626L1450.76 389.564C1451.33 389.746 1451.91 389.85 1452.76 389.85Z" fill="#D9DBE0"/>
<path d="M624 255H849" stroke="white" stroke-dasharray="2 10"/>
<path d="M1064 255H1289" stroke="white" stroke-dasharray="2 10"/>
<circle cx="953" cy="204" r="7" fill="#D9DBE0"/>
<circle cx="953" cy="253" r="7" fill="#D9DBE0"/>
<circle cx="953" cy="297" r="7" fill="#D9DBE0"/>
<circle cx="912" cy="227" r="7" fill="#D9DBE0"/>
<circle cx="912" cy="273" r="7" fill="#D9DBE0"/>
<circle cx="992" cy="227" r="7" fill="#D9DBE0"/>
<circle cx="992" cy="273" r="7" fill="#D9DBE0"/>
<path d="M912.5 230L953 204L993 230M912.5 230V276L953 299.5M912.5 230L953 256M953 299.5L993 276V230M953 299.5V256M993 230L953 256" stroke="#D9DBE0"/>
<path d="M910 274L952 253.5L990 274" stroke="#D9DBE0" stroke-dasharray="2 2"/>
<path d="M1347 216.749L1409.35 177L1470.93 216.749V287.073L1409.35 323L1347 287.073V216.749Z" fill="url(#paint1_linear_164_1099)" fill-opacity="0.8"/>
<path d="M1409.39 209.256L1375.01 231.326V270.372M1409.39 209.256L1443.34 231.326V270.372M1409.39 209.256V253.395M1375.01 270.372L1409.39 290.32L1443.34 270.372M1375.01 270.372L1409.39 253.395M1443.34 270.372L1409.39 253.395" stroke="white"/>
<path d="M1375.44 231.75L1347 216.896" stroke="white" stroke-dasharray="2 2"/>
<path d="M1442.92 231.75L1470.93 217.319" stroke="white" stroke-dasharray="2 2"/>
<circle cx="1409.09" cy="230.07" r="2.98865" fill="white"/>
<circle cx="1409.09" cy="250.991" r="2.98865" fill="white"/>
<circle cx="1409.09" cy="269.777" r="2.98865" fill="white"/>
<circle cx="1391.58" cy="239.89" r="2.98865" fill="white"/>
<circle cx="1391.58" cy="259.529" r="2.98865" fill="white"/>
<circle cx="1425.74" cy="239.89" r="2.98865" fill="white"/>
<circle cx="1425.74" cy="259.529" r="2.98865" fill="white"/>
<path d="M1391.8 241.171L1409.09 230.07L1426.17 241.171V260.811L1409.09 270.844L1391.8 260.811V241.171Z" fill="white" fill-opacity="0.4"/>
<path d="M1391.8 241.171L1409.09 230.07L1426.17 241.171M1391.8 241.171V260.811L1409.09 270.844M1391.8 241.171L1409.09 252.272M1409.09 270.844L1426.17 260.811V241.171M1409.09 270.844V252.272M1426.17 241.171L1409.09 252.272" stroke="white"/>
<path d="M1390.73 259.957L1408.66 251.204L1424.88 259.957" stroke="white" stroke-dasharray="2 2"/>
<circle cx="524.572" cy="215" r="7" fill="#D9DBE0"/>
<circle cx="549.91" cy="254.928" r="7" fill="#D9DBE0"/>
<circle cx="500" cy="270.285" r="7" fill="#D9DBE0"/>
<circle cx="539.928" cy="285.643" r="7" fill="#D9DBE0"/>
<path d="M111.72 111.56C115.56 111.56 118.72 110.04 121.16 107.2L118.04 103.52C116.44 105.24 114.48 106.44 111.92 106.44C107.24 106.44 104.2 102.56 104.2 96.12C104.2 89.76 107.56 85.92 112.04 85.92C114.28 85.92 116 86.96 117.52 88.4L120.6 84.64C118.68 82.64 115.68 80.84 111.92 80.84C104.44 80.84 98.16 86.56 98.16 96.32C98.16 106.2 104.24 111.56 111.72 111.56ZM135.209 111.56C140.809 111.56 145.969 107.24 145.969 99.8C145.969 92.36 140.809 88.04 135.209 88.04C129.609 88.04 124.449 92.36 124.449 99.8C124.449 107.24 129.609 111.56 135.209 111.56ZM135.209 106.76C132.169 106.76 130.449 104.04 130.449 99.8C130.449 95.6 132.169 92.84 135.209 92.84C138.249 92.84 139.969 95.6 139.969 99.8C139.969 104.04 138.249 106.76 135.209 106.76ZM151.288 111H157.168V95.6C158.808 93.96 159.968 93.08 161.808 93.08C164.008 93.08 164.968 94.28 164.968 97.76V111H170.848V97.04C170.848 91.4 168.768 88.04 163.928 88.04C160.888 88.04 158.608 89.64 156.648 91.56H156.528L156.088 88.6H151.288V111ZM186.833 111.56C189.313 111.56 192.033 110.72 194.193 108.84L191.833 104.96C190.593 106 189.073 106.76 187.473 106.76C184.273 106.76 181.913 104.04 181.913 99.8C181.913 95.6 184.233 92.84 187.673 92.84C188.913 92.84 189.953 93.36 191.073 94.32L193.873 90.52C192.233 89.12 190.113 88.04 187.353 88.04C181.273 88.04 175.913 92.36 175.913 99.8C175.913 107.24 180.633 111.56 186.833 111.56ZM207.356 111.56C210.116 111.56 212.956 110.6 215.156 109.08L213.156 105.48C211.556 106.48 209.956 107.04 208.116 107.04C204.796 107.04 202.396 105.12 201.916 101.44H215.716C215.876 100.92 215.996 99.84 215.996 98.72C215.996 92.56 212.796 88.04 206.636 88.04C201.316 88.04 196.196 92.56 196.196 99.8C196.196 107.2 201.076 111.56 207.356 111.56ZM201.836 97.52C202.276 94.28 204.356 92.6 206.716 92.6C209.596 92.6 210.956 94.52 210.956 97.52H201.836ZM221.238 119.6H227.118V112.8L226.918 109.12C228.638 110.68 230.518 111.56 232.478 111.56C237.398 111.56 241.998 107.12 241.998 99.44C241.998 92.56 238.718 88.04 233.198 88.04C230.798 88.04 228.478 89.32 226.598 90.92H226.478L226.038 88.6H221.238V119.6ZM231.158 106.72C229.958 106.72 228.518 106.28 227.118 105.04V95.2C228.638 93.64 229.998 92.88 231.518 92.88C234.598 92.88 235.958 95.24 235.958 99.52C235.958 104.4 233.878 106.72 231.158 106.72ZM254.447 111.56C256.407 111.56 257.967 111.12 259.167 110.72L258.207 106.44C257.607 106.68 256.727 106.92 256.007 106.92C254.007 106.92 252.967 105.72 252.967 103.16V93.24H258.487V88.6H252.967V82.56H248.087L247.407 88.6L243.927 88.88V93.24H247.087V103.16C247.087 108.16 249.127 111.56 254.447 111.56Z" fill="white"/>
<g opacity="0.2">
<rect opacity="0.4" x="990.483" y="137.767" width="71.8225" height="9.18661" fill="url(#paint2_linear_164_1099)"/>
<circle opacity="0.4" cx="808.004" cy="253.434" r="9.60418" transform="rotate(-90 808.004 253.434)" fill="#C4C4C4"/>
<circle opacity="0.4" cx="1242.28" cy="108.953" r="9.60418" transform="rotate(-90 1242.28 108.953)" fill="#C4C4C4"/>
<rect x="798.399" y="307.301" width="53.4493" height="19.2084" transform="rotate(-90 798.399 307.301)" fill="url(#paint3_linear_164_1099)"/>
<rect x="955.406" y="225.457" width="53.4493" height="18.3732" transform="rotate(-90 955.406 225.457)" fill="url(#paint4_linear_164_1099)" fill-opacity="0.2"/>
<rect opacity="0.4" x="700.688" y="156.14" width="52.6142" height="18.3732" transform="rotate(90 700.688 156.14)" fill="url(#paint5_linear_164_1099)"/>
<rect opacity="0.4" x="700.688" y="123.569" width="16.7029" height="18.3732" transform="rotate(90 700.688 123.569)" fill="url(#paint6_linear_164_1099)"/>
<rect x="1001.34" y="116.888" width="72.6577" height="18.3732" transform="rotate(-180 1001.34 116.888)" fill="url(#paint7_linear_164_1099)" fill-opacity="0.4"/>
<rect opacity="0.2" x="1106.57" y="256.357" width="30.0652" height="35.9113" fill="url(#paint8_linear_164_1099)" fill-opacity="0.7"/>
<circle opacity="0.6" cx="1121.6" cy="225.457" r="9.1866" transform="rotate(-90 1121.6 225.457)" fill="url(#paint9_radial_164_1099)"/>
<rect opacity="0.4" x="670.622" y="29.1729" width="20.0435" height="20.0435" transform="rotate(-45 670.622 29.1729)" fill="url(#paint10_linear_164_1099)"/>
<rect opacity="0.4" x="1227.66" y="350.704" width="20.0435" height="20.0435" transform="rotate(-45 1227.66 350.704)" fill="url(#paint11_linear_164_1099)"/>
<rect opacity="0.4" x="683.984" y="225.432" width="10.5949" height="10.5949" transform="rotate(-45 683.984 225.432)" fill="white"/>
<rect opacity="0.4" x="1088.19" y="225.432" width="10.5949" height="10.5949" transform="rotate(-45 1088.19 225.432)" fill="white"/>
<rect x="1117.42" y="187.04" width="26.7247" height="5.84602" transform="rotate(-90 1117.42 187.04)" fill="#A16CF9" fill-opacity="0.7"/>
<circle opacity="0.6" cx="966.264" cy="142.777" r="9.1866" transform="rotate(-90 966.264 142.777)" fill="url(#paint12_radial_164_1099)"/>
<rect opacity="0.2" x="1256.06" y="133.591" width="149.491" height="27.5598" transform="rotate(90 1256.06 133.591)" fill="url(#paint13_linear_164_1099)"/>
<circle cx="1150.83" cy="225.457" r="9.1866" transform="rotate(-90 1150.83 225.457)" fill="url(#paint14_radial_164_1099)"/>
<circle cx="691.5" cy="373.277" r="9.1866" transform="rotate(-90 691.5 373.277)" fill="url(#paint15_radial_164_1099)"/>
<rect x="1113.25" y="123.569" width="48.4385" height="18.3732" rx="9.1866" transform="rotate(-90 1113.25 123.569)" fill="url(#paint16_linear_164_1099)"/>
<path opacity="0.7" d="M800.069 187.04L800.069 128.58L818.443 128.58L818.443 187.04L800.069 187.04Z" fill="url(#paint17_linear_164_1099)"/>
<path opacity="0.7" d="M800.069 116.888L800.069 80.9764L818.443 80.9764L818.443 116.888L800.069 116.888Z" fill="url(#paint18_linear_164_1099)"/>
<rect opacity="0.3" x="1007.19" y="37.5488" width="100.217" height="18.3732" transform="rotate(-180 1007.19 37.5488)" fill="url(#paint19_linear_164_1099)" fill-opacity="0.7"/>
<rect opacity="0.4" x="742.444" y="216.271" width="48.4385" height="18.3732" fill="url(#paint20_linear_164_1099)"/>
<rect opacity="0.4" x="876.903" y="106.006" width="10.5949" height="10.5949" transform="rotate(-45 876.903 106.006)" fill="white"/>
<rect opacity="0.4" x="1654.42" y="137.767" width="71.8225" height="9.18661" fill="url(#paint21_linear_164_1099)"/>
<circle opacity="0.4" cx="1471.94" cy="253.434" r="9.60418" transform="rotate(-90 1471.94 253.434)" fill="#C4C4C4"/>
<circle opacity="0.4" cx="1906.22" cy="108.954" r="9.60418" transform="rotate(-90 1906.22 108.954)" fill="#C4C4C4"/>
<rect x="1462.34" y="307.301" width="53.4493" height="19.2084" transform="rotate(-90 1462.34 307.301)" fill="url(#paint22_linear_164_1099)"/>
<rect x="1619.35" y="225.457" width="53.4493" height="18.3732" transform="rotate(-90 1619.35 225.457)" fill="url(#paint23_linear_164_1099)" fill-opacity="0.2"/>
<rect opacity="0.4" x="1364.63" y="156.14" width="52.6142" height="18.3732" transform="rotate(90 1364.63 156.14)" fill="url(#paint24_linear_164_1099)"/>
<rect opacity="0.4" x="1364.63" y="123.569" width="16.7029" height="18.3732" transform="rotate(90 1364.63 123.569)" fill="url(#paint25_linear_164_1099)"/>
<rect x="1665.28" y="116.888" width="72.6577" height="18.3732" transform="rotate(-180 1665.28 116.888)" fill="url(#paint26_linear_164_1099)" fill-opacity="0.4"/>
<rect opacity="0.2" x="1770.51" y="256.357" width="30.0652" height="35.9113" fill="url(#paint27_linear_164_1099)" fill-opacity="0.7"/>
<circle opacity="0.6" cx="1785.54" cy="225.457" r="9.1866" transform="rotate(-90 1785.54 225.457)" fill="url(#paint28_radial_164_1099)"/>
<rect opacity="0.4" x="1334.56" y="29.1729" width="20.0435" height="20.0435" transform="rotate(-45 1334.56 29.1729)" fill="url(#paint29_linear_164_1099)"/>
<rect opacity="0.4" x="1891.61" y="350.704" width="20.0435" height="20.0435" transform="rotate(-45 1891.61 350.704)" fill="url(#paint30_linear_164_1099)"/>
<rect opacity="0.4" x="1347.92" y="225.432" width="10.5949" height="10.5949" transform="rotate(-45 1347.92 225.432)" fill="white"/>
<rect opacity="0.4" x="1752.13" y="225.432" width="10.5949" height="10.5949" transform="rotate(-45 1752.13 225.432)" fill="white"/>
<rect x="1781.37" y="187.04" width="26.7247" height="5.84602" transform="rotate(-90 1781.37 187.04)" fill="#A16CF9" fill-opacity="0.7"/>
<circle opacity="0.6" cx="1630.2" cy="142.777" r="9.1866" transform="rotate(-90 1630.2 142.777)" fill="url(#paint31_radial_164_1099)"/>
<rect opacity="0.2" x="1920" y="133.591" width="149.491" height="27.5598" transform="rotate(90 1920 133.591)" fill="url(#paint32_linear_164_1099)"/>
<circle cx="1814.77" cy="225.457" r="9.1866" transform="rotate(-90 1814.77 225.457)" fill="url(#paint33_radial_164_1099)"/>
<circle cx="1355.44" cy="373.277" r="9.1866" transform="rotate(-90 1355.44 373.277)" fill="url(#paint34_radial_164_1099)"/>
<rect x="1777.19" y="123.569" width="48.4385" height="18.3732" rx="9.1866" transform="rotate(-90 1777.19 123.569)" fill="url(#paint35_linear_164_1099)"/>
<path opacity="0.7" d="M1464.01 187.04L1464.01 128.58L1482.38 128.58L1482.38 187.04L1464.01 187.04Z" fill="url(#paint36_linear_164_1099)"/>
<path opacity="0.7" d="M1464.01 116.888L1464.01 80.9764L1482.38 80.9764L1482.38 116.888L1464.01 116.888Z" fill="url(#paint37_linear_164_1099)"/>
<rect opacity="0.3" x="1671.13" y="37.5488" width="100.217" height="18.3732" transform="rotate(-180 1671.13 37.5488)" fill="url(#paint38_linear_164_1099)" fill-opacity="0.7"/>
<rect opacity="0.4" x="1406.38" y="216.271" width="48.4385" height="18.3732" fill="url(#paint39_linear_164_1099)"/>
<rect opacity="0.4" x="1540.84" y="106.006" width="10.5949" height="10.5949" transform="rotate(-45 1540.84 106.006)" fill="white"/>
<rect opacity="0.4" x="319.861" y="137.767" width="71.8225" height="9.18661" fill="url(#paint40_linear_164_1099)"/>
<circle opacity="0.4" cx="137.382" cy="253.434" r="9.60418" transform="rotate(-90 137.382 253.434)" fill="#C4C4C4"/>
<circle opacity="0.4" cx="571.657" cy="108.953" r="9.60418" transform="rotate(-90 571.657 108.953)" fill="#C4C4C4"/>
<rect x="127.777" y="307.301" width="53.4493" height="19.2084" transform="rotate(-90 127.777 307.301)" fill="url(#paint41_linear_164_1099)"/>
<rect x="284.784" y="225.457" width="53.4493" height="18.3732" transform="rotate(-90 284.784 225.457)" fill="url(#paint42_linear_164_1099)" fill-opacity="0.2"/>
<rect opacity="0.4" x="30.0654" y="156.14" width="52.6142" height="18.3732" transform="rotate(90 30.0654 156.14)" fill="url(#paint43_linear_164_1099)"/>
<rect opacity="0.4" x="30.0654" y="123.569" width="16.7029" height="18.3732" transform="rotate(90 30.0654 123.569)" fill="url(#paint44_linear_164_1099)"/>
<rect x="330.718" y="116.888" width="72.6577" height="18.3732" transform="rotate(-180 330.718 116.888)" fill="url(#paint45_linear_164_1099)" fill-opacity="0.4"/>
<rect opacity="0.2" x="435.946" y="256.357" width="30.0652" height="35.9113" fill="url(#paint46_linear_164_1099)" fill-opacity="0.7"/>
<circle opacity="0.6" cx="450.979" cy="225.457" r="9.1866" transform="rotate(-90 450.979 225.457)" fill="url(#paint47_radial_164_1099)"/>
<rect opacity="0.4" y="29.1729" width="20.0435" height="20.0435" transform="rotate(-45 0 29.1729)" fill="url(#paint48_linear_164_1099)"/>
<rect opacity="0.4" x="557.042" y="350.704" width="20.0435" height="20.0435" transform="rotate(-45 557.042 350.704)" fill="url(#paint49_linear_164_1099)"/>
<rect opacity="0.4" x="13.3623" y="225.432" width="10.5949" height="10.5949" transform="rotate(-45 13.3623 225.432)" fill="white"/>
<rect opacity="0.4" x="417.572" y="225.432" width="10.5949" height="10.5949" transform="rotate(-45 417.572 225.432)" fill="white"/>
<rect x="446.803" y="187.04" width="26.7247" height="5.84602" transform="rotate(-90 446.803 187.04)" fill="#A16CF9" fill-opacity="0.7"/>
<circle opacity="0.6" cx="295.642" cy="142.777" r="9.1866" transform="rotate(-90 295.642 142.777)" fill="url(#paint50_radial_164_1099)"/>
<rect opacity="0.2" x="585.438" y="133.591" width="149.491" height="27.5598" transform="rotate(90 585.438 133.591)" fill="url(#paint51_linear_164_1099)"/>
<circle cx="480.209" cy="225.457" r="9.1866" transform="rotate(-90 480.209 225.457)" fill="url(#paint52_radial_164_1099)"/>
<circle cx="20.878" cy="373.277" r="9.1866" transform="rotate(-90 20.878 373.277)" fill="url(#paint53_radial_164_1099)"/>
<rect x="442.627" y="123.569" width="48.4385" height="18.3732" rx="9.1866" transform="rotate(-90 442.627 123.569)" fill="url(#paint54_linear_164_1099)"/>
<path opacity="0.7" d="M129.447 187.04L129.447 128.58L147.82 128.58L147.82 187.04L129.447 187.04Z" fill="url(#paint55_linear_164_1099)"/>
<path opacity="0.7" d="M129.447 116.888L129.447 80.9764L147.82 80.9764L147.82 116.888L129.447 116.888Z" fill="url(#paint56_linear_164_1099)"/>
<rect opacity="0.3" x="336.563" y="37.5488" width="100.217" height="18.3732" transform="rotate(-180 336.563 37.5488)" fill="url(#paint57_linear_164_1099)" fill-opacity="0.7"/>
<rect opacity="0.4" x="71.8223" y="216.271" width="48.4385" height="18.3732" fill="url(#paint58_linear_164_1099)"/>
<rect opacity="0.4" x="206.281" y="106.006" width="10.5949" height="10.5949" transform="rotate(-45 206.281 106.006)" fill="white"/>
</g>
</g>
<defs>
<linearGradient id="paint0_linear_164_1099" x1="-45" y1="-35" x2="1036.5" y2="1053.5" gradientUnits="userSpaceOnUse">
<stop stop-color="#202044"/>
<stop offset="1" stop-color="#010101"/>
</linearGradient>
<linearGradient id="paint1_linear_164_1099" x1="1347" y1="248.341" x2="1470.93" y2="248.341" gradientUnits="userSpaceOnUse">
<stop stop-color="#6C79F9"/>
<stop offset="1" stop-color="#A16CF9"/>
</linearGradient>
<linearGradient id="paint2_linear_164_1099" x1="1057.65" y1="142.36" x2="986.338" y2="133.922" gradientUnits="userSpaceOnUse">
<stop stop-color="#4F55EC" stop-opacity="0.8"/>
<stop offset="1" stop-color="#F5F6FF" stop-opacity="0"/>
</linearGradient>
<linearGradient id="paint3_linear_164_1099" x1="851.849" y1="316.905" x2="788.6" y2="316.905" gradientUnits="userSpaceOnUse">
<stop stop-color="#6C79F9"/>
<stop offset="1" stop-color="#6C79F9" stop-opacity="0"/>
</linearGradient>
<linearGradient id="paint4_linear_164_1099" x1="1008.86" y1="234.644" x2="945.607" y2="234.644" gradientUnits="userSpaceOnUse">
<stop stop-color="#6C79F9"/>
<stop offset="1" stop-color="#6C79F9" stop-opacity="0"/>
</linearGradient>
<linearGradient id="paint5_linear_164_1099" x1="700.688" y1="165.117" x2="753.302" y2="165.117" gradientUnits="userSpaceOnUse">
<stop stop-color="#6C79F9"/>
<stop offset="1" stop-color="#AA7BF6"/>
</linearGradient>
<linearGradient id="paint6_linear_164_1099" x1="700.688" y1="132.547" x2="717.39" y2="132.547" gradientUnits="userSpaceOnUse">
<stop stop-color="#6C79F9"/>
<stop offset="1" stop-color="#AA7BF6"/>
</linearGradient>
<linearGradient id="paint7_linear_164_1099" x1="1001.34" y1="125.865" x2="1074" y2="125.865" gradientUnits="userSpaceOnUse">
<stop stop-color="#6C79F9"/>
<stop offset="1" stop-color="#AA7BF6"/>
</linearGradient>
<linearGradient id="paint8_linear_164_1099" x1="1121.6" y1="256.357" x2="1121.6" y2="292.269" gradientUnits="userSpaceOnUse">
<stop stop-color="#00A787"/>
<stop offset="1" stop-color="#00A787" stop-opacity="0"/>
</linearGradient>
<radialGradient id="paint9_radial_164_1099" cx="0" cy="0" r="1" gradientUnits="userSpaceOnUse" gradientTransform="translate(1117.84 219.611) rotate(47.0454) scale(16.5456)">
<stop offset="0.291667" stop-color="#B8FFF1"/>
<stop offset="0.833333" stop-color="#1B967E"/>
<stop offset="1" stop-color="#87FFE8"/>
</radialGradient>
<linearGradient id="paint10_linear_164_1099" x1="680.644" y1="29.1729" x2="680.644" y2="49.2163" gradientUnits="userSpaceOnUse">
<stop stop-color="#B4321F"/>
<stop offset="1" stop-color="#FF9485"/>
</linearGradient>
<linearGradient id="paint11_linear_164_1099" x1="1237.69" y1="350.704" x2="1237.69" y2="370.748" gradientUnits="userSpaceOnUse">
<stop stop-color="#B4321F"/>
<stop offset="1" stop-color="#FF9485"/>
</linearGradient>
<radialGradient id="paint12_radial_164_1099" cx="0" cy="0" r="1" gradientUnits="userSpaceOnUse" gradientTransform="translate(962.506 136.931) rotate(47.0454) scale(16.5456)">
<stop offset="0.291667" stop-color="#B8FFF1"/>
<stop offset="0.833333" stop-color="#1B967E"/>
<stop offset="1" stop-color="#87FFE8"/>
</radialGradient>
<linearGradient id="paint13_linear_164_1099" x1="1395.87" y1="147.371" x2="1246.36" y2="135.098" gradientUnits="userSpaceOnUse">
<stop stop-color="#4F55EC" stop-opacity="0.8"/>
<stop offset="1" stop-color="#F5F6FF" stop-opacity="0"/>
</linearGradient>
<radialGradient id="paint14_radial_164_1099" cx="0" cy="0" r="1" gradientUnits="userSpaceOnUse" gradientTransform="translate(1155.01 220.029) rotate(137.564) scale(19.8028)">
<stop stop-color="#DBC5FF"/>
<stop offset="0.71875" stop-color="#462183"/>
<stop offset="1" stop-color="#B98EFF"/>
</radialGradient>
<radialGradient id="paint15_radial_164_1099" cx="0" cy="0" r="1" gradientUnits="userSpaceOnUse" gradientTransform="translate(695.676 367.849) rotate(137.564) scale(19.8028)">
<stop stop-color="#DBC5FF"/>
<stop offset="0.71875" stop-color="#462183"/>
<stop offset="1" stop-color="#B98EFF"/>
</radialGradient>
<linearGradient id="paint16_linear_164_1099" x1="1161.69" y1="132.756" x2="1104.37" y2="132.756" gradientUnits="userSpaceOnUse">
<stop stop-color="#6C79F9"/>
<stop offset="1" stop-color="#6C79F9" stop-opacity="0"/>
</linearGradient>
<linearGradient id="paint17_linear_164_1099" x1="809.256" y1="128.58" x2="809.256" y2="197.758" gradientUnits="userSpaceOnUse">
<stop stop-color="#6C79F9"/>
<stop offset="1" stop-color="#6C79F9" stop-opacity="0"/>
</linearGradient>
<linearGradient id="paint18_linear_164_1099" x1="809.256" y1="80.9764" x2="809.256" y2="123.471" gradientUnits="userSpaceOnUse">
<stop stop-color="#6C79F9"/>
<stop offset="1" stop-color="#6C79F9" stop-opacity="0"/>
</linearGradient>
<linearGradient id="paint19_linear_164_1099" x1="1007.19" y1="48.3759" x2="1107.4" y2="46.5306" gradientUnits="userSpaceOnUse">
<stop stop-color="#007055"/>
<stop offset="1" stop-color="#007055" stop-opacity="0"/>
</linearGradient>
<linearGradient id="paint20_linear_164_1099" x1="790.883" y1="225.457" x2="733.564" y2="225.457" gradientUnits="userSpaceOnUse">
<stop stop-color="#6C79F9"/>
<stop offset="1" stop-color="#6C79F9" stop-opacity="0"/>
</linearGradient>
<linearGradient id="paint21_linear_164_1099" x1="1721.59" y1="142.36" x2="1650.28" y2="133.922" gradientUnits="userSpaceOnUse">
<stop stop-color="#4F55EC" stop-opacity="0.8"/>
<stop offset="1" stop-color="#F5F6FF" stop-opacity="0"/>
</linearGradient>
<linearGradient id="paint22_linear_164_1099" x1="1515.79" y1="316.905" x2="1452.54" y2="316.905" gradientUnits="userSpaceOnUse">
<stop stop-color="#6C79F9"/>
<stop offset="1" stop-color="#6C79F9" stop-opacity="0"/>
</linearGradient>
<linearGradient id="paint23_linear_164_1099" x1="1672.8" y1="234.644" x2="1609.55" y2="234.644" gradientUnits="userSpaceOnUse">
<stop stop-color="#6C79F9"/>
<stop offset="1" stop-color="#6C79F9" stop-opacity="0"/>
</linearGradient>
<linearGradient id="paint24_linear_164_1099" x1="1364.63" y1="165.117" x2="1417.24" y2="165.117" gradientUnits="userSpaceOnUse">
<stop stop-color="#6C79F9"/>
<stop offset="1" stop-color="#AA7BF6"/>
</linearGradient>
<linearGradient id="paint25_linear_164_1099" x1="1364.63" y1="132.547" x2="1381.33" y2="132.547" gradientUnits="userSpaceOnUse">
<stop stop-color="#6C79F9"/>
<stop offset="1" stop-color="#AA7BF6"/>
</linearGradient>
<linearGradient id="paint26_linear_164_1099" x1="1665.28" y1="125.865" x2="1737.94" y2="125.865" gradientUnits="userSpaceOnUse">
<stop stop-color="#6C79F9"/>
<stop offset="1" stop-color="#AA7BF6"/>
</linearGradient>
<linearGradient id="paint27_linear_164_1099" x1="1785.54" y1="256.357" x2="1785.54" y2="292.269" gradientUnits="userSpaceOnUse">
<stop stop-color="#00A787"/>
<stop offset="1" stop-color="#00A787" stop-opacity="0"/>
</linearGradient>
<radialGradient id="paint28_radial_164_1099" cx="0" cy="0" r="1" gradientUnits="userSpaceOnUse" gradientTransform="translate(1781.78 219.611) rotate(47.0454) scale(16.5456)">
<stop offset="0.291667" stop-color="#B8FFF1"/>
<stop offset="0.833333" stop-color="#1B967E"/>
<stop offset="1" stop-color="#87FFE8"/>
</radialGradient>
<linearGradient id="paint29_linear_164_1099" x1="1344.58" y1="29.1729" x2="1344.58" y2="49.2163" gradientUnits="userSpaceOnUse">
<stop stop-color="#B4321F"/>
<stop offset="1" stop-color="#FF9485"/>
</linearGradient>
<linearGradient id="paint30_linear_164_1099" x1="1901.63" y1="350.704" x2="1901.63" y2="370.748" gradientUnits="userSpaceOnUse">
<stop stop-color="#B4321F"/>
<stop offset="1" stop-color="#FF9485"/>
</linearGradient>
<radialGradient id="paint31_radial_164_1099" cx="0" cy="0" r="1" gradientUnits="userSpaceOnUse" gradientTransform="translate(1626.45 136.931) rotate(47.0454) scale(16.5456)">
<stop offset="0.291667" stop-color="#B8FFF1"/>
<stop offset="0.833333" stop-color="#1B967E"/>
<stop offset="1" stop-color="#87FFE8"/>
</radialGradient>
<linearGradient id="paint32_linear_164_1099" x1="2059.81" y1="147.371" x2="1910.3" y2="135.098" gradientUnits="userSpaceOnUse">
<stop stop-color="#4F55EC" stop-opacity="0.8"/>
<stop offset="1" stop-color="#F5F6FF" stop-opacity="0"/>
</linearGradient>
<radialGradient id="paint33_radial_164_1099" cx="0" cy="0" r="1" gradientUnits="userSpaceOnUse" gradientTransform="translate(1818.95 220.029) rotate(137.564) scale(19.8028)">
<stop stop-color="#DBC5FF"/>
<stop offset="0.71875" stop-color="#462183"/>
<stop offset="1" stop-color="#B98EFF"/>
</radialGradient>
<radialGradient id="paint34_radial_164_1099" cx="0" cy="0" r="1" gradientUnits="userSpaceOnUse" gradientTransform="translate(1359.62 367.849) rotate(137.564) scale(19.8028)">
<stop stop-color="#DBC5FF"/>
<stop offset="0.71875" stop-color="#462183"/>
<stop offset="1" stop-color="#B98EFF"/>
</radialGradient>
<linearGradient id="paint35_linear_164_1099" x1="1825.63" y1="132.756" x2="1768.31" y2="132.756" gradientUnits="userSpaceOnUse">
<stop stop-color="#6C79F9"/>
<stop offset="1" stop-color="#6C79F9" stop-opacity="0"/>
</linearGradient>
<linearGradient id="paint36_linear_164_1099" x1="1473.2" y1="128.58" x2="1473.2" y2="197.758" gradientUnits="userSpaceOnUse">
<stop stop-color="#6C79F9"/>
<stop offset="1" stop-color="#6C79F9" stop-opacity="0"/>
</linearGradient>
<linearGradient id="paint37_linear_164_1099" x1="1473.2" y1="80.9764" x2="1473.2" y2="123.471" gradientUnits="userSpaceOnUse">
<stop stop-color="#6C79F9"/>
<stop offset="1" stop-color="#6C79F9" stop-opacity="0"/>
</linearGradient>
<linearGradient id="paint38_linear_164_1099" x1="1671.13" y1="48.3759" x2="1771.34" y2="46.5306" gradientUnits="userSpaceOnUse">
<stop stop-color="#007055"/>
<stop offset="1" stop-color="#007055" stop-opacity="0"/>
</linearGradient>
<linearGradient id="paint39_linear_164_1099" x1="1454.82" y1="225.457" x2="1397.5" y2="225.457" gradientUnits="userSpaceOnUse">
<stop stop-color="#6C79F9"/>
<stop offset="1" stop-color="#6C79F9" stop-opacity="0"/>
</linearGradient>
<linearGradient id="paint40_linear_164_1099" x1="387.031" y1="142.36" x2="315.716" y2="133.922" gradientUnits="userSpaceOnUse">
<stop stop-color="#4F55EC" stop-opacity="0.8"/>
<stop offset="1" stop-color="#F5F6FF" stop-opacity="0"/>
</linearGradient>
<linearGradient id="paint41_linear_164_1099" x1="181.227" y1="316.905" x2="117.978" y2="316.905" gradientUnits="userSpaceOnUse">
<stop stop-color="#6C79F9"/>
<stop offset="1" stop-color="#6C79F9" stop-opacity="0"/>
</linearGradient>
<linearGradient id="paint42_linear_164_1099" x1="338.234" y1="234.644" x2="274.985" y2="234.644" gradientUnits="userSpaceOnUse">
<stop stop-color="#6C79F9"/>
<stop offset="1" stop-color="#6C79F9" stop-opacity="0"/>
</linearGradient>
<linearGradient id="paint43_linear_164_1099" x1="30.0654" y1="165.117" x2="82.6796" y2="165.117" gradientUnits="userSpaceOnUse">
<stop stop-color="#6C79F9"/>
<stop offset="1" stop-color="#AA7BF6"/>
</linearGradient>
<linearGradient id="paint44_linear_164_1099" x1="30.0654" y1="132.547" x2="46.7683" y2="132.547" gradientUnits="userSpaceOnUse">
<stop stop-color="#6C79F9"/>
<stop offset="1" stop-color="#AA7BF6"/>
</linearGradient>
<linearGradient id="paint45_linear_164_1099" x1="330.718" y1="125.865" x2="403.375" y2="125.865" gradientUnits="userSpaceOnUse">
<stop stop-color="#6C79F9"/>
<stop offset="1" stop-color="#AA7BF6"/>
</linearGradient>
<linearGradient id="paint46_linear_164_1099" x1="450.979" y1="256.357" x2="450.979" y2="292.269" gradientUnits="userSpaceOnUse">
<stop stop-color="#00A787"/>
<stop offset="1" stop-color="#00A787" stop-opacity="0"/>
</linearGradient>
<radialGradient id="paint47_radial_164_1099" cx="0" cy="0" r="1" gradientUnits="userSpaceOnUse" gradientTransform="translate(447.22 219.611) rotate(47.0454) scale(16.5456)">
<stop offset="0.291667" stop-color="#B8FFF1"/>
<stop offset="0.833333" stop-color="#1B967E"/>
<stop offset="1" stop-color="#87FFE8"/>
</radialGradient>
<linearGradient id="paint48_linear_164_1099" x1="10.0217" y1="29.1729" x2="10.0217" y2="49.2163" gradientUnits="userSpaceOnUse">
<stop stop-color="#B4321F"/>
<stop offset="1" stop-color="#FF9485"/>
</linearGradient>
<linearGradient id="paint49_linear_164_1099" x1="567.064" y1="350.704" x2="567.064" y2="370.748" gradientUnits="userSpaceOnUse">
<stop stop-color="#B4321F"/>
<stop offset="1" stop-color="#FF9485"/>
</linearGradient>
<radialGradient id="paint50_radial_164_1099" cx="0" cy="0" r="1" gradientUnits="userSpaceOnUse" gradientTransform="translate(291.884 136.931) rotate(47.0454) scale(16.5456)">
<stop offset="0.291667" stop-color="#B8FFF1"/>
<stop offset="0.833333" stop-color="#1B967E"/>
<stop offset="1" stop-color="#87FFE8"/>
</radialGradient>
<linearGradient id="paint51_linear_164_1099" x1="725.244" y1="147.371" x2="575.738" y2="135.098" gradientUnits="userSpaceOnUse">
<stop stop-color="#4F55EC" stop-opacity="0.8"/>
<stop offset="1" stop-color="#F5F6FF" stop-opacity="0"/>
</linearGradient>
<radialGradient id="paint52_radial_164_1099" cx="0" cy="0" r="1" gradientUnits="userSpaceOnUse" gradientTransform="translate(484.385 220.029) rotate(137.564) scale(19.8028)">
<stop stop-color="#DBC5FF"/>
<stop offset="0.71875" stop-color="#462183"/>
<stop offset="1" stop-color="#B98EFF"/>
</radialGradient>
<radialGradient id="paint53_radial_164_1099" cx="0" cy="0" r="1" gradientUnits="userSpaceOnUse" gradientTransform="translate(25.0537 367.849) rotate(137.564) scale(19.8028)">
<stop stop-color="#DBC5FF"/>
<stop offset="0.71875" stop-color="#462183"/>
<stop offset="1" stop-color="#B98EFF"/>
</radialGradient>
<linearGradient id="paint54_linear_164_1099" x1="491.065" y1="132.756" x2="433.747" y2="132.756" gradientUnits="userSpaceOnUse">
<stop stop-color="#6C79F9"/>
<stop offset="1" stop-color="#6C79F9" stop-opacity="0"/>
</linearGradient>
<linearGradient id="paint55_linear_164_1099" x1="138.634" y1="128.58" x2="138.634" y2="197.758" gradientUnits="userSpaceOnUse">
<stop stop-color="#6C79F9"/>
<stop offset="1" stop-color="#6C79F9" stop-opacity="0"/>
</linearGradient>
<linearGradient id="paint56_linear_164_1099" x1="138.634" y1="80.9764" x2="138.634" y2="123.471" gradientUnits="userSpaceOnUse">
<stop stop-color="#6C79F9"/>
<stop offset="1" stop-color="#6C79F9" stop-opacity="0"/>
</linearGradient>
<linearGradient id="paint57_linear_164_1099" x1="336.563" y1="48.3759" x2="436.777" y2="46.5306" gradientUnits="userSpaceOnUse">
<stop stop-color="#007055"/>
<stop offset="1" stop-color="#007055" stop-opacity="0"/>
</linearGradient>
<linearGradient id="paint58_linear_164_1099" x1="120.261" y1="225.457" x2="62.9419" y2="225.457" gradientUnits="userSpaceOnUse">
<stop stop-color="#6C79F9"/>
<stop offset="1" stop-color="#6C79F9" stop-opacity="0"/>
</linearGradient>
<clipPath id="clip0_164_1099">
<rect width="1920" height="1080" fill="white"/>
</clipPath>
</defs>
</svg>
