<svg width="1920" height="1080" viewBox="0 0 1920 1080" fill="none" xmlns="http://www.w3.org/2000/svg">
<g clip-path="url(#clip0_164_1099)">
<rect width="1920" height="1080" fill="#1F1F28"/>
<rect width="1920" height="1080" fill="url(#paint0_linear_164_1099)"/>
<rect x="630.5" y="212.5" width="659" height="654" stroke="white" stroke-opacity="0.1"/>
<rect x="448.5" y="311.5" width="1023" height="456" stroke="white" stroke-opacity="0.1"/>
<rect x="549.5" y="168.5" width="821" height="743" stroke="white" stroke-opacity="0.1"/>
<rect x="131.5" y="74.5" width="1656" height="933" stroke="white" stroke-opacity="0.1"/>
<path d="M0 0L1920 1080" stroke="white" stroke-opacity="0.1"/>
<path d="M1920 0L0.000145971 1080" stroke="white" stroke-opacity="0.1"/>
<path d="M0 542L1920 534" stroke="white" stroke-opacity="0.1"/>
<path d="M960 0L960 1080" stroke="white" stroke-opacity="0.1"/>
<path d="M1290 0L1290 1080" stroke="white" stroke-opacity="0.1"/>
<path d="M630 0L630 1080" stroke="white" stroke-opacity="0.1"/>
<rect x="774.5" y="0.5" width="371" height="1079" stroke="white" stroke-opacity="0.1"/>
<rect x="1919.5" y="460.5" width="159" height="1919" transform="rotate(90 1919.5 460.5)" stroke="white" stroke-opacity="0.1"/>
<circle cx="960" cy="540" r="185.5" stroke="white" stroke-opacity="0.2"/>
<path d="M618.336 507.912C611.136 511.656 607.536 517.2 607.536 524.616C607.536 530.736 609.912 534.336 614.52 534.336C617.832 534.336 620.28 532.032 620.28 528.288C620.28 524.832 617.616 522.744 614.52 522.744C614.232 522.744 614.016 522.744 613.728 522.816C613.8 518.136 616.176 515.112 620.784 512.592L618.336 507.912ZM636.336 507.912C629.136 511.656 625.536 517.2 625.536 524.616C625.536 530.736 627.912 534.336 632.52 534.336C635.832 534.336 638.28 532.032 638.28 528.288C638.28 524.832 635.616 522.744 632.52 522.744C632.232 522.744 632.016 522.744 631.728 522.816C631.8 518.136 634.176 515.112 638.784 512.592L636.336 507.912ZM693.846 537.576H703.35V503.88H693.846V513.6H681.75V521.16H693.846V537.576ZM687.51 529.512C677.142 526.344 672.606 518.64 672.606 510.792V506.04H663.03V510.792C663.03 519.216 658.422 527.352 647.406 530.664L652.302 538.08C659.862 535.704 665.046 530.808 667.998 524.616C670.806 530.16 675.702 534.552 682.686 536.784L687.51 529.512ZM669.078 562.056V558.168H703.35V540.384H659.646V547.656H693.99V551.328H659.718V569.472H705.222V562.056H669.078ZM748.96 521.376H742.552C742.912 518.28 743.128 515.112 743.128 511.728H717.352V519.288H733.696C732.472 532.248 726.712 541.824 713.608 549.816L719.008 556.44C731.392 549.096 738.016 539.88 740.968 528.936H748.96V537.936H739.744V545.568H748.96V567.312H757.816V505.32H748.96V521.376ZM762.568 503.808V570.192H771.568V503.808H762.568ZM815.883 554.928V541.104H834.819V533.472H797.739V516.048H834.315V508.416H788.163V541.104H806.379V554.928H781.179V562.704H841.227V554.928H815.883ZM850.765 579.336C859.405 576.456 864.373 570.048 864.373 561.624C864.373 555.072 861.637 551.184 856.741 551.184C852.997 551.184 849.901 553.632 849.901 557.448C849.901 561.48 853.069 563.712 856.525 563.712C856.741 563.712 856.957 563.712 857.173 563.712C857.173 567.888 854.077 571.488 848.533 573.576L850.765 579.336ZM923.044 554.928V541.104H941.98V533.472H904.9V516.048H941.476V508.416H895.324V541.104H913.54V554.928H888.34V562.704H948.388V554.928H923.044ZM979.67 534.12H967.07V516.624H979.67V534.12ZM1000.91 521.88V528.576H988.958V521.88H1000.91ZM988.958 536.136H1000.91V552.192H1010.41V503.88H1000.91V514.32H988.958V509.208H957.71V541.608H988.958V536.136ZM976.142 561.48V547.656H966.638V569.04H1011.85V561.48H976.142ZM1041.27 579.336C1049.91 576.456 1054.88 570.048 1054.88 561.624C1054.88 555.072 1052.15 551.184 1047.25 551.184C1043.51 551.184 1040.41 553.632 1040.41 557.448C1040.41 561.48 1043.58 563.712 1047.03 563.712C1047.25 563.712 1047.47 563.712 1047.68 563.712C1047.68 567.888 1044.59 571.488 1039.04 573.576L1041.27 579.336ZM1121.98 517.848C1121.98 526.848 1121.98 536.28 1119.6 548.952L1129.03 549.816C1131.48 536.208 1131.48 527.136 1131.48 517.848V510H1085.04V517.56H1121.98V517.848ZM1078.85 553.776V561.552H1138.82V553.776H1078.85ZM1158.73 535.128H1180.26V509.496H1148.94V517.056H1170.54V527.64H1149.01V554.928H1154.99C1167.01 554.928 1176.73 554.496 1187.53 552.624L1186.52 544.92C1177.16 546.504 1168.81 547.008 1158.73 547.08V535.128ZM1191.13 503.808V570.336H1200.63V503.808H1191.13ZM1265.76 534.48H1228.6V517.056H1265.25V509.352H1219.1V542.04H1265.76V534.48ZM1212.12 554.496V562.272H1272.16V554.496H1212.12ZM1283.65 533.472C1290.92 529.8 1294.52 524.256 1294.52 516.84C1294.52 510.648 1292.07 507.048 1287.53 507.048C1284.15 507.048 1281.77 509.424 1281.77 513.096C1281.77 516.552 1284.44 518.64 1287.53 518.64C1287.75 518.64 1288.04 518.64 1288.25 518.568C1288.18 523.32 1285.88 526.272 1281.27 528.864L1283.65 533.472ZM1301.65 533.472C1308.92 529.8 1312.52 524.256 1312.52 516.84C1312.52 510.648 1310.07 507.048 1305.53 507.048C1302.15 507.048 1299.77 509.424 1299.77 513.096C1299.77 516.552 1302.44 518.64 1305.53 518.64C1305.75 518.64 1306.04 518.64 1306.25 518.568C1306.18 523.32 1303.88 526.272 1299.27 528.864L1301.65 533.472Z" fill="white"/>
<path d="M111.72 89.56C115.56 89.56 118.72 88.04 121.16 85.2L118.04 81.52C116.44 83.24 114.48 84.44 111.92 84.44C107.24 84.44 104.2 80.56 104.2 74.12C104.2 67.76 107.56 63.92 112.04 63.92C114.28 63.92 116 64.96 117.52 66.4L120.6 62.64C118.68 60.64 115.68 58.84 111.92 58.84C104.44 58.84 98.16 64.56 98.16 74.32C98.16 84.2 104.24 89.56 111.72 89.56ZM135.209 89.56C140.809 89.56 145.969 85.24 145.969 77.8C145.969 70.36 140.809 66.04 135.209 66.04C129.609 66.04 124.449 70.36 124.449 77.8C124.449 85.24 129.609 89.56 135.209 89.56ZM135.209 84.76C132.169 84.76 130.449 82.04 130.449 77.8C130.449 73.6 132.169 70.84 135.209 70.84C138.249 70.84 139.969 73.6 139.969 77.8C139.969 82.04 138.249 84.76 135.209 84.76ZM151.288 89H157.168V73.6C158.808 71.96 159.968 71.08 161.808 71.08C164.008 71.08 164.968 72.28 164.968 75.76V89H170.848V75.04C170.848 69.4 168.768 66.04 163.928 66.04C160.888 66.04 158.608 67.64 156.648 69.56H156.528L156.088 66.6H151.288V89ZM186.833 89.56C189.313 89.56 192.033 88.72 194.193 86.84L191.833 82.96C190.593 84 189.073 84.76 187.473 84.76C184.273 84.76 181.913 82.04 181.913 77.8C181.913 73.6 184.233 70.84 187.673 70.84C188.913 70.84 189.953 71.36 191.073 72.32L193.873 68.52C192.233 67.12 190.113 66.04 187.353 66.04C181.273 66.04 175.913 70.36 175.913 77.8C175.913 85.24 180.633 89.56 186.833 89.56ZM207.356 89.56C210.116 89.56 212.956 88.6 215.156 87.08L213.156 83.48C211.556 84.48 209.956 85.04 208.116 85.04C204.796 85.04 202.396 83.12 201.916 79.44H215.716C215.876 78.92 215.996 77.84 215.996 76.72C215.996 70.56 212.796 66.04 206.636 66.04C201.316 66.04 196.196 70.56 196.196 77.8C196.196 85.2 201.076 89.56 207.356 89.56ZM201.836 75.52C202.276 72.28 204.356 70.6 206.716 70.6C209.596 70.6 210.956 72.52 210.956 75.52H201.836ZM221.238 97.6H227.118V90.8L226.918 87.12C228.638 88.68 230.518 89.56 232.478 89.56C237.398 89.56 241.998 85.12 241.998 77.44C241.998 70.56 238.718 66.04 233.198 66.04C230.798 66.04 228.478 67.32 226.598 68.92H226.478L226.038 66.6H221.238V97.6ZM231.158 84.72C229.958 84.72 228.518 84.28 227.118 83.04V73.2C228.638 71.64 229.998 70.88 231.518 70.88C234.598 70.88 235.958 73.24 235.958 77.52C235.958 82.4 233.878 84.72 231.158 84.72ZM254.447 89.56C256.407 89.56 257.967 89.12 259.167 88.72L258.207 84.44C257.607 84.68 256.727 84.92 256.007 84.92C254.007 84.92 252.967 83.72 252.967 81.16V71.24H258.487V66.6H252.967V60.56H248.087L247.407 66.6L243.927 66.88V71.24H247.087V81.16C247.087 86.16 249.127 89.56 254.447 89.56Z" fill="white"/>
<path d="M637.73 427.578V430.308H645.686C645.582 431.452 645.4 432.492 645.166 433.48L636.508 433.974L636.95 436.86L644.074 436.21C642.67 438.862 640.2 441.072 636.3 443.022L638.12 445.726C647.09 441.228 649.092 434.962 649.092 427.578H637.73ZM652.602 425.264V449.21H656.06V425.264H652.602ZM668.106 428.878C669.796 428.878 670.94 429.736 670.94 431.192C670.94 432.674 669.796 433.506 668.106 433.506C666.416 433.506 665.22 432.674 665.22 431.192C665.22 429.736 666.416 428.878 668.106 428.878ZM668.106 436.106C671.616 436.106 674.164 434.104 674.164 431.192C674.164 428.306 671.616 426.278 668.106 426.278C664.57 426.278 662.022 428.306 662.022 431.192C662.022 434.104 664.57 436.106 668.106 436.106ZM675.75 436.73C670.654 437.432 664.804 437.458 660.358 437.458L660.748 440.24C662.412 440.24 664.284 440.24 666.234 440.162V448.534H669.666V439.98C671.746 439.824 673.852 439.616 675.958 439.226L675.75 436.73ZM677.284 425.29V441.384H672.474V443.984H677.284V449.21H680.716V425.29H677.284ZM704.124 436.34H690.708V430.048H703.942V427.266H687.276V439.07H704.124V436.34ZM684.754 443.568V446.376H706.438V443.568H684.754Z" fill="white"/>
<path opacity="0.7" d="M722.24 684.192H717.968V674.376H722.24V684.192ZM729.416 669.96V677.568H725.36V671.904H714.848V686.688H725.36V680.112H729.416V692.112H732.584V669.96H729.416ZM754.87 669.984H751.678V686.088H754.87V669.984ZM750.046 680.232C746.446 679.08 744.91 676.248 744.91 673.32V671.184H741.694V673.32C741.694 676.272 740.11 679.368 736.438 680.616L738.046 683.136C740.614 682.248 742.342 680.448 743.35 678.216C744.31 680.28 745.99 681.912 748.438 682.752L750.046 680.232ZM743.326 689.16V684.552H740.158V691.68H755.422V689.16H743.326ZM762.876 680.112H769.668V671.832H759.708V674.352H766.524V677.64H759.756V687H761.58C765.252 687 768.18 686.88 771.468 686.352L771.18 683.784C768.396 684.24 765.876 684.384 762.876 684.408V680.112ZM774.3 669.936V677.904H770.844V680.472H774.3V692.112H777.492V669.936H774.3ZM799.754 669.96H796.586V682.752H799.754V669.96ZM794.882 678C791.786 678.624 788.81 678.888 785.858 678.96V671.352H782.714V681.552H784.634C788.114 681.552 791.594 681.336 795.218 680.568L794.882 678ZM792.29 689.544C789.458 689.544 787.898 688.92 787.898 687.576C787.898 686.208 789.458 685.584 792.29 685.584C795.146 685.584 796.706 686.208 796.706 687.576C796.706 688.92 795.146 689.544 792.29 689.544ZM792.29 683.064C787.682 683.064 784.754 684.768 784.754 687.576C784.754 690.384 787.682 692.064 792.29 692.064C796.922 692.064 799.85 690.384 799.85 687.576C799.85 684.768 796.922 683.064 792.29 683.064ZM818.086 671.664H814.894V674.856C814.894 679.056 813.214 683.352 809.47 685.08L811.438 687.624C813.91 686.376 815.566 684.072 816.526 681.24C817.438 683.904 819.046 686.064 821.47 687.24L823.342 684.72C819.694 683.088 818.086 679.032 818.086 674.856V671.664ZM825.166 669.936V676.872H820.918V679.416H825.166V692.112H828.334V669.936H825.166ZM847.404 669.936V692.112H850.572V669.936H847.404ZM833.34 671.712V686.952H844.236V671.712H841.092V677.064H836.484V671.712H833.34ZM836.484 679.536H841.092V684.432H836.484V679.536ZM874.058 680.352C869.066 679.512 866.33 676.08 866.33 672.84V671.256H862.946V672.84C862.946 676.008 860.186 679.512 855.218 680.352L856.562 683.016C860.402 682.272 863.21 680.112 864.626 677.304C866.042 680.112 868.874 682.248 872.714 683.016L874.058 680.352ZM854.738 686.808V689.376H874.754V686.808H854.738ZM903.046 680.64H900.142C900.694 677.544 900.694 675.288 900.694 673.224V671.232H885.358V673.776H897.598C897.598 675.672 897.55 677.832 896.998 680.64H883.078V683.184H891.334V692.064H894.55V683.184H903.046V680.64ZM907.308 680.04C911.364 679.752 914.124 678.6 915.516 676.848C916.884 678.6 919.62 679.752 923.676 680.04L924.612 677.688C919.812 677.376 917.676 675.96 917.316 674.424H923.58V671.976H917.076V669.984H913.908V671.976H907.428V674.424H913.692C913.332 675.96 911.172 677.376 906.372 677.688L907.308 680.04ZM925.5 683.352V680.832H905.532V683.352H913.908V685.248H907.74V687.744H919.932V692.04H923.1V685.248H917.076V683.352H925.5ZM932.594 694.848L934.802 693.912C932.786 690.408 931.874 686.376 931.874 682.416C931.874 678.504 932.786 674.448 934.802 670.944L932.594 670.008C930.338 673.704 929.018 677.64 929.018 682.416C929.018 687.24 930.338 691.128 932.594 694.848ZM944.488 674.736H947.704V672.168H937.864V674.736H941.416V675.816C941.416 679.608 940.264 683.568 937.048 685.608L938.92 687.936C940.912 686.688 942.208 684.528 942.976 682.008C943.696 684.336 944.968 686.232 946.912 687.408L948.76 685.104C945.568 683.232 944.488 679.512 944.488 675.816V674.736ZM948.976 677.496H946.168V680.064H948.976V691.056H951.928V670.32H948.976V677.496ZM953.44 669.936V692.04H956.44V669.936H953.44ZM972.199 676.416H967.663V673.08H972.199V676.416ZM964.519 676.416H961.855V678.936H977.983V676.416H975.343V673.08H978.151V670.56H961.711V673.08H964.519V676.416ZM974.431 689.328H965.383V687.096H974.431V689.328ZM979.927 682.824V680.304H959.959V682.824H968.359V684.624H962.287V691.8H977.551V684.624H971.527V682.824H979.927ZM984.837 694.848C987.117 691.128 988.437 687.24 988.437 682.416C988.437 677.64 987.117 673.704 984.837 670.008L982.653 670.944C984.669 674.448 985.581 678.504 985.581 682.416C985.581 686.376 984.669 690.408 982.653 693.912L984.837 694.848ZM1001.89 672.6C1005.11 672.6 1006.62 673.056 1006.62 674.04C1006.62 675.072 1005.11 675.504 1001.89 675.504C998.699 675.504 997.187 675.072 997.187 674.04C997.187 673.056 998.699 672.6 1001.89 672.6ZM1001.89 677.808C1006.96 677.808 1009.91 676.488 1009.91 674.04C1009.91 671.616 1006.96 670.272 1001.89 670.272C996.851 670.272 993.899 671.616 993.899 674.04C993.899 676.488 996.851 677.808 1001.89 677.808ZM997.355 688.272H1009.45V682.584H994.187V684.912H1006.33V686.088H994.211V691.896H1010.03V689.52H997.355V688.272ZM991.907 678.864V681.336H1011.88V678.864H991.907ZM1027.4 673.416C1029.03 673.416 1030.16 674.184 1030.16 675.576C1030.16 676.92 1029.03 677.688 1027.4 677.688C1025.79 677.688 1024.64 676.92 1024.64 675.576C1024.64 674.184 1025.79 673.416 1027.4 673.416ZM1027.4 680.28C1030.73 680.28 1033.18 678.312 1033.18 675.576C1033.18 672.792 1030.73 670.848 1027.4 670.848C1024.06 670.848 1021.59 672.792 1021.59 675.576C1021.59 678.312 1024.06 680.28 1027.4 680.28ZM1034.31 680.832C1029.63 681.528 1024.16 681.576 1020.29 681.576L1020.65 684.168C1022.21 684.168 1024.01 684.144 1025.91 684.072V691.392H1029.08V683.88C1030.88 683.712 1032.73 683.496 1034.5 683.136L1034.31 680.832ZM1035.56 669.96V692.04H1038.73V669.96H1035.56ZM1055.73 672.288H1050.79V669.936H1047.6V672.288H1042.7V674.76H1055.71L1055.73 672.288ZM1046.8 679.8C1046.8 678.6 1047.79 677.952 1049.2 677.952C1050.6 677.952 1051.6 678.6 1051.6 679.8C1051.6 681.024 1050.6 681.672 1049.2 681.672C1047.79 681.672 1046.8 681.024 1046.8 679.8ZM1054.63 679.8C1054.63 677.304 1052.37 675.552 1049.2 675.552C1046.04 675.552 1043.78 677.304 1043.78 679.8C1043.78 682.344 1046.04 684.072 1049.2 684.072C1052.37 684.072 1054.63 682.344 1054.63 679.8ZM1049.01 685.272H1045.84V691.68H1060.89V689.16H1049.01V685.272ZM1060.1 676.704V669.96H1056.93V686.496H1060.1V679.32H1063.03V676.704H1060.1ZM1083.26 675.744H1078.72V672.912H1083.26V675.744ZM1075.58 675.744H1072.91V678.096H1089.04V675.744H1086.4V672.912H1089.21V670.56H1072.77V672.912H1075.58V675.744ZM1076.46 688.416H1088.56V682.944H1073.3V685.224H1085.44V686.304H1073.32V691.896H1089.14V689.616H1076.46V688.416ZM1071.02 679.224V681.72H1090.98V679.224H1071.02ZM1107.56 677.832H1109.33V684.816H1112.33V669.96H1109.33V675.312H1107.56V670.344H1104.61V682.992H1107.56V677.832ZM1103.55 679.8C1101.56 680.184 1099.78 680.304 1097.43 680.352V678.264H1102.73V671.496H1094.36V673.968H1099.69V675.96H1094.38V682.848H1095.92C1099.21 682.848 1101.34 682.776 1103.84 682.272L1103.55 679.8ZM1106.31 683.88H1103.14V684.264C1103.14 686.544 1100.86 688.944 1096.11 689.544L1097.33 691.992C1100.84 691.488 1103.36 690.024 1104.73 687.984C1106.05 690.024 1108.59 691.488 1112.09 691.992L1113.34 689.544C1108.57 688.944 1106.31 686.544 1106.31 684.264V683.88ZM1121.4 687.096H1130.44V689.328H1121.4V687.096ZM1118.3 691.8H1133.56V684.6H1118.3V691.8ZM1123.68 673.08H1128.21V676.416H1123.68V673.08ZM1127.52 680.664V678.936H1133.97V676.416H1131.36V673.08H1134.16V670.56H1117.72V673.08H1120.53V676.416H1117.87V678.936H1124.35V680.664H1115.97V683.16H1135.94V680.664H1127.52ZM1143.03 694.848L1145.24 693.912C1143.23 690.408 1142.31 686.376 1142.31 682.416C1142.31 678.504 1143.23 674.448 1145.24 670.944L1143.03 670.008C1140.78 673.704 1139.46 677.64 1139.46 682.416C1139.46 687.24 1140.78 691.128 1143.03 694.848ZM1159.49 686.976V682.368H1165.8V679.824H1153.44V674.016H1165.63V671.472H1150.25V682.368H1156.32V686.976H1147.92V689.568H1167.94V686.976H1159.49ZM1178.63 680.04H1174.43V674.208H1178.63V680.04ZM1185.71 675.96V678.192H1181.73V675.96H1185.71ZM1181.73 680.712H1185.71V686.064H1188.88V669.96H1185.71V673.44H1181.73V671.736H1171.31V682.536H1181.73V680.712ZM1177.46 689.16V684.552H1174.29V691.68H1189.36V689.16H1177.46ZM1195.28 694.848C1197.56 691.128 1198.88 687.24 1198.88 682.416C1198.88 677.64 1197.56 673.704 1195.28 670.008L1193.09 670.944C1195.11 674.448 1196.02 678.504 1196.02 682.416C1196.02 686.376 1195.11 690.408 1193.09 693.912L1195.28 694.848ZM727.256 716.448C723.68 715.296 722.192 712.512 722.192 709.704V707.304H718.976V709.68C718.976 712.704 717.416 715.656 713.696 716.856L715.376 719.328C717.896 718.488 719.648 716.76 720.632 714.552C721.592 716.544 723.224 718.128 725.624 718.92L727.256 716.448ZM720.368 720.6H717.2V727.68H732.2V725.16H720.368V720.6ZM731.432 712.368V705.96H728.264V722.136H731.432V714.984H734.36V712.368H731.432ZM751.846 725.28H743.494V723.312H751.846V725.28ZM751.846 720.912H743.494V718.8H740.35V727.8H754.99V718.8H751.846V720.912ZM742.606 714.792C740.998 714.792 739.822 713.808 739.822 712.152C739.822 710.496 740.998 709.512 742.606 709.512C744.238 709.512 745.414 710.496 745.414 712.152C745.414 713.808 744.238 714.792 742.606 714.792ZM751.822 705.96V710.832H748.294C747.67 708.48 745.414 706.872 742.606 706.872C739.294 706.872 736.798 709.08 736.798 712.152C736.798 715.224 739.294 717.432 742.606 717.432C745.462 717.432 747.718 715.8 748.318 713.4H751.822V717.84H754.99V705.96H751.822ZM776.394 722.976V718.368H782.706V715.824H770.346V710.016H782.538V707.472H767.154V718.368H773.226V722.976H764.826V725.568H784.842V722.976H776.394ZM793.712 720.072H790.88V710.712H793.712V720.072ZM798.776 713.976H796.64V708.216H787.928V722.544H796.64V716.544H798.776V727.056H801.728V706.296H798.776V713.976ZM803.264 705.936V728.04H806.264V705.936H803.264ZM828.142 705.984H824.95V721.848H828.142V705.984ZM813.19 712.992C813.19 711.168 814.486 710.112 816.118 710.112C817.774 710.112 819.022 711.168 819.022 712.992C819.022 714.768 817.774 715.848 816.118 715.848C814.486 715.848 813.19 714.768 813.19 712.992ZM822.118 712.992C822.118 709.728 819.502 707.376 816.118 707.376C812.734 707.376 810.094 709.728 810.094 712.992C810.094 716.208 812.734 718.584 816.118 718.584C819.502 718.584 822.118 716.208 822.118 712.992ZM816.598 725.16V720.288H813.43V727.68H828.694V725.16H816.598ZM842.244 708.6C845.46 708.6 846.972 709.056 846.972 710.04C846.972 711.072 845.46 711.504 842.244 711.504C839.052 711.504 837.54 711.072 837.54 710.04C837.54 709.056 839.052 708.6 842.244 708.6ZM842.244 713.808C847.308 713.808 850.26 712.488 850.26 710.04C850.26 707.616 847.308 706.272 842.244 706.272C837.204 706.272 834.252 707.616 834.252 710.04C834.252 712.488 837.204 713.808 842.244 713.808ZM837.708 724.272H849.804V718.584H834.54V720.912H846.684V722.088H834.564V727.896H850.38V725.52H837.708V724.272ZM832.26 714.864V717.336H852.228V714.864H832.26ZM877.784 720.552C878.672 715.848 878.672 712.728 878.672 709.968V707.856H862.616V710.376H875.504C875.504 712.944 875.456 716.016 874.616 720.192L877.784 720.552ZM870.824 722.856V715.248H867.656V722.856H860.6V725.4H880.592V722.856H870.824ZM886.942 716.352H893.638V707.808H883.774V710.328H890.518V713.856H883.822V723.192H885.598C888.91 723.192 891.718 723.12 894.982 722.616L894.742 720.024C891.982 720.432 889.606 720.552 886.942 720.576V716.352ZM898.366 705.936V710.64H894.742V713.184H898.366V716.64H894.694V719.184H898.366V728.112H901.558V705.936H898.366ZM918.564 708.288H913.62V705.936H910.428V708.288H905.532V710.76H918.54L918.564 708.288ZM909.636 715.8C909.636 714.6 910.62 713.952 912.036 713.952C913.428 713.952 914.436 714.6 914.436 715.8C914.436 717.024 913.428 717.672 912.036 717.672C910.62 717.672 909.636 717.024 909.636 715.8ZM917.46 715.8C917.46 713.304 915.204 711.552 912.036 711.552C908.868 711.552 906.612 713.304 906.612 715.8C906.612 718.344 908.868 720.072 912.036 720.072C915.204 720.072 917.46 718.344 917.46 715.8ZM911.844 721.272H908.676V727.68H923.724V725.16H911.844V721.272ZM922.932 712.704V705.96H919.764V722.496H922.932V715.32H925.86V712.704H922.932ZM948.224 710.616C948.224 713.616 948.224 716.76 947.432 720.984L950.576 721.272C951.392 716.736 951.392 713.712 951.392 710.616V708H935.912V710.52H948.224V710.616ZM933.848 722.592V725.184H953.84V722.592H933.848ZM960.742 716.376H967.918V707.832H957.478V710.352H964.678V713.88H957.502V722.976H959.494C963.502 722.976 966.742 722.832 970.342 722.208L970.006 719.64C966.886 720.168 964.102 720.336 960.742 720.36V716.376ZM971.542 705.936V728.112H974.71V705.936H971.542ZM996.684 716.16H984.3V710.352H996.516V707.784H981.132V718.68H996.684V716.16ZM978.804 722.832V725.424H998.82V722.832H978.804ZM1026.44 716.352C1021.45 715.512 1018.71 712.08 1018.71 708.84V707.256H1015.33V708.84C1015.33 712.008 1012.57 715.512 1007.6 716.352L1008.94 719.016C1012.78 718.272 1015.59 716.112 1017.01 713.304C1018.42 716.112 1021.26 718.248 1025.1 719.016L1026.44 716.352ZM1007.12 722.808V725.376H1027.14V722.808H1007.12ZM1033.63 716.424H1040.54V713.952H1033.63V710.352H1040.85V707.784H1030.46V723.072H1032.33C1036.13 723.072 1039.1 722.976 1042.46 722.472L1042.17 719.952C1039.29 720.384 1036.75 720.504 1033.63 720.528V716.424ZM1050.12 714.336H1046.9V705.96H1043.73V728.088H1046.9V716.952H1050.12V714.336ZM1070.44 705.96H1067.24V717.024H1070.44V705.96ZM1055.46 711.648C1055.46 710.088 1056.68 709.152 1058.32 709.152C1059.95 709.152 1061.12 710.088 1061.12 711.648C1061.12 713.232 1059.95 714.144 1058.32 714.144C1056.68 714.144 1055.46 713.232 1055.46 711.648ZM1064.2 711.648C1064.2 708.72 1061.68 706.608 1058.32 706.608C1054.93 706.608 1052.39 708.72 1052.39 711.648C1052.39 714.6 1054.93 716.712 1058.32 716.712C1061.68 716.712 1064.2 714.6 1064.2 711.648ZM1058.87 725.352V723.96H1070.44V717.936H1055.7V720.36H1067.29V721.704H1055.72V727.8H1070.99V725.352H1058.87ZM1081.66 707.424C1078.2 707.424 1075.59 709.704 1075.59 712.872C1075.59 716.064 1078.2 718.32 1081.66 718.32C1085.11 718.32 1087.75 716.064 1087.75 712.872C1087.75 709.704 1085.11 707.424 1081.66 707.424ZM1081.66 710.136C1083.36 710.136 1084.66 711.144 1084.66 712.872C1084.66 714.6 1083.36 715.608 1081.66 715.608C1079.95 715.608 1078.66 714.6 1078.66 712.872C1078.66 711.144 1079.95 710.136 1081.66 710.136ZM1089.82 705.936V728.112H1092.99V705.936H1089.82ZM1075.06 723.624C1078.87 723.624 1084.06 723.576 1088.81 722.616L1088.62 720.336C1083.96 721.032 1078.54 721.056 1074.65 721.056L1075.06 723.624ZM1107.36 710.496H1114.87V707.928H1104.19V722.856H1106.13C1110.84 722.856 1113.65 722.76 1116.65 722.184L1116.36 719.568C1113.69 720.072 1111.22 720.192 1107.36 720.216V710.496ZM1118.01 705.96V728.136H1121.18V705.96H1118.01ZM1133.46 710.688H1137.85V708.072H1125.71V710.688H1130.29V711.912C1130.29 715.56 1128.49 719.712 1124.87 721.392L1126.64 723.912C1129.16 722.712 1130.94 720.288 1131.92 717.408C1132.91 720.024 1134.64 722.232 1137.08 723.36L1138.84 720.864C1135.21 719.184 1133.46 715.272 1133.46 711.912V710.688ZM1145.87 714.384H1142.65V705.96H1139.48V728.064H1142.65V717H1145.87V714.384ZM1166.19 705.984H1162.99V721.848H1166.19V705.984ZM1151.23 712.992C1151.23 711.168 1152.53 710.112 1154.16 710.112C1155.82 710.112 1157.07 711.168 1157.07 712.992C1157.07 714.768 1155.82 715.848 1154.16 715.848C1152.53 715.848 1151.23 714.768 1151.23 712.992ZM1160.16 712.992C1160.16 709.728 1157.55 707.376 1154.16 707.376C1150.78 707.376 1148.14 709.728 1148.14 712.992C1148.14 716.208 1150.78 718.584 1154.16 718.584C1157.55 718.584 1160.16 716.208 1160.16 712.992ZM1154.64 725.16V720.288H1151.47V727.68H1166.74V725.16H1154.64Z" fill="#D9DBE0"/>
<rect x="615.5" y="413.5" width="112" height="46" rx="23" stroke="white"/>
</g>
<defs>
<linearGradient id="paint0_linear_164_1099" x1="-45" y1="-35" x2="1036.5" y2="1053.5" gradientUnits="userSpaceOnUse">
<stop stop-color="#202044"/>
<stop offset="1" stop-color="#010101"/>
</linearGradient>
<clipPath id="clip0_164_1099">
<rect width="1920" height="1080" fill="white"/>
</clipPath>
</defs>
</svg>
